<?xml version="1.0" encoding="UTF-8" ?>
<!DOCTYPE svg PUBLIC "-//W3C//DTD SVG 1.1//EN" "http://www.w3.org/Graphics/SVG/1.1/DTD/svg11.dtd">
<svg width="342pt" height="342pt" viewBox="0 0 342 342" version="1.1" xmlns="http://www.w3.org/2000/svg">
<path fill="#a97c50" opacity="1.00" d=" M 101.92 14.74 C 103.37 18.25 105.35 21.53 106.59 25.13 C 115.75 48.43 124.93 71.73 134.15 95.01 C 134.95 97.31 132.87 97.84 131.10 98.22 C 129.98 97.40 129.75 95.92 129.22 94.73 C 121.84 73.22 114.40 51.72 106.99 30.22 C 105.26 25.07 103.28 20.00 101.92 14.74 Z" />
<path fill="#f7941e" opacity="1.00" d=" M 149.33 95.20 C 154.68 89.04 163.44 88.08 171.10 88.32 C 175.12 88.35 178.49 90.76 182.27 91.72 C 185.14 91.35 187.92 89.85 190.87 90.48 C 201.16 91.92 209.81 99.06 215.31 107.58 C 220.83 115.84 223.69 126.62 220.28 136.26 C 216.26 147.32 209.13 157.95 198.41 163.43 C 192.46 166.50 185.46 165.03 179.29 167.28 C 175.99 168.47 172.59 169.87 169.00 169.43 C 164.58 168.87 160.14 169.74 156.06 171.44 C 155.19 171.46 153.45 171.50 152.58 171.52 C 151.15 171.26 149.73 170.92 148.32 170.59 C 147.97 174.08 148.34 178.08 145.92 180.94 C 144.21 183.07 141.26 182.91 138.81 183.17 C 141.06 186.74 143.22 191.45 140.29 195.30 C 144.25 197.34 144.87 201.94 143.63 205.85 C 148.35 207.68 151.24 211.87 154.57 215.40 C 157.47 218.58 162.17 218.21 165.67 220.29 C 167.76 221.78 167.38 224.62 167.71 226.84 C 169.56 226.58 171.41 226.34 173.26 226.09 C 174.17 228.46 175.07 230.82 175.96 233.19 C 177.62 233.46 179.28 233.74 180.94 234.01 C 179.41 230.34 177.99 226.62 176.93 222.78 C 177.23 223.47 177.82 224.86 178.11 225.56 C 182.91 225.03 188.48 222.96 192.34 227.05 C 194.00 225.14 196.34 224.17 198.85 224.86 C 200.62 215.97 206.84 209.03 212.09 201.97 C 217.25 194.73 222.68 186.75 231.35 183.45 C 235.71 182.00 241.59 181.27 244.96 185.10 C 247.52 188.67 245.93 193.33 244.70 197.12 C 248.07 195.05 251.83 193.14 255.91 193.47 C 259.58 193.38 263.22 196.33 263.48 200.08 C 264.03 205.67 261.06 210.74 258.29 215.35 C 251.35 227.14 240.38 236.05 228.30 242.21 C 220.39 246.52 211.68 248.96 203.41 252.42 C 199.34 256.07 195.96 261.33 190.31 262.51 C 190.83 263.60 191.34 264.69 191.84 265.80 C 189.99 265.01 188.14 264.24 186.29 263.47 C 186.14 263.41 185.86 263.29 185.71 263.23 C 180.54 263.95 175.34 265.79 170.09 264.64 C 165.54 263.76 162.22 260.17 157.91 258.68 C 155.26 258.13 152.58 259.21 149.91 258.92 C 146.74 258.12 144.27 255.70 141.13 254.81 C 135.13 253.08 128.51 253.97 122.81 251.15 C 119.62 249.53 118.10 246.07 117.52 242.72 C 113.83 241.86 110.37 240.07 107.82 237.23 C 104.61 233.74 100.44 230.46 99.74 225.46 C 99.21 222.31 98.03 219.35 97.09 216.33 C 95.24 215.55 93.11 214.89 92.11 212.99 C 88.85 207.61 88.98 201.07 87.38 195.15 C 86.09 191.12 84.75 187.09 82.77 183.34 C 81.03 180.17 84.47 176.68 82.54 173.57 C 81.14 169.76 77.80 166.35 78.55 162.03 C 79.19 159.35 81.54 157.52 82.43 154.97 C 83.81 148.64 85.12 142.10 88.45 136.45 C 90.73 133.67 88.13 129.86 89.88 126.90 C 91.28 123.61 95.28 122.97 97.19 120.12 C 102.42 114.20 110.20 109.32 118.36 110.17 C 118.28 103.34 125.31 99.60 131.10 98.22 C 132.87 97.84 134.95 97.31 134.15 95.01 C 134.32 95.53 134.65 96.58 134.82 97.11 C 139.62 96.21 144.45 95.50 149.33 95.20 M 231.53 186.46 C 224.13 189.73 219.45 196.66 214.91 203.02 C 209.62 210.21 203.17 217.16 201.37 226.21 C 201.85 225.53 202.80 224.17 203.28 223.48 C 204.37 224.85 205.45 226.24 206.63 227.53 C 212.03 218.53 218.71 210.39 225.54 202.46 C 230.38 196.84 235.82 191.65 239.74 185.30 C 236.96 185.15 234.08 185.18 231.53 186.46 M 222.97 209.98 C 217.87 216.08 213.10 222.46 208.92 229.22 C 210.14 230.93 210.45 233.01 210.78 235.03 C 222.54 226.68 231.32 214.89 238.72 202.68 C 241.38 197.71 244.94 192.05 242.82 186.23 C 237.00 194.80 229.45 201.95 222.97 209.98 M 240.87 204.90 C 232.57 217.91 223.06 230.70 209.88 239.13 C 224.89 233.66 238.23 223.50 247.33 210.32 C 250.32 205.90 253.66 201.46 254.75 196.12 C 249.20 197.07 244.10 200.30 240.87 204.90 M 246.31 216.38 C 236.95 228.45 223.79 237.14 209.59 242.48 C 208.71 244.32 207.79 246.13 206.81 247.92 C 214.77 245.16 222.72 242.25 230.02 238.00 C 243.07 230.84 254.30 219.69 259.90 205.76 C 261.40 202.41 261.11 198.14 257.59 196.19 C 255.88 203.87 251.02 210.27 246.31 216.38 Z" />
<path fill="#a97c50" opacity="1.00" d=" M 152.58 171.52 C 153.45 171.50 155.19 171.46 156.06 171.44 L 157.39 171.39 C 163.84 188.54 170.64 205.57 176.93 222.78 C 177.99 226.62 179.41 230.34 180.94 234.01 C 179.28 233.74 177.62 233.46 175.96 233.19 C 175.07 230.82 174.17 228.46 173.26 226.09 C 166.43 207.88 159.23 189.80 152.58 171.52 Z" />
<path fill="#a97c50" opacity="1.00" d=" M 186.29 263.47 C 188.14 264.24 189.99 265.01 191.84 265.80 C 198.90 284.43 206.08 303.03 213.20 321.64 C 213.87 323.34 214.13 325.15 214.57 326.92 C 212.90 326.47 211.23 326.03 209.57 325.57 C 202.20 305.97 194.65 286.43 187.20 266.86 C 186.97 266.01 186.52 264.32 186.29 263.47 Z" />
</svg>
