<?xml version="1.0" encoding="UTF-8" ?>
<!DOCTYPE svg PUBLIC "-//W3C//DTD SVG 1.1//EN" "http://www.w3.org/Graphics/SVG/1.1/DTD/svg11.dtd">
<svg width="342pt" height="342pt" viewBox="0 0 342 342" version="1.1" xmlns="http://www.w3.org/2000/svg">
<path fill="#939598" opacity="1.00" d=" M 86.40 53.59 C 90.10 45.30 100.88 41.61 109.01 45.43 C 124.42 53.29 139.90 61.04 155.27 68.98 C 154.21 69.57 153.18 70.19 152.17 70.86 C 137.63 63.34 122.99 56.03 108.42 48.56 C 103.61 45.99 97.31 46.55 93.12 50.07 C 89.37 52.98 87.97 57.69 85.79 61.71 C 81.22 70.40 76.92 79.24 72.48 88.00 C 71.67 87.93 70.06 87.79 69.25 87.72 C 74.76 76.24 80.72 64.98 86.40 53.59 Z" />
<path fill="#ffffff" opacity="1.00" d=" M 93.12 50.07 C 97.31 46.55 103.61 45.99 108.42 48.56 C 122.99 56.03 137.63 63.34 152.17 70.86 C 146.70 74.70 142.84 80.28 138.50 85.26 C 134.44 85.19 130.60 86.69 126.68 87.48 C 115.08 90.08 103.59 93.13 91.94 95.50 C 85.71 92.44 79.44 89.02 72.48 88.00 C 76.92 79.24 81.22 70.40 85.79 61.71 C 87.97 57.69 89.37 52.98 93.12 50.07 Z" />
<path fill="#ed217c" opacity="1.00" d=" M 173.26 62.25 C 176.28 60.81 179.62 59.83 183.00 60.31 C 186.44 61.10 189.37 63.72 190.59 67.02 C 193.15 74.04 192.91 81.63 194.36 88.88 C 194.52 89.33 194.83 90.24 194.99 90.69 C 199.04 100.48 207.92 108.15 209.21 119.07 C 209.82 125.24 205.22 130.50 199.72 132.60 L 199.26 132.67 C 188.67 133.78 179.10 128.52 169.24 125.68 C 165.08 124.29 160.64 125.23 156.64 126.66 C 155.62 127.20 153.70 127.30 153.73 128.82 C 156.05 133.98 160.04 138.20 164.57 141.51 C 170.82 146.13 178.27 149.65 182.45 156.52 C 188.89 166.39 195.79 177.10 196.22 189.23 C 188.36 188.60 181.02 192.12 174.25 195.64 C 165.90 200.54 156.33 202.41 146.95 204.20 C 142.01 196.25 145.08 186.20 141.38 177.77 C 137.35 168.51 137.85 158.30 136.03 148.56 C 135.45 146.01 134.35 143.62 133.11 141.33 C 128.89 142.08 124.87 143.63 120.62 144.19 C 120.20 147.50 120.53 150.87 121.52 154.06 C 123.17 159.59 125.42 164.92 127.01 170.47 C 128.46 176.56 128.05 182.98 130.19 188.92 C 132.16 194.64 135.25 200.30 134.65 206.54 C 133.46 206.92 132.28 207.27 131.09 207.61 C 124.48 209.18 117.80 210.81 110.97 210.73 C 101.71 210.31 91.93 209.60 83.40 213.96 C 79.31 204.05 80.52 192.96 81.65 182.58 C 82.37 178.06 82.85 173.32 85.16 169.27 C 87.12 165.76 89.22 162.33 91.28 158.88 C 94.52 153.32 97.01 146.99 96.49 140.44 C 92.01 140.48 87.30 141.05 83.39 143.40 C 75.13 149.35 69.40 158.59 59.90 162.86 C 54.47 165.33 47.36 163.90 43.79 158.99 C 41.20 155.45 40.92 150.89 40.93 146.66 C 40.94 145.90 40.96 144.39 40.97 143.63 C 41.93 137.47 43.03 131.28 43.27 125.05 C 42.19 115.82 36.29 107.40 37.27 97.87 C 38.16 92.39 43.69 89.17 48.95 89.34 C 55.76 89.52 62.45 87.95 69.25 87.72 C 70.06 87.79 71.67 87.93 72.48 88.00 C 79.44 89.02 85.71 92.44 91.94 95.50 C 97.49 98.32 102.48 102.10 107.97 104.99 C 109.93 104.09 111.14 101.96 113.26 101.24 C 117.94 99.62 123.25 98.83 127.91 100.99 C 131.63 95.87 134.79 90.38 138.50 85.26 C 142.84 80.28 146.70 74.70 152.17 70.86 C 153.18 70.19 154.21 69.57 155.27 68.98 C 161.08 66.23 167.48 65.06 173.26 62.25 Z" />
<path fill="#f6aecd" opacity="1.00" d=" M 126.68 87.48 C 130.60 86.69 134.44 85.19 138.50 85.26 C 134.79 90.38 131.63 95.87 127.91 100.99 C 123.25 98.83 117.94 99.62 113.26 101.24 C 111.14 101.96 109.93 104.09 107.97 104.99 C 102.48 102.10 97.49 98.32 91.94 95.50 C 103.59 93.13 115.08 90.08 126.68 87.48 Z" />
<path fill="#939598" opacity="1.00" d=" M 194.36 88.88 C 229.99 106.71 265.41 124.97 301.00 142.90 C 305.15 145.45 310.22 146.71 313.46 150.57 C 318.43 155.83 319.29 164.31 315.73 170.57 C 295.59 210.45 275.39 250.30 255.23 290.18 C 252.15 296.00 245.46 299.57 238.91 299.00 C 233.78 298.84 229.61 295.54 225.09 293.54 C 161.07 261.06 97.07 228.53 33.06 196.03 C 25.35 192.02 21.84 181.78 25.57 173.91 C 30.59 163.76 35.69 153.64 40.97 143.63 C 40.96 144.39 40.94 145.90 40.93 146.66 C 37.83 152.08 35.34 157.83 32.39 163.33 C 30.76 166.54 28.86 169.65 27.70 173.07 L 28.80 173.65 C 25.31 180.51 27.51 189.84 34.64 193.36 C 100.94 227.09 167.30 260.71 233.60 294.44 C 240.16 298.09 249.07 295.24 252.51 288.64 C 255.11 283.52 257.70 278.39 260.33 273.29 C 260.71 273.48 261.47 273.85 261.85 274.04 C 266.44 264.75 271.35 255.61 275.82 246.27 C 275.44 246.05 274.68 245.62 274.30 245.41 C 287.54 219.86 300.27 194.04 313.40 168.43 C 316.46 162.54 314.60 154.63 309.17 150.79 C 305.69 148.42 301.75 146.84 298.04 144.89 C 282.62 137.02 267.14 129.28 251.77 121.33 C 252.02 121.03 252.53 120.43 252.79 120.13 C 233.66 110.05 214.26 100.48 194.99 90.69 C 194.83 90.24 194.52 89.33 194.36 88.88 Z" />
<path fill="#f6aecd" opacity="1.00" d=" M 194.99 90.69 C 214.26 100.48 233.66 110.05 252.79 120.13 C 252.53 120.43 252.02 121.03 251.77 121.33 C 235.28 124.54 219.07 129.09 202.63 132.53 C 201.90 132.55 200.45 132.58 199.72 132.60 C 205.22 130.50 209.82 125.24 209.21 119.07 C 207.92 108.15 199.04 100.48 194.99 90.69 Z" />
<path fill="#ffffff" opacity="1.00" d=" M 202.63 132.53 C 219.07 129.09 235.28 124.54 251.77 121.33 C 267.14 129.28 282.62 137.02 298.04 144.89 C 301.75 146.84 305.69 148.42 309.17 150.79 C 314.60 154.63 316.46 162.54 313.40 168.43 C 300.27 194.04 287.54 219.86 274.30 245.41 C 247.45 231.63 220.49 218.05 193.59 204.37 C 187.78 201.18 181.63 198.64 175.95 195.23 C 175.52 195.33 174.67 195.53 174.25 195.64 C 181.02 192.12 188.36 188.60 196.22 189.23 C 195.79 177.10 188.89 166.39 182.45 156.52 C 178.27 149.65 170.82 146.13 164.57 141.51 C 173.74 139.56 182.83 137.24 191.97 135.16 C 194.46 134.54 197.11 134.18 199.26 132.67 L 199.72 132.60 C 200.45 132.58 201.90 132.55 202.63 132.53 Z" />
<path fill="#f6aecd" opacity="1.00" d=" M 156.64 126.66 C 160.64 125.23 165.08 124.29 169.24 125.68 C 179.10 128.52 188.67 133.78 199.26 132.67 C 197.11 134.18 194.46 134.54 191.97 135.16 C 182.83 137.24 173.74 139.56 164.57 141.51 C 160.04 138.20 156.05 133.98 153.73 128.82 C 153.70 127.30 155.62 127.20 156.64 126.66 Z" />
<path fill="#f6aecd" opacity="1.00" d=" M 83.39 143.40 C 87.30 141.05 92.01 140.48 96.49 140.44 C 97.01 146.99 94.52 153.32 91.28 158.88 C 78.71 161.80 66.17 164.87 53.57 167.68 L 53.52 168.30 C 51.65 168.19 49.80 168.53 48.01 169.01 C 41.63 170.66 35.17 171.99 28.80 173.65 L 27.70 173.07 C 28.86 169.65 30.76 166.54 32.39 163.33 C 35.34 157.83 37.83 152.08 40.93 146.66 C 40.92 150.89 41.20 155.45 43.79 158.99 C 47.36 163.90 54.47 165.33 59.90 162.86 C 69.40 158.59 75.13 149.35 83.39 143.40 Z" />
<path fill="#f6aecd" opacity="1.00" d=" M 120.62 144.19 C 124.87 143.63 128.89 142.08 133.11 141.33 C 134.35 143.62 135.45 146.01 136.03 148.56 C 131.15 149.35 126.34 150.54 121.56 151.77 C 121.55 152.34 121.53 153.49 121.52 154.06 C 120.53 150.87 120.20 147.50 120.62 144.19 Z" />
<path fill="#ffffff" opacity="1.00" d=" M 121.56 151.77 C 126.34 150.54 131.15 149.35 136.03 148.56 C 137.85 158.30 137.35 168.51 141.38 177.77 C 136.54 175.44 131.73 173.05 127.01 170.47 C 125.42 164.92 123.17 159.59 121.52 154.06 C 121.53 153.49 121.55 152.34 121.56 151.77 Z" />
<path fill="#231f20" opacity="1.00" d=" M 53.57 167.68 C 66.17 164.87 78.71 161.80 91.28 158.88 C 89.22 162.33 87.12 165.76 85.16 169.27 C 82.85 173.32 82.37 178.06 81.65 182.58 C 72.27 177.82 62.88 173.08 53.52 168.30 L 53.57 167.68 Z" />
<path fill="#ffffff" opacity="1.00" d=" M 48.01 169.01 C 49.80 168.53 51.65 168.19 53.52 168.30 C 62.88 173.08 72.27 177.82 81.65 182.58 C 80.52 192.96 79.31 204.05 83.40 213.96 C 91.93 209.60 101.71 210.31 110.97 210.73 C 117.80 210.81 124.48 209.18 131.09 207.61 C 174.11 229.62 217.22 251.45 260.33 273.29 C 257.70 278.39 255.11 283.52 252.51 288.64 C 249.07 295.24 240.16 298.09 233.60 294.44 C 167.30 260.71 100.94 227.09 34.64 193.36 C 27.51 189.84 25.31 180.51 28.80 173.65 C 35.17 171.99 41.63 170.66 48.01 169.01 Z" />
<path fill="#231f20" opacity="1.00" d=" M 127.01 170.47 C 131.73 173.05 136.54 175.44 141.38 177.77 C 145.08 186.20 142.01 196.25 146.95 204.20 C 156.33 202.41 165.90 200.54 174.25 195.64 C 174.67 195.53 175.52 195.33 175.95 195.23 C 181.63 198.64 187.78 201.18 193.59 204.37 C 220.49 218.05 247.45 231.63 274.30 245.41 C 274.68 245.62 275.44 246.05 275.82 246.27 C 271.35 255.61 266.44 264.75 261.85 274.04 C 261.47 273.85 260.71 273.48 260.33 273.29 C 217.22 251.45 174.11 229.62 131.09 207.61 C 132.28 207.27 133.46 206.92 134.65 206.54 C 135.25 200.30 132.16 194.64 130.19 188.92 C 128.05 182.98 128.46 176.56 127.01 170.47 Z" />
</svg>
