<?xml version="1.0" encoding="UTF-8" ?>
<!DOCTYPE svg PUBLIC "-//W3C//DTD SVG 1.1//EN" "http://www.w3.org/Graphics/SVG/1.1/DTD/svg11.dtd">
<svg width="342pt" height="342pt" viewBox="0 0 342 342" version="1.1" xmlns="http://www.w3.org/2000/svg">
<path fill="#fbd9b7" opacity="1.00" d=" M 152.68 118.35 C 153.85 115.66 155.73 112.73 158.92 112.34 C 163.78 111.75 168.39 113.93 173.15 114.52 C 179.57 115.87 186.72 116.89 191.58 121.71 C 192.07 122.23 193.07 123.26 193.57 123.77 C 194.28 131.48 190.41 138.75 185.03 143.99 C 182.95 146.00 179.83 145.10 177.34 144.58 C 169.68 142.47 162.26 139.57 154.65 137.32 C 152.11 136.42 148.53 135.22 148.48 131.98 C 148.83 127.91 150.43 124.08 151.84 120.29 C 152.05 119.80 152.47 118.83 152.68 118.35 Z" />
<path fill="#f7941e" opacity="1.00" d=" M 104.04 118.09 C 120.20 116.14 136.51 117.07 152.68 118.35 C 152.47 118.83 152.05 119.80 151.84 120.29 C 142.78 118.73 133.58 118.59 124.44 119.29 C 121.64 119.09 118.83 118.77 116.02 118.89 C 98.55 120.05 81.30 123.86 64.87 129.86 C 59.56 132.04 53.37 135.02 51.72 141.04 C 50.82 144.15 53.53 146.71 56.03 148.02 C 62.23 151.23 69.31 152.01 76.16 152.67 C 88.96 153.71 101.74 154.99 114.55 155.93 C 115.51 157.01 116.45 158.10 117.39 159.19 C 103.52 158.34 89.73 156.50 75.93 154.94 C 69.86 154.29 63.86 153.10 58.02 151.33 C 55.25 153.64 52.02 156.15 51.57 160.00 C 51.36 163.38 54.59 165.50 57.26 166.82 C 65.03 170.34 73.73 170.58 82.08 171.38 C 98.43 172.67 114.73 174.53 131.11 175.33 C 133.49 177.03 136.72 178.99 139.13 176.19 C 164.45 177.43 189.88 179.11 215.21 177.13 C 215.47 177.63 215.98 178.63 216.24 179.12 C 204.19 180.35 192.06 180.44 179.95 180.45 C 150.20 180.64 120.51 178.23 90.96 174.91 C 79.30 173.40 67.41 172.78 56.19 168.96 C 54.29 171.38 51.67 173.72 51.52 177.01 C 51.65 180.05 54.44 181.96 56.91 183.17 C 62.28 185.70 68.23 186.61 74.09 187.18 C 118.28 190.99 162.57 195.67 206.99 194.21 C 212.51 194.07 218.02 193.73 223.50 192.97 C 224.53 193.65 225.60 194.28 226.67 194.91 C 177.46 199.63 127.90 195.96 78.96 190.00 C 71.21 189.00 63.16 188.40 56.03 184.91 C 52.94 183.38 49.71 180.78 49.69 177.01 C 49.38 173.28 52.00 170.34 54.00 167.51 C 52.83 166.29 51.65 165.10 50.57 163.81 C 47.90 158.70 51.55 153.25 55.45 150.02 C 53.03 148.27 49.96 146.41 49.74 143.09 C 49.12 138.17 52.59 133.95 56.36 131.29 C 63.36 126.52 71.71 124.39 79.87 122.53 C 87.90 120.93 95.88 118.99 104.04 118.09 Z" />
<path fill="#fcb040" opacity="1.00" d=" M 64.87 129.86 C 81.30 123.86 98.55 120.05 116.02 118.89 C 118.83 118.77 121.64 119.09 124.44 119.29 C 117.45 120.40 110.26 121.07 103.67 123.81 C 100.70 125.11 97.50 127.03 96.51 130.34 C 95.87 132.75 95.93 136.03 98.40 137.41 C 103.34 139.91 109.30 138.37 114.30 140.74 C 116.04 141.67 117.68 143.08 118.28 145.02 C 116.98 148.65 114.55 151.91 114.55 155.93 C 101.74 154.99 88.96 153.71 76.16 152.67 C 69.31 152.01 62.23 151.23 56.03 148.02 C 53.53 146.71 50.82 144.15 51.72 141.04 C 53.37 135.02 59.56 132.04 64.87 129.86 Z" />
<path fill="#c49a6c" opacity="1.00" d=" M 124.44 119.29 C 133.58 118.59 142.78 118.73 151.84 120.29 C 150.43 124.08 148.83 127.91 148.48 131.98 C 148.53 135.22 152.11 136.42 154.65 137.32 C 162.26 139.57 169.68 142.47 177.34 144.58 C 179.83 145.10 182.95 146.00 185.03 143.99 C 190.41 138.75 194.28 131.48 193.57 123.77 C 204.82 120.76 216.18 124.78 227.38 126.08 C 233.12 128.02 239.27 129.93 243.57 134.44 C 245.72 136.62 246.39 140.10 244.96 142.86 C 242.59 147.92 237.07 150.12 232.25 152.18 C 233.30 154.00 234.35 155.82 235.33 157.69 L 235.98 158.94 C 237.53 164.21 238.27 169.69 240.06 174.89 C 240.27 175.39 240.67 176.40 240.88 176.90 C 243.60 182.78 249.17 186.61 254.88 189.26 C 256.47 189.68 258.08 190.05 259.71 190.28 C 260.98 192.10 263.68 193.87 262.60 196.41 C 260.67 200.26 256.39 202.86 252.06 202.73 C 242.96 203.03 234.32 199.55 226.67 194.91 C 225.60 194.28 224.53 193.65 223.50 192.97 C 221.54 191.49 219.35 190.01 218.32 187.70 C 217.24 184.95 216.97 181.97 216.24 179.12 C 215.98 178.63 215.47 177.63 215.21 177.13 C 213.01 174.74 208.87 172.93 209.37 169.10 C 210.11 166.10 212.28 163.71 213.77 161.06 C 214.09 160.57 214.72 159.57 215.04 159.07 C 211.96 157.44 208.79 155.34 205.14 155.55 C 199.35 155.79 193.76 157.58 187.99 158.03 C 177.20 159.13 166.24 155.86 155.59 158.66 C 153.36 159.16 151.29 160.15 149.29 161.24 C 143.79 164.47 141.56 170.65 139.13 176.19 C 136.72 178.99 133.49 177.03 131.11 175.33 C 128.29 171.93 128.25 167.34 126.52 163.46 C 124.68 160.31 120.65 159.84 117.39 159.19 C 116.45 158.10 115.51 157.01 114.55 155.93 C 114.55 151.91 116.98 148.65 118.28 145.02 C 117.68 143.08 116.04 141.67 114.30 140.74 C 109.30 138.37 103.34 139.91 98.40 137.41 C 95.93 136.03 95.87 132.75 96.51 130.34 C 97.50 127.03 100.70 125.11 103.67 123.81 C 110.26 121.07 117.45 120.40 124.44 119.29 Z" />
<path fill="#f7941e" opacity="1.00" d=" M 191.58 121.71 C 221.99 123.41 252.51 123.73 282.83 126.88 C 283.31 129.34 286.10 129.27 287.91 130.25 C 290.59 131.24 293.23 133.94 292.03 137.02 C 290.31 141.26 286.23 143.86 282.81 146.64 C 286.13 147.74 290.36 148.51 292.01 152.01 C 293.23 156.38 289.16 159.62 286.25 162.14 C 285.71 162.58 285.18 163.01 284.64 163.45 C 287.35 164.88 291.16 165.72 292.16 169.04 C 292.80 172.04 290.56 174.61 288.60 176.59 C 280.76 184.13 270.18 188.03 259.71 190.28 C 258.08 190.05 256.47 189.68 254.88 189.26 C 258.79 187.87 262.81 186.84 266.85 185.88 C 273.92 184.19 280.68 180.93 286.13 176.09 C 288.23 174.13 290.44 171.45 289.77 168.36 C 288.06 166.55 285.60 165.16 283.05 165.30 C 281.11 165.73 279.38 166.74 277.61 167.59 C 266.26 173.50 253.36 175.07 240.88 176.90 C 240.67 176.40 240.27 175.39 240.06 174.89 C 249.47 173.40 258.82 171.55 268.01 169.08 C 275.39 167.06 282.61 163.49 287.81 157.77 C 289.32 156.04 290.95 153.02 288.94 151.07 C 285.88 148.50 281.26 147.52 277.63 149.51 C 264.68 155.74 250.16 157.75 235.98 158.94 L 235.33 157.69 C 244.55 155.77 253.89 154.51 263.02 152.16 C 271.45 150.35 279.79 147.12 286.26 141.27 C 288.16 139.47 290.25 137.08 289.80 134.27 C 288.97 131.58 285.79 131.08 283.41 130.60 C 276.85 129.72 270.54 127.29 263.86 127.28 C 251.70 126.90 239.55 125.24 227.38 126.08 C 216.18 124.78 204.82 120.76 193.57 123.77 C 193.07 123.26 192.07 122.23 191.58 121.71 Z" />
<path fill="#fcb040" opacity="1.00" d=" M 227.38 126.08 C 239.55 125.24 251.70 126.90 263.86 127.28 C 270.54 127.29 276.85 129.72 283.41 130.60 C 285.79 131.08 288.97 131.58 289.80 134.27 C 290.25 137.08 288.16 139.47 286.26 141.27 C 279.79 147.12 271.45 150.35 263.02 152.16 C 253.89 154.51 244.55 155.77 235.33 157.69 C 234.35 155.82 233.30 154.00 232.25 152.18 C 237.07 150.12 242.59 147.92 244.96 142.86 C 246.39 140.10 245.72 136.62 243.57 134.44 C 239.27 129.93 233.12 128.02 227.38 126.08 Z" />
<path fill="#fcb040" opacity="1.00" d=" M 277.63 149.51 C 281.26 147.52 285.88 148.50 288.94 151.07 C 290.95 153.02 289.32 156.04 287.81 157.77 C 282.61 163.49 275.39 167.06 268.01 169.08 C 258.82 171.55 249.47 173.40 240.06 174.89 C 238.27 169.69 237.53 164.21 235.98 158.94 C 250.16 157.75 264.68 155.74 277.63 149.51 Z" />
<path fill="#fcb040" opacity="1.00" d=" M 58.02 151.33 C 63.86 153.10 69.86 154.29 75.93 154.94 C 89.73 156.50 103.52 158.34 117.39 159.19 C 120.65 159.84 124.68 160.31 126.52 163.46 C 128.25 167.34 128.29 171.93 131.11 175.33 C 114.73 174.53 98.43 172.67 82.08 171.38 C 73.73 170.58 65.03 170.34 57.26 166.82 C 54.59 165.50 51.36 163.38 51.57 160.00 C 52.02 156.15 55.25 153.64 58.02 151.33 Z" />
<path fill="#fcb040" opacity="1.00" d=" M 187.99 158.03 C 193.76 157.58 199.35 155.79 205.14 155.55 C 208.79 155.34 211.96 157.44 215.04 159.07 C 195.24 160.21 175.37 160.01 155.59 158.66 C 166.24 155.86 177.20 159.13 187.99 158.03 Z" />
<path fill="#f7941e" opacity="1.00" d=" M 149.29 161.24 C 151.29 160.15 153.36 159.16 155.59 158.66 C 175.37 160.01 195.24 160.21 215.04 159.07 C 214.72 159.57 214.09 160.57 213.77 161.06 C 202.57 162.38 191.24 162.16 179.98 162.23 C 169.75 162.18 159.47 162.51 149.29 161.24 Z" />
<path fill="#fcb040" opacity="1.00" d=" M 139.13 176.19 C 141.56 170.65 143.79 164.47 149.29 161.24 C 159.47 162.51 169.75 162.18 179.98 162.23 C 191.24 162.16 202.57 162.38 213.77 161.06 C 212.28 163.71 210.11 166.10 209.37 169.10 C 208.87 172.93 213.01 174.74 215.21 177.13 C 189.88 179.11 164.45 177.43 139.13 176.19 Z" />
<path fill="#848588" opacity="1.00" d=" M 284.64 163.45 C 285.18 163.01 285.71 162.58 286.25 162.14 C 296.62 165.49 307.14 169.33 315.77 176.18 C 320.22 179.70 324.14 185.16 322.91 191.13 C 321.52 197.67 315.76 201.98 310.42 205.36 C 299.97 211.60 288.25 215.28 276.56 218.38 C 245.01 226.33 212.40 229.07 179.95 229.74 C 153.60 230.05 127.19 228.87 101.07 225.24 C 84.17 222.86 67.32 219.59 51.11 214.13 C 41.97 210.88 32.71 207.16 25.27 200.76 C 21.61 197.57 18.46 193.04 18.91 187.96 C 19.30 182.86 22.95 178.73 26.82 175.70 C 33.88 170.25 42.23 166.82 50.57 163.81 C 51.65 165.10 52.83 166.29 54.00 167.51 C 52.00 170.34 49.38 173.28 49.69 177.01 C 49.71 180.78 52.94 183.38 56.03 184.91 C 63.16 188.40 71.21 189.00 78.96 190.00 C 127.90 195.96 177.46 199.63 226.67 194.91 C 234.32 199.55 242.96 203.03 252.06 202.73 C 256.39 202.86 260.67 200.26 262.60 196.41 C 263.68 193.87 260.98 192.10 259.71 190.28 C 270.18 188.03 280.76 184.13 288.60 176.59 C 290.56 174.61 292.80 172.04 292.16 169.04 C 291.16 165.72 287.35 164.88 284.64 163.45 Z" />
<path fill="#fcb040" opacity="1.00" d=" M 277.61 167.59 C 279.38 166.74 281.11 165.73 283.05 165.30 C 285.60 165.16 288.06 166.55 289.77 168.36 C 290.44 171.45 288.23 174.13 286.13 176.09 C 280.68 180.93 273.92 184.19 266.85 185.88 C 262.81 186.84 258.79 187.87 254.88 189.26 C 249.17 186.61 243.60 182.78 240.88 176.90 C 253.36 175.07 266.26 173.50 277.61 167.59 Z" />
<path fill="#fcb040" opacity="1.00" d=" M 56.19 168.96 C 67.41 172.78 79.30 173.40 90.96 174.91 C 120.51 178.23 150.20 180.64 179.95 180.45 C 192.06 180.44 204.19 180.35 216.24 179.12 C 216.97 181.97 217.24 184.95 218.32 187.70 C 219.35 190.01 221.54 191.49 223.50 192.97 C 218.02 193.73 212.51 194.07 206.99 194.21 C 162.57 195.67 118.28 190.99 74.09 187.18 C 68.23 186.61 62.28 185.70 56.91 183.17 C 54.44 181.96 51.65 180.05 51.52 177.01 C 51.67 173.72 54.29 171.38 56.19 168.96 Z" />
</svg>
