<?xml version="1.0" encoding="UTF-8" ?>
<!DOCTYPE svg PUBLIC "-//W3C//DTD SVG 1.1//EN" "http://www.w3.org/Graphics/SVG/1.1/DTD/svg11.dtd">
<svg width="342pt" height="342pt" viewBox="0 0 342 342" version="1.1" xmlns="http://www.w3.org/2000/svg">
<path fill="#0c0c0c" opacity="0.05" d=" M 76.82 36.75 C 93.76 24.67 113.11 15.98 133.39 11.39 C 134.47 14.00 135.34 16.70 135.95 19.46 C 129.03 19.20 122.62 22.08 116.22 24.27 C 108.65 26.97 101.54 30.77 94.42 34.46 C 82.45 40.78 72.06 49.56 61.85 58.35 C 60.12 56.85 58.57 55.16 57.17 53.36 C 62.85 46.88 69.87 41.77 76.82 36.75 Z" />
<path fill="#0e0e0d" opacity="0.06" d=" M 216.10 13.07 C 240.51 19.56 263.18 32.16 281.91 49.05 C 284.26 51.46 288.34 53.16 288.76 56.82 C 287.35 59.69 284.85 61.80 282.45 63.83 C 276.07 58.42 270.15 52.45 263.30 47.60 C 248.11 36.51 231.00 27.88 212.81 22.98 C 213.30 19.51 214.31 16.11 216.10 13.07 Z" />
<path fill="#1a1817" opacity="0.11" d=" M 116.22 24.27 C 122.62 22.08 129.03 19.20 135.95 19.46 C 136.82 23.11 137.86 26.73 138.70 30.39 C 136.17 30.50 133.63 30.59 131.17 31.22 C 108.21 37.83 86.85 50.04 69.79 66.80 C 67.04 64.08 64.47 61.19 61.85 58.35 C 72.06 49.56 82.45 40.78 94.42 34.46 C 101.54 30.77 108.65 26.97 116.22 24.27 Z" />
<path fill="#1d1a19" opacity="0.12" d=" M 212.81 22.98 C 231.00 27.88 248.11 36.51 263.30 47.60 C 270.15 52.45 276.07 58.42 282.45 63.83 C 280.23 66.37 277.96 68.87 275.43 71.10 C 258.32 51.91 234.92 39.33 210.54 31.92 C 211.14 28.90 211.93 25.93 212.81 22.98 Z" />
<path fill="#2b2523" opacity="0.18" d=" M 131.17 31.22 C 133.63 30.59 136.17 30.50 138.70 30.39 C 139.77 34.78 141.12 39.10 142.07 43.52 C 123.49 47.71 105.84 56.06 90.84 67.80 C 86.91 70.62 83.29 73.88 80.30 77.70 C 76.74 74.12 73.38 70.35 69.79 66.80 C 86.85 50.04 108.21 37.83 131.17 31.22 Z" />
<path fill="#292422" opacity="0.17" d=" M 208.20 40.71 C 208.89 37.76 209.67 34.83 210.54 31.92 C 234.92 39.33 258.32 51.91 275.43 71.10 C 273.54 73.20 271.63 75.28 269.59 77.23 C 259.92 66.65 247.97 58.44 235.57 51.38 C 226.84 46.95 217.75 43.02 208.20 40.71 Z" />
<path fill="#382e2b" opacity="0.24" d=" M 208.20 40.71 C 217.75 43.02 226.84 46.95 235.57 51.38 C 247.97 58.44 259.92 66.65 269.59 77.23 C 266.41 80.25 263.62 83.64 260.46 86.69 C 254.36 78.67 245.98 72.81 237.66 67.31 C 227.42 61.23 216.56 56.00 205.00 52.98 C 206.03 48.88 207.16 44.81 208.20 40.71 Z" />
<path fill="#3e322e" opacity="0.26" d=" M 90.84 67.80 C 105.84 56.06 123.49 47.71 142.07 43.52 C 143.12 47.76 144.28 51.96 145.38 56.19 L 145.25 56.22 C 137.03 58.73 128.66 60.98 120.96 64.87 C 109.40 70.56 98.24 77.56 89.44 87.08 C 86.34 84.00 83.52 80.66 80.30 77.70 C 83.29 73.88 86.91 70.62 90.84 67.80 Z" />
<path fill="#493834" opacity="0.32" d=" M 205.00 52.98 C 216.56 56.00 227.42 61.23 237.66 67.31 C 245.98 72.81 254.36 78.67 260.46 86.69 C 256.60 90.31 253.29 94.47 249.35 98.01 C 236.71 83.59 219.55 73.35 201.04 68.55 C 202.24 63.33 203.84 58.21 205.00 52.98 Z" />
<path fill="#4d3a35" opacity="0.34" d=" M 120.96 64.87 C 128.66 60.98 137.03 58.73 145.25 56.22 C 146.33 59.99 147.31 63.78 148.22 67.59 C 129.18 71.98 110.99 81.07 97.30 95.19 C 94.71 92.46 92.18 89.67 89.44 87.08 C 98.24 77.56 109.40 70.56 120.96 64.87 Z" />
<path fill="#fff200" opacity="1.00" d=" M 157.92 106.26 C 163.32 89.83 168.55 73.34 174.01 56.93 C 179.64 74.30 185.26 91.67 190.95 109.03 C 191.79 111.92 192.80 114.77 193.73 117.64 C 195.93 124.52 198.20 131.37 200.42 138.24 C 203.75 138.24 207.09 138.25 210.43 138.25 C 235.46 138.32 260.48 138.12 285.51 138.35 L 284.55 139.02 C 283.63 139.64 282.74 140.28 281.85 140.93 C 277.40 144.15 272.98 147.40 268.53 150.62 C 263.82 153.99 259.18 157.46 254.47 160.84 C 247.77 165.66 241.13 170.58 234.45 175.44 C 229.62 178.87 224.87 182.41 220.06 185.87 C 218.92 186.69 217.79 187.52 216.67 188.35 C 220.57 200.26 224.38 212.20 228.30 224.11 C 230.43 230.60 232.50 237.12 234.63 243.62 C 235.62 246.72 236.63 249.81 237.64 252.91 C 239.19 257.68 240.74 262.45 242.28 267.22 C 242.44 267.77 242.76 268.88 242.92 269.43 C 242.16 268.90 241.41 268.36 240.66 267.83 C 239.06 266.68 237.48 265.53 235.90 264.37 C 231.54 261.18 227.12 258.07 222.77 254.86 C 218.54 251.74 214.26 248.71 210.03 245.59 C 203.31 240.66 196.51 235.83 189.79 230.90 C 184.55 227.03 179.26 223.22 173.99 219.39 C 169.35 222.72 164.74 226.10 160.11 229.47 C 155.01 233.22 149.86 236.89 144.75 240.64 C 141.96 242.66 139.15 244.67 136.37 246.71 C 133.72 248.64 131.06 250.56 128.42 252.49 C 126.15 254.13 123.89 255.77 121.64 257.43 C 117.46 260.49 113.24 263.49 109.07 266.55 C 107.71 267.54 106.35 268.52 104.99 269.50 C 105.56 267.62 106.15 265.74 106.76 263.88 C 108.32 259.16 109.80 254.41 111.37 249.69 C 113.80 242.19 116.23 234.69 118.61 227.19 C 122.92 214.26 127.10 201.28 131.27 188.30 C 129.71 187.17 128.16 186.05 126.61 184.93 C 122.13 181.70 117.69 178.41 113.19 175.22 C 106.58 170.42 100.01 165.55 93.38 160.79 C 88.35 157.18 83.40 153.45 78.36 149.85 C 76.53 148.53 74.73 147.17 72.88 145.88 C 69.38 143.35 65.91 140.79 62.42 138.25 C 87.96 138.25 113.50 138.26 139.04 138.25 C 141.85 138.25 144.66 138.26 147.47 138.28 C 148.91 134.14 150.24 129.96 151.57 125.78 C 153.67 119.27 155.88 112.79 157.92 106.26 Z" />
<path fill="#5c413a" opacity="0.41" d=" M 97.30 95.19 C 110.99 81.07 129.18 71.98 148.22 67.59 C 149.41 72.18 150.58 76.77 151.77 81.36 C 142.85 82.69 134.41 86.23 126.53 90.49 C 119.60 94.72 112.45 99.04 107.42 105.57 C 103.96 102.19 100.85 98.48 97.30 95.19 Z" />
<path fill="#5d413a" opacity="0.42" d=" M 201.04 68.55 C 219.55 73.35 236.71 83.59 249.35 98.01 C 245.51 102.13 241.50 106.08 237.66 110.19 C 226.57 98.42 212.33 89.76 196.87 85.06 C 198.10 79.52 199.75 74.08 201.04 68.55 Z" />
<path fill="#6b463d" opacity="0.49" d=" M 126.53 90.49 C 134.41 86.23 142.85 82.69 151.77 81.36 C 152.79 85.54 153.89 89.70 154.91 93.88 C 140.46 97.02 126.67 104.05 116.38 114.77 C 113.28 111.81 110.54 108.51 107.42 105.57 C 112.45 99.04 119.60 94.72 126.53 90.49 Z" />
<path fill="#73473e" opacity="0.53" d=" M 196.87 85.06 C 212.33 89.76 226.57 98.42 237.66 110.19 C 232.71 114.86 228.33 120.07 223.39 124.74 C 214.56 115.93 204.01 108.21 191.65 105.40 C 193.40 98.63 195.12 91.84 196.87 85.06 Z" />
<path fill="#77483e" opacity="0.55" d=" M 116.38 114.77 C 126.67 104.05 140.46 97.02 154.91 93.88 C 155.57 96.57 156.27 99.26 157.03 101.92 C 144.04 104.88 131.26 110.70 122.21 120.72 L 122.13 120.82 C 120.29 118.73 118.39 116.70 116.38 114.77 Z" />
<path fill="#85493e" opacity="0.63" d=" M 122.21 120.72 C 131.26 110.70 144.04 104.88 157.03 101.92 C 157.36 103.36 157.74 104.79 157.92 106.26 C 155.88 112.79 153.67 119.27 151.57 125.78 C 145.90 127.85 140.98 131.38 136.46 135.30 C 131.52 130.64 127.03 125.52 122.21 120.72 Z" />
<path fill="#83493e" opacity="0.62" d=" M 191.65 105.40 C 204.01 108.21 214.56 115.93 223.39 124.74 C 220.87 127.44 218.34 130.14 215.67 132.68 C 209.55 126.20 202.36 120.34 193.73 117.64 C 192.80 114.77 191.79 111.92 190.95 109.03 C 191.12 107.81 191.36 106.60 191.65 105.40 Z" />
<path fill="#8e483e" opacity="0.68" d=" M 193.73 117.64 C 202.36 120.34 209.55 126.20 215.67 132.68 C 213.89 134.52 212.17 136.39 210.43 138.25 C 207.09 138.25 203.75 138.24 200.42 138.24 C 198.20 131.37 195.93 124.52 193.73 117.64 Z" />
<path fill="#94473c" opacity="0.72" d=" M 136.46 135.30 C 140.98 131.38 145.90 127.85 151.57 125.78 C 150.24 129.96 148.91 134.14 147.47 138.28 C 144.66 138.26 141.85 138.25 139.04 138.25 C 138.18 137.26 137.32 136.28 136.46 135.30 Z" />
<path fill="#0c0c0c" opacity="0.05" d=" M 321.48 128.13 C 324.27 127.53 327.07 126.82 329.95 126.81 C 331.01 127.66 331.23 129.10 331.66 130.31 C 335.28 144.24 336.72 158.63 337.35 172.97 C 336.78 186.39 335.08 199.82 331.81 212.87 C 329.13 212.67 326.50 212.09 324.00 211.14 C 327.45 196.70 329.26 181.88 329.07 167.03 C 328.26 156.39 327.04 145.74 324.55 135.34 C 323.96 132.95 322.86 130.74 321.71 128.58 L 321.48 128.13 Z" />
<path fill="#191716" opacity="0.10" d=" M 314.11 130.65 C 316.62 129.88 319.15 129.18 321.71 128.58 C 322.86 130.74 323.96 132.95 324.55 135.34 C 327.04 145.74 328.26 156.39 329.07 167.03 C 329.26 181.88 327.45 196.70 324.00 211.14 C 321.19 210.67 318.40 210.05 315.68 209.20 C 317.92 198.26 320.10 187.21 320.24 176.01 C 320.41 160.72 318.78 145.26 314.11 130.65 Z" />
<path fill="#0c0c0c" opacity="0.05" d=" M 10.37 131.20 C 14.68 131.38 18.94 132.20 23.00 133.67 C 21.88 133.99 20.77 134.32 19.67 134.68 C 16.68 146.54 15.24 158.78 14.65 170.99 C 15.06 185.81 17.02 200.63 20.93 214.96 L 21.10 215.70 C 18.00 216.73 14.80 217.45 11.55 217.76 C 3.63 189.68 2.98 159.45 10.37 131.20 Z" />
<path fill="#24201e" opacity="0.15" d=" M 306.76 132.85 C 309.18 132.04 311.64 131.31 314.11 130.65 C 318.78 145.26 320.41 160.72 320.24 176.01 C 320.10 187.21 317.92 198.26 315.68 209.20 C 312.98 208.68 310.30 208.02 307.68 207.21 C 310.82 195.06 312.26 182.54 311.78 170.00 C 312.30 157.40 309.69 145.02 306.76 132.85 Z" />
<path fill="#312a27" opacity="0.21" d=" M 294.43 136.22 C 298.53 135.08 302.65 133.98 306.76 132.85 C 309.69 145.02 312.30 157.40 311.78 170.00 C 312.26 182.54 310.82 195.06 307.68 207.21 C 303.64 206.27 299.56 205.53 295.58 204.35 C 299.33 193.67 299.88 182.23 300.34 171.03 C 299.75 159.34 298.86 147.38 294.49 136.40 L 294.43 136.22 Z" />
<path fill="#1b1817" opacity="0.11" d=" M 19.67 134.68 C 20.77 134.32 21.88 133.99 23.00 133.67 C 25.54 134.01 27.98 134.80 30.44 135.51 C 27.40 143.19 26.71 151.51 25.64 159.62 C 25.21 170.60 24.93 181.68 26.59 192.58 C 27.56 199.34 28.57 206.19 31.34 212.49 L 31.46 212.79 C 28.01 213.79 24.51 214.62 20.93 214.96 C 17.02 200.63 15.06 185.81 14.65 170.99 C 15.24 158.78 16.68 146.54 19.67 134.68 Z" />
<path fill="#2b2523" opacity="0.18" d=" M 25.64 159.62 C 26.71 151.51 27.40 143.19 30.44 135.51 C 34.69 136.55 38.96 137.53 43.24 138.44 L 43.14 138.96 C 40.53 151.78 37.67 164.89 39.25 178.03 C 39.39 186.25 40.71 194.39 42.45 202.41 C 42.91 204.71 44.15 206.72 45.41 208.65 C 40.76 210.05 36.06 211.31 31.34 212.49 C 28.57 206.19 27.56 199.34 26.59 192.58 C 24.93 181.68 25.21 170.60 25.64 159.62 Z" />
<path fill="#433530" opacity="0.29" d=" M 284.55 139.02 C 287.84 138.07 291.20 137.35 294.49 136.40 C 298.86 147.38 299.75 159.34 300.34 171.03 C 299.88 182.23 299.33 193.67 295.58 204.35 C 291.38 203.24 287.12 202.39 282.92 201.29 C 283.88 193.54 285.78 185.88 285.70 178.03 C 285.61 169.80 286.18 161.47 284.55 153.35 C 283.75 149.19 282.77 145.06 281.85 140.93 C 282.74 140.28 283.63 139.64 284.55 139.02 Z" />
<path fill="#3d312e" opacity="0.26" d=" M 43.14 138.96 C 47.52 139.46 51.78 140.64 56.03 141.75 C 53.38 154.63 51.07 167.85 52.61 181.03 C 53.26 189.23 54.88 197.31 57.00 205.25 C 53.17 206.46 49.25 207.43 45.41 208.65 C 44.15 206.72 42.91 204.71 42.45 202.41 C 40.71 194.39 39.39 186.25 39.25 178.03 C 37.67 164.89 40.53 151.78 43.14 138.96 Z" />
<path fill="#543e38" opacity="0.37" d=" M 268.53 150.62 C 272.98 147.40 277.40 144.15 281.85 140.93 C 282.77 145.06 283.75 149.19 284.55 153.35 C 286.18 161.47 285.61 169.80 285.70 178.03 C 285.78 185.88 283.88 193.54 282.92 201.29 C 277.98 199.87 272.88 199.08 267.97 197.59 L 267.88 196.96 C 269.09 191.24 269.90 185.44 270.69 179.66 C 272.24 169.94 270.12 160.18 268.53 150.62 Z" />
<path fill="#4c3a35" opacity="0.33" d=" M 56.03 141.75 C 59.56 142.60 63.09 143.45 66.63 144.28 L 66.58 144.41 C 60.61 163.13 61.34 183.67 66.97 202.37 C 63.66 203.37 60.32 204.28 57.00 205.25 C 54.88 197.31 53.26 189.23 52.61 181.03 C 51.07 167.85 53.38 154.63 56.03 141.75 Z" />
<path fill="#594039" opacity="0.40" d=" M 66.97 202.37 C 61.34 183.67 60.61 163.13 66.58 144.41 C 68.69 144.84 70.84 145.17 72.88 145.88 C 74.73 147.17 76.53 148.53 78.36 149.85 C 74.54 165.85 75.02 182.85 79.69 198.61 L 79.73 198.75 C 75.48 199.95 71.21 201.11 66.97 202.37 Z" />
<path fill="#6b453d" opacity="0.48" d=" M 78.36 149.85 C 83.40 153.45 88.35 157.18 93.38 160.79 C 91.23 171.94 93.00 183.21 95.07 194.22 C 89.96 195.75 84.84 197.23 79.69 198.61 C 75.02 182.85 74.54 165.85 78.36 149.85 Z" />
<path fill="#65443c" opacity="0.46" d=" M 254.47 160.84 C 259.18 157.46 263.82 153.99 268.53 150.62 C 270.12 160.18 272.24 169.94 270.69 179.66 C 269.90 185.44 269.09 191.24 267.88 196.96 L 267.17 197.19 C 262.14 196.47 257.26 194.92 252.31 193.79 C 255.68 183.17 255.96 171.81 254.47 160.84 Z" />
<path fill="#7d483e" opacity="0.58" d=" M 93.38 160.79 C 100.01 165.55 106.58 170.42 113.19 175.22 C 113.27 179.67 113.85 184.09 114.92 188.41 C 108.32 190.42 101.67 192.23 95.07 194.22 C 93.00 183.21 91.23 171.94 93.38 160.79 Z" />
<path fill="#79483e" opacity="0.56" d=" M 234.45 175.44 C 241.13 170.58 247.77 165.66 254.47 160.84 C 255.96 171.81 255.68 183.17 252.31 193.79 C 245.27 192.13 238.30 190.17 231.18 188.89 C 231.41 188.71 231.85 188.36 232.08 188.19 L 232.72 187.96 C 233.40 183.80 234.16 179.65 234.45 175.44 Z" />
<path fill="#8d483e" opacity="0.68" d=" M 113.19 175.22 C 117.69 178.41 122.13 181.70 126.61 184.93 C 122.73 186.14 118.81 187.24 114.92 188.41 C 113.85 184.09 113.27 179.67 113.19 175.22 Z" />
<path fill="#89483e" opacity="0.65" d=" M 220.06 185.87 C 224.87 182.41 229.62 178.87 234.45 175.44 C 234.16 179.65 233.40 183.80 232.72 187.96 L 232.08 188.19 C 227.94 188.31 224.02 186.82 220.06 185.87 Z" />
<path fill="#67453d" opacity="0.47" d=" M 228.30 224.11 C 232.32 228.64 236.81 232.72 240.84 237.25 C 238.82 239.42 236.75 241.55 234.63 243.62 C 232.50 237.12 230.43 230.60 228.30 224.11 Z" />
<path fill="#65443c" opacity="0.46" d=" M 103.74 242.23 C 108.81 237.32 113.29 231.82 118.61 227.19 C 116.23 234.69 113.80 242.19 111.37 249.69 C 108.75 247.28 106.20 244.79 103.74 242.23 Z" />
<path fill="#7f493e" opacity="0.60" d=" M 144.75 240.64 C 149.86 236.89 155.01 233.22 160.11 229.47 C 158.94 233.97 158.09 238.57 156.63 242.99 L 155.94 243.32 C 152.15 242.66 148.45 241.64 144.75 240.64 Z" />
<path fill="#77483e" opacity="0.55" d=" M 189.79 230.90 C 196.51 235.83 203.31 240.66 210.03 245.59 C 205.04 247.64 200.01 249.62 194.88 251.30 C 193.26 244.48 191.38 237.73 189.79 230.90 Z" />
<path fill="#5c413a" opacity="0.41" d=" M 240.84 237.25 C 243.10 239.41 245.29 241.64 247.41 243.93 C 244.57 247.35 241.30 250.39 237.64 252.91 C 236.63 249.81 235.62 246.72 234.63 243.62 C 236.75 241.55 238.82 239.42 240.84 237.25 Z" />
<path fill="#75473e" opacity="0.54" d=" M 136.37 246.71 C 139.15 244.67 141.96 242.66 144.75 240.64 C 148.45 241.64 152.15 242.66 155.94 243.32 L 156.29 243.76 C 155.96 246.89 154.91 249.89 154.18 252.95 C 148.10 251.32 142.07 249.42 136.37 246.71 Z" />
<path fill="#563e38" opacity="0.38" d=" M 94.18 252.18 C 97.25 248.75 100.62 245.61 103.74 242.23 C 106.20 244.79 108.75 247.28 111.37 249.69 C 109.80 254.41 108.32 259.16 106.76 263.88 C 102.58 259.96 97.88 256.59 94.18 252.18 Z" />
<path fill="#4f3b36" opacity="0.35" d=" M 247.41 243.93 C 250.46 247.06 253.57 250.14 256.53 253.37 C 252.55 258.76 246.77 262.33 242.28 267.22 C 240.74 262.45 239.19 257.68 237.64 252.91 C 241.30 250.39 244.57 247.35 247.41 243.93 Z" />
<path fill="#67453d" opacity="0.47" d=" M 194.88 251.30 C 200.01 249.62 205.04 247.64 210.03 245.59 C 214.26 248.71 218.54 251.74 222.77 254.86 C 215.15 259.37 207.12 263.30 198.50 265.46 C 197.37 260.72 196.06 256.03 194.88 251.30 Z" />
<path fill="#6b463d" opacity="0.49" d=" M 128.42 252.49 C 131.06 250.56 133.72 248.64 136.37 246.71 C 142.07 249.42 148.10 251.32 154.18 252.95 C 153.53 255.71 152.82 258.45 152.13 261.20 C 143.89 259.32 135.92 256.39 128.42 252.49 Z" />
<path fill="#473733" opacity="0.31" d=" M 86.29 260.26 C 88.84 257.49 91.49 254.81 94.18 252.18 C 97.88 256.59 102.58 259.96 106.76 263.88 C 106.15 265.74 105.56 267.62 104.99 269.50 C 106.35 268.52 107.71 267.54 109.07 266.55 C 121.29 272.44 133.30 279.47 146.90 281.67 C 146.07 285.19 145.09 288.67 144.19 292.18 C 130.56 289.28 117.57 283.67 105.82 276.24 C 98.78 271.62 91.59 266.91 86.29 260.26 Z" />
<path fill="#63433c" opacity="0.44" d=" M 121.64 257.43 C 123.89 255.77 126.15 254.13 128.42 252.49 C 135.92 256.39 143.89 259.32 152.13 261.20 C 151.51 263.61 150.87 266.03 150.26 268.46 C 140.14 266.50 130.67 262.29 121.64 257.43 Z" />
<path fill="#413430" opacity="0.28" d=" M 256.53 253.37 C 258.86 255.70 261.18 258.03 263.48 260.41 C 259.99 264.91 255.79 268.80 251.26 272.24 C 238.05 282.97 222.53 290.74 206.15 295.29 C 205.27 292.01 204.39 288.73 203.61 285.43 C 217.06 282.26 229.34 275.59 240.66 267.83 C 241.41 268.36 242.16 268.90 242.92 269.43 C 242.76 268.88 242.44 267.77 242.28 267.22 C 246.77 262.33 252.55 258.76 256.53 253.37 Z" />
<path fill="#573f38" opacity="0.38" d=" M 222.77 254.86 C 227.12 258.07 231.54 261.18 235.90 264.37 C 232.91 265.79 229.97 267.33 227.14 269.04 C 219.37 273.76 210.84 277.15 202.01 279.29 C 200.92 274.66 199.60 270.09 198.50 265.46 C 207.12 263.30 215.15 259.37 222.77 254.86 Z" />
<path fill="#553e38" opacity="0.38" d=" M 109.07 266.55 C 113.24 263.49 117.46 260.49 121.64 257.43 C 130.67 262.29 140.14 266.50 150.26 268.46 C 149.24 272.88 147.95 277.25 146.90 281.67 C 133.30 279.47 121.29 272.44 109.07 266.55 Z" />
<path fill="#3b302d" opacity="0.25" d=" M 79.61 267.01 C 81.87 264.78 84.09 262.53 86.29 260.26 C 91.59 266.91 98.78 271.62 105.82 276.24 C 117.57 283.67 130.56 289.28 144.19 292.18 C 143.46 295.28 142.63 298.35 141.83 301.44 C 127.89 297.83 114.22 292.74 102.02 285.01 C 93.95 279.82 85.99 274.25 79.61 267.01 Z" />
<path fill="#342b29" opacity="0.22" d=" M 263.48 260.41 C 265.71 262.82 267.99 265.20 270.37 267.48 C 258.78 280.00 244.48 289.84 229.11 297.14 C 222.35 299.85 215.63 303.30 208.22 303.68 C 207.52 300.88 206.82 298.09 206.15 295.29 C 222.53 290.74 238.05 282.97 251.26 272.24 C 255.79 268.80 259.99 264.91 263.48 260.41 Z" />
<path fill="#4b3934" opacity="0.33" d=" M 227.14 269.04 C 229.97 267.33 232.91 265.79 235.90 264.37 C 237.48 265.53 239.06 266.68 240.66 267.83 C 229.34 275.59 217.06 282.26 203.61 285.43 C 203.08 283.38 202.54 281.34 202.01 279.29 C 210.84 277.15 219.37 273.76 227.14 269.04 Z" />
<path fill="#2c2624" opacity="0.18" d=" M 70.78 276.13 C 73.82 273.18 76.67 270.05 79.61 267.01 C 85.99 274.25 93.95 279.82 102.02 285.01 C 114.22 292.74 127.89 297.83 141.83 301.44 C 140.91 305.48 139.72 309.47 138.70 313.49 C 120.95 309.76 104.15 301.99 89.17 291.83 C 82.61 287.14 76.10 282.24 70.78 276.13 Z" />
<path fill="#231f1e" opacity="0.15" d=" M 229.11 297.14 C 244.48 289.84 258.78 280.00 270.37 267.48 C 274.23 271.32 277.79 275.44 281.62 279.30 C 263.20 299.22 238.73 312.97 212.75 320.40 C 211.25 314.82 209.55 309.30 208.22 303.68 C 215.63 303.30 222.35 299.85 229.11 297.14 Z" />
<path fill="#1a1817" opacity="0.11" d=" M 61.59 285.92 C 64.65 282.65 67.59 279.27 70.78 276.13 C 76.10 282.24 82.61 287.14 89.17 291.83 C 104.15 301.99 120.95 309.76 138.70 313.49 C 137.85 317.85 136.48 322.08 135.17 326.32 C 107.70 319.64 81.62 306.02 61.59 285.92 Z" />
<path fill="#0f0e0e" opacity="0.06" d=" M 281.62 279.30 C 284.40 281.59 286.82 284.25 289.00 287.11 C 285.57 291.64 281.05 295.14 276.74 298.78 C 258.97 313.58 238.06 324.84 215.65 330.61 C 214.28 327.33 213.13 323.95 212.75 320.40 C 238.73 312.97 263.20 299.22 281.62 279.30 Z" />
<path fill="#0c0c0c" opacity="0.05" d=" M 56.82 291.10 C 58.24 289.22 59.82 287.47 61.59 285.92 C 81.62 306.02 107.70 319.64 135.17 326.32 C 134.84 328.40 134.68 330.68 133.25 332.36 C 131.93 333.03 130.40 332.19 129.04 332.00 C 106.98 325.77 85.87 315.54 68.10 300.94 C 64.33 297.68 60.42 294.57 56.82 291.10 Z" />
</svg>
