<?xml version="1.0" encoding="UTF-8" ?>
<!DOCTYPE svg PUBLIC "-//W3C//DTD SVG 1.1//EN" "http://www.w3.org/Graphics/SVG/1.1/DTD/svg11.dtd">
<svg width="342pt" height="342pt" viewBox="0 0 342 342" version="1.1" xmlns="http://www.w3.org/2000/svg">
<path fill="#0957a0" opacity="1.00" d=" M 160.45 20.11 C 164.06 24.28 167.82 28.33 171.28 32.63 C 175.32 28.75 178.76 24.28 182.49 20.09 C 185.20 24.99 187.94 29.88 190.68 34.76 C 195.13 31.42 199.54 28.03 204.06 24.78 C 205.68 30.09 207.35 35.38 208.96 40.69 C 214.02 38.34 219.10 36.02 224.17 33.68 C 224.55 39.24 225.19 44.78 225.60 50.34 C 231.04 49.11 236.48 47.88 241.91 46.62 C 241.30 52.17 240.61 57.71 239.94 63.25 C 245.52 63.39 251.08 62.81 256.66 63.00 C 254.83 68.23 253.19 73.53 251.25 78.71 C 256.68 80.07 262.27 80.67 267.66 82.16 C 264.79 86.88 261.91 91.60 259.16 96.39 C 264.25 98.58 269.40 100.66 274.46 102.93 C 270.80 107.11 266.84 111.03 263.20 115.23 C 267.74 118.40 272.27 121.59 276.80 124.78 C 272.27 128.06 267.65 131.22 263.11 134.48 C 266.95 138.48 270.80 142.50 274.42 146.72 C 269.31 148.85 264.25 151.08 259.15 153.22 C 261.96 158.03 264.87 162.78 267.72 167.57 C 262.27 168.70 256.79 169.69 251.33 170.79 C 252.97 176.06 254.95 181.22 256.61 186.48 C 251.06 186.48 245.50 186.59 239.95 186.40 C 240.61 191.92 241.29 197.43 241.94 202.95 C 236.96 201.88 232.01 200.67 227.04 199.56 C 235.01 237.11 242.89 274.68 250.86 312.23 C 240.20 307.36 229.62 302.30 219.03 297.28 C 211.25 306.10 203.65 315.06 195.87 323.88 C 188.65 289.57 181.38 255.28 174.15 220.97 C 173.93 219.25 172.54 218.10 171.53 216.82 C 170.49 218.08 169.08 219.20 168.86 220.93 C 161.62 255.25 154.36 289.56 147.12 323.89 C 139.36 315.06 131.74 306.11 123.97 297.28 C 113.37 302.29 102.80 307.35 92.14 312.24 C 100.08 274.70 108.02 237.16 115.91 199.61 C 110.95 200.65 106.03 201.90 101.06 202.95 C 101.71 197.43 102.39 191.92 103.05 186.40 C 97.50 186.59 91.94 186.48 86.39 186.48 C 88.05 181.22 90.04 176.06 91.67 170.79 C 86.21 169.68 80.72 168.72 75.27 167.55 C 78.15 162.79 81.03 158.02 83.85 153.22 C 78.75 151.08 73.69 148.86 68.58 146.72 C 72.20 142.50 76.05 138.48 79.89 134.48 C 75.35 131.22 70.73 128.07 66.20 124.78 C 70.73 121.59 75.26 118.40 79.80 115.23 C 76.15 111.03 72.21 107.11 68.54 102.93 C 73.60 100.66 78.75 98.58 83.84 96.39 C 81.10 91.55 78.09 86.87 75.36 82.02 C 80.80 80.86 86.29 79.94 91.73 78.76 C 89.85 73.54 88.15 68.25 86.34 63.00 C 91.92 62.81 97.48 63.38 103.06 63.25 C 102.39 57.71 101.70 52.17 101.09 46.62 C 106.49 47.91 111.94 49.03 117.33 50.39 C 117.89 44.82 118.41 39.26 118.84 33.68 C 123.90 36.02 128.98 38.34 134.04 40.69 C 135.64 35.37 137.35 30.10 138.94 24.78 C 143.46 28.02 147.87 31.41 152.31 34.76 C 155.04 29.89 157.82 25.04 160.45 20.11 Z" />
</svg>
