<?xml version="1.0" encoding="UTF-8" ?>
<!DOCTYPE svg PUBLIC "-//W3C//DTD SVG 1.1//EN" "http://www.w3.org/Graphics/SVG/1.1/DTD/svg11.dtd">
<svg width="342pt" height="342pt" viewBox="0 0 342 342" version="1.1" xmlns="http://www.w3.org/2000/svg">
<path fill="#828386" opacity="1.00" d=" M 192.40 99.73 C 195.15 95.98 200.57 93.76 204.42 97.33 C 209.81 97.29 212.17 102.83 214.38 106.83 C 218.39 104.28 223.12 103.40 227.82 103.69 C 227.36 104.48 226.43 106.06 225.97 106.85 C 226.24 107.68 226.79 109.35 227.06 110.18 C 229.11 109.34 231.18 107.72 233.51 108.37 C 235.80 109.70 237.34 111.92 239.03 113.90 C 245.99 116.11 248.64 123.75 249.68 130.30 C 252.36 130.03 255.06 129.99 257.76 130.14 C 259.91 132.82 261.73 135.75 263.34 138.79 C 278.74 143.43 294.07 149.31 307.16 158.83 C 314.89 164.54 322.11 172.07 324.23 181.74 C 326.11 190.17 322.73 198.89 317.27 205.28 C 310.56 213.21 301.57 218.83 292.39 223.50 C 274.67 232.23 255.42 237.40 236.06 240.98 C 202.76 246.96 168.65 247.90 134.98 244.94 C 110.94 242.64 86.94 238.23 64.24 229.83 C 51.42 224.94 38.75 218.82 28.60 209.41 C 22.40 203.59 17.39 195.74 17.25 187.01 C 17.12 178.20 22.11 170.20 28.31 164.31 C 39.28 153.90 53.36 147.64 67.35 142.40 C 70.20 140.49 72.47 137.30 76.39 137.81 C 77.28 135.21 78.02 131.97 80.84 130.80 C 82.61 129.81 84.59 130.63 86.41 130.97 C 88.65 125.27 90.94 118.75 96.52 115.49 C 100.40 113.55 103.42 117.47 104.87 120.56 C 107.26 115.93 109.70 111.13 113.52 107.50 C 115.07 105.99 117.00 107.49 118.67 107.94 C 120.71 106.62 122.91 105.46 124.59 103.66 C 126.26 102.04 127.73 99.92 130.15 99.39 C 131.74 99.63 132.86 100.91 134.10 101.81 C 136.10 100.23 138.22 98.26 140.96 98.46 C 144.61 98.29 146.74 101.66 148.64 104.23 C 151.39 101.57 154.09 98.32 158.02 97.51 C 161.70 97.38 164.42 100.22 167.15 102.25 C 168.62 99.74 170.75 96.77 174.08 97.21 C 177.61 97.16 179.76 100.36 181.48 102.98 C 183.12 101.17 184.68 98.95 187.18 98.32 C 189.07 97.80 190.75 99.01 192.40 99.73 M 193.48 106.81 C 192.48 106.78 191.49 106.75 190.50 106.72 C 189.89 105.56 189.33 104.37 188.62 103.28 C 184.90 103.41 184.09 107.96 182.84 110.68 C 182.06 110.59 180.50 110.40 179.72 110.30 C 178.24 107.42 177.76 102.81 173.89 102.20 C 171.07 102.30 170.88 105.81 169.86 107.76 C 165.48 107.72 162.57 104.28 158.96 102.40 C 154.07 104.01 151.27 108.78 147.15 111.61 C 145.75 108.73 144.74 105.34 141.90 103.50 C 137.39 103.12 135.27 108.05 132.86 111.00 C 132.05 108.76 131.22 106.54 130.32 104.34 C 127.00 108.43 122.66 111.46 117.97 113.80 C 117.01 113.14 116.06 112.48 115.11 111.82 C 111.65 116.44 108.87 121.52 106.80 126.91 C 106.32 128.50 104.43 128.70 103.22 129.50 C 102.40 125.96 101.23 122.46 98.88 119.63 C 91.90 123.41 92.01 132.37 86.86 137.61 C 85.32 136.61 83.77 135.64 82.19 134.71 C 80.12 137.90 80.32 141.72 80.60 145.35 C 78.28 144.25 75.25 141.56 72.80 143.86 C 70.15 146.71 70.97 150.92 71.22 154.43 C 67.78 154.11 63.66 153.30 60.89 155.95 C 58.79 157.94 59.49 161.06 59.40 163.63 C 56.98 165.36 53.67 166.82 52.99 170.03 C 52.52 171.96 53.54 173.81 54.91 175.09 C 64.27 183.93 76.60 188.50 88.73 192.13 C 96.78 194.37 104.13 198.52 112.19 200.73 C 136.28 207.44 161.43 202.84 185.89 201.16 C 202.92 199.74 220.08 200.14 237.04 197.81 C 255.84 195.41 275.14 189.46 289.03 175.98 C 288.58 172.97 288.27 169.95 287.80 166.96 C 287.65 162.56 281.94 163.51 278.96 162.58 C 278.63 161.08 278.31 159.59 278.00 158.09 C 274.95 156.96 271.72 156.47 268.50 157.07 C 268.70 154.25 269.53 151.27 268.39 148.55 C 265.79 147.59 263.36 149.44 261.05 150.35 C 262.71 144.50 258.85 139.48 255.96 134.81 C 251.52 134.36 247.92 136.91 244.80 139.72 C 246.60 132.28 245.85 121.99 237.80 118.58 C 235.90 116.79 234.04 114.97 232.20 113.14 C 230.21 113.97 228.30 115.47 226.08 115.40 C 223.62 114.13 223.25 111.07 222.15 108.81 C 218.67 110.05 215.40 111.78 212.28 113.74 C 211.34 109.47 209.09 105.70 206.33 102.37 C 206.01 104.96 203.96 105.19 201.81 105.07 C 201.46 103.32 201.08 101.58 200.66 99.84 C 197.15 100.75 194.85 103.59 193.48 106.81 Z" />
<path fill="#ffffff" opacity="1.00" d=" M 193.48 106.81 C 194.85 103.59 197.15 100.75 200.66 99.84 C 201.08 101.58 201.46 103.32 201.81 105.07 C 203.96 105.19 206.01 104.96 206.33 102.37 C 209.09 105.70 211.34 109.47 212.28 113.74 C 215.40 111.78 218.67 110.05 222.15 108.81 C 223.25 111.07 223.62 114.13 226.08 115.40 C 228.30 115.47 230.21 113.97 232.20 113.14 C 234.04 114.97 235.90 116.79 237.80 118.58 C 245.85 121.99 246.60 132.28 244.80 139.72 C 247.92 136.91 251.52 134.36 255.96 134.81 C 258.85 139.48 262.71 144.50 261.05 150.35 C 263.36 149.44 265.79 147.59 268.39 148.55 C 269.53 151.27 268.70 154.25 268.50 157.07 C 271.72 156.47 274.95 156.96 278.00 158.09 C 278.31 159.59 278.63 161.08 278.96 162.58 C 281.94 163.51 287.65 162.56 287.80 166.96 C 288.27 169.95 288.58 172.97 289.03 175.98 C 275.14 189.46 255.84 195.41 237.04 197.81 C 220.08 200.14 202.92 199.74 185.89 201.16 C 161.43 202.84 136.28 207.44 112.19 200.73 C 104.13 198.52 96.78 194.37 88.73 192.13 C 76.60 188.50 64.27 183.93 54.91 175.09 C 53.54 173.81 52.52 171.96 52.99 170.03 C 53.67 166.82 56.98 165.36 59.40 163.63 C 59.49 161.06 58.79 157.94 60.89 155.95 C 63.66 153.30 67.78 154.11 71.22 154.43 C 70.97 150.92 70.15 146.71 72.80 143.86 C 75.25 141.56 78.28 144.25 80.60 145.35 C 80.32 141.72 80.12 137.90 82.19 134.71 C 83.77 135.64 85.32 136.61 86.86 137.61 C 92.01 132.37 91.90 123.41 98.88 119.63 C 101.23 122.46 102.40 125.96 103.22 129.50 C 104.43 128.70 106.32 128.50 106.80 126.91 C 108.87 121.52 111.65 116.44 115.11 111.82 C 116.06 112.48 117.01 113.14 117.97 113.80 C 122.66 111.46 127.00 108.43 130.32 104.34 C 131.22 106.54 132.05 108.76 132.86 111.00 C 135.27 108.05 137.39 103.12 141.90 103.50 C 144.74 105.34 145.75 108.73 147.15 111.61 C 151.27 108.78 154.07 104.01 158.96 102.40 C 162.57 104.28 165.48 107.72 169.86 107.76 C 170.88 105.81 171.07 102.30 173.89 102.20 C 177.76 102.81 178.24 107.42 179.72 110.30 C 180.50 110.40 182.06 110.59 182.84 110.68 C 184.09 107.96 184.90 103.41 188.62 103.28 C 189.33 104.37 189.89 105.56 190.50 106.72 C 191.49 106.75 192.48 106.78 193.48 106.81 M 179.10 139.85 C 175.70 138.82 171.40 139.08 169.42 142.48 C 167.52 145.00 169.17 147.92 170.29 150.36 C 171.97 148.79 173.33 146.93 172.64 144.48 C 173.91 143.93 175.19 143.41 176.48 142.90 C 177.07 143.96 177.66 145.02 178.24 146.08 C 179.33 145.93 180.41 145.79 181.50 145.65 C 182.22 144.08 182.45 141.93 184.27 141.21 C 185.70 141.04 186.89 142.02 188.14 142.56 C 188.09 143.50 187.99 145.39 187.94 146.33 C 189.22 146.40 190.49 146.47 191.77 146.54 C 192.14 144.51 192.74 142.52 193.98 140.83 C 195.07 141.54 196.12 142.29 197.15 143.09 C 197.16 144.69 196.93 146.27 196.76 147.86 C 197.91 148.42 199.06 148.97 200.21 149.53 C 201.16 146.30 202.24 142.20 199.44 139.55 C 197.00 136.90 193.18 137.72 190.18 138.75 C 186.58 136.64 182.12 136.77 179.10 139.85 M 117.91 141.67 C 115.98 141.97 113.68 141.75 112.26 143.37 C 110.63 144.73 109.50 147.10 107.01 146.86 C 102.38 146.77 98.79 151.57 99.64 155.98 C 100.15 158.69 102.87 159.90 104.89 161.34 C 105.31 160.12 105.73 158.91 106.14 157.70 C 105.18 156.81 104.27 155.88 103.40 154.92 C 103.56 152.80 105.06 151.19 106.99 150.46 C 107.51 151.58 108.00 152.71 108.46 153.86 C 109.53 153.82 110.60 153.79 111.68 153.76 C 112.14 150.41 113.10 146.64 116.73 145.48 C 117.10 146.76 117.47 148.04 117.84 149.33 C 118.99 149.20 120.14 149.07 121.30 148.95 C 121.68 146.75 122.09 144.56 122.55 142.39 C 123.99 142.46 125.43 142.54 126.88 142.63 C 126.98 145.72 126.93 148.81 126.70 151.90 C 127.66 152.08 129.57 152.43 130.53 152.60 C 131.23 148.13 131.06 143.57 129.93 139.19 C 125.94 138.53 120.27 137.36 117.91 141.67 M 151.27 173.21 C 148.77 174.56 148.86 177.61 148.55 180.05 C 149.79 179.71 151.03 179.38 152.27 179.03 C 152.61 178.35 153.29 176.99 153.63 176.31 C 156.30 175.70 157.38 178.71 158.68 180.38 C 160.21 178.89 161.32 176.29 163.80 176.44 C 163.95 178.79 163.83 181.15 163.75 183.51 C 166.95 180.47 171.35 176.55 175.93 179.47 C 175.16 180.76 174.38 182.05 173.59 183.33 C 174.61 184.24 175.63 185.15 176.66 186.05 C 178.22 183.52 180.74 180.35 178.81 177.34 C 176.50 173.56 171.44 174.45 167.76 175.05 C 166.48 174.08 165.39 172.67 163.75 172.32 C 162.09 172.35 160.56 173.08 159.00 173.56 C 156.55 172.70 153.63 171.45 151.27 173.21 M 240.22 176.37 C 236.87 175.43 233.59 176.43 231.47 179.19 C 226.68 178.32 222.21 182.19 222.22 187.00 C 221.65 190.81 224.46 193.72 227.19 195.87 C 227.83 194.72 228.47 193.57 229.10 192.41 C 226.37 190.47 224.81 186.24 227.85 183.81 C 229.90 181.73 231.52 185.35 232.62 186.66 C 233.74 186.10 234.87 185.53 235.99 184.96 C 235.63 184.05 235.26 183.14 234.90 182.23 C 235.27 181.55 235.99 180.19 236.35 179.51 C 238.03 180.31 239.18 181.73 240.13 183.28 C 240.83 183.19 242.21 183.01 242.90 182.92 C 243.31 180.23 244.24 177.66 245.94 175.52 C 249.08 177.78 249.95 181.56 248.86 185.19 C 250.05 185.71 251.24 186.23 252.44 186.74 C 254.05 181.85 253.58 175.21 248.32 172.77 C 245.02 170.94 241.97 173.80 240.22 176.37 Z" />
<path fill="#828386" opacity="1.00" d=" M 179.10 139.85 C 182.12 136.77 186.58 136.64 190.18 138.75 C 193.18 137.72 197.00 136.90 199.44 139.55 C 202.24 142.20 201.16 146.30 200.21 149.53 C 199.06 148.97 197.91 148.42 196.76 147.86 C 196.93 146.27 197.16 144.69 197.15 143.09 C 196.12 142.29 195.07 141.54 193.98 140.83 C 192.74 142.52 192.14 144.51 191.77 146.54 C 190.49 146.47 189.22 146.40 187.94 146.33 C 187.99 145.39 188.09 143.50 188.14 142.56 C 186.89 142.02 185.70 141.04 184.27 141.21 C 182.45 141.93 182.22 144.08 181.50 145.65 C 180.41 145.79 179.33 145.93 178.24 146.08 C 177.66 145.02 177.07 143.96 176.48 142.90 C 175.19 143.41 173.91 143.93 172.64 144.48 C 173.33 146.93 171.97 148.79 170.29 150.36 C 169.17 147.92 167.52 145.00 169.42 142.48 C 171.40 139.08 175.70 138.82 179.10 139.85 Z" />
<path fill="#828386" opacity="1.00" d=" M 117.91 141.67 C 120.27 137.36 125.94 138.53 129.93 139.19 C 131.06 143.57 131.23 148.13 130.53 152.60 C 129.57 152.43 127.66 152.08 126.70 151.90 C 126.93 148.81 126.98 145.72 126.88 142.63 C 125.43 142.54 123.99 142.46 122.55 142.39 C 122.09 144.56 121.68 146.75 121.30 148.95 C 120.14 149.07 118.99 149.20 117.84 149.33 C 117.47 148.04 117.10 146.76 116.73 145.48 C 113.10 146.64 112.14 150.41 111.68 153.76 C 110.60 153.79 109.53 153.82 108.46 153.86 C 108.00 152.71 107.51 151.58 106.99 150.46 C 105.06 151.19 103.56 152.80 103.40 154.92 C 104.27 155.88 105.18 156.81 106.14 157.70 C 105.73 158.91 105.31 160.12 104.89 161.34 C 102.87 159.90 100.15 158.69 99.64 155.98 C 98.79 151.57 102.38 146.77 107.01 146.86 C 109.50 147.10 110.63 144.73 112.26 143.37 C 113.68 141.75 115.98 141.97 117.91 141.67 Z" />
<path fill="#828386" opacity="1.00" d=" M 151.27 173.21 C 153.63 171.45 156.55 172.70 159.00 173.56 C 160.56 173.08 162.09 172.35 163.75 172.32 C 165.39 172.67 166.48 174.08 167.76 175.05 C 171.44 174.45 176.50 173.56 178.81 177.34 C 180.74 180.35 178.22 183.52 176.66 186.05 C 175.63 185.15 174.61 184.24 173.59 183.33 C 174.38 182.05 175.16 180.76 175.93 179.47 C 171.35 176.55 166.95 180.47 163.75 183.51 C 163.83 181.15 163.95 178.79 163.80 176.44 C 161.32 176.29 160.21 178.89 158.68 180.38 C 157.38 178.71 156.30 175.70 153.63 176.31 C 153.29 176.99 152.61 178.35 152.27 179.03 C 151.03 179.38 149.79 179.71 148.55 180.05 C 148.86 177.61 148.77 174.56 151.27 173.21 Z" />
<path fill="#828386" opacity="1.00" d=" M 240.22 176.37 C 241.97 173.80 245.02 170.94 248.32 172.77 C 253.58 175.21 254.05 181.85 252.44 186.74 C 251.24 186.23 250.05 185.71 248.86 185.19 C 249.95 181.56 249.08 177.78 245.94 175.52 C 244.24 177.66 243.31 180.23 242.90 182.92 C 242.21 183.01 240.83 183.19 240.13 183.28 C 239.18 181.73 238.03 180.31 236.35 179.51 C 235.99 180.19 235.27 181.55 234.90 182.23 C 235.26 183.14 235.63 184.05 235.99 184.96 C 234.87 185.53 233.74 186.10 232.62 186.66 C 231.52 185.35 229.90 181.73 227.85 183.81 C 224.81 186.24 226.37 190.47 229.10 192.41 C 228.47 193.57 227.83 194.72 227.19 195.87 C 224.46 193.72 221.65 190.81 222.22 187.00 C 222.21 182.19 226.68 178.32 231.47 179.19 C 233.59 176.43 236.87 175.43 240.22 176.37 Z" />
</svg>
