<?xml version="1.0" encoding="UTF-8" ?>
<!DOCTYPE svg PUBLIC "-//W3C//DTD SVG 1.1//EN" "http://www.w3.org/Graphics/SVG/1.1/DTD/svg11.dtd">
<svg width="342pt" height="342pt" viewBox="0 0 342 342" version="1.1" xmlns="http://www.w3.org/2000/svg">
<path fill="#000000" opacity="1.00" d=" M 125.10 40.63 C 163.18 33.31 203.04 35.17 240.19 46.35 C 274.78 56.69 306.96 74.97 333.59 99.35 C 336.32 101.80 338.71 104.70 342.00 106.46 L 342.00 107.62 C 333.67 115.19 325.98 123.46 317.96 131.37 C 293.75 107.15 263.60 88.84 230.76 79.03 C 197.44 68.95 161.54 67.56 127.51 74.85 C 88.48 83.08 52.18 103.15 24.04 131.37 C 16.01 123.52 8.44 115.14 0.00 107.74 L 0.00 106.39 C 1.23 105.91 2.32 105.13 3.27 104.23 C 36.55 71.79 79.46 49.38 125.10 40.63 Z" />
<path fill="#000000" opacity="1.00" d=" M 109.39 115.57 C 130.57 107.49 153.35 103.60 176.01 104.37 C 213.91 105.21 251.29 119.32 280.57 143.35 C 285.24 147.05 289.48 151.25 293.86 155.27 C 286.00 163.46 277.79 171.31 269.89 179.46 C 250.41 159.90 225.12 146.16 198.00 140.89 C 171.73 135.73 143.96 138.22 119.13 148.28 C 101.53 155.31 85.51 166.08 72.11 179.46 C 64.21 171.31 56.00 163.46 48.13 155.27 C 65.57 138.05 86.44 124.25 109.39 115.57 Z" />
<path fill="#000000" opacity="1.00" d=" M 134.87 178.74 C 167.54 166.50 206.17 172.09 233.92 193.27 C 238.19 196.20 241.80 199.94 245.75 203.27 C 238.02 211.60 229.67 219.34 221.81 227.54 C 208.51 214.19 189.89 206.13 170.98 206.37 C 152.08 206.14 133.48 214.20 120.19 227.54 C 112.34 219.31 103.92 211.62 96.26 203.22 C 107.41 192.69 120.35 183.88 134.87 178.74 Z" />
<path fill="#000000" opacity="1.00" d=" M 165.38 251.76 C 170.80 250.81 176.61 250.98 181.68 253.29 C 191.83 257.37 198.90 268.04 198.46 279.01 C 198.45 290.37 190.39 301.07 179.57 304.41 C 171.51 307.05 162.22 305.64 155.35 300.64 C 146.66 294.62 142.19 283.19 144.52 272.87 C 146.50 262.51 155.10 253.95 165.38 251.76 Z" />
</svg>
