<?xml version="1.0" encoding="UTF-8" ?>
<!DOCTYPE svg PUBLIC "-//W3C//DTD SVG 1.1//EN" "http://www.w3.org/Graphics/SVG/1.1/DTD/svg11.dtd">
<svg width="342pt" height="342pt" viewBox="0 0 342 342" version="1.1" xmlns="http://www.w3.org/2000/svg">
<path fill="#dde01c" opacity="1.00" d=" M 116.23 79.66 C 154.62 74.21 193.77 74.60 232.08 80.57 C 265.00 85.68 297.46 94.11 328.49 106.27 C 329.19 106.46 330.59 106.85 331.29 107.05 C 330.09 112.21 330.31 117.55 329.51 122.78 C 325.03 158.82 311.63 194.77 286.60 221.65 C 265.36 244.68 235.65 258.77 204.90 263.56 C 176.00 268.03 145.99 267.17 117.76 259.22 C 90.89 251.70 66.24 235.97 48.84 214.06 C 25.37 184.79 13.81 147.37 11.35 110.29 C 11.16 109.21 10.94 108.14 10.69 107.07 C 11.39 106.87 12.80 106.47 13.51 106.27 C 46.52 93.35 81.13 84.59 116.23 79.66 M 17.69 109.23 C 44.26 119.47 71.89 126.87 99.92 131.86 C 132.82 137.70 166.45 139.78 199.79 137.21 C 242.32 133.88 284.40 124.46 324.27 109.26 C 314.08 105.17 303.63 101.76 293.12 98.61 C 251.60 86.33 208.32 79.46 164.97 80.01 C 114.69 81.18 64.67 91.33 17.69 109.23 Z" />
</svg>
