<?xml version="1.0" encoding="UTF-8" ?>
<!DOCTYPE svg PUBLIC "-//W3C//DTD SVG 1.1//EN" "http://www.w3.org/Graphics/SVG/1.1/DTD/svg11.dtd">
<svg width="342pt" height="342pt" viewBox="0 0 342 342" version="1.1" xmlns="http://www.w3.org/2000/svg">
<path fill="#8b5e3b" opacity="1.00" d=" M 171.25 100.24 C 179.80 93.35 191.31 90.89 202.08 92.11 C 209.20 92.76 216.55 95.00 221.64 100.28 C 229.44 108.48 231.74 120.28 239.31 128.67 C 243.40 133.35 248.76 136.63 253.32 140.80 C 256.15 143.54 258.29 146.86 260.45 150.13 C 262.49 157.49 261.87 165.28 259.27 172.41 C 251.98 173.03 244.68 173.57 237.37 174.00 C 238.48 169.75 239.53 165.49 240.52 161.21 C 245.28 160.70 250.13 160.80 254.83 159.79 C 258.05 159.20 258.25 153.20 254.91 152.79 C 251.07 152.29 247.20 152.91 243.35 153.03 C 241.91 152.20 240.47 151.37 238.92 150.77 C 236.91 150.73 235.66 152.74 234.19 153.81 C 229.44 154.57 224.66 155.02 219.88 155.54 C 220.85 152.59 221.83 149.64 222.81 146.70 C 227.60 146.29 232.42 146.12 237.17 145.36 C 240.18 144.82 243.56 143.97 245.42 141.32 C 247.07 139.04 244.85 135.37 242.09 135.64 C 239.01 136.49 236.23 138.31 233.03 138.74 C 230.53 139.06 228.00 139.01 225.49 139.04 C 225.97 136.83 226.63 134.63 226.61 132.35 C 225.72 129.84 221.85 129.09 220.05 131.00 C 218.46 133.51 217.83 136.47 216.90 139.26 C 210.24 139.67 203.58 139.88 196.91 140.04 C 199.24 135.62 201.57 131.20 203.87 126.76 C 210.93 126.36 217.99 126.36 225.05 126.00 C 226.79 125.77 229.24 125.91 229.96 123.88 C 231.36 121.65 229.80 118.03 226.96 118.32 C 220.47 118.11 214.00 118.84 207.51 118.81 C 208.15 116.57 208.96 114.36 209.21 112.03 C 208.60 109.33 205.04 108.40 202.91 109.88 C 200.80 112.58 199.99 116.02 198.75 119.16 C 186.83 119.50 174.90 119.86 162.97 119.70 C 160.37 119.81 156.32 119.56 156.03 123.08 C 155.20 126.79 159.49 127.47 162.10 128.04 C 162.03 132.37 161.60 136.69 160.72 140.93 C 149.18 141.55 137.61 141.97 126.14 143.45 C 124.53 143.70 122.91 143.98 121.39 144.61 C 119.47 146.30 120.24 149.63 122.34 150.81 C 123.96 151.20 125.64 151.28 127.31 151.47 C 124.25 155.35 121.98 159.74 119.99 164.23 C 109.34 164.02 98.38 164.04 88.42 168.34 C 101.94 152.21 122.16 144.43 139.12 132.72 C 151.94 124.09 159.42 109.95 171.25 100.24 Z" />
<path fill="#3c2313" opacity="1.00" d=" M 202.91 109.88 C 205.04 108.40 208.60 109.33 209.21 112.03 C 208.96 114.36 208.15 116.57 207.51 118.81 C 214.00 118.84 220.47 118.11 226.96 118.32 C 229.80 118.03 231.36 121.65 229.96 123.88 C 229.24 125.91 226.79 125.77 225.05 126.00 C 217.99 126.36 210.93 126.36 203.87 126.76 C 201.57 131.20 199.24 135.62 196.91 140.04 C 203.58 139.88 210.24 139.67 216.90 139.26 C 217.83 136.47 218.46 133.51 220.05 131.00 C 221.85 129.09 225.72 129.84 226.61 132.35 C 226.63 134.63 225.97 136.83 225.49 139.04 C 228.00 139.01 230.53 139.06 233.03 138.74 C 236.23 138.31 239.01 136.49 242.09 135.64 C 244.85 135.37 247.07 139.04 245.42 141.32 C 243.56 143.97 240.18 144.82 237.17 145.36 C 232.42 146.12 227.60 146.29 222.81 146.70 C 221.83 149.64 220.85 152.59 219.88 155.54 C 224.66 155.02 229.44 154.57 234.19 153.81 C 235.66 152.74 236.91 150.73 238.92 150.77 C 240.47 151.37 241.91 152.20 243.35 153.03 C 247.20 152.91 251.07 152.29 254.91 152.79 C 258.25 153.20 258.05 159.20 254.83 159.79 C 250.13 160.80 245.28 160.70 240.52 161.21 C 239.53 165.49 238.48 169.75 237.37 174.00 C 244.68 173.57 251.98 173.03 259.27 172.41 C 261.87 165.28 262.49 157.49 260.45 150.13 C 262.39 152.33 264.76 154.41 265.43 157.40 C 267.34 165.74 265.91 174.36 264.70 182.69 C 263.05 192.74 259.07 203.28 250.40 209.31 C 241.27 215.59 229.74 216.31 219.01 216.46 C 202.98 216.40 186.97 213.82 170.95 215.48 C 152.46 217.11 135.45 225.81 116.97 227.46 C 108.26 228.10 98.92 228.13 91.02 223.91 C 84.89 220.68 81.19 214.09 80.44 207.34 C 79.75 200.51 79.77 193.60 80.14 186.75 C 80.24 193.02 83.97 198.53 88.88 202.16 C 96.89 208.38 106.75 212.44 116.96 212.69 C 132.52 213.23 147.27 207.47 161.83 202.79 C 184.64 195.87 208.91 206.04 231.64 198.67 C 241.33 195.70 249.34 188.88 254.99 180.59 C 248.07 181.01 241.15 181.50 234.23 181.86 C 232.51 184.84 231.08 188.13 228.50 190.48 C 226.28 192.34 222.56 190.73 221.98 187.99 C 222.60 185.96 223.69 184.12 224.64 182.23 C 219.20 182.59 213.75 182.79 208.32 183.10 C 205.19 187.62 201.88 192.75 196.36 194.51 C 193.54 195.34 190.47 192.30 191.39 189.47 C 193.39 187.15 196.08 185.59 198.48 183.73 C 191.94 184.12 185.37 184.45 178.86 185.27 C 174.43 185.36 173.54 190.81 170.07 192.66 C 166.86 192.77 166.15 189.42 165.07 187.14 C 157.00 188.35 148.95 189.67 140.89 190.94 C 140.26 194.24 139.96 197.64 138.77 200.80 C 137.62 203.50 133.39 203.22 131.99 200.86 C 131.57 197.98 132.00 195.07 132.20 192.19 C 126.15 193.14 119.96 193.26 114.05 195.03 C 110.77 196.16 107.31 195.35 103.95 195.21 C 97.65 194.82 91.29 195.92 85.01 194.93 C 81.52 194.34 81.28 187.99 85.10 187.70 C 93.33 187.15 101.62 187.83 109.85 186.93 C 112.18 182.11 114.36 177.21 116.37 172.25 C 110.62 172.32 104.78 171.95 99.12 173.24 C 96.02 173.92 93.14 175.39 90.00 175.93 C 87.24 175.71 87.12 172.55 86.54 170.51 C 87.14 169.77 87.77 169.05 88.42 168.34 C 98.38 164.04 109.34 164.02 119.99 164.23 C 121.98 159.74 124.25 155.35 127.31 151.47 C 125.64 151.28 123.96 151.20 122.34 150.81 C 120.24 149.63 119.47 146.30 121.39 144.61 C 122.91 143.98 124.53 143.70 126.14 143.45 C 137.61 141.97 149.18 141.55 160.72 140.93 C 161.60 136.69 162.03 132.37 162.10 128.04 C 159.49 127.47 155.20 126.79 156.03 123.08 C 156.32 119.56 160.37 119.81 162.97 119.70 C 174.90 119.86 186.83 119.50 198.75 119.16 C 199.99 116.02 200.80 112.58 202.91 109.88 M 169.72 127.50 C 170.06 131.91 169.66 136.34 168.64 140.64 C 175.04 140.94 181.43 140.45 187.83 140.53 C 190.48 136.13 192.87 131.58 195.14 126.97 C 186.67 127.20 178.19 127.44 169.72 127.50 M 192.70 147.76 C 190.54 151.59 188.58 155.54 186.82 159.58 C 194.82 158.54 202.89 157.90 210.83 156.50 C 212.60 153.68 213.28 150.35 214.30 147.21 C 207.10 147.35 199.91 147.83 192.70 147.76 M 166.18 148.42 C 163.12 152.76 161.22 157.82 158.33 162.28 C 164.81 161.79 171.28 161.25 177.75 160.60 C 179.65 156.31 181.70 152.10 183.89 147.96 C 177.99 148.27 172.07 148.01 166.18 148.42 M 135.12 150.09 C 135.21 151.40 135.30 152.70 135.40 154.01 C 132.79 156.98 130.73 160.38 129.16 164.01 C 135.75 163.73 142.33 163.34 148.91 162.93 C 151.85 158.31 154.71 153.62 157.16 148.71 C 149.80 148.85 142.46 149.48 135.12 150.09 M 216.88 163.76 C 215.29 167.59 213.66 171.40 212.06 175.22 C 217.53 174.94 223.01 174.68 228.49 174.45 C 229.83 170.33 231.02 166.16 232.12 161.97 C 227.03 162.51 221.95 163.10 216.88 163.76 M 183.61 167.67 C 182.30 170.93 181.04 174.20 179.80 177.49 C 187.77 176.67 195.76 176.11 203.75 175.64 C 205.33 172.10 206.81 168.51 208.14 164.86 C 199.96 165.75 191.80 166.87 183.61 167.67 M 153.41 170.38 C 150.77 174.30 148.13 178.22 145.63 182.24 C 153.95 180.87 162.35 179.94 170.62 178.38 C 172.83 175.52 173.64 171.88 174.95 168.58 C 167.78 169.23 160.60 169.85 153.41 170.38 M 125.11 171.99 C 122.85 176.61 120.72 181.28 118.76 186.03 C 124.71 185.38 130.64 184.60 136.55 183.64 C 139.16 179.47 141.76 175.29 144.13 170.98 C 137.79 171.32 131.44 171.61 125.11 171.99 Z" />
<path fill="#8b5e3b" opacity="1.00" d=" M 169.72 127.50 C 178.19 127.44 186.67 127.20 195.14 126.97 C 192.87 131.58 190.48 136.13 187.83 140.53 C 181.43 140.45 175.04 140.94 168.64 140.64 C 169.66 136.34 170.06 131.91 169.72 127.50 Z" />
<path fill="#828386" opacity="1.00" d=" M 59.13 150.40 C 84.52 139.95 111.86 135.00 139.12 132.72 C 122.16 144.43 101.94 152.21 88.42 168.34 C 87.77 169.05 87.14 169.77 86.54 170.51 C 83.08 175.26 80.65 180.86 80.14 186.75 C 79.77 193.60 79.75 200.51 80.44 207.34 C 81.19 214.09 84.89 220.68 91.02 223.91 C 98.92 228.13 108.26 228.10 116.97 227.46 C 135.45 225.81 152.46 217.11 170.95 215.48 C 186.97 213.82 202.98 216.40 219.01 216.46 C 229.74 216.31 241.27 215.59 250.40 209.31 C 259.07 203.28 263.05 192.74 264.70 182.69 C 265.91 174.36 267.34 165.74 265.43 157.40 C 264.76 154.41 262.39 152.33 260.45 150.13 C 258.29 146.86 256.15 143.54 253.32 140.80 C 269.99 144.96 286.55 150.62 301.14 159.86 C 308.31 164.45 315.07 170.17 319.41 177.60 C 323.50 184.48 324.04 193.39 320.56 200.64 C 316.65 209.22 309.16 215.47 301.43 220.54 C 289.88 227.85 277.06 232.95 264.00 236.87 C 232.89 246.10 200.28 249.22 167.94 249.22 C 133.77 248.66 99.24 244.74 66.90 233.21 C 53.78 228.31 40.75 222.21 30.35 212.66 C 24.15 206.82 18.97 198.93 19.15 190.12 C 19.04 183.02 22.56 176.39 27.20 171.23 C 35.82 161.65 47.43 155.42 59.13 150.40 Z" />
<path fill="#8b5e3b" opacity="1.00" d=" M 192.70 147.76 C 199.91 147.83 207.10 147.35 214.30 147.21 C 213.28 150.35 212.60 153.68 210.83 156.50 C 202.89 157.90 194.82 158.54 186.82 159.58 C 188.58 155.54 190.54 151.59 192.70 147.76 Z" />
<path fill="#8b5e3b" opacity="1.00" d=" M 166.18 148.42 C 172.07 148.01 177.99 148.27 183.89 147.96 C 181.70 152.10 179.65 156.31 177.75 160.60 C 171.28 161.25 164.81 161.79 158.33 162.28 C 161.22 157.82 163.12 152.76 166.18 148.42 Z" />
<path fill="#8b5e3b" opacity="1.00" d=" M 135.12 150.09 C 142.46 149.48 149.80 148.85 157.16 148.71 C 154.71 153.62 151.85 158.31 148.91 162.93 C 142.33 163.34 135.75 163.73 129.16 164.01 C 130.73 160.38 132.79 156.98 135.40 154.01 C 135.30 152.70 135.21 151.40 135.12 150.09 Z" />
<path fill="#8b5e3b" opacity="1.00" d=" M 216.88 163.76 C 221.95 163.10 227.03 162.51 232.12 161.97 C 231.02 166.16 229.83 170.33 228.49 174.45 C 223.01 174.68 217.53 174.94 212.06 175.22 C 213.66 171.40 215.29 167.59 216.88 163.76 Z" />
<path fill="#8b5e3b" opacity="1.00" d=" M 183.61 167.67 C 191.80 166.87 199.96 165.75 208.14 164.86 C 206.81 168.51 205.33 172.10 203.75 175.64 C 195.76 176.11 187.77 176.67 179.80 177.49 C 181.04 174.20 182.30 170.93 183.61 167.67 Z" />
<path fill="#8b5e3b" opacity="1.00" d=" M 153.41 170.38 C 160.60 169.85 167.78 169.23 174.95 168.58 C 173.64 171.88 172.83 175.52 170.62 178.38 C 162.35 179.94 153.95 180.87 145.63 182.24 C 148.13 178.22 150.77 174.30 153.41 170.38 Z" />
<path fill="#8b5e3b" opacity="1.00" d=" M 80.14 186.75 C 80.65 180.86 83.08 175.26 86.54 170.51 C 87.12 172.55 87.24 175.71 90.00 175.93 C 93.14 175.39 96.02 173.92 99.12 173.24 C 104.78 171.95 110.62 172.32 116.37 172.25 C 114.36 177.21 112.18 182.11 109.85 186.93 C 101.62 187.83 93.33 187.15 85.10 187.70 C 81.28 187.99 81.52 194.34 85.01 194.93 C 91.29 195.92 97.65 194.82 103.95 195.21 C 107.31 195.35 110.77 196.16 114.05 195.03 C 119.96 193.26 126.15 193.14 132.20 192.19 C 132.00 195.07 131.57 197.98 131.99 200.86 C 133.39 203.22 137.62 203.50 138.77 200.80 C 139.96 197.64 140.26 194.24 140.89 190.94 C 148.95 189.67 157.00 188.35 165.07 187.14 C 166.15 189.42 166.86 192.77 170.07 192.66 C 173.54 190.81 174.43 185.36 178.86 185.27 C 185.37 184.45 191.94 184.12 198.48 183.73 C 196.08 185.59 193.39 187.15 191.39 189.47 C 190.47 192.30 193.54 195.34 196.36 194.51 C 201.88 192.75 205.19 187.62 208.32 183.10 C 213.75 182.79 219.20 182.59 224.64 182.23 C 223.69 184.12 222.60 185.96 221.98 187.99 C 222.56 190.73 226.28 192.34 228.50 190.48 C 231.08 188.13 232.51 184.84 234.23 181.86 C 241.15 181.50 248.07 181.01 254.99 180.59 C 249.34 188.88 241.33 195.70 231.64 198.67 C 208.91 206.04 184.64 195.87 161.83 202.79 C 147.27 207.47 132.52 213.23 116.96 212.69 C 106.75 212.44 96.89 208.38 88.88 202.16 C 83.97 198.53 80.24 193.02 80.14 186.75 Z" />
<path fill="#8b5e3b" opacity="1.00" d=" M 125.11 171.99 C 131.44 171.61 137.79 171.32 144.13 170.98 C 141.76 175.29 139.16 179.47 136.55 183.64 C 130.64 184.60 124.71 185.38 118.76 186.03 C 120.72 181.28 122.85 176.61 125.11 171.99 Z" />
</svg>
