<?xml version="1.0" encoding="UTF-8" ?>
<!DOCTYPE svg PUBLIC "-//W3C//DTD SVG 1.1//EN" "http://www.w3.org/Graphics/SVG/1.1/DTD/svg11.dtd">
<svg width="342pt" height="342pt" viewBox="0 0 342 342" version="1.1" xmlns="http://www.w3.org/2000/svg">
<path fill="#b48e63" opacity="1.00" d=" M 177.14 96.50 C 186.99 95.60 197.08 94.45 206.85 96.57 C 210.28 98.24 213.99 99.18 217.49 100.69 C 219.81 103.02 225.28 105.13 223.05 109.18 C 222.95 108.77 222.75 107.94 222.64 107.52 C 221.11 104.90 218.36 103.41 216.04 101.59 C 215.76 101.86 215.19 102.39 214.91 102.66 C 213.76 100.25 211.08 99.84 208.76 99.22 C 207.64 98.59 206.56 97.75 205.25 97.60 C 198.42 96.83 191.54 97.61 184.70 97.19 C 181.53 96.54 178.24 96.67 175.51 98.56 C 172.37 99.03 169.39 100.17 166.53 101.49 C 166.05 102.91 165.56 104.34 165.04 105.75 L 163.54 105.46 C 164.10 98.53 171.99 98.06 177.14 96.50 Z" />
<path fill="#c2b59b" opacity="1.00" d=" M 175.51 98.56 C 178.24 96.67 181.53 96.54 184.70 97.19 C 181.83 98.60 178.62 98.59 175.51 98.56 Z" />
<path fill="#ffffff" opacity="1.00" d=" M 184.70 97.19 C 191.54 97.61 198.42 96.83 205.25 97.60 C 206.56 97.75 207.64 98.59 208.76 99.22 C 211.08 99.84 213.76 100.25 214.91 102.66 C 215.19 102.39 215.76 101.86 216.04 101.59 C 218.36 103.41 221.11 104.90 222.64 107.52 C 218.06 110.70 212.34 111.24 206.94 111.60 C 195.03 111.96 182.89 112.03 171.33 108.73 C 169.09 108.06 167.10 106.81 165.04 105.75 C 165.56 104.34 166.05 102.91 166.53 101.49 C 169.39 100.17 172.37 99.03 175.51 98.56 C 178.62 98.59 181.83 98.60 184.70 97.19 M 175.70 101.65 C 174.10 102.70 174.77 104.89 176.01 105.91 C 178.62 108.12 182.28 109.40 185.64 108.26 C 188.41 107.93 191.21 107.85 194.00 107.75 C 197.83 109.07 202.13 109.61 206.04 108.29 C 208.88 107.52 209.74 103.39 207.46 101.55 C 205.78 99.72 203.13 100.62 201.13 101.24 C 195.84 103.95 190.20 100.96 184.75 100.59 C 181.74 100.62 178.45 100.12 175.70 101.65 Z" />
<path fill="#8dc63f" opacity="1.00" d=" M 175.70 101.65 C 178.45 100.12 181.74 100.62 184.75 100.59 C 184.50 103.19 184.82 105.78 185.64 108.26 C 182.28 109.40 178.62 108.12 176.01 105.91 C 174.77 104.89 174.10 102.70 175.70 101.65 Z" />
<path fill="#ed217c" opacity="1.00" d=" M 184.75 100.59 C 190.20 100.96 195.84 103.95 201.13 101.24 C 201.37 102.42 201.62 103.59 201.87 104.77 C 199.11 105.30 196.09 105.64 194.00 107.75 C 191.21 107.85 188.41 107.93 185.64 108.26 C 184.82 105.78 184.50 103.19 184.75 100.59 Z" />
<path fill="#fff200" opacity="1.00" d=" M 201.13 101.24 C 203.13 100.62 205.78 99.72 207.46 101.55 C 209.74 103.39 208.88 107.52 206.04 108.29 C 202.13 109.61 197.83 109.07 194.00 107.75 C 196.09 105.64 199.11 105.30 201.87 104.77 C 201.62 103.59 201.37 102.42 201.13 101.24 Z" />
<path fill="#231f20" opacity="1.00" d=" M 163.54 105.46 L 165.04 105.75 C 167.10 106.81 169.09 108.06 171.33 108.73 C 182.89 112.03 195.03 111.96 206.94 111.60 C 212.34 111.24 218.06 110.70 222.64 107.52 C 222.75 107.94 222.95 108.77 223.05 109.18 C 223.01 113.22 222.93 117.27 223.50 121.28 C 216.58 123.18 209.07 122.64 202.45 125.65 C 199.89 126.79 198.83 129.50 197.69 131.85 C 209.27 138.39 223.04 138.60 235.98 138.52 C 243.35 138.74 250.75 137.55 257.60 134.79 C 257.47 137.53 257.30 140.26 256.97 142.98 C 257.17 143.24 257.58 143.74 257.79 143.99 C 257.58 150.97 258.35 157.95 257.93 164.91 C 255.97 167.00 252.98 167.50 250.32 168.12 C 238.63 170.11 226.66 169.64 214.95 168.09 C 214.95 172.63 215.61 177.19 215.03 181.72 C 212.07 184.33 207.93 184.69 204.21 185.33 C 195.08 186.44 185.83 186.12 176.67 185.44 C 176.91 190.61 177.08 195.79 176.95 200.97 C 170.22 204.53 162.43 204.66 155.01 204.99 C 145.90 205.08 136.72 204.45 127.82 202.45 C 124.79 201.64 121.52 200.90 119.18 198.68 C 117.96 192.08 118.62 185.29 118.24 178.61 C 108.48 178.42 98.54 177.89 89.19 174.85 C 87.36 173.98 84.37 173.35 84.35 170.86 C 83.94 167.36 84.00 163.82 83.88 160.31 C 83.67 153.93 83.90 147.52 83.05 141.18 C 84.44 141.78 85.80 142.46 87.17 143.13 C 95.73 147.43 105.67 147.13 115.00 147.86 C 124.57 147.76 134.64 147.84 143.30 143.12 C 140.86 139.80 137.89 136.61 133.89 135.27 C 129.88 133.94 125.98 132.24 121.83 131.43 C 121.77 128.89 121.64 126.34 121.78 123.81 C 122.12 123.65 122.79 123.32 123.12 123.15 C 130.78 127.15 139.60 127.70 148.04 128.44 C 158.46 128.69 169.39 129.24 179.17 125.00 C 179.69 124.80 180.74 124.41 181.26 124.21 C 177.92 117.96 170.75 115.99 164.61 113.66 C 164.59 110.90 164.77 108.03 163.54 105.46 M 172.40 139.64 C 172.56 140.26 172.88 141.48 173.04 142.10 C 172.14 140.86 170.92 140.13 169.39 139.92 L 169.83 141.72 C 169.52 141.60 168.90 141.36 168.59 141.24 C 167.00 141.40 165.39 141.48 163.79 141.55 C 161.70 142.44 159.61 143.38 157.40 143.93 C 157.52 144.39 157.75 145.31 157.87 145.76 L 156.15 145.29 C 156.46 147.21 156.75 149.50 158.91 150.19 C 168.64 154.57 179.55 154.38 189.99 155.11 C 197.94 154.50 206.28 154.97 213.63 151.32 C 213.63 150.43 213.62 148.67 213.62 147.79 C 212.16 147.51 210.34 147.46 210.40 145.52 C 210.00 145.50 209.18 145.46 208.78 145.44 L 208.49 143.47 C 207.84 144.10 206.53 145.36 205.88 145.99 C 206.28 145.36 207.09 144.11 207.49 143.48 C 205.02 143.04 202.57 142.21 200.03 142.51 C 200.19 142.02 200.50 141.05 200.65 140.56 C 198.88 140.52 197.11 140.50 195.34 140.53 L 195.76 139.40 L 193.53 139.48 C 193.55 139.90 193.59 140.76 193.61 141.18 C 193.17 140.59 192.29 139.39 191.85 138.79 C 191.63 139.44 191.18 140.74 190.96 141.40 C 190.80 140.62 190.47 139.06 190.31 138.29 C 189.81 139.02 188.80 140.48 188.30 141.22 C 188.34 140.43 188.41 138.87 188.45 138.08 C 186.89 138.45 186.28 139.92 185.43 141.05 C 185.45 140.60 185.49 139.71 185.51 139.26 C 181.15 139.64 176.76 139.38 172.40 139.64 M 139.65 158.22 C 139.56 158.71 139.38 159.68 139.29 160.16 L 138.98 158.42 C 138.32 158.41 136.99 158.40 136.33 158.39 L 136.84 160.62 C 136.32 159.90 135.29 158.45 134.78 157.72 L 134.67 159.75 C 133.91 159.56 132.39 159.19 131.63 159.00 C 131.61 159.47 131.57 160.41 131.54 160.88 C 131.04 160.35 130.04 159.27 129.53 158.73 L 129.97 160.54 C 127.74 160.43 125.50 160.48 123.27 160.46 L 123.58 161.90 C 123.01 161.73 121.88 161.38 121.31 161.20 L 121.77 163.47 C 121.22 163.11 120.12 162.38 119.57 162.02 L 119.56 163.10 C 118.52 164.12 118.23 165.38 118.69 166.88 L 117.51 166.27 C 117.44 166.96 117.29 168.33 117.22 169.02 C 117.51 168.54 118.10 167.58 118.40 167.10 C 119.85 168.49 121.51 169.69 123.46 170.25 C 135.24 173.95 147.75 173.97 159.97 173.59 C 163.42 173.53 166.79 172.78 170.17 172.22 C 171.21 171.86 172.26 171.52 173.32 171.18 C 173.86 170.92 174.94 170.38 175.48 170.11 C 175.50 169.27 175.55 167.59 175.57 166.76 C 173.88 166.57 172.03 166.36 172.31 164.12 C 171.84 164.30 170.88 164.64 170.40 164.82 L 170.73 162.41 C 170.10 162.88 168.86 163.82 168.24 164.29 L 168.74 162.07 C 168.17 162.25 167.03 162.61 166.46 162.79 L 166.72 161.42 C 165.90 161.39 164.28 161.34 163.46 161.31 C 163.14 161.42 162.51 161.65 162.19 161.76 C 162.27 161.21 162.44 160.13 162.53 159.59 C 160.78 159.50 159.04 159.43 157.29 159.43 L 157.67 158.28 C 155.81 158.54 153.52 157.98 152.40 159.93 C 152.49 159.54 152.68 158.75 152.77 158.36 C 151.13 158.76 149.79 158.31 148.76 157.00 C 148.48 157.81 147.93 159.43 147.65 160.23 C 147.60 159.74 147.51 158.75 147.46 158.26 C 144.86 158.53 142.24 158.53 139.65 158.22 Z" />
<path fill="#b48e63" opacity="1.00" d=" M 139.51 112.76 C 143.98 111.82 148.57 112.72 153.05 111.86 C 156.89 112.54 160.96 112.05 164.61 113.66 C 170.75 115.99 177.92 117.96 181.26 124.21 C 180.74 124.41 179.69 124.80 179.17 125.00 C 179.10 124.39 178.94 123.18 178.86 122.57 C 177.07 121.30 175.31 119.98 173.58 118.63 C 173.29 118.57 172.70 118.47 172.41 118.42 C 170.38 117.38 168.24 116.62 166.07 115.95 C 163.54 114.60 160.73 113.97 157.91 113.59 C 157.49 113.92 156.65 114.60 156.23 114.94 C 156.06 114.45 155.71 113.48 155.54 112.99 C 154.85 113.59 154.17 114.18 153.48 114.78 C 153.49 114.38 153.51 113.58 153.52 113.18 C 151.27 113.43 149.01 113.62 146.75 113.78 C 146.38 114.03 145.65 114.52 145.28 114.77 C 145.21 114.40 145.06 113.65 144.98 113.27 C 139.69 114.37 134.32 114.95 129.03 116.04 C 127.46 116.20 126.39 117.38 125.24 118.32 C 124.89 118.20 124.20 117.96 123.85 117.85 C 123.44 119.13 123.14 120.45 122.60 121.69 C 122.21 120.70 121.98 119.65 121.92 118.56 C 124.58 115.24 128.99 114.24 133.04 113.98 C 133.31 113.70 133.86 113.13 134.13 112.85 C 135.92 113.09 137.73 113.14 139.51 112.76 Z" />
<path fill="#ffffff" opacity="1.00" d=" M 129.03 116.04 C 134.32 114.95 139.69 114.37 144.98 113.27 C 145.06 113.65 145.21 114.40 145.28 114.77 C 145.65 114.52 146.38 114.03 146.75 113.78 C 149.01 113.62 151.27 113.43 153.52 113.18 C 153.51 113.58 153.49 114.38 153.48 114.78 C 154.17 114.18 154.85 113.59 155.54 112.99 C 155.71 113.48 156.06 114.45 156.23 114.94 C 156.65 114.60 157.49 113.92 157.91 113.59 C 160.73 113.97 163.54 114.60 166.07 115.95 C 168.24 116.62 170.38 117.38 172.41 118.42 C 172.70 118.47 173.29 118.57 173.58 118.63 C 175.31 119.98 177.07 121.30 178.86 122.57 C 178.94 123.18 179.10 124.39 179.17 125.00 C 169.39 129.24 158.46 128.69 148.04 128.44 C 139.60 127.70 130.78 127.15 123.12 123.15 C 122.79 123.32 122.12 123.65 121.78 123.81 C 121.19 122.72 120.57 121.64 119.94 120.58 C 120.27 120.81 120.95 121.29 121.28 121.52 C 121.44 120.78 121.76 119.30 121.92 118.56 C 121.98 119.65 122.21 120.70 122.60 121.69 C 123.14 120.45 123.44 119.13 123.85 117.85 C 124.20 117.96 124.89 118.20 125.24 118.32 C 126.39 117.38 127.46 116.20 129.03 116.04 M 132.05 119.24 C 131.89 124.15 138.81 126.31 142.80 124.99 C 145.55 124.64 148.33 124.54 151.10 124.49 C 155.15 125.77 159.72 126.45 163.75 124.74 C 166.54 123.58 166.55 119.40 164.17 117.81 C 162.30 116.68 160.01 117.30 158.13 118.05 C 152.85 120.37 147.29 117.78 141.93 117.24 C 138.65 117.53 134.48 116.40 132.05 119.24 Z" />
<path fill="#8dc63f" opacity="1.00" d=" M 132.05 119.24 C 134.48 116.40 138.65 117.53 141.93 117.24 C 141.59 119.87 141.90 122.50 142.80 124.99 C 138.81 126.31 131.89 124.15 132.05 119.24 Z" />
<path fill="#ed217c" opacity="1.00" d=" M 141.93 117.24 C 147.29 117.78 152.85 120.37 158.13 118.05 C 158.39 119.19 158.65 120.32 158.92 121.45 C 156.16 121.99 153.16 122.36 151.10 124.49 C 148.33 124.54 145.55 124.64 142.80 124.99 C 141.90 122.50 141.59 119.87 141.93 117.24 Z" />
<path fill="#fff200" opacity="1.00" d=" M 158.13 118.05 C 160.01 117.30 162.30 116.68 164.17 117.81 C 166.55 119.40 166.54 123.58 163.75 124.74 C 159.72 126.45 155.15 125.77 151.10 124.49 C 153.16 122.36 156.16 121.99 158.92 121.45 C 158.65 120.32 158.39 119.19 158.13 118.05 Z" />
<path fill="#b48e63" opacity="1.00" d=" M 223.50 121.28 C 224.43 121.43 225.37 121.60 226.30 121.78 C 227.63 121.72 228.95 121.63 230.27 121.52 C 234.11 122.10 238.10 121.96 241.82 123.13 C 244.58 124.57 247.61 125.30 250.45 126.55 C 250.87 126.64 251.70 126.81 252.12 126.90 C 253.85 129.10 257.50 130.37 257.83 133.31 C 257.80 136.87 257.77 140.43 257.79 143.99 C 257.58 143.74 257.17 143.24 256.97 142.98 C 257.30 140.26 257.47 137.53 257.60 134.79 C 250.75 137.55 243.35 138.74 235.98 138.52 C 223.04 138.60 209.27 138.39 197.69 131.85 C 198.83 129.50 199.89 126.79 202.45 125.65 C 209.07 122.64 216.58 123.18 223.50 121.28 M 221.33 122.80 L 220.76 124.14 C 220.28 123.79 219.33 123.08 218.85 122.73 C 218.58 123.24 218.05 124.26 217.79 124.77 C 217.49 124.65 216.91 124.41 216.62 124.30 C 215.47 124.38 214.33 124.21 213.20 124.07 L 212.80 125.25 C 212.47 124.97 211.80 124.41 211.47 124.13 C 211.30 124.42 210.97 125.01 210.80 125.31 C 207.25 124.87 204.18 126.69 201.01 127.95 C 200.53 129.17 199.80 130.42 200.12 131.79 C 201.34 133.23 203.17 133.87 204.90 134.46 C 213.99 137.35 223.59 137.65 233.03 138.24 C 240.69 137.75 248.53 137.56 255.79 134.77 C 255.93 134.11 256.23 132.79 256.38 132.13 C 254.24 131.18 252.50 129.60 250.84 128.00 C 250.48 128.19 249.75 128.57 249.39 128.76 C 248.41 126.07 245.52 126.23 243.16 126.22 C 242.96 125.85 242.57 125.11 242.37 124.73 C 239.47 124.08 236.25 122.58 233.44 124.36 C 233.43 123.97 233.40 123.18 233.38 122.79 C 232.91 123.05 231.96 123.55 231.49 123.81 C 230.50 121.71 229.21 123.42 228.06 124.05 L 227.73 122.74 C 226.94 123.20 226.15 123.67 225.37 124.13 L 224.76 122.96 C 224.32 123.17 223.42 123.60 222.98 123.82 C 222.57 123.57 221.74 123.05 221.33 122.80 Z" />
<path fill="#ffffff" opacity="1.00" d=" M 221.33 122.80 C 221.74 123.05 222.57 123.57 222.98 123.82 C 223.42 123.60 224.32 123.17 224.76 122.96 L 225.37 124.13 C 226.15 123.67 226.94 123.20 227.73 122.74 L 228.06 124.05 C 229.21 123.42 230.50 121.71 231.49 123.81 C 231.96 123.55 232.91 123.05 233.38 122.79 C 233.40 123.18 233.43 123.97 233.44 124.36 C 236.25 122.58 239.47 124.08 242.37 124.73 C 242.57 125.11 242.96 125.85 243.16 126.22 C 245.52 126.23 248.41 126.07 249.39 128.76 C 249.75 128.57 250.48 128.19 250.84 128.00 C 252.50 129.60 254.24 131.18 256.38 132.13 C 256.23 132.79 255.93 134.11 255.79 134.77 C 248.53 137.56 240.69 137.75 233.03 138.24 C 223.59 137.65 213.99 137.35 204.90 134.46 C 203.17 133.87 201.34 133.23 200.12 131.79 C 199.80 130.42 200.53 129.17 201.01 127.95 C 204.18 126.69 207.25 124.87 210.80 125.31 C 210.97 125.01 211.30 124.42 211.47 124.13 C 211.80 124.41 212.47 124.97 212.80 125.25 L 213.20 124.07 C 214.33 124.21 215.47 124.38 216.62 124.30 C 216.91 124.41 217.49 124.65 217.79 124.77 C 218.05 124.26 218.58 123.24 218.85 122.73 C 219.33 123.08 220.28 123.79 220.76 124.14 L 221.33 122.80 M 209.67 131.23 C 212.05 134.21 216.30 135.90 220.03 134.69 C 222.71 134.32 225.42 134.25 228.12 134.20 L 228.34 134.05 C 232.43 135.47 237.13 136.17 241.21 134.35 C 244.16 133.07 243.81 128.35 240.96 127.21 C 239.11 126.06 237.12 127.22 235.33 127.85 C 230.02 130.06 224.52 127.41 219.17 126.88 C 216.78 126.98 214.37 126.88 212.01 127.29 C 210.23 127.53 208.38 129.48 209.67 131.23 Z" />
<path fill="#8dc63f" opacity="1.00" d=" M 209.67 131.23 C 208.38 129.48 210.23 127.53 212.01 127.29 C 214.37 126.88 216.78 126.98 219.17 126.88 C 219.08 129.51 219.32 132.14 220.03 134.69 C 216.30 135.90 212.05 134.21 209.67 131.23 Z" />
<path fill="#ed217c" opacity="1.00" d=" M 219.17 126.88 C 224.52 127.41 230.02 130.06 235.33 127.85 C 235.60 128.65 236.12 130.24 236.39 131.03 C 233.57 131.62 230.61 132.13 228.34 134.05 L 228.12 134.20 C 225.42 134.25 222.71 134.32 220.03 134.69 C 219.32 132.14 219.08 129.51 219.17 126.88 Z" />
<path fill="#fff200" opacity="1.00" d=" M 235.33 127.85 C 237.12 127.22 239.11 126.06 240.96 127.21 C 243.81 128.35 244.16 133.07 241.21 134.35 C 237.13 136.17 232.43 135.47 228.34 134.05 C 230.61 132.13 233.57 131.62 236.39 131.03 C 236.12 130.24 235.60 128.65 235.33 127.85 Z" />
<path fill="#b48e63" opacity="1.00" d=" M 113.19 130.98 C 116.06 130.43 118.96 131.24 121.83 131.43 C 125.98 132.24 129.88 133.94 133.89 135.27 C 137.89 136.61 140.86 139.80 143.30 143.12 C 134.64 147.84 124.57 147.76 115.00 147.86 C 105.67 147.13 95.73 147.43 87.17 143.13 C 101.96 147.40 117.76 148.35 132.96 145.99 C 135.81 145.29 139.68 145.16 141.04 142.10 C 139.10 140.30 137.00 138.70 134.99 136.99 C 134.60 137.44 134.21 137.88 133.83 138.33 C 132.64 135.84 130.17 135.32 127.65 135.19 C 123.98 131.78 118.49 133.16 113.94 132.18 C 113.64 132.57 113.04 133.35 112.74 133.73 C 112.62 133.40 112.38 132.72 112.26 132.38 C 107.53 132.44 102.81 132.77 98.14 133.58 C 94.02 134.33 89.55 134.52 86.08 137.16 C 84.53 137.93 84.62 139.84 84.12 141.26 C 83.90 140.09 83.68 138.93 83.45 137.76 L 83.35 137.28 C 91.75 130.78 103.15 131.54 113.19 130.98 Z" />
<path fill="#ffffff" opacity="1.00" d=" M 98.14 133.58 C 102.81 132.77 107.53 132.44 112.26 132.38 C 112.38 132.72 112.62 133.40 112.74 133.73 C 113.04 133.35 113.64 132.57 113.94 132.18 C 118.49 133.16 123.98 131.78 127.65 135.19 C 130.17 135.32 132.64 135.84 133.83 138.33 C 134.21 137.88 134.60 137.44 134.99 136.99 C 137.00 138.70 139.10 140.30 141.04 142.10 C 139.68 145.16 135.81 145.29 132.96 145.99 C 117.76 148.35 101.96 147.40 87.17 143.13 C 85.80 142.46 84.44 141.78 83.05 141.18 C 82.75 141.05 82.14 140.79 81.84 140.66 C 82.24 140.67 83.03 140.68 83.43 140.69 C 83.43 139.96 83.44 138.50 83.45 137.76 C 83.68 138.93 83.90 140.09 84.12 141.26 C 84.62 139.84 84.53 137.93 86.08 137.16 C 89.55 134.52 94.02 134.33 98.14 133.58 M 95.72 136.71 C 94.23 137.08 93.47 138.51 93.82 139.98 C 96.11 143.41 100.64 145.01 104.60 143.86 C 107.34 143.48 110.12 143.49 112.88 143.43 C 116.98 144.48 121.58 145.32 125.61 143.58 C 128.53 142.28 128.31 137.81 125.61 136.40 C 123.72 135.43 121.63 136.27 119.81 136.96 C 114.57 139.42 109.06 136.50 103.71 136.13 C 101.05 136.23 98.29 135.88 95.72 136.71 Z" />
<path fill="#c2b59b" opacity="1.00" d=" M 257.83 133.31 C 264.19 135.90 270.55 138.50 276.89 141.14 C 287.62 145.77 299.42 147.17 310.16 151.79 C 312.11 152.59 313.73 153.97 315.45 155.16 C 314.44 156.81 313.66 158.81 311.79 159.68 C 307.12 162.22 301.87 163.39 296.79 164.82 C 282.32 168.67 268.86 175.38 255.11 181.17 C 227.86 193.29 198.55 199.73 170.92 210.85 C 160.05 215.22 149.19 219.76 137.86 222.80 C 130.19 225.06 123.18 219.80 115.98 218.06 C 102.98 214.80 90.17 210.85 77.53 206.38 C 64.07 201.52 50.27 197.30 37.69 190.35 C 33.57 187.95 28.98 186.55 24.30 185.81 C 24.07 185.01 23.63 183.40 23.41 182.59 C 24.92 180.14 28.70 182.34 31.13 181.48 C 50.02 178.18 66.49 167.76 83.88 160.31 C 84.00 163.82 83.94 167.36 84.35 170.86 C 84.37 173.35 87.36 173.98 89.19 174.85 C 98.54 177.89 108.48 178.42 118.24 178.61 C 118.62 185.29 117.96 192.08 119.18 198.68 C 121.52 200.90 124.79 201.64 127.82 202.45 C 136.72 204.45 145.90 205.08 155.01 204.99 C 162.43 204.66 170.22 204.53 176.95 200.97 C 177.08 195.79 176.91 190.61 176.67 185.44 C 185.83 186.12 195.08 186.44 204.21 185.33 C 207.93 184.69 212.07 184.33 215.03 181.72 C 215.61 177.19 214.95 172.63 214.95 168.09 C 226.66 169.64 238.63 170.11 250.32 168.12 C 252.98 167.50 255.97 167.00 257.93 164.91 C 258.35 157.95 257.58 150.97 257.79 143.99 C 257.77 140.43 257.80 136.87 257.83 133.31 Z" />
<path fill="#8dc63f" opacity="1.00" d=" M 95.72 136.71 C 98.29 135.88 101.05 136.23 103.71 136.13 C 103.44 138.75 103.79 141.36 104.60 143.86 C 100.64 145.01 96.11 143.41 93.82 139.98 C 93.47 138.51 94.23 137.08 95.72 136.71 Z" />
<path fill="#ed217c" opacity="1.00" d=" M 103.71 136.13 C 109.06 136.50 114.57 139.42 119.81 136.96 C 120.15 138.09 120.50 139.22 120.86 140.35 C 118.06 140.94 114.88 141.09 112.88 143.43 C 110.12 143.49 107.34 143.48 104.60 143.86 C 103.79 141.36 103.44 138.75 103.71 136.13 Z" />
<path fill="#fff200" opacity="1.00" d=" M 119.81 136.96 C 121.63 136.27 123.72 135.43 125.61 136.40 C 128.31 137.81 128.53 142.28 125.61 143.58 C 121.58 145.32 116.98 144.48 112.88 143.43 C 114.88 141.09 118.06 140.94 120.86 140.35 C 120.50 139.22 120.15 138.09 119.81 136.96 Z" />
<path fill="#ffffff" opacity="1.00" d=" M 172.40 139.64 C 176.76 139.38 181.15 139.64 185.51 139.26 C 185.49 139.71 185.45 140.60 185.43 141.05 C 186.28 139.92 186.89 138.45 188.45 138.08 C 188.41 138.87 188.34 140.43 188.30 141.22 C 188.80 140.48 189.81 139.02 190.31 138.29 C 190.47 139.06 190.80 140.62 190.96 141.40 C 191.18 140.74 191.63 139.44 191.85 138.79 C 192.29 139.39 193.17 140.59 193.61 141.18 C 193.59 140.76 193.55 139.90 193.53 139.48 L 195.76 139.40 L 195.34 140.53 C 197.11 140.50 198.88 140.52 200.65 140.56 C 200.50 141.05 200.19 142.02 200.03 142.51 C 202.57 142.21 205.02 143.04 207.49 143.48 C 207.09 144.11 206.28 145.36 205.88 145.99 C 206.53 145.36 207.84 144.10 208.49 143.47 L 208.78 145.44 C 209.18 145.46 210.00 145.50 210.40 145.52 C 210.34 147.46 212.16 147.51 213.62 147.79 C 213.62 148.67 213.63 150.43 213.63 151.32 C 206.28 154.97 197.94 154.50 189.99 155.11 C 179.55 154.38 168.64 154.57 158.91 150.19 C 156.75 149.50 156.46 147.21 156.15 145.29 L 157.87 145.76 C 157.75 145.31 157.52 144.39 157.40 143.93 C 159.61 143.38 161.70 142.44 163.79 141.55 C 165.39 141.48 167.00 141.40 168.59 141.24 C 168.90 141.36 169.52 141.60 169.83 141.72 L 169.39 139.92 C 170.92 140.13 172.14 140.86 173.04 142.10 C 172.88 141.48 172.56 140.26 172.40 139.64 M 166.42 147.06 C 168.19 150.88 173.25 152.44 177.17 151.39 C 179.89 151.01 182.64 150.98 185.39 150.89 C 189.49 152.05 194.06 152.74 198.15 151.16 C 201.26 149.98 200.95 144.79 197.89 143.74 C 196.01 142.97 194.07 143.84 192.40 144.70 L 192.32 144.51 C 187.16 146.86 181.77 144.06 176.52 143.62 C 173.22 144.13 166.88 142.32 166.42 147.06 Z" />
<path fill="#8dc63f" opacity="1.00" d=" M 166.42 147.06 C 166.88 142.32 173.22 144.13 176.52 143.62 C 176.07 146.24 176.35 148.87 177.17 151.39 C 173.25 152.44 168.19 150.88 166.42 147.06 Z" />
<path fill="#ed217c" opacity="1.00" d=" M 176.52 143.62 C 181.77 144.06 187.16 146.86 192.32 144.51 L 192.40 144.70 C 192.85 145.72 193.30 146.74 193.76 147.77 C 190.81 148.30 187.68 148.76 185.39 150.89 C 182.64 150.98 179.89 151.01 177.17 151.39 C 176.35 148.87 176.07 146.24 176.52 143.62 Z" />
<path fill="#fff200" opacity="1.00" d=" M 192.40 144.70 C 194.07 143.84 196.01 142.97 197.89 143.74 C 200.95 144.79 201.26 149.98 198.15 151.16 C 194.06 152.74 189.49 152.05 185.39 150.89 C 187.68 148.76 190.81 148.30 193.76 147.77 C 193.30 146.74 192.85 145.72 192.40 144.70 Z" />
<path fill="#b48e63" opacity="1.00" d=" M 315.45 155.16 C 318.69 155.81 320.19 159.01 320.16 162.07 C 320.73 167.40 320.00 173.12 316.60 177.45 C 312.79 182.51 307.00 185.48 301.56 188.44 C 279.13 199.90 254.89 207.02 231.16 215.21 C 205.58 223.84 182.73 239.55 156.23 245.61 C 148.09 247.65 139.30 247.65 131.44 244.48 C 120.13 240.16 109.25 234.81 98.17 229.94 C 83.56 223.98 69.57 216.47 54.50 211.65 C 43.78 208.26 31.92 209.44 21.69 204.35 C 24.63 197.31 19.72 189.48 23.41 182.59 C 23.63 183.40 24.07 185.01 24.30 185.81 C 28.98 186.55 33.57 187.95 37.69 190.35 C 50.27 197.30 64.07 201.52 77.53 206.38 C 90.17 210.85 102.98 214.80 115.98 218.06 C 123.18 219.80 130.19 225.06 137.86 222.80 C 149.19 219.76 160.05 215.22 170.92 210.85 C 198.55 199.73 227.86 193.29 255.11 181.17 C 268.86 175.38 282.32 168.67 296.79 164.82 C 301.87 163.39 307.12 162.22 311.79 159.68 C 313.66 158.81 314.44 156.81 315.45 155.16 Z" />
<path fill="#ffffff" opacity="1.00" d=" M 139.65 158.22 C 142.24 158.53 144.86 158.53 147.46 158.26 C 147.51 158.75 147.60 159.74 147.65 160.23 C 147.93 159.43 148.48 157.81 148.76 157.00 C 149.79 158.31 151.13 158.76 152.77 158.36 C 152.68 158.75 152.49 159.54 152.40 159.93 C 153.52 157.98 155.81 158.54 157.67 158.28 L 157.29 159.43 C 159.04 159.43 160.78 159.50 162.53 159.59 C 162.44 160.13 162.27 161.21 162.19 161.76 C 162.51 161.65 163.14 161.42 163.46 161.31 C 164.28 161.34 165.90 161.39 166.72 161.42 L 166.46 162.79 C 167.03 162.61 168.17 162.25 168.74 162.07 L 168.24 164.29 C 168.86 163.82 170.10 162.88 170.73 162.41 L 170.40 164.82 C 170.88 164.64 171.84 164.30 172.31 164.12 C 172.03 166.36 173.88 166.57 175.57 166.76 C 175.55 167.59 175.50 169.27 175.48 170.11 C 174.94 170.38 173.86 170.92 173.32 171.18 C 172.26 171.52 171.21 171.86 170.17 172.22 C 166.79 172.78 163.42 173.53 159.97 173.59 C 147.75 173.97 135.24 173.95 123.46 170.25 C 121.51 169.69 119.85 168.49 118.40 167.10 C 118.10 167.58 117.51 168.54 117.22 169.02 C 117.29 168.33 117.44 166.96 117.51 166.27 L 118.69 166.88 C 118.23 165.38 118.52 164.12 119.56 163.10 L 119.57 162.02 C 120.12 162.38 121.22 163.11 121.77 163.47 L 121.31 161.20 C 121.88 161.38 123.01 161.73 123.58 161.90 L 123.27 160.46 C 125.50 160.48 127.74 160.43 129.97 160.54 L 129.53 158.73 C 130.04 159.27 131.04 160.35 131.54 160.88 C 131.57 160.41 131.61 159.47 131.63 159.00 C 132.39 159.19 133.91 159.56 134.67 159.75 L 134.78 157.72 C 135.29 158.45 136.32 159.90 136.84 160.62 L 136.33 158.39 C 136.99 158.40 138.32 158.41 138.98 158.42 L 139.29 160.16 C 139.38 159.68 139.56 158.71 139.65 158.22 M 138.30 162.39 L 138.28 162.69 C 135.30 162.58 132.03 162.01 129.29 163.54 C 127.78 164.44 128.04 166.67 129.29 167.69 C 131.85 170.00 135.57 171.42 138.97 170.23 C 141.73 169.88 144.52 169.78 147.31 169.74 C 151.36 170.95 155.91 171.73 159.95 170.04 C 162.32 169.10 163.00 165.62 161.24 163.80 C 159.59 161.65 156.55 162.53 154.43 163.30 C 149.17 165.59 143.62 163.16 138.30 162.39 Z" />
<path fill="#ed217c" opacity="1.00" d=" M 138.30 162.39 C 143.62 163.16 149.17 165.59 154.43 163.30 C 154.72 164.42 155.02 165.54 155.32 166.67 C 152.51 167.24 149.45 167.62 147.31 169.74 C 144.52 169.78 141.73 169.88 138.97 170.23 C 138.26 167.78 137.98 165.23 138.28 162.69 L 138.30 162.39 Z" />
<path fill="#8dc63f" opacity="1.00" d=" M 129.29 163.54 C 132.03 162.01 135.30 162.58 138.28 162.69 C 137.98 165.23 138.26 167.78 138.97 170.23 C 135.57 171.42 131.85 170.00 129.29 167.69 C 128.04 166.67 127.78 164.44 129.29 163.54 Z" />
<path fill="#fff200" opacity="1.00" d=" M 154.43 163.30 C 156.55 162.53 159.59 161.65 161.24 163.80 C 163.00 165.62 162.32 169.10 159.95 170.04 C 155.91 171.73 151.36 170.95 147.31 169.74 C 149.45 167.62 152.51 167.24 155.32 166.67 C 155.02 165.54 154.72 164.42 154.43 163.30 Z" />
</svg>
