<?xml version="1.0" encoding="UTF-8" ?>
<!DOCTYPE svg PUBLIC "-//W3C//DTD SVG 1.1//EN" "http://www.w3.org/Graphics/SVG/1.1/DTD/svg11.dtd">
<svg width="342pt" height="342pt" viewBox="0 0 342 342" version="1.1" xmlns="http://www.w3.org/2000/svg">
<path fill="#d8bea0" opacity="1.00" d=" M 151.59 106.49 C 167.58 101.32 184.25 98.51 200.97 97.11 C 208.17 96.77 215.87 96.20 222.56 99.38 C 227.48 101.59 229.25 107.01 231.59 111.43 C 233.60 115.50 236.81 118.91 240.68 121.28 C 250.13 127.19 261.09 129.94 271.03 134.87 C 273.23 136.04 276.13 137.52 275.85 140.47 C 273.45 142.08 270.97 143.61 268.19 144.44 C 245.70 151.17 222.10 152.27 198.83 153.73 C 172.18 157.92 145.63 162.74 119.01 167.09 C 109.76 168.31 100.26 168.74 91.05 166.95 C 88.31 166.44 85.70 165.31 83.45 163.67 C 70.73 154.33 57.98 145.03 45.22 135.75 C 43.77 134.79 42.60 133.49 42.48 131.68 C 43.37 129.59 45.54 128.56 47.42 127.54 C 54.33 124.39 61.96 123.45 69.37 122.19 C 91.96 118.36 114.56 114.56 137.15 110.72 C 142.07 109.73 146.77 107.88 151.59 106.49 Z" />
<path fill="#8b5e3b" opacity="1.00" d=" M 42.37 131.22 L 42.48 131.68 C 42.60 133.49 43.77 134.79 45.22 135.75 C 57.98 145.03 70.73 154.33 83.45 163.67 C 85.70 165.31 88.31 166.44 91.05 166.95 C 100.26 168.74 109.76 168.31 119.01 167.09 C 145.63 162.74 172.18 157.92 198.83 153.73 C 222.10 152.27 245.70 151.17 268.19 144.44 C 270.97 143.61 273.45 142.08 275.85 140.47 C 275.46 143.97 275.21 147.49 274.92 151.01 C 274.78 152.54 274.69 154.08 274.58 155.62 C 274.08 158.14 274.85 161.76 272.01 163.07 C 265.85 166.48 258.73 167.53 251.94 169.03 C 235.88 172.38 219.48 173.41 203.14 174.29 C 197.78 174.52 192.48 175.32 187.22 176.32 C 164.83 180.11 142.43 183.90 120.03 187.70 C 114.68 188.62 109.25 189.01 103.82 189.10 C 108.35 192.28 112.49 196.53 118.13 197.60 C 130.17 200.00 142.61 198.74 154.57 196.50 C 178.12 192.57 201.65 188.44 225.21 184.61 C 242.92 183.18 260.78 182.83 278.25 179.29 C 286.70 177.48 295.70 176.42 303.07 171.54 C 302.91 177.06 302.39 182.57 301.96 188.07 C 301.68 190.07 301.85 192.69 299.70 193.74 C 294.10 196.94 287.58 197.98 281.37 199.40 C 262.77 203.42 243.69 204.07 224.77 205.35 C 207.15 208.09 189.59 211.30 171.98 214.19 C 156.74 216.66 141.54 220.60 125.98 219.80 C 119.81 219.47 113.18 218.87 108.18 214.86 C 96.91 206.41 85.55 198.08 74.13 189.84 C 72.27 188.45 70.24 187.24 68.67 185.51 C 67.75 182.26 69.26 178.80 68.68 175.48 C 61.75 169.96 54.35 165.03 47.29 159.69 C 45.12 157.79 41.92 156.65 40.71 153.94 C 40.91 146.35 42.07 138.81 42.37 131.22 Z" />
<path fill="#828386" opacity="1.00" d=" M 274.92 151.01 C 286.86 155.23 298.74 160.32 308.75 168.21 C 314.86 173.25 320.70 179.74 321.64 187.93 C 322.63 194.93 319.45 201.78 314.88 206.91 C 307.41 215.25 297.39 220.77 287.26 225.24 C 273.04 231.44 257.98 235.47 242.80 238.50 C 217.89 243.38 192.45 245.26 167.09 245.15 C 134.30 244.73 101.23 241.23 69.86 231.29 C 56.40 226.83 42.96 221.26 31.95 212.12 C 25.73 206.86 20.17 199.56 20.22 191.06 C 20.04 183.51 24.48 176.79 29.71 171.73 C 34.88 166.81 40.98 162.97 47.29 159.69 C 54.35 165.03 61.75 169.96 68.68 175.48 C 69.26 178.80 67.75 182.26 68.67 185.51 C 70.24 187.24 72.27 188.45 74.13 189.84 C 85.55 198.08 96.91 206.41 108.18 214.86 C 113.18 218.87 119.81 219.47 125.98 219.80 C 141.54 220.60 156.74 216.66 171.98 214.19 C 189.59 211.30 207.15 208.09 224.77 205.35 C 243.69 204.07 262.77 203.42 281.37 199.40 C 287.58 197.98 294.10 196.94 299.70 193.74 C 301.85 192.69 301.68 190.07 301.96 188.07 C 302.39 182.57 302.91 177.06 303.07 171.54 C 303.16 169.49 302.40 167.51 300.39 166.68 C 292.20 162.10 283.10 159.49 274.58 155.62 C 274.69 154.08 274.78 152.54 274.92 151.01 Z" />
<path fill="#d8bea0" opacity="1.00" d=" M 274.58 155.62 C 283.10 159.49 292.20 162.10 300.39 166.68 C 302.40 167.51 303.16 169.49 303.07 171.54 C 295.70 176.42 286.70 177.48 278.25 179.29 C 260.78 182.83 242.92 183.18 225.21 184.61 C 201.65 188.44 178.12 192.57 154.57 196.50 C 142.61 198.74 130.17 200.00 118.13 197.60 C 112.49 196.53 108.35 192.28 103.82 189.10 C 109.25 189.01 114.68 188.62 120.03 187.70 C 142.43 183.90 164.83 180.11 187.22 176.32 C 192.48 175.32 197.78 174.52 203.14 174.29 C 219.48 173.41 235.88 172.38 251.94 169.03 C 258.73 167.53 265.85 166.48 272.01 163.07 C 274.85 161.76 274.08 158.14 274.58 155.62 Z" />
</svg>
