<?xml version="1.0" encoding="UTF-8" ?>
<!DOCTYPE svg PUBLIC "-//W3C//DTD SVG 1.1//EN" "http://www.w3.org/Graphics/SVG/1.1/DTD/svg11.dtd">
<svg width="640pt" height="253pt" viewBox="0 0 640 253" version="1.1" xmlns="http://www.w3.org/2000/svg">
<path fill="#0b0b0b" opacity="0.04" d=" M 108.02 21.06 C 111.35 20.84 114.65 19.74 118.00 20.27 C 122.93 21.02 128.14 20.96 132.61 23.48 C 138.04 25.64 141.55 30.47 145.89 34.13 C 148.96 36.82 150.10 41.09 153.35 43.61 C 157.98 47.55 164.28 48.16 170.03 49.16 C 174.69 49.66 179.53 51.37 184.09 49.53 C 188.82 50.76 193.73 50.98 198.57 51.59 C 202.51 52.29 206.18 49.47 210.08 50.75 C 215.07 52.16 220.04 50.10 225.05 50.11 C 228.74 49.91 232.39 50.48 236.03 50.98 C 242.04 51.46 248.26 51.64 253.87 54.09 C 257.52 55.50 262.11 56.09 264.58 59.38 C 265.12 64.14 264.95 68.96 264.98 73.75 C 264.80 77.81 264.71 81.88 264.64 85.95 C 263.41 81.20 261.76 76.33 257.87 73.07 C 253.46 67.93 246.77 65.97 240.42 64.46 C 227.71 62.02 214.79 63.98 201.96 63.72 C 191.48 63.88 181.38 60.46 170.97 59.78 C 163.46 58.93 155.33 59.42 148.66 55.29 C 144.61 53.09 142.39 48.90 139.61 45.44 C 135.34 40.21 130.36 34.86 123.45 33.45 C 116.16 30.94 108.15 32.79 101.66 36.57 C 96.10 39.77 93.08 45.79 90.33 51.32 C 88.11 57.61 87.39 64.35 86.75 70.96 C 86.60 85.65 86.61 100.34 86.70 115.03 C 87.10 123.21 88.55 131.51 92.01 138.98 C 95.56 143.69 99.75 148.22 104.95 151.15 C 104.94 152.86 104.94 154.56 104.97 156.28 C 105.00 158.84 105.03 161.40 105.03 163.97 C 94.72 162.22 86.49 154.10 82.03 144.98 C 78.44 135.72 77.43 125.76 76.20 115.98 C 76.07 101.31 76.22 86.62 76.11 71.94 C 76.78 63.23 78.04 54.58 80.10 46.09 C 82.03 41.35 83.77 36.23 87.71 32.73 C 93.16 27.10 99.80 21.42 108.02 21.06 Z" />
<path fill="#0c0c0c" opacity="0.05" d=" M 450.55 35.53 C 455.13 28.98 462.63 25.34 470.02 22.95 C 475.02 22.69 480.05 22.74 485.05 23.02 C 491.42 24.33 497.30 27.60 502.26 31.76 C 506.58 35.99 509.00 41.66 512.34 46.62 C 514.03 49.09 514.00 52.52 516.39 54.53 C 518.33 56.31 520.02 58.33 521.89 60.18 C 523.44 61.09 525.22 61.49 526.84 62.28 C 528.08 63.31 528.90 64.80 530.32 65.65 C 535.25 68.98 539.54 73.58 541.94 79.07 C 543.34 84.09 544.81 89.42 543.64 94.65 C 542.42 100.62 541.56 106.77 542.32 112.86 C 543.83 121.39 549.46 128.51 550.97 137.03 C 551.35 140.67 551.15 144.34 551.15 148.00 C 551.20 151.78 549.19 155.10 547.55 158.36 C 544.13 165.62 536.65 169.85 529.33 172.30 C 524.00 173.66 518.43 174.59 512.93 173.95 C 513.29 173.57 514.01 172.81 514.37 172.43 C 516.38 170.40 518.46 168.45 520.45 166.40 C 523.16 163.72 525.92 161.09 528.56 158.33 C 531.55 155.43 534.34 152.32 537.35 149.43 C 539.80 146.58 539.59 142.52 539.47 139.00 C 538.67 131.52 534.40 125.03 532.40 117.87 C 529.07 106.59 534.57 94.35 529.41 83.43 C 531.51 81.20 533.61 78.98 535.75 76.78 C 532.44 76.17 529.02 76.12 525.77 75.21 C 522.12 72.95 519.12 69.77 515.48 67.47 C 505.95 60.32 503.86 47.56 495.80 39.21 C 488.59 33.00 478.03 30.56 469.01 34.02 C 461.75 36.32 456.70 42.42 452.42 48.38 C 449.52 52.09 447.13 56.61 442.70 58.73 C 437.78 61.17 432.17 61.07 426.84 61.71 C 423.22 62.23 419.58 61.87 415.95 61.87 C 406.69 62.38 397.31 64.49 389.37 69.46 C 386.77 71.56 384.67 74.21 382.10 76.35 C 378.68 75.90 374.95 76.62 371.77 75.12 C 374.87 71.10 376.55 65.94 380.78 62.86 C 384.89 59.77 389.58 57.47 394.32 55.52 C 402.16 54.07 409.97 51.61 418.02 51.93 C 424.20 52.64 430.27 50.93 436.38 50.43 C 439.47 47.93 443.10 45.64 444.72 41.84 C 445.70 38.93 448.85 37.89 450.55 35.53 Z" />
<path fill="#1d1d1d" opacity="0.11" d=" M 101.66 36.57 C 108.15 32.79 116.16 30.94 123.45 33.45 C 130.36 34.86 135.34 40.21 139.61 45.44 C 142.39 48.90 144.61 53.09 148.66 55.29 C 155.33 59.42 163.46 58.93 170.97 59.78 C 181.38 60.46 191.48 63.88 201.96 63.72 C 214.79 63.98 227.71 62.02 240.42 64.46 C 246.77 65.97 253.46 67.93 257.87 73.07 C 261.76 76.33 263.41 81.20 264.64 85.95 C 264.71 81.88 264.80 77.81 264.98 73.75 L 265.74 74.36 C 265.86 87.50 265.73 100.63 265.75 113.77 C 265.36 115.40 264.88 117.00 264.43 118.61 C 258.40 121.56 251.55 120.48 245.44 118.44 C 244.50 116.13 243.61 113.80 242.76 111.46 C 245.09 107.56 247.99 104.03 250.14 100.02 C 252.42 100.04 254.71 100.03 257.00 100.01 C 257.05 92.25 257.01 84.49 257.00 76.73 C 252.94 76.01 248.66 75.97 244.93 74.01 C 238.14 70.69 230.41 70.64 223.04 69.99 C 212.13 70.99 200.96 72.24 190.16 69.61 C 183.86 68.01 177.58 66.11 171.04 65.77 C 162.47 64.71 153.13 65.41 145.59 60.49 C 138.34 56.02 135.51 47.17 128.39 42.57 C 122.89 38.21 115.19 38.11 108.67 39.76 C 101.74 43.23 96.10 49.68 94.47 57.37 C 91.75 65.98 92.24 75.08 91.34 83.96 C 91.41 97.92 90.50 112.04 93.31 125.81 C 94.94 133.35 98.60 140.57 104.99 145.14 C 104.99 146.62 104.99 148.10 104.98 149.58 L 104.95 151.15 C 99.75 148.22 95.56 143.69 92.01 138.98 C 88.55 131.51 87.10 123.21 86.70 115.03 C 86.61 100.34 86.60 85.65 86.75 70.96 C 87.39 64.35 88.11 57.61 90.33 51.32 C 93.08 45.79 96.10 39.77 101.66 36.57 Z" />
<path fill="#1d1d1d" opacity="0.12" d=" M 469.01 34.02 C 478.03 30.56 488.59 33.00 495.80 39.21 C 503.86 47.56 505.95 60.32 515.48 67.47 C 519.12 69.77 522.12 72.95 525.77 75.21 C 529.02 76.12 532.44 76.17 535.75 76.78 C 526.14 76.85 516.54 76.64 506.94 76.75 C 508.20 76.28 509.49 75.87 510.78 75.45 C 506.24 71.47 502.17 66.82 499.74 61.23 C 497.07 55.32 493.94 49.47 488.83 45.31 L 488.52 44.97 C 485.67 41.82 481.11 40.53 476.98 40.69 C 471.47 41.54 465.74 43.75 462.26 48.32 C 457.74 54.09 454.22 60.80 448.60 65.62 C 439.83 70.56 429.45 68.16 419.90 68.81 C 412.91 69.40 405.57 69.87 399.30 73.34 C 396.45 74.93 393.26 75.73 390.17 76.69 C 390.21 79.63 390.20 82.57 390.19 85.52 C 386.56 87.98 384.55 91.96 381.82 95.27 C 381.77 89.26 381.69 83.24 381.52 77.23 L 382.10 76.35 C 384.67 74.21 386.77 71.56 389.37 69.46 C 397.31 64.49 406.69 62.38 415.95 61.87 C 419.58 61.87 423.22 62.23 426.84 61.71 C 432.17 61.07 437.78 61.17 442.70 58.73 C 447.13 56.61 449.52 52.09 452.42 48.38 C 456.70 42.42 461.75 36.32 469.01 34.02 Z" />
<path fill="#2c2c2c" opacity="0.18" d=" M 108.67 39.76 C 115.19 38.11 122.89 38.21 128.39 42.57 C 135.51 47.17 138.34 56.02 145.59 60.49 C 153.13 65.41 162.47 64.71 171.04 65.77 C 177.58 66.11 183.86 68.01 190.16 69.61 C 200.96 72.24 212.13 70.99 223.04 69.99 C 230.41 70.64 238.14 70.69 244.93 74.01 C 248.66 75.97 252.94 76.01 257.00 76.73 C 236.74 76.80 216.49 76.66 196.23 76.73 C 196.24 77.55 196.24 79.19 196.24 80.01 C 191.73 79.21 187.96 76.48 183.66 75.09 C 173.87 71.84 163.47 70.52 153.17 70.52 C 148.46 70.34 143.99 68.39 140.14 65.77 C 134.86 62.24 132.38 55.83 126.77 52.69 C 126.77 50.13 126.76 47.58 126.76 45.02 C 119.51 44.93 112.26 44.96 105.00 45.01 C 104.99 46.92 104.97 48.83 104.98 50.74 C 99.67 56.86 98.05 65.07 97.51 72.92 C 97.30 86.61 97.32 100.30 97.36 114.00 C 97.23 122.27 99.26 131.00 104.98 137.25 C 104.98 139.22 105.00 141.20 105.00 143.18 C 104.99 143.67 104.99 144.65 104.99 145.14 C 98.60 140.57 94.94 133.35 93.31 125.81 C 90.50 112.04 91.41 97.92 91.34 83.96 C 92.24 75.08 91.75 65.98 94.47 57.37 C 96.10 49.68 101.74 43.23 108.67 39.76 Z" />
<path fill="#303030" opacity="0.19" d=" M 462.26 48.32 C 465.74 43.75 471.47 41.54 476.98 40.69 C 481.11 40.53 485.67 41.82 488.52 44.97 C 481.35 45.04 474.18 44.98 467.01 45.00 C 467.00 48.22 466.96 51.44 466.96 54.66 C 462.93 58.62 460.85 64.00 457.34 68.36 C 455.12 71.54 451.73 73.53 448.73 75.86 C 451.47 76.07 454.22 76.02 456.97 76.05 C 457.48 76.21 458.49 76.53 458.99 76.69 L 458.41 76.70 C 435.91 76.66 413.41 76.77 390.91 76.72 L 390.17 76.69 C 393.26 75.73 396.45 74.93 399.30 73.34 C 405.57 69.87 412.91 69.40 419.90 68.81 C 429.45 68.16 439.83 70.56 448.60 65.62 C 454.22 60.80 457.74 54.09 462.26 48.32 Z" />
<path fill="#fefefe" opacity="1.00" d=" M 105.00 45.01 C 112.26 44.96 119.51 44.93 126.76 45.02 C 126.76 47.58 126.77 50.13 126.77 52.69 C 126.74 56.06 126.76 59.43 126.75 62.80 C 126.71 68.36 126.80 73.93 126.76 79.49 C 126.72 84.56 126.78 89.62 126.78 94.69 C 130.25 91.24 133.79 87.88 137.21 84.40 C 139.94 81.83 142.67 79.26 145.33 76.63 C 159.29 76.80 173.25 76.70 187.21 76.78 C 187.24 79.82 187.28 82.85 187.26 85.89 C 187.30 100.92 187.29 115.95 187.17 130.98 C 179.89 131.09 172.74 132.52 165.53 133.36 C 165.50 130.76 165.48 128.16 165.51 125.56 C 165.56 121.01 165.45 116.46 165.50 111.91 C 165.50 103.17 165.52 94.44 165.47 85.71 C 156.56 94.63 148.10 103.99 139.25 112.98 C 141.80 115.62 144.18 118.42 146.82 120.97 C 149.31 123.40 151.70 125.93 154.21 128.36 C 156.02 130.14 157.82 131.95 159.60 133.77 C 150.76 136.17 141.47 135.96 132.59 138.22 C 130.60 136.26 128.70 134.20 126.74 132.21 C 126.74 132.70 126.73 133.69 126.73 134.18 C 122.64 132.49 118.20 131.20 114.78 128.27 C 111.94 125.39 109.94 121.72 106.59 119.34 C 106.18 119.75 105.34 120.57 104.92 120.98 C 104.79 97.57 105.00 74.16 104.98 50.74 C 104.97 48.83 104.99 46.92 105.00 45.01 Z" />
<path fill="#ffffff" opacity="1.00" d=" M 265.75 45.00 C 273.01 45.01 280.26 44.97 287.52 45.03 C 287.47 61.63 287.53 78.24 287.49 94.84 C 293.81 89.00 299.77 82.79 305.89 76.75 C 311.59 76.76 317.29 76.74 322.99 76.76 C 323.02 66.17 322.99 55.59 323.00 45.00 C 330.25 45.01 337.50 44.99 344.76 45.01 C 344.78 55.60 344.67 66.20 344.81 76.78 C 357.05 76.70 369.28 76.77 381.51 76.69 C 381.23 85.81 381.33 94.94 381.34 104.06 C 374.10 104.15 367.04 106.01 359.83 106.38 C 359.83 104.25 359.85 102.12 359.87 99.99 L 359.20 100.00 C 358.74 100.00 357.83 100.02 357.37 100.03 C 354.00 100.01 350.64 99.98 347.28 100.01 C 339.19 100.00 331.10 99.99 323.00 100.00 C 323.01 96.27 322.99 92.54 323.01 88.81 C 318.99 93.30 314.68 97.54 310.58 101.96 C 309.24 103.37 307.87 104.74 306.54 106.15 C 305.21 107.57 303.88 108.98 302.52 110.36 C 301.64 111.25 300.79 112.16 299.94 113.07 C 300.30 113.43 301.01 114.13 301.36 114.48 C 289.55 116.37 277.65 117.62 265.78 119.10 C 265.78 117.32 265.76 115.55 265.75 113.77 C 265.73 100.63 265.86 87.50 265.74 74.36 C 265.70 64.57 265.76 54.79 265.75 45.00 Z" />
<path fill="#ffffff" opacity="1.00" d=" M 467.01 45.00 C 474.18 44.98 481.35 45.04 488.52 44.97 L 488.83 45.31 C 488.74 48.73 488.73 52.15 488.76 55.57 C 488.71 62.94 488.79 70.32 488.76 77.69 C 488.76 83.31 488.68 88.93 488.82 94.55 C 488.74 94.62 488.58 94.76 488.51 94.82 C 488.17 92.92 487.84 91.01 487.51 89.10 C 480.62 89.47 473.80 90.68 466.99 91.77 C 467.01 87.72 467.03 83.67 466.96 79.62 C 466.96 73.64 467.04 67.66 466.99 61.69 C 466.98 59.34 466.98 57.00 466.96 54.66 C 466.96 51.44 467.00 48.22 467.01 45.00 Z" />
<path fill="#333333" opacity="0.20" d=" M 488.83 45.31 C 493.94 49.47 497.07 55.32 499.74 61.23 C 502.17 66.82 506.24 71.47 510.78 75.45 C 509.49 75.87 508.20 76.28 506.94 76.75 C 506.42 77.25 505.40 78.24 504.89 78.73 C 496.23 73.66 494.88 62.81 488.76 55.57 C 488.73 52.15 488.74 48.73 488.83 45.31 Z" />
<path fill="#474747" opacity="0.28" d=" M 97.51 72.92 C 98.05 65.07 99.67 56.86 104.98 50.74 C 105.00 74.16 104.79 97.57 104.92 120.98 C 104.96 126.40 105.04 131.82 104.98 137.25 C 99.26 131.00 97.23 122.27 97.36 114.00 C 97.32 100.30 97.30 86.61 97.51 72.92 Z" />
<path fill="#474747" opacity="0.28" d=" M 126.77 52.69 C 132.38 55.83 134.86 62.24 140.14 65.77 C 143.99 68.39 148.46 70.34 153.17 70.52 C 163.47 70.52 173.87 71.84 183.66 75.09 C 187.96 76.48 191.73 79.21 196.24 80.01 C 196.27 84.35 196.22 88.69 196.25 93.03 C 193.11 90.83 190.10 88.46 187.26 85.89 C 187.28 82.85 187.24 79.82 187.21 76.78 C 173.25 76.70 159.29 76.80 145.33 76.63 C 141.70 74.20 137.43 72.76 134.18 69.77 C 131.66 67.50 129.28 65.07 126.75 62.80 C 126.76 59.43 126.74 56.06 126.77 52.69 Z" />
<path fill="#414141" opacity="0.26" d=" M 457.34 68.36 C 460.85 64.00 462.93 58.62 466.96 54.66 C 466.98 57.00 466.98 59.34 466.99 61.69 C 462.71 65.78 460.81 71.60 456.97 76.05 C 454.22 76.02 451.47 76.07 448.73 75.86 C 451.73 73.53 455.12 71.54 457.34 68.36 Z" />
<path fill="#4c4c4c" opacity="0.30" d=" M 488.76 55.57 C 494.88 62.81 496.23 73.66 504.89 78.73 C 502.59 81.06 500.23 83.32 497.95 85.66 C 494.82 83.08 491.91 80.24 488.76 77.69 C 488.79 70.32 488.71 62.94 488.76 55.57 Z" />
<path fill="#545454" opacity="0.33" d=" M 456.97 76.05 C 460.81 71.60 462.71 65.78 466.99 61.69 C 467.04 67.66 466.96 73.64 466.96 79.62 C 463.95 83.45 462.57 88.27 459.39 91.99 C 459.16 86.90 459.06 81.80 458.99 76.69 C 458.49 76.53 457.48 76.21 456.97 76.05 Z" />
<path fill="#646464" opacity="0.39" d=" M 126.75 62.80 C 129.28 65.07 131.66 67.50 134.18 69.77 C 137.43 72.76 141.70 74.20 145.33 76.63 C 142.67 79.26 139.94 81.83 137.21 84.40 C 133.87 82.47 130.38 80.82 126.76 79.49 C 126.80 73.93 126.71 68.36 126.75 62.80 Z" />
<path fill="#fefefe" opacity="1.00" d=" M 196.23 76.73 C 216.49 76.66 236.74 76.80 257.00 76.73 C 257.01 84.49 257.05 92.25 257.00 100.01 C 254.71 100.03 252.42 100.04 250.14 100.02 C 244.89 99.95 239.65 100.05 234.41 100.02 C 228.95 99.95 223.50 100.06 218.04 100.03 C 218.04 108.78 218.00 117.52 218.03 126.27 C 211.68 126.98 205.25 127.47 199.01 128.90 C 197.00 129.13 196.86 131.47 196.26 132.99 C 196.33 127.61 196.22 122.22 196.27 116.84 C 196.26 108.90 196.27 100.96 196.25 93.03 C 196.22 88.69 196.27 84.35 196.24 80.01 C 196.24 79.19 196.24 77.55 196.23 76.73 Z" />
<path fill="#7b7c7c" opacity="0.53" d=" M 381.51 76.69 L 381.52 77.23 C 381.69 83.24 381.77 89.26 381.82 95.27 C 381.76 98.56 381.76 101.86 381.80 105.15 C 381.79 108.18 381.77 111.21 381.78 114.24 C 381.68 121.45 381.63 128.66 381.78 135.87 C 381.80 138.31 381.82 140.74 381.79 143.18 C 381.73 146.18 381.58 149.18 381.54 152.18 C 381.50 155.55 381.39 158.93 381.43 162.30 L 381.29 161.51 C 381.06 160.33 380.82 159.15 380.56 157.97 C 371.74 157.25 362.85 157.75 354.05 158.57 C 344.68 158.76 335.27 159.04 325.95 157.90 C 316.52 157.37 306.97 158.44 297.64 156.50 C 298.60 155.50 299.55 154.49 300.49 153.47 C 301.70 152.13 302.95 150.83 304.23 149.54 C 329.95 149.48 355.68 149.63 381.40 149.47 C 381.27 134.33 381.51 119.20 381.34 104.06 C 381.33 94.94 381.23 85.81 381.51 76.69 Z" />
<path fill="#eceded" opacity="1.00" d=" M 390.17 76.69 L 390.91 76.72 C 390.73 85.17 390.66 93.64 390.94 102.10 C 391.02 106.62 390.90 111.15 391.34 115.66 C 393.82 116.55 396.47 118.20 399.17 117.16 C 403.40 115.74 407.88 116.12 412.26 116.09 C 412.27 119.46 412.27 122.83 412.27 126.20 C 418.10 126.28 423.92 126.22 429.75 126.25 C 429.76 132.49 429.73 138.74 429.71 144.98 C 429.70 146.52 429.75 148.05 429.85 149.59 L 429.35 149.56 C 416.50 149.51 403.65 149.52 390.79 149.56 L 390.19 149.56 C 390.26 147.45 390.26 145.33 390.25 143.22 C 390.24 141.19 390.24 139.16 390.25 137.12 C 390.21 126.63 390.26 116.15 390.20 105.66 C 390.21 101.96 390.22 98.27 390.20 94.57 C 390.22 91.55 390.22 88.53 390.19 85.52 C 390.20 82.57 390.21 79.63 390.17 76.69 Z" />
<path fill="#ffffff" opacity="1.00" d=" M 390.91 76.72 C 413.41 76.77 435.91 76.66 458.41 76.70 C 458.45 82.15 458.45 87.60 458.47 93.05 C 449.82 94.41 441.13 95.55 432.42 96.46 C 418.66 98.81 404.77 100.23 390.94 102.10 C 390.66 93.64 390.73 85.17 390.91 76.72 Z" />
<path fill="#646464" opacity="0.39" d=" M 458.41 76.70 L 458.99 76.69 C 459.06 81.80 459.16 86.90 459.39 91.99 C 462.57 88.27 463.95 83.45 466.96 79.62 C 467.03 83.67 467.01 87.72 466.99 91.77 C 466.97 97.41 466.95 103.04 466.94 108.68 C 466.89 117.87 466.99 127.05 467.00 136.24 C 464.52 134.13 462.15 131.89 459.79 129.65 C 459.24 131.80 458.74 133.97 458.48 136.19 C 458.47 135.12 458.46 134.06 458.46 132.99 C 458.44 126.33 458.51 119.68 458.48 113.02 C 458.47 106.36 458.50 99.70 458.47 93.05 C 458.45 87.60 458.45 82.15 458.41 76.70 Z" />
<path fill="#f5f5f5" opacity="1.00" d=" M 504.89 78.73 C 505.40 78.24 506.42 77.25 506.94 76.75 C 516.54 76.64 526.14 76.85 535.75 76.78 C 533.61 78.98 531.51 81.20 529.41 83.43 C 528.07 84.80 526.72 86.16 525.43 87.57 C 524.19 88.90 522.93 90.20 521.67 91.50 C 520.40 92.81 519.18 94.15 517.92 95.46 C 516.81 96.58 515.69 97.71 514.60 98.85 C 513.81 99.67 513.04 100.50 512.27 101.33 C 508.84 101.23 505.41 100.97 501.98 101.16 C 498.18 101.08 495.77 104.94 492.04 105.09 C 487.60 105.38 483.14 104.85 478.70 105.33 C 478.07 106.51 477.99 108.13 476.88 108.97 C 473.58 109.49 470.24 108.82 466.94 108.68 C 466.95 103.04 466.97 97.41 466.99 91.77 C 473.80 90.68 480.62 89.47 487.51 89.10 C 487.84 91.01 488.17 92.92 488.51 94.82 C 488.58 94.76 488.74 94.62 488.82 94.55 C 491.95 91.68 494.96 88.68 497.95 85.66 C 500.23 83.32 502.59 81.06 504.89 78.73 Z" />
<path fill="#676767" opacity="0.40" d=" M 488.76 77.69 C 491.91 80.24 494.82 83.08 497.95 85.66 C 494.96 88.68 491.95 91.68 488.82 94.55 C 488.68 88.93 488.76 83.31 488.76 77.69 Z" />
<path fill="#818181" opacity="0.51" d=" M 126.76 79.49 C 130.38 80.82 133.87 82.47 137.21 84.40 C 133.79 87.88 130.25 91.24 126.78 94.69 C 126.78 89.62 126.72 84.56 126.76 79.49 Z" />
<path fill="#1c1c1c" opacity="0.11" d=" M 525.43 87.57 C 526.72 86.16 528.07 84.80 529.41 83.43 C 534.57 94.35 529.07 106.59 532.40 117.87 C 534.40 125.03 538.67 131.52 539.47 139.00 C 539.59 142.52 539.80 146.58 537.35 149.43 C 537.24 149.42 537.03 149.41 536.93 149.41 C 535.89 148.37 534.90 147.32 533.90 146.28 C 536.82 137.04 531.61 128.07 528.55 119.59 C 524.74 109.23 529.31 97.89 525.43 87.57 Z" />
<path fill="#5c5c5c" opacity="0.36" d=" M 187.26 85.89 C 190.10 88.46 193.11 90.83 196.25 93.03 C 196.27 100.96 196.26 108.90 196.27 116.84 C 193.70 118.46 190.97 119.84 188.59 121.72 C 187.38 124.63 187.89 127.92 187.72 130.99 C 187.71 133.00 187.67 135.01 187.68 137.03 C 187.68 139.07 187.73 141.11 187.68 143.15 C 187.60 145.10 187.39 147.03 187.26 148.98 C 187.00 142.98 187.17 136.98 187.17 130.98 C 187.29 115.95 187.30 100.92 187.26 85.89 Z" />
<path fill="#353535" opacity="0.21" d=" M 381.82 95.27 C 384.55 91.96 386.56 87.98 390.19 85.52 C 390.22 88.53 390.22 91.55 390.20 94.57 C 387.08 97.85 385.22 102.13 381.80 105.15 C 381.76 101.86 381.76 98.56 381.82 95.27 Z" />
<path fill="#757575" opacity="0.46" d=" M 139.25 112.98 C 148.10 103.99 156.56 94.63 165.47 85.71 C 165.52 94.44 165.50 103.17 165.50 111.91 C 162.19 111.59 158.42 110.36 155.37 112.29 C 151.95 114.55 149.56 117.98 146.82 120.97 C 144.18 118.42 141.80 115.62 139.25 112.98 Z" />
<path fill="#272727" opacity="0.15" d=" M 521.67 91.50 C 522.93 90.20 524.19 88.90 525.43 87.57 C 529.31 97.89 524.74 109.23 528.55 119.59 C 531.61 128.07 536.82 137.04 533.90 146.28 C 532.54 144.92 531.18 143.57 529.83 142.22 C 530.59 130.55 522.24 120.57 522.81 108.93 C 522.63 103.12 523.66 97.12 521.67 91.50 Z" />
<path fill="#343434" opacity="0.20" d=" M 517.92 95.46 C 519.18 94.15 520.40 92.81 521.67 91.50 C 523.66 97.12 522.63 103.12 522.81 108.93 C 522.24 120.57 530.59 130.55 529.83 142.22 C 528.18 140.58 526.54 138.92 524.90 137.28 C 524.71 129.89 520.96 123.28 519.79 116.07 C 518.12 109.29 519.80 102.19 517.92 95.46 Z" />
<path fill="#f7f7f7" opacity="1.00" d=" M 432.42 96.46 C 441.13 95.55 449.82 94.41 458.47 93.05 C 458.50 99.70 458.47 106.36 458.48 113.02 C 450.99 111.92 444.07 115.34 436.75 116.07 C 436.76 110.73 436.70 105.39 436.74 100.06 C 428.58 100.01 420.42 100.03 412.26 100.05 C 412.29 105.40 412.24 110.74 412.26 116.09 C 407.88 116.12 403.40 115.74 399.17 117.16 C 396.47 118.20 393.82 116.55 391.34 115.66 C 390.90 111.15 391.02 106.62 390.94 102.10 C 404.77 100.23 418.66 98.81 432.42 96.46 Z" />
<path fill="#404040" opacity="0.26" d=" M 381.80 105.15 C 385.22 102.13 387.08 97.85 390.20 94.57 C 390.22 98.27 390.21 101.96 390.20 105.66 C 387.38 108.54 385.97 112.96 381.78 114.24 C 381.77 111.21 381.79 108.18 381.80 105.15 Z" />
<path fill="#414141" opacity="0.25" d=" M 514.60 98.85 C 515.69 97.71 516.81 96.58 517.92 95.46 C 519.80 102.19 518.12 109.29 519.79 116.07 C 520.96 123.28 524.71 129.89 524.90 137.28 C 523.03 135.48 521.27 133.58 519.52 131.68 C 519.09 124.96 515.72 118.81 515.60 112.05 C 515.49 107.63 514.67 103.27 514.60 98.85 Z" />
<path fill="#535353" opacity="0.33" d=" M 512.27 101.33 C 513.04 100.50 513.81 99.67 514.60 98.85 C 514.67 103.27 515.49 107.63 515.60 112.05 C 515.72 118.81 519.09 124.96 519.52 131.68 C 516.52 128.66 513.53 125.63 510.53 122.63 C 511.09 116.80 509.61 111.10 508.37 105.46 C 509.68 104.09 510.96 102.70 512.27 101.33 Z" />
<path fill="#434343" opacity="0.27" d=" M 218.04 100.03 C 223.50 100.06 228.95 99.95 234.41 100.02 C 231.71 104.67 226.83 108.45 226.59 114.19 C 226.30 118.92 229.89 122.48 232.19 126.23 C 227.47 126.29 222.75 126.15 218.03 126.27 C 218.00 117.52 218.04 108.78 218.04 100.03 Z" />
<path fill="#313232" opacity="0.20" d=" M 234.41 100.02 C 239.65 100.05 244.89 99.95 250.14 100.02 C 247.99 104.03 245.09 107.56 242.76 111.46 C 243.61 113.80 244.50 116.13 245.44 118.44 C 251.55 120.48 258.40 121.56 264.43 118.61 C 264.88 117.00 265.36 115.40 265.75 113.77 C 265.76 115.55 265.78 117.32 265.78 119.10 C 265.69 129.25 265.73 139.40 265.77 149.55 C 265.18 148.02 264.47 146.56 263.77 145.08 C 261.50 145.13 259.23 145.29 257.00 145.71 C 257.01 139.22 257.04 132.73 256.99 126.23 C 248.72 126.25 240.45 126.23 232.19 126.23 C 229.89 122.48 226.30 118.92 226.59 114.19 C 226.83 108.45 231.71 104.67 234.41 100.02 Z" />
<path fill="#101010" opacity="0.07" d=" M 347.28 100.01 C 350.64 99.98 354.00 100.01 357.37 100.03 C 349.87 105.60 341.63 111.35 331.99 111.92 C 323.16 112.58 314.38 110.06 306.54 106.15 C 307.87 104.74 309.24 103.37 310.58 101.96 C 315.23 103.73 319.85 106.15 324.96 106.11 C 328.58 106.16 332.24 106.31 335.83 105.69 C 340.01 104.66 343.72 102.34 347.28 100.01 Z" />
<path fill="#19191a" opacity="0.11" d=" M 357.37 100.03 C 357.83 100.02 358.74 100.00 359.20 100.00 C 359.21 101.59 359.22 103.20 359.23 104.80 C 350.52 111.45 340.26 117.33 328.97 117.19 C 319.77 116.90 311.00 113.66 302.52 110.36 C 303.88 108.98 305.21 107.57 306.54 106.15 C 314.38 110.06 323.16 112.58 331.99 111.92 C 341.63 111.35 349.87 105.60 357.37 100.03 Z" />
<path fill="#3d3e3e" opacity="0.26" d=" M 359.20 100.00 L 359.87 99.99 C 359.85 102.12 359.83 104.25 359.83 106.38 C 359.81 112.99 359.75 119.60 359.72 126.21 C 354.35 126.26 348.98 126.25 343.62 126.24 C 348.25 122.82 353.95 121.12 358.41 117.47 C 359.33 115.47 358.99 113.12 359.19 110.98 C 359.22 108.92 359.22 106.86 359.23 104.80 C 359.22 103.20 359.21 101.59 359.20 100.00 Z" />
<path fill="#4b4b4b" opacity="0.29" d=" M 412.26 100.05 C 420.42 100.03 428.58 100.01 436.74 100.06 C 436.70 105.39 436.76 110.73 436.75 116.07 C 436.74 121.69 436.74 127.32 436.77 132.95 C 436.77 134.87 436.80 136.80 436.75 138.73 C 436.29 140.32 435.74 141.88 435.21 143.46 C 433.38 143.98 431.55 144.49 429.71 144.98 C 429.73 138.74 429.76 132.49 429.75 126.25 C 423.92 126.22 418.10 126.28 412.27 126.20 C 412.27 122.83 412.27 119.46 412.26 116.09 C 412.24 110.74 412.29 105.40 412.26 100.05 Z" />
<path fill="#eceded" opacity="1.00" d=" M 492.04 105.09 C 495.77 104.94 498.18 101.08 501.98 101.16 C 505.41 100.97 508.84 101.23 512.27 101.33 C 510.96 102.70 509.68 104.09 508.37 105.46 C 505.88 107.96 503.49 110.55 501.15 113.18 C 504.27 116.33 507.34 119.53 510.53 122.63 C 513.53 125.63 516.52 128.66 519.52 131.68 C 521.27 133.58 523.03 135.48 524.90 137.28 C 526.54 138.92 528.18 140.58 529.83 142.22 C 531.18 143.57 532.54 144.92 533.90 146.28 C 534.90 147.32 535.89 148.37 536.93 149.41 C 526.39 149.55 515.86 149.60 505.33 149.53 C 504.68 148.86 504.03 148.19 503.40 147.52 C 501.78 145.81 500.18 144.09 498.54 142.41 C 495.35 138.98 491.94 135.76 488.76 132.33 C 488.78 136.19 488.73 140.05 488.72 143.91 C 488.71 145.31 488.72 146.72 488.75 148.13 C 488.75 148.49 488.76 149.22 488.76 149.58 C 481.50 149.54 474.24 149.45 466.98 149.60 C 466.99 147.10 466.98 144.60 466.98 142.10 C 466.98 140.15 466.99 138.19 467.00 136.24 C 466.99 127.05 466.89 117.87 466.94 108.68 C 470.24 108.82 473.58 109.49 476.88 108.97 C 477.99 108.13 478.07 106.51 478.70 105.33 C 483.14 104.85 487.60 105.38 492.04 105.09 Z" />
<path fill="#eaebec" opacity="1.00" d=" M 359.83 106.38 C 367.04 106.01 374.10 104.15 381.34 104.06 C 381.51 119.20 381.27 134.33 381.40 149.47 C 355.68 149.63 329.95 149.48 304.23 149.54 C 302.99 148.21 301.74 146.89 300.46 145.60 C 296.16 141.10 291.87 136.59 287.50 132.16 C 287.60 137.95 287.37 143.75 287.51 149.55 C 280.26 149.51 273.02 149.48 265.77 149.55 C 265.73 139.40 265.69 129.25 265.78 119.10 C 277.65 117.62 289.55 116.37 301.36 114.48 C 302.35 115.45 303.34 116.42 304.31 117.41 C 310.28 123.93 316.79 129.93 322.93 136.29 C 322.92 132.94 322.95 129.59 322.99 126.25 C 329.87 126.24 336.74 126.25 343.62 126.24 C 348.98 126.25 354.35 126.26 359.72 126.21 C 359.75 119.60 359.81 112.99 359.83 106.38 Z" />
<path fill="#252526" opacity="0.16" d=" M 328.97 117.19 C 340.26 117.33 350.52 111.45 359.23 104.80 C 359.22 106.86 359.22 108.92 359.19 110.98 C 349.77 117.47 338.81 123.32 326.98 122.17 C 318.99 122.76 312.15 117.60 304.31 117.41 C 303.34 116.42 302.35 115.45 301.36 114.48 C 301.01 114.13 300.30 113.43 299.94 113.07 C 300.79 112.16 301.64 111.25 302.52 110.36 C 311.00 113.66 319.77 116.90 328.97 117.19 Z" />
<path fill="#4a4a4a" opacity="0.30" d=" M 381.78 114.24 C 385.97 112.96 387.38 108.54 390.20 105.66 C 390.26 116.15 390.21 126.63 390.25 137.12 C 387.42 136.70 384.60 136.29 381.78 135.87 C 381.63 128.66 381.68 121.45 381.78 114.24 Z" />
<path fill="#6b6b6b" opacity="0.42" d=" M 501.15 113.18 C 503.49 110.55 505.88 107.96 508.37 105.46 C 509.61 111.10 511.09 116.80 510.53 122.63 C 507.34 119.53 504.27 116.33 501.15 113.18 Z" />
<path fill="#606060" opacity="0.38" d=" M 155.37 112.29 C 158.42 110.36 162.19 111.59 165.50 111.91 C 165.45 116.46 165.56 121.01 165.51 125.56 C 161.50 125.14 157.66 126.40 154.21 128.36 C 151.70 125.93 149.31 123.40 146.82 120.97 C 149.56 117.98 151.95 114.55 155.37 112.29 Z" />
<path fill="#313132" opacity="0.21" d=" M 326.98 122.17 C 338.81 123.32 349.77 117.47 359.19 110.98 C 358.99 113.12 359.33 115.47 358.41 117.47 C 353.95 121.12 348.25 122.82 343.62 126.24 C 336.74 126.25 329.87 126.24 322.99 126.25 C 322.95 129.59 322.92 132.94 322.93 136.29 C 316.79 129.93 310.28 123.93 304.31 117.41 C 312.15 117.60 318.99 122.76 326.98 122.17 Z" />
<path fill="#f0f0f1" opacity="1.00" d=" M 436.75 116.07 C 444.07 115.34 450.99 111.92 458.48 113.02 C 458.51 119.68 458.44 126.33 458.46 132.99 C 451.23 133.09 444.00 132.92 436.77 132.95 C 436.74 127.32 436.74 121.69 436.75 116.07 Z" />
<path fill="#4d4d4d" opacity="0.31" d=" M 188.59 121.72 C 190.97 119.84 193.70 118.46 196.27 116.84 C 196.22 122.22 196.33 127.61 196.26 132.99 C 193.43 132.22 190.59 131.55 187.72 130.99 C 187.89 127.92 187.38 124.63 188.59 121.72 Z" />
<path fill="#f5f6f6" opacity="1.00" d=" M 106.59 119.34 C 109.94 121.72 111.94 125.39 114.78 128.27 C 118.20 131.20 122.64 132.49 126.73 134.18 C 126.77 135.33 126.86 136.47 126.98 137.62 C 120.90 139.88 114.33 139.61 107.97 140.17 C 106.20 140.03 105.77 142.03 105.00 143.18 C 105.00 141.20 104.98 139.22 104.98 137.25 C 105.04 131.82 104.96 126.40 104.92 120.98 C 105.34 120.57 106.18 119.75 106.59 119.34 Z" />
<path fill="#454545" opacity="0.27" d=" M 154.21 128.36 C 157.66 126.40 161.50 125.14 165.51 125.56 C 165.48 128.16 165.50 130.76 165.53 133.36 C 165.55 135.44 165.54 137.53 165.51 139.61 C 163.49 137.72 161.53 135.75 159.60 133.77 C 157.82 131.95 156.02 130.14 154.21 128.36 Z" />
<path fill="#ebeced" opacity="1.00" d=" M 199.01 128.90 C 205.25 127.47 211.68 126.98 218.03 126.27 C 222.75 126.15 227.47 126.29 232.19 126.23 C 240.45 126.23 248.72 126.25 256.99 126.23 C 257.04 132.73 257.01 139.22 257.00 145.71 C 257.00 146.99 257.00 148.27 257.00 149.55 C 236.75 149.52 216.50 149.50 196.26 149.57 C 196.25 148.50 196.25 147.43 196.25 146.37 C 196.25 144.22 196.25 142.08 196.25 139.93 C 196.25 137.62 196.20 135.30 196.26 132.99 C 196.86 131.47 197.00 129.13 199.01 128.90 Z" />
<path fill="#555555" opacity="0.33" d=" M 458.48 136.19 C 458.74 133.97 459.24 131.80 459.79 129.65 C 462.15 131.89 464.52 134.13 467.00 136.24 C 466.99 138.19 466.98 140.15 466.98 142.10 C 464.08 140.85 461.25 139.47 458.48 137.97 C 458.48 137.53 458.48 136.63 458.48 136.19 Z" />
<path fill="#ecedee" opacity="1.00" d=" M 165.53 133.36 C 172.74 132.52 179.89 131.09 187.17 130.98 C 187.17 136.98 187.00 142.98 187.26 148.98 L 187.25 149.61 C 172.65 149.44 158.04 149.58 143.44 149.56 C 143.23 149.34 142.80 148.88 142.59 148.65 C 140.78 146.59 138.79 144.71 136.90 142.73 C 135.51 141.18 134.08 139.67 132.59 138.22 C 141.47 135.96 150.76 136.17 159.60 133.77 C 161.53 135.75 163.49 137.72 165.51 139.61 C 165.54 137.53 165.55 135.44 165.53 133.36 Z" />
<path fill="#3b3b3b" opacity="0.24" d=" M 187.72 130.99 C 190.59 131.55 193.43 132.22 196.26 132.99 C 196.20 135.30 196.25 137.62 196.25 139.93 C 193.39 138.97 190.53 138.01 187.68 137.03 C 187.67 135.01 187.71 133.00 187.72 130.99 Z" />
<path fill="#494949" opacity="0.29" d=" M 126.74 132.21 C 128.70 134.20 130.60 136.26 132.59 138.22 C 134.08 139.67 135.51 141.18 136.90 142.73 C 134.13 143.40 131.36 144.06 128.58 144.68 C 128.11 146.09 127.61 147.49 127.17 148.92 C 127.14 145.15 127.45 141.37 126.98 137.62 C 126.86 136.47 126.77 135.33 126.73 134.18 C 126.73 133.69 126.74 132.70 126.74 132.21 Z" />
<path fill="#3d3e3e" opacity="0.26" d=" M 287.50 132.16 C 291.87 136.59 296.16 141.10 300.46 145.60 C 296.45 145.69 292.44 145.74 288.45 146.09 C 288.20 147.50 287.97 148.91 287.77 150.33 L 287.51 149.55 C 287.37 143.75 287.60 137.95 287.50 132.16 Z" />
<path fill="#e9eaeb" opacity="1.00" d=" M 436.77 132.95 C 444.00 132.92 451.23 133.09 458.46 132.99 C 458.46 134.06 458.47 135.12 458.48 136.19 C 458.48 136.63 458.48 137.53 458.48 137.97 C 458.53 141.35 458.46 144.73 458.49 148.12 C 458.50 148.49 458.51 149.23 458.51 149.60 C 451.27 149.51 444.03 149.51 436.79 149.58 C 436.71 145.97 436.70 142.35 436.75 138.73 C 436.80 136.80 436.77 134.87 436.77 132.95 Z" />
<path fill="#6c6c6c" opacity="0.42" d=" M 488.76 132.33 C 491.94 135.76 495.35 138.98 498.54 142.41 C 495.31 143.19 492.03 143.67 488.72 143.91 C 488.73 140.05 488.78 136.19 488.76 132.33 Z" />
<path fill="#3f3f3f" opacity="0.26" d=" M 381.78 135.87 C 384.60 136.29 387.42 136.70 390.25 137.12 C 390.24 139.16 390.24 141.19 390.25 143.22 C 387.43 143.26 384.61 143.24 381.79 143.18 C 381.82 140.74 381.80 138.31 381.78 135.87 Z" />
<path fill="#2e2e2e" opacity="0.19" d=" M 187.68 137.03 C 190.53 138.01 193.39 138.97 196.25 139.93 C 196.25 142.08 196.25 144.22 196.25 146.37 C 193.29 145.59 190.42 144.52 187.68 143.15 C 187.73 141.11 187.68 139.07 187.68 137.03 Z" />
<path fill="#e8e9ea" opacity="1.00" d=" M 107.97 140.17 C 114.33 139.61 120.90 139.88 126.98 137.62 C 127.45 141.37 127.14 145.15 127.17 148.92 L 127.06 149.54 C 119.70 149.59 112.34 149.47 104.98 149.58 C 104.99 148.10 104.99 146.62 104.99 145.14 C 104.99 144.65 104.99 143.67 105.00 143.18 C 105.77 142.03 106.20 140.03 107.97 140.17 Z" />
<path fill="#434343" opacity="0.26" d=" M 458.48 137.97 C 461.25 139.47 464.08 140.85 466.98 142.10 C 466.98 144.60 466.99 147.10 466.98 149.60 C 464.06 149.74 461.20 149.15 458.49 148.12 C 458.46 144.73 458.53 141.35 458.48 137.97 Z" />
<path fill="#333333" opacity="0.20" d=" M 435.21 143.46 C 435.74 141.88 436.29 140.32 436.75 138.73 C 436.70 142.35 436.71 145.97 436.79 149.58 C 436.83 151.99 436.94 154.40 436.97 156.82 C 436.95 158.19 436.92 159.57 436.87 160.95 C 436.84 161.52 436.80 162.65 436.78 163.22 C 436.55 161.19 436.29 159.15 436.18 157.11 C 436.06 155.16 435.95 153.21 435.84 151.26 C 433.86 151.03 431.89 150.81 429.93 150.60 L 429.85 149.59 C 429.75 148.05 429.70 146.52 429.71 144.98 C 431.55 144.49 433.38 143.98 435.21 143.46 Z" />
<path fill="#2c2c2c" opacity="0.17" d=" M 128.58 144.68 C 131.36 144.06 134.13 143.40 136.90 142.73 C 138.79 144.71 140.78 146.59 142.59 148.65 C 137.48 150.06 132.21 151.57 126.85 150.82 L 127.06 149.54 L 127.17 148.92 C 127.61 147.49 128.11 146.09 128.58 144.68 Z" />
<path fill="#191919" opacity="0.11" d=" M 187.68 143.15 C 190.42 144.52 193.29 145.59 196.25 146.37 C 196.25 147.43 196.25 148.50 196.26 149.57 C 196.28 152.80 196.42 156.03 196.35 159.26 C 193.38 159.49 190.79 157.81 188.35 156.38 C 187.68 163.28 187.93 170.23 187.24 177.11 C 187.19 175.11 187.10 173.11 187.09 171.11 C 187.11 168.06 187.13 165.02 187.09 161.98 C 187.10 157.85 187.25 153.73 187.25 149.61 L 187.26 148.98 C 187.39 147.03 187.60 145.10 187.68 143.15 Z" />
<path fill="#303030" opacity="0.20" d=" M 381.79 143.18 C 384.61 143.24 387.43 143.26 390.25 143.22 C 390.26 145.33 390.26 147.45 390.19 149.56 C 390.17 150.23 390.13 151.58 390.11 152.25 C 387.30 153.37 384.35 153.21 381.54 152.18 C 381.58 149.18 381.73 146.18 381.79 143.18 Z" />
<path fill="#565656" opacity="0.34" d=" M 488.72 143.91 C 492.03 143.67 495.31 143.19 498.54 142.41 C 500.18 144.09 501.78 145.81 503.40 147.52 C 498.51 147.80 493.63 148.00 488.75 148.13 C 488.72 146.72 488.71 145.31 488.72 143.91 Z" />
<path fill="#282829" opacity="0.17" d=" M 257.00 145.71 C 259.23 145.29 261.50 145.13 263.77 145.08 C 264.47 146.56 265.18 148.02 265.77 149.55 C 265.83 151.44 265.84 153.34 265.85 155.23 C 265.87 157.77 265.91 160.31 265.94 162.85 C 265.97 165.33 265.90 167.81 265.76 170.30 C 265.70 169.89 265.59 169.07 265.53 168.67 C 265.28 165.98 265.34 163.28 265.30 160.59 C 265.23 158.40 265.01 156.22 264.81 154.04 C 262.34 152.86 259.60 153.49 257.01 153.76 C 257.00 152.36 257.00 150.95 257.00 149.55 C 257.00 148.27 257.00 146.99 257.00 145.71 Z" />
<path fill="#2d2d2d" opacity="0.19" d=" M 288.45 146.09 C 292.44 145.74 296.45 145.69 300.46 145.60 C 301.74 146.89 302.99 148.21 304.23 149.54 C 302.95 150.83 301.70 152.13 300.49 153.47 C 297.08 153.33 293.64 153.35 290.30 152.64 C 289.01 152.53 288.18 151.44 287.77 150.33 C 287.97 148.91 288.20 147.50 288.45 146.09 Z" />
<path fill="#2c2c2c" opacity="0.17" d=" M 458.49 148.12 C 461.20 149.15 464.06 149.74 466.98 149.60 C 466.96 151.45 466.96 153.32 466.96 155.18 C 466.96 155.89 466.96 157.31 466.96 158.01 C 464.14 157.68 461.31 157.34 458.49 157.01 C 458.50 154.54 458.53 152.07 458.51 149.60 C 458.51 149.23 458.50 148.49 458.49 148.12 Z" />
<path fill="#474747" opacity="0.28" d=" M 488.75 148.13 C 493.63 148.00 498.51 147.80 503.40 147.52 C 504.03 148.19 504.68 148.86 505.33 149.53 C 504.35 150.55 503.39 151.56 502.43 152.58 C 497.94 151.51 493.32 151.78 488.76 151.89 C 488.76 151.31 488.76 150.16 488.76 149.58 C 488.76 149.22 488.75 148.49 488.75 148.13 Z" />
<path fill="#161616" opacity="0.09" d=" M 126.85 150.82 C 132.21 151.57 137.48 150.06 142.59 148.65 C 142.80 148.88 143.23 149.34 143.44 149.56 C 139.31 153.70 135.47 158.12 131.43 162.34 C 129.91 163.89 128.30 165.36 126.71 166.85 C 126.76 161.50 127.02 156.16 126.85 150.82 Z" />
<path fill="#7d7e7e" opacity="0.53" d=" M 536.93 149.41 C 537.03 149.41 537.24 149.42 537.35 149.43 C 534.34 152.32 531.55 155.43 528.56 158.33 C 523.30 158.05 518.25 160.03 512.99 159.74 C 507.44 159.51 501.79 160.33 496.32 159.05 L 497.52 157.82 C 499.17 156.09 500.77 154.31 502.43 152.58 C 503.39 151.56 504.35 150.55 505.33 149.53 C 515.86 149.60 526.39 149.55 536.93 149.41 Z" />
<path fill="#737374" opacity="0.49" d=" M 104.98 149.58 C 112.34 149.47 119.70 149.59 127.06 149.54 L 126.85 150.82 C 126.43 153.28 126.20 155.77 126.14 158.26 C 119.07 157.74 111.94 157.62 104.97 156.28 C 104.94 154.56 104.94 152.86 104.95 151.15 L 104.98 149.58 Z" />
<path fill="#696969" opacity="0.45" d=" M 143.44 149.56 C 158.04 149.58 172.65 149.44 187.25 149.61 C 187.25 153.73 187.10 157.85 187.09 161.98 C 179.91 161.30 172.69 161.01 165.53 160.09 C 164.72 160.36 163.99 160.78 163.35 161.36 C 158.24 160.34 153.16 161.87 148.03 161.67 C 142.47 161.42 136.99 163.16 131.43 162.34 C 135.47 158.12 139.31 153.70 143.44 149.56 Z" />
<path fill="#7a7a7b" opacity="0.52" d=" M 196.26 149.57 C 216.50 149.50 236.75 149.52 257.00 149.55 C 257.00 150.95 257.00 152.36 257.01 153.76 C 257.01 154.37 257.02 155.59 257.02 156.19 C 246.33 156.39 235.62 156.45 224.97 157.42 C 215.71 157.02 206.35 156.55 197.30 154.41 C 197.09 156.51 196.88 158.61 196.61 160.71 L 196.27 161.39 C 196.29 160.86 196.33 159.79 196.35 159.26 C 196.42 156.03 196.28 152.80 196.26 149.57 Z" />
<path fill="#7b7c7c" opacity="0.53" d=" M 265.77 149.55 C 273.02 149.48 280.26 149.51 287.51 149.55 C 287.52 151.42 287.53 153.30 287.52 155.19 C 280.29 155.56 273.07 154.18 265.85 155.23 C 265.84 153.34 265.83 151.44 265.77 149.55 Z" />
<path fill="#1b1b1b" opacity="0.12" d=" M 287.51 149.55 L 287.77 150.33 C 288.18 151.44 289.01 152.53 290.30 152.64 C 293.64 153.35 297.08 153.33 300.49 153.47 C 299.55 154.49 298.60 155.50 297.64 156.50 C 295.46 158.68 293.43 160.99 291.32 163.22 C 290.03 164.54 288.72 165.83 287.42 167.13 C 287.39 165.71 287.38 164.28 287.37 162.86 C 287.38 160.30 287.48 157.74 287.52 155.19 C 287.53 153.30 287.52 151.42 287.51 149.55 Z" />
<path fill="#6a6a6b" opacity="0.45" d=" M 390.19 149.56 L 390.79 149.56 C 390.90 151.53 391.03 153.51 391.15 155.49 C 403.85 156.67 416.58 156.01 429.30 155.85 C 429.21 157.80 429.00 159.74 428.78 161.67 C 417.19 162.04 405.59 161.82 394.00 161.73 C 392.48 161.93 391.25 161.14 390.21 160.16 C 390.21 157.52 390.09 154.88 390.11 152.25 C 390.13 151.58 390.17 150.23 390.19 149.56 Z" />
<path fill="#7c7d7d" opacity="0.53" d=" M 390.79 149.56 C 403.65 149.52 416.50 149.51 429.35 149.56 C 429.33 151.66 429.35 153.75 429.30 155.85 C 416.58 156.01 403.85 156.67 391.15 155.49 C 391.03 153.51 390.90 151.53 390.79 149.56 Z" />
<path fill="#595a5a" opacity="0.38" d=" M 429.35 149.56 L 429.85 149.59 L 429.93 150.60 C 430.04 152.75 429.99 154.91 429.93 157.07 C 429.88 158.99 429.88 160.91 429.84 162.84 C 429.46 164.50 429.00 166.14 428.58 167.80 C 419.09 168.86 409.53 167.74 400.01 168.05 C 396.84 168.23 392.89 166.70 390.46 169.47 L 390.25 170.21 C 390.26 168.18 390.25 166.16 390.24 164.14 C 390.23 162.81 390.22 161.48 390.21 160.16 C 391.25 161.14 392.48 161.93 394.00 161.73 C 405.59 161.82 417.19 162.04 428.78 161.67 C 429.00 159.74 429.21 157.80 429.30 155.85 C 429.35 153.75 429.33 151.66 429.35 149.56 Z" />
<path fill="#7a7a7a" opacity="0.51" d=" M 436.79 149.58 C 444.03 149.51 451.27 149.51 458.51 149.60 C 458.53 152.07 458.50 154.54 458.49 157.01 C 458.46 158.39 458.47 159.77 458.47 161.15 C 458.11 159.97 457.75 158.78 457.40 157.60 C 450.65 156.46 443.78 156.48 436.97 156.82 C 436.94 154.40 436.83 151.99 436.79 149.58 Z" />
<path fill="#868687" opacity="0.56" d=" M 466.98 149.60 C 474.24 149.45 481.50 149.54 488.76 149.58 C 488.76 150.16 488.76 151.31 488.76 151.89 C 488.76 152.36 488.76 153.28 488.76 153.74 C 488.69 154.38 488.56 155.65 488.50 156.28 C 481.27 157.01 474.14 155.72 466.96 155.18 C 466.96 153.32 466.96 151.45 466.98 149.60 Z" />
<path fill="#565656" opacity="0.37" d=" M 126.14 158.26 C 126.20 155.77 126.43 153.28 126.85 150.82 C 127.02 156.16 126.76 161.50 126.71 166.85 C 128.30 165.36 129.91 163.89 131.43 162.34 C 136.99 163.16 142.47 161.42 148.03 161.67 C 153.16 161.87 158.24 160.34 163.35 161.36 C 160.36 164.72 156.99 167.71 154.01 171.08 C 137.67 170.62 121.33 171.06 104.99 170.93 C 104.98 169.25 104.99 167.58 105.02 165.90 C 111.91 165.62 118.81 166.01 125.70 165.67 C 125.93 163.20 126.08 160.73 126.14 158.26 Z" />
<path fill="#242424" opacity="0.15" d=" M 429.93 150.60 C 431.89 150.81 433.86 151.03 435.84 151.26 C 435.95 153.21 436.06 155.16 436.18 157.11 C 434.09 157.10 432.01 157.09 429.93 157.07 C 429.99 154.91 430.04 152.75 429.93 150.60 Z" />
<path fill="#181819" opacity="0.10" d=" M 381.54 152.18 C 384.35 153.21 387.30 153.37 390.11 152.25 C 390.09 154.88 390.21 157.52 390.21 160.16 C 390.22 161.48 390.23 162.81 390.24 164.14 C 387.42 164.78 384.38 164.95 381.60 164.04 C 381.56 163.60 381.47 162.74 381.43 162.30 C 381.39 158.93 381.50 155.55 381.54 152.18 Z" />
<path fill="#363636" opacity="0.21" d=" M 488.76 151.89 C 493.32 151.78 497.94 151.51 502.43 152.58 C 500.77 154.31 499.17 156.09 497.52 157.82 C 494.69 157.11 491.83 156.54 488.94 156.14 C 488.90 155.54 488.81 154.34 488.76 153.74 C 488.76 153.28 488.76 152.36 488.76 151.89 Z" />
<path fill="#181919" opacity="0.11" d=" M 257.01 153.76 C 259.60 153.49 262.34 152.86 264.81 154.04 C 265.01 156.22 265.23 158.40 265.30 160.59 C 262.51 160.55 259.73 160.76 256.96 161.09 C 256.98 159.46 257.01 157.82 257.02 156.19 C 257.02 155.59 257.01 154.37 257.01 153.76 Z" />
<path fill="#656566" opacity="0.43" d=" M 197.30 154.41 C 206.35 156.55 215.71 157.02 224.97 157.42 C 235.62 156.45 246.33 156.39 257.02 156.19 C 257.01 157.82 256.98 159.46 256.96 161.09 C 256.94 162.32 256.94 163.55 256.96 164.79 C 241.30 164.44 225.61 164.98 209.95 164.58 C 205.51 164.35 201.13 163.39 196.67 163.72 C 196.65 162.97 196.62 161.46 196.61 160.71 C 196.88 158.61 197.09 156.51 197.30 154.41 Z" />
<path fill="#6d6d6e" opacity="0.47" d=" M 265.85 155.23 C 273.07 154.18 280.29 155.56 287.52 155.19 C 287.48 157.74 287.38 160.30 287.37 162.86 C 280.23 162.84 273.08 162.48 265.94 162.85 C 265.91 160.31 265.87 157.77 265.85 155.23 Z" />
<path fill="#5b5c5c" opacity="0.39" d=" M 488.50 156.28 C 488.56 155.65 488.69 154.38 488.76 153.74 C 488.81 154.34 488.90 155.54 488.94 156.14 C 489.08 159.61 488.78 163.08 488.80 166.55 C 489.23 166.25 490.09 165.64 490.52 165.34 C 500.40 167.33 510.51 164.84 520.45 166.40 C 518.46 168.45 516.38 170.40 514.37 172.43 C 507.26 171.88 500.14 172.17 493.02 172.01 C 484.32 171.47 475.55 172.49 466.90 171.15 C 466.92 170.61 466.95 169.55 466.97 169.02 C 467.00 167.60 467.03 166.19 467.05 164.77 C 473.93 164.15 480.74 166.01 487.64 165.41 C 488.09 162.39 488.27 159.33 488.50 156.28 Z" />
<path fill="#707070" opacity="0.47" d=" M 466.96 155.18 C 474.14 155.72 481.27 157.01 488.50 156.28 C 488.27 159.33 488.09 162.39 487.64 165.41 C 480.74 166.01 473.93 164.15 467.05 164.77 C 467.04 162.52 466.97 160.27 466.96 158.01 C 466.96 157.31 466.96 155.89 466.96 155.18 Z" />
<path fill="#606061" opacity="0.41" d=" M 104.97 156.28 C 111.94 157.62 119.07 157.74 126.14 158.26 C 126.08 160.73 125.93 163.20 125.70 165.67 C 118.81 166.01 111.91 165.62 105.02 165.90 C 105.03 165.42 105.03 164.45 105.03 163.97 C 105.03 161.40 105.00 158.84 104.97 156.28 Z" />
<path fill="#242424" opacity="0.14" d=" M 488.94 156.14 C 491.83 156.54 494.69 157.11 497.52 157.82 L 496.32 159.05 C 494.27 161.04 492.42 163.20 490.52 165.34 C 490.09 165.64 489.23 166.25 488.80 166.55 C 488.78 163.08 489.08 159.61 488.94 156.14 Z" />
<path fill="#69696a" opacity="0.45" d=" M 291.32 163.22 C 293.43 160.99 295.46 158.68 297.64 156.50 C 306.97 158.44 316.52 157.37 325.95 157.90 C 335.27 159.04 344.68 158.76 354.05 158.57 C 362.85 157.75 371.74 157.25 380.56 157.97 C 380.82 159.15 381.06 160.33 381.29 161.51 C 381.26 162.16 381.19 163.46 381.16 164.10 C 371.10 164.45 360.99 163.93 350.98 165.08 C 346.98 165.36 342.97 165.10 338.97 165.18 C 333.58 165.22 328.02 165.53 322.88 163.61 L 322.40 163.13 C 321.70 163.88 321.02 164.65 320.33 165.40 C 313.20 165.11 306.13 163.52 298.98 164.08 C 296.39 164.31 293.83 163.80 291.32 163.22 Z" />
<path fill="#171717" opacity="0.09" d=" M 429.93 157.07 C 432.01 157.09 434.09 157.10 436.18 157.11 C 436.29 159.15 436.55 161.19 436.78 163.22 C 436.79 163.73 436.82 164.75 436.84 165.26 C 436.92 168.19 437.13 171.12 437.03 174.06 C 436.95 174.84 436.78 176.42 436.70 177.21 C 436.52 175.84 436.31 174.49 436.19 173.12 C 436.12 170.15 436.06 167.18 435.76 164.23 C 433.78 164.06 431.80 163.88 429.83 163.72 L 429.84 162.84 C 429.88 160.91 429.88 158.99 429.93 157.07 Z" />
<path fill="#69696a" opacity="0.44" d=" M 436.97 156.82 C 443.78 156.48 450.65 156.46 457.40 157.60 C 457.75 158.78 458.11 159.97 458.47 161.15 C 451.27 161.12 444.07 161.07 436.87 160.95 C 436.92 159.57 436.95 158.19 436.97 156.82 Z" />
<path fill="#151515" opacity="0.08" d=" M 458.49 157.01 C 461.31 157.34 464.14 157.68 466.96 158.01 C 466.97 160.27 467.04 162.52 467.05 164.77 C 467.03 166.19 467.00 167.60 466.97 169.02 C 464.45 168.70 461.94 168.43 459.42 168.20 C 459.24 173.81 458.76 179.42 458.88 185.04 C 458.89 188.12 459.11 191.24 458.34 194.25 C 458.16 192.52 458.02 190.78 457.99 189.04 C 458.01 187.26 458.10 185.49 458.18 183.71 C 458.30 180.47 458.27 177.22 458.31 173.98 C 458.34 171.07 458.43 168.16 458.46 165.26 C 458.46 163.89 458.47 162.52 458.47 161.15 C 458.47 159.77 458.46 158.39 458.49 157.01 Z" />
<path fill="#696969" opacity="0.44" d=" M 512.99 159.74 C 518.25 160.03 523.30 158.05 528.56 158.33 C 525.92 161.09 523.16 163.72 520.45 166.40 C 510.51 164.84 500.40 167.33 490.52 165.34 C 492.42 163.20 494.27 161.04 496.32 159.05 C 501.79 160.33 507.44 159.51 512.99 159.74 Z" />
<path fill="#565757" opacity="0.37" d=" M 165.53 160.09 C 172.69 161.01 179.91 161.30 187.09 161.98 C 187.13 165.02 187.11 168.06 187.09 171.11 C 179.90 171.19 172.71 171.16 165.53 171.13 C 165.51 167.45 165.48 163.77 165.53 160.09 Z" />
<path fill="#0d0d0d" opacity="0.06" d=" M 256.96 161.09 C 259.73 160.76 262.51 160.55 265.30 160.59 C 265.34 163.28 265.28 165.98 265.53 168.67 C 262.71 168.31 259.86 168.18 257.05 168.66 C 257.02 167.37 257.00 166.08 256.96 164.79 C 256.94 163.55 256.94 162.32 256.96 161.09 Z" />
<path fill="#3c3c3c" opacity="0.25" d=" M 196.27 161.39 L 196.61 160.71 C 196.62 161.46 196.65 162.97 196.67 163.72 C 196.70 166.70 196.91 169.67 197.33 172.62 C 204.24 172.81 211.16 172.71 218.07 172.69 C 218.06 175.56 217.98 178.44 217.95 181.31 C 211.24 181.43 204.52 181.45 197.81 181.36 C 196.97 179.25 196.41 177.03 196.23 174.76 C 196.35 170.32 195.23 165.72 196.27 161.39 Z" />
<path fill="#5e5e5f" opacity="0.40" d=" M 436.87 160.95 C 444.07 161.07 451.27 161.12 458.47 161.15 C 458.47 162.52 458.46 163.89 458.46 165.26 C 451.25 165.50 444.04 165.39 436.84 165.26 C 436.82 164.75 436.79 163.73 436.78 163.22 C 436.80 162.65 436.84 161.52 436.87 160.95 Z" />
<path fill="#595a5a" opacity="0.38" d=" M 265.94 162.85 C 273.08 162.48 280.23 162.84 287.37 162.86 C 287.38 164.28 287.39 165.71 287.42 167.13 C 288.72 165.83 290.03 164.54 291.32 163.22 C 293.83 163.80 296.39 164.31 298.98 164.08 C 306.13 163.52 313.20 165.11 320.33 165.40 C 318.11 167.87 315.73 170.19 313.36 172.51 C 309.60 171.85 305.81 171.25 301.99 171.21 C 289.90 171.13 277.80 171.24 265.71 171.16 L 265.76 170.30 C 265.90 167.81 265.97 165.33 265.94 162.85 Z" />
<path fill="#4c4c4c" opacity="0.33" d=" M 381.29 161.51 L 381.43 162.30 C 381.47 162.74 381.56 163.60 381.60 164.04 C 381.84 169.34 381.37 174.65 381.56 179.97 L 381.30 179.57 C 380.46 177.97 378.51 178.22 377.02 178.12 C 371.25 178.11 365.49 178.31 359.73 178.09 C 359.73 176.28 359.73 174.48 359.74 172.68 C 366.68 171.89 373.64 171.75 380.62 171.70 C 380.82 169.17 381.00 166.64 381.16 164.10 C 381.19 163.46 381.26 162.16 381.29 161.51 Z" />
<path fill="#484849" opacity="0.31" d=" M 428.58 167.80 C 429.00 166.14 429.46 164.50 429.84 162.84 L 429.83 163.72 C 429.84 166.73 429.80 169.75 429.73 172.77 C 423.91 172.72 418.09 172.72 412.27 172.78 C 412.27 173.36 412.27 174.53 412.27 175.11 C 405.29 174.28 398.27 175.57 391.31 174.67 C 391.04 172.93 390.75 171.20 390.46 169.47 C 392.89 166.70 396.84 168.23 400.01 168.05 C 409.53 167.74 419.09 168.86 428.58 167.80 Z" />
<path fill="#4e4f4f" opacity="0.33" d=" M 196.67 163.72 C 201.13 163.39 205.51 164.35 209.95 164.58 C 225.61 164.98 241.30 164.44 256.96 164.79 C 257.00 166.08 257.02 167.37 257.05 168.66 C 257.04 170.01 256.99 171.36 256.90 172.70 C 243.95 172.64 231.01 172.70 218.07 172.69 C 211.16 172.71 204.24 172.81 197.33 172.62 C 196.91 169.67 196.70 166.70 196.67 163.72 Z" />
<path fill="#595a5a" opacity="0.38" d=" M 322.88 163.61 C 328.02 165.53 333.58 165.22 338.97 165.18 C 342.97 165.10 346.98 165.36 350.98 165.08 C 360.99 163.93 371.10 164.45 381.16 164.10 C 381.00 166.64 380.82 169.17 380.62 171.70 C 373.64 171.75 366.68 171.89 359.74 172.68 C 347.49 172.73 335.24 172.69 322.99 172.70 C 322.84 169.67 322.88 166.64 322.88 163.61 Z" />
<path fill="#4d4d4d" opacity="0.33" d=" M 436.84 165.26 C 444.04 165.39 451.25 165.50 458.46 165.26 C 458.43 168.16 458.34 171.07 458.31 173.98 C 451.20 173.09 444.12 175.37 437.03 174.06 C 437.13 171.12 436.92 168.19 436.84 165.26 Z" />
<path fill="#383838" opacity="0.24" d=" M 390.25 170.21 L 390.46 169.47 C 390.75 171.20 391.04 172.93 391.31 174.67 C 398.27 175.57 405.29 174.28 412.27 175.11 C 412.27 178.04 412.26 180.98 412.24 183.91 C 405.12 183.91 398.06 182.43 390.93 182.92 C 390.78 180.51 390.50 178.11 390.23 175.72 C 390.09 173.89 389.83 172.01 390.25 170.21 Z" />
<path fill="#4c4c4c" opacity="0.33" d=" M 104.99 170.93 C 121.33 171.06 137.67 170.62 154.01 171.08 C 152.08 173.16 150.01 175.10 148.01 177.12 C 140.97 177.41 133.89 176.82 126.87 177.68 C 119.59 178.59 112.21 178.21 105.01 176.93 C 104.98 174.92 104.99 172.92 104.99 170.93 Z" />
<path fill="#49494a" opacity="0.31" d=" M 165.53 171.13 C 172.71 171.16 179.90 171.19 187.09 171.11 C 187.10 173.11 187.19 175.11 187.24 177.11 C 187.24 177.82 187.23 179.24 187.22 179.94 C 179.99 179.82 172.76 179.80 165.54 179.99 C 165.53 177.04 165.52 174.08 165.53 171.13 Z" />
<path fill="#4b4b4b" opacity="0.32" d=" M 265.71 171.16 C 277.80 171.24 289.90 171.13 301.99 171.21 C 305.81 171.25 309.60 171.85 313.36 172.51 C 310.75 175.17 308.09 177.77 305.45 180.38 C 292.26 179.33 279.00 180.06 265.79 179.92 C 265.70 177.00 265.67 174.08 265.71 171.16 Z" />
<path fill="#4c4c4d" opacity="0.33" d=" M 466.90 171.15 C 475.55 172.49 484.32 171.47 493.02 172.01 C 500.14 172.17 507.26 171.88 514.37 172.43 C 514.01 172.81 513.29 173.57 512.93 173.95 C 510.83 176.16 508.62 178.26 506.42 180.36 C 493.33 179.37 480.17 179.88 467.05 179.90 C 466.95 176.99 466.89 174.07 466.90 171.15 Z" />
<path fill="#393939" opacity="0.24" d=" M 437.03 174.06 C 444.12 175.37 451.20 173.09 458.31 173.98 C 458.27 177.22 458.30 180.47 458.18 183.71 C 451.19 181.86 443.89 183.11 436.76 182.87 C 436.75 180.98 436.73 179.09 436.70 177.21 C 436.78 176.42 436.95 174.84 437.03 174.06 Z" />
<path fill="#282828" opacity="0.17" d=" M 196.23 174.76 C 196.41 177.03 196.97 179.25 197.81 181.36 C 204.52 181.45 211.24 181.43 217.95 181.31 C 218.14 186.33 217.91 191.35 217.68 196.36 C 210.94 195.56 204.16 195.75 197.40 195.64 C 197.01 194.01 196.61 192.39 196.32 190.74 C 196.19 185.41 195.80 180.08 196.23 174.76 Z" />
<path fill="#232323" opacity="0.15" d=" M 390.23 175.72 C 390.50 178.11 390.78 180.51 390.93 182.92 C 391.04 184.86 391.14 186.80 391.26 188.73 C 398.23 189.44 405.24 188.72 412.23 189.07 C 412.22 191.05 412.17 193.04 412.19 195.02 C 405.04 194.80 397.90 194.91 390.75 194.94 C 390.61 193.53 390.44 192.12 390.31 190.71 C 389.99 185.73 389.78 180.70 390.23 175.72 Z" />
<path fill="#414141" opacity="0.28" d=" M 105.01 176.93 C 112.21 178.21 119.59 178.59 126.87 177.68 C 133.89 176.82 140.97 177.41 148.01 177.12 C 145.18 180.00 142.35 182.88 139.38 185.63 C 137.88 186.89 135.92 187.23 134.01 187.15 C 124.35 187.04 114.69 187.12 105.04 187.04 C 105.01 183.67 104.97 180.30 105.01 176.93 Z" />
<path fill="#414141" opacity="0.28" d=" M 359.73 178.09 C 365.49 178.31 371.25 178.11 377.02 178.12 C 378.51 178.22 380.46 177.97 381.30 179.57 C 381.34 182.37 381.22 185.17 381.21 187.98 C 374.07 187.75 366.92 187.87 359.77 187.89 C 359.77 184.62 359.70 181.35 359.73 178.09 Z" />
<path fill="#404141" opacity="0.27" d=" M 165.54 179.99 C 172.76 179.80 179.99 179.82 187.22 179.94 C 187.26 182.28 187.27 184.62 187.21 186.96 C 179.98 187.19 172.75 187.08 165.53 186.93 C 165.54 184.61 165.54 182.30 165.54 179.99 Z" />
<path fill="#404141" opacity="0.27" d=" M 265.79 179.92 C 279.00 180.06 292.26 179.33 305.45 180.38 C 303.52 182.26 301.59 184.16 299.96 186.31 C 295.38 187.50 290.64 187.05 285.97 187.09 C 279.24 187.10 272.52 187.07 265.79 187.08 C 265.73 184.69 265.73 182.30 265.79 179.92 Z" />
<path fill="#1b1b1b" opacity="0.11" d=" M 381.30 179.57 L 381.56 179.97 C 382.15 189.59 381.64 199.31 381.65 208.97 C 381.46 213.27 381.94 217.62 381.17 221.88 C 369.15 222.67 357.06 221.66 345.04 222.38 C 337.84 223.21 330.53 223.17 323.32 222.57 C 317.97 221.29 312.45 222.64 307.02 222.11 C 305.65 222.25 304.73 221.05 303.78 220.28 C 301.10 217.63 298.21 215.18 295.81 212.26 C 317.20 211.93 338.59 212.23 359.97 212.12 C 366.89 211.98 373.82 212.45 380.72 211.86 C 380.81 209.59 380.90 207.32 380.96 205.05 C 381.03 202.07 381.13 199.09 381.18 196.12 C 381.21 193.40 381.20 190.69 381.21 187.98 C 381.22 185.17 381.34 182.37 381.30 179.57 Z" />
<path fill="#414141" opacity="0.28" d=" M 467.05 179.90 C 480.17 179.88 493.33 179.37 506.42 180.36 C 504.79 182.10 503.21 183.91 501.45 185.53 C 500.45 186.31 499.37 187.18 498.03 187.11 C 493.70 187.35 489.37 187.06 485.05 187.13 C 479.02 187.05 472.92 187.68 466.99 186.33 C 466.95 184.19 466.97 182.04 467.05 179.90 Z" />
<path fill="#2a2b2b" opacity="0.18" d=" M 390.93 182.92 C 398.06 182.43 405.12 183.91 412.24 183.91 C 412.23 185.63 412.24 187.35 412.23 189.07 C 405.24 188.72 398.23 189.44 391.26 188.73 C 391.14 186.80 391.04 184.86 390.93 182.92 Z" />
<path fill="#2a2b2b" opacity="0.18" d=" M 436.76 182.87 C 443.89 183.11 451.19 181.86 458.18 183.71 C 458.10 185.49 458.01 187.26 457.99 189.04 C 450.91 188.82 443.84 189.09 436.76 189.03 C 436.74 186.98 436.75 184.92 436.76 182.87 Z" />
<path fill="#363737" opacity="0.23" d=" M 134.01 187.15 C 135.92 187.23 137.88 186.89 139.38 185.63 C 141.81 189.11 144.91 192.04 147.84 195.09 C 145.61 195.81 143.31 196.36 140.95 196.26 C 128.98 196.18 117.00 196.20 105.03 196.15 C 105.01 193.11 104.96 190.07 105.04 187.04 C 114.69 187.12 124.35 187.04 134.01 187.15 Z" />
<path fill="#363737" opacity="0.23" d=" M 498.03 187.11 C 499.37 187.18 500.45 186.31 501.45 185.53 C 503.26 189.43 507.23 191.80 509.66 195.32 C 506.81 196.03 503.88 196.35 500.94 196.25 C 489.64 196.10 478.33 196.33 467.03 196.12 C 467.02 192.85 466.98 189.59 466.99 186.33 C 472.92 187.68 479.02 187.05 485.05 187.13 C 489.37 187.06 493.70 187.35 498.03 187.11 Z" />
<path fill="#363737" opacity="0.23" d=" M 165.53 186.93 C 172.75 187.08 179.98 187.19 187.21 186.96 C 187.29 190.01 187.27 193.06 187.22 196.11 C 179.98 196.12 172.74 196.09 165.51 196.11 C 165.52 193.05 165.51 189.99 165.53 186.93 Z" />
<path fill="#363737" opacity="0.23" d=" M 265.79 187.08 C 272.52 187.07 279.24 187.10 285.97 187.09 C 290.64 187.05 295.38 187.50 299.96 186.31 C 303.15 188.99 305.75 192.27 308.70 195.20 C 306.52 195.75 304.31 196.26 302.05 196.20 C 289.96 196.06 277.87 196.21 265.78 196.11 C 265.72 193.10 265.71 190.09 265.79 187.08 Z" />
<path fill="#363737" opacity="0.23" d=" M 359.77 187.89 C 366.92 187.87 374.07 187.75 381.21 187.98 C 381.20 190.69 381.21 193.40 381.18 196.12 C 374.04 196.15 366.89 196.16 359.75 196.10 C 359.78 193.36 359.75 190.62 359.77 187.89 Z" />
<path fill="#232323" opacity="0.15" d=" M 436.76 189.03 C 443.84 189.09 450.91 188.82 457.99 189.04 C 458.02 190.78 458.16 192.52 458.34 194.25 L 458.42 195.12 C 451.22 194.84 444.01 194.84 436.80 195.01 C 436.82 193.01 436.78 191.02 436.76 189.03 Z" />
<path fill="#111111" opacity="0.07" d=" M 196.32 190.74 C 196.61 192.39 197.01 194.01 197.40 195.64 C 204.16 195.75 210.94 195.56 217.68 196.36 C 217.90 196.96 218.34 198.16 218.56 198.75 C 231.38 199.07 244.22 198.64 257.05 198.94 C 257.19 203.21 256.90 207.47 256.58 211.73 C 236.82 211.88 217.06 211.96 197.31 211.71 C 196.08 209.69 196.34 207.25 196.18 204.99 C 196.06 200.24 195.66 195.47 196.32 190.74 Z" />
<path fill="#0f0f0f" opacity="0.06" d=" M 390.31 190.71 C 390.44 192.12 390.61 193.53 390.75 194.94 C 390.93 196.88 391.08 198.82 391.22 200.76 C 396.79 201.47 402.41 201.06 408.01 201.11 C 424.77 201.06 441.52 201.21 458.28 201.08 C 458.49 204.66 458.37 208.25 457.69 211.78 C 453.81 212.48 449.87 212.16 445.96 212.20 C 429.30 212.22 412.65 212.12 396.00 212.22 C 394.42 212.16 392.79 212.26 391.30 211.68 C 390.16 210.03 390.36 207.90 390.16 206.01 C 390.01 200.91 389.57 195.78 390.31 190.71 Z" />
<path fill="#2a2b2b" opacity="0.18" d=" M 147.84 195.09 C 150.84 198.07 153.63 201.27 156.64 204.24 C 151.98 206.21 146.85 205.15 141.96 205.37 C 136.71 205.56 131.42 205.47 126.28 204.23 C 126.00 206.68 125.74 209.13 125.48 211.59 C 118.70 211.77 111.92 211.34 105.15 211.78 C 105.20 206.57 104.85 201.36 105.03 196.15 C 117.00 196.20 128.98 196.18 140.95 196.26 C 143.31 196.36 145.61 195.81 147.84 195.09 Z" />
<path fill="#2b2c2c" opacity="0.18" d=" M 308.70 195.20 C 312.02 198.49 315.13 202.01 318.39 205.37 C 308.92 206.54 299.35 205.36 289.84 206.12 C 289.09 205.54 288.34 204.98 287.60 204.41 C 287.51 204.77 287.35 205.50 287.26 205.86 C 280.12 206.01 272.97 205.94 265.83 205.92 C 265.74 202.65 265.67 199.38 265.78 196.11 C 277.87 196.21 289.96 196.06 302.05 196.20 C 304.31 196.26 306.52 195.75 308.70 195.20 Z" />
<path fill="#1a1a1a" opacity="0.11" d=" M 390.75 194.94 C 397.90 194.91 405.04 194.80 412.19 195.02 C 412.21 196.32 412.24 197.62 412.28 198.93 C 420.41 199.24 428.57 199.28 436.70 198.89 C 436.74 197.60 436.77 196.30 436.80 195.01 C 444.01 194.84 451.22 194.84 458.42 195.12 C 458.46 197.11 458.41 199.09 458.28 201.08 C 441.52 201.21 424.77 201.06 408.01 201.11 C 402.41 201.06 396.79 201.47 391.22 200.76 C 391.08 198.82 390.93 196.88 390.75 194.94 Z" />
<path fill="#2a2b2b" opacity="0.18" d=" M 509.66 195.32 L 509.97 195.25 C 513.13 198.63 516.43 201.90 519.38 205.48 C 510.01 207.04 500.44 205.90 490.98 206.18 C 490.56 205.82 489.72 205.11 489.29 204.76 C 489.09 204.58 488.67 204.22 488.46 204.05 C 488.12 206.57 487.80 209.09 487.51 211.62 C 480.71 211.88 473.92 211.48 467.13 211.82 C 467.22 206.59 466.85 201.35 467.03 196.12 C 478.33 196.33 489.64 196.10 500.94 196.25 C 503.88 196.35 506.81 196.03 509.66 195.32 Z" />
<path fill="#2c2c2c" opacity="0.19" d=" M 165.51 196.11 C 172.74 196.09 179.98 196.12 187.22 196.11 C 187.30 199.16 187.26 202.21 187.22 205.26 C 179.98 205.43 172.73 205.37 165.48 205.21 C 165.50 202.18 165.50 199.14 165.51 196.11 Z" />
<path fill="#2b2c2c" opacity="0.18" d=" M 359.75 196.10 C 366.89 196.16 374.04 196.15 381.18 196.12 C 381.13 199.09 381.03 202.07 380.96 205.05 C 361.65 204.99 342.33 205.03 323.01 205.03 C 323.02 203.02 323.01 201.02 323.00 199.01 C 335.23 198.93 347.47 199.09 359.70 198.94 C 359.71 198.23 359.74 196.81 359.75 196.10 Z" />
<path fill="#1e1e1e" opacity="0.13" d=" M 126.28 204.23 C 131.42 205.47 136.71 205.56 141.96 205.37 C 146.85 205.15 151.98 206.21 156.64 204.24 C 159.80 207.26 162.72 210.51 165.59 213.80 C 165.49 210.93 165.46 208.07 165.48 205.21 C 172.73 205.37 179.98 205.43 187.22 205.26 C 187.30 210.77 187.48 216.32 186.83 221.82 C 172.71 221.59 158.53 222.18 144.45 221.53 C 138.49 216.15 133.07 210.18 127.04 204.87 C 126.81 208.14 126.93 211.43 126.68 214.70 C 126.38 216.42 125.98 218.12 125.60 219.82 C 118.78 220.47 111.93 220.01 105.10 220.09 C 105.03 217.32 104.92 214.55 105.15 211.78 C 111.92 211.34 118.70 211.77 125.48 211.59 C 125.74 209.13 126.00 206.68 126.28 204.23 Z" />
<path fill="#1a1a1a" opacity="0.11" d=" M 488.46 204.05 C 488.67 204.22 489.09 204.58 489.29 204.76 C 488.96 208.07 488.93 211.41 488.71 214.74 C 488.38 218.40 488.00 222.06 487.63 225.72 C 480.81 226.01 473.98 225.69 467.16 225.90 C 467.19 221.21 466.70 216.51 467.13 211.82 C 473.92 211.48 480.71 211.88 487.51 211.62 C 487.80 209.09 488.12 206.57 488.46 204.05 Z" />
<path fill="#242424" opacity="0.15" d=" M 318.39 205.37 C 319.88 206.93 321.37 208.50 322.87 210.05 C 322.93 208.38 322.99 206.70 323.01 205.03 C 342.33 205.03 361.65 204.99 380.96 205.05 C 380.90 207.32 380.81 209.59 380.72 211.86 C 373.82 212.45 366.89 211.98 359.97 212.12 C 338.59 212.23 317.20 211.93 295.81 212.26 C 293.72 210.32 291.56 208.42 289.84 206.12 C 299.35 205.36 308.92 206.54 318.39 205.37 Z" />
<path fill="#1f1f1f" opacity="0.13" d=" M 519.38 205.48 L 519.76 205.41 C 524.82 210.86 529.88 216.32 534.91 221.80 C 525.92 221.71 516.92 221.84 507.92 221.74 C 505.87 221.87 504.80 219.80 503.41 218.67 C 499.38 214.39 494.71 210.73 490.98 206.18 C 500.44 205.90 510.01 207.04 519.38 205.48 Z" />
<path fill="#232323" opacity="0.15" d=" M 265.83 205.92 C 272.97 205.94 280.12 206.01 287.26 205.86 C 287.59 208.25 287.52 210.66 287.42 213.06 C 280.22 212.97 273.02 213.12 265.83 212.96 C 265.71 210.61 265.71 208.26 265.83 205.92 Z" />
<path fill="#1c1c1c" opacity="0.12" d=" M 265.83 212.96 C 273.02 213.12 280.22 212.97 287.42 213.06 C 287.54 215.74 287.50 218.43 287.34 221.11 C 280.19 221.03 273.04 221.07 265.90 221.05 C 265.74 218.35 265.71 215.65 265.83 212.96 Z" />
<path fill="#121212" opacity="0.08" d=" M 125.60 219.82 C 125.98 218.12 126.38 216.42 126.68 214.70 C 127.22 220.78 127.08 226.97 126.12 233.00 C 125.85 233.33 125.32 233.99 125.05 234.32 C 118.47 234.34 111.78 234.87 105.25 233.99 C 105.13 229.36 104.70 224.72 105.10 220.09 C 111.93 220.01 118.78 220.47 125.60 219.82 Z" />
<path fill="#0d0d0d" opacity="0.05" d=" M 487.63 225.72 C 488.00 222.06 488.38 218.40 488.71 214.74 C 489.34 218.48 489.14 222.28 489.03 226.05 C 488.88 230.68 489.11 235.40 487.70 239.87 C 480.94 240.45 474.05 240.40 467.29 239.86 C 467.11 235.21 466.59 230.54 467.16 225.90 C 473.98 225.69 480.81 226.01 487.63 225.72 Z" />
<path fill="#131313" opacity="0.08" d=" M 265.90 221.05 C 273.04 221.07 280.19 221.03 287.34 221.11 C 287.54 224.10 287.46 227.11 287.18 230.09 C 280.14 229.80 273.10 230.18 266.06 230.07 C 265.74 227.07 265.63 224.05 265.90 221.05 Z" />
<path fill="#111112" opacity="0.07" d=" M 323.32 222.57 C 330.53 223.17 337.84 223.21 345.04 222.38 C 344.96 223.50 344.86 224.62 344.74 225.73 C 344.41 227.78 343.96 229.80 343.55 231.83 C 336.76 232.53 329.92 232.03 323.11 232.08 C 323.02 228.91 322.69 225.71 323.32 222.57 Z" />
<path fill="#0b0b0b" opacity="0.05" d=" M 266.06 230.07 C 273.10 230.18 280.14 229.80 287.18 230.09 C 287.42 233.06 287.47 236.05 286.87 238.99 C 280.03 239.46 273.04 239.67 266.21 238.93 C 265.84 235.99 265.64 233.01 266.06 230.07 Z" />
</svg>
