<?xml version="1.0" encoding="UTF-8" ?>
<!DOCTYPE svg PUBLIC "-//W3C//DTD SVG 1.1//EN" "http://www.w3.org/Graphics/SVG/1.1/DTD/svg11.dtd">
<svg width="143pt" height="143pt" viewBox="0 0 143 143" version="1.1" xmlns="http://www.w3.org/2000/svg">
<path fill="#0957a0" opacity="1.00" d=" M 7.50 8.00 C 11.67 9.51 15.53 11.71 19.46 13.73 C 29.16 18.66 38.89 23.54 48.51 28.64 C 48.39 36.45 48.40 44.27 48.50 52.09 C 47.06 51.88 45.63 51.69 44.19 51.52 C 46.51 52.82 49.00 53.77 51.54 54.52 C 50.76 54.45 49.20 54.30 48.42 54.23 C 48.40 82.11 48.56 110.00 48.34 137.88 C 45.58 135.34 42.01 134.09 38.76 132.32 C 28.31 126.98 17.85 121.65 7.43 116.24 C 7.57 80.16 7.45 44.08 7.50 8.00 M 21.92 49.98 C 23.27 53.91 25.74 57.30 28.06 60.69 C 31.00 57.15 32.66 52.73 35.74 49.30 C 34.36 46.14 33.12 41.66 28.99 41.42 C 24.48 40.49 20.17 45.75 21.92 49.98 M 23.63 73.84 C 24.16 73.61 25.23 73.15 25.76 72.92 C 26.54 69.89 26.23 66.72 25.96 63.64 C 22.94 66.06 24.12 70.48 23.63 73.84 M 22.98 87.68 C 20.94 89.57 17.42 90.76 17.38 94.03 C 17.08 99.40 21.06 103.68 23.89 107.84 C 26.39 103.78 29.69 99.87 30.33 95.00 C 30.47 91.50 27.43 89.45 24.69 88.04 C 24.72 85.83 24.74 83.62 24.64 81.42 C 23.03 83.10 23.56 85.61 22.98 87.68 Z" />
<path fill="#0957a0" opacity="1.00" d=" M 95.64 10.31 C 101.35 13.02 107.16 15.53 112.92 18.14 C 120.79 21.71 128.73 25.09 136.55 28.76 C 136.46 64.84 136.52 100.92 136.52 137.00 C 134.90 136.51 133.28 136.02 131.73 135.34 C 119.71 129.87 107.64 124.51 95.58 119.14 C 95.49 111.07 95.65 103.00 95.53 94.93 C 95.59 93.69 94.74 92.70 94.24 91.65 C 94.43 91.73 94.81 91.88 95.01 91.96 L 96.37 92.49 C 98.49 90.21 100.05 87.48 101.17 84.59 C 99.01 85.86 97.00 87.46 95.69 89.63 C 95.46 75.55 95.52 61.45 95.65 47.36 C 97.57 49.54 99.75 51.48 102.02 53.29 C 101.09 49.67 98.18 47.20 95.49 44.83 C 95.71 33.33 95.41 21.81 95.64 10.31 M 107.42 58.59 C 106.17 62.68 107.17 66.75 109.49 70.23 C 107.36 73.00 105.14 75.80 104.01 79.15 C 106.94 77.63 108.30 74.50 109.96 71.84 C 111.19 73.19 112.40 74.57 113.64 75.92 C 115.61 72.77 117.83 69.73 119.21 66.25 C 120.38 63.20 119.72 59.24 116.62 57.60 C 113.69 55.40 110.32 57.55 107.42 58.59 Z" />
<path fill="#0957a0" opacity="1.00" d=" M 51.55 28.71 C 64.72 22.23 78.43 16.89 91.61 10.40 C 92.03 11.89 92.23 13.42 92.26 14.96 C 92.24 49.02 92.26 83.08 92.25 117.14 C 92.70 118.79 91.08 119.58 89.91 120.12 C 77.96 125.58 65.82 130.65 53.98 136.35 C 53.18 136.52 52.37 136.68 51.57 136.85 C 51.72 109.83 51.41 82.81 51.73 55.79 L 52.10 54.69 C 52.16 54.49 52.29 54.09 52.35 53.89 C 52.30 53.57 52.20 52.93 52.15 52.60 C 50.92 44.72 51.96 36.66 51.55 28.71 M 80.66 51.01 C 83.94 49.67 87.47 48.41 89.74 45.52 C 86.52 46.24 80.67 46.82 80.66 51.01 M 59.28 52.07 C 58.35 57.62 62.53 62.04 65.19 66.43 C 68.68 62.83 70.51 58.10 72.96 53.82 C 72.13 52.39 71.32 50.94 70.34 49.61 C 67.64 45.43 59.92 47.05 59.28 52.07 M 73.71 97.96 C 74.60 102.69 77.61 106.61 80.14 110.58 C 83.66 106.88 85.55 102.10 87.94 97.68 C 86.14 95.21 84.66 91.35 81.03 91.45 C 77.11 90.60 73.86 94.30 73.71 97.96 Z" />
<path fill="#00aeef" opacity="1.00" d=" M 21.92 49.98 C 20.17 45.75 24.48 40.49 28.99 41.42 C 33.12 41.66 34.36 46.14 35.74 49.30 C 32.66 52.73 31.00 57.15 28.06 60.69 C 25.74 57.30 23.27 53.91 21.92 49.98 Z" />
<path fill="#00aeef" opacity="1.00" d=" M 95.65 47.36 C 95.48 46.53 95.53 45.67 95.49 44.83 C 98.18 47.20 101.09 49.67 102.02 53.29 C 99.75 51.48 97.57 49.54 95.65 47.36 Z" />
<path fill="#0393d7" opacity="1.00" d=" M 80.66 51.01 C 80.67 46.82 86.52 46.24 89.74 45.52 C 87.47 48.41 83.94 49.67 80.66 51.01 Z" />
<path fill="#00aeef" opacity="1.00" d=" M 59.28 52.07 C 59.92 47.05 67.64 45.43 70.34 49.61 C 71.32 50.94 72.13 52.39 72.96 53.82 C 70.51 58.10 68.68 62.83 65.19 66.43 C 62.53 62.04 58.35 57.62 59.28 52.07 Z" />
<path fill="#00aeef" opacity="1.00" d=" M 44.19 51.52 C 45.63 51.69 47.06 51.88 48.50 52.09 C 49.71 52.27 50.93 52.44 52.15 52.60 C 52.20 52.93 52.30 53.57 52.35 53.89 C 52.29 54.09 52.16 54.49 52.10 54.69 L 51.54 54.52 C 49.00 53.77 46.51 52.82 44.19 51.52 Z" />
<path fill="#00aeef" opacity="1.00" d=" M 107.42 58.59 C 110.32 57.55 113.69 55.40 116.62 57.60 C 119.72 59.24 120.38 63.20 119.21 66.25 C 117.83 69.73 115.61 72.77 113.64 75.92 C 112.40 74.57 111.19 73.19 109.96 71.84 C 108.30 74.50 106.94 77.63 104.01 79.15 C 105.14 75.80 107.36 73.00 109.49 70.23 C 107.17 66.75 106.17 62.68 107.42 58.59 Z" />
<path fill="#038ed3" opacity="1.00" d=" M 23.63 73.84 C 24.12 70.48 22.94 66.06 25.96 63.64 C 26.23 66.72 26.54 69.89 25.76 72.92 C 25.23 73.15 24.16 73.61 23.63 73.84 Z" />
<path fill="#00aeef" opacity="1.00" d=" M 22.98 87.68 C 23.56 85.61 23.03 83.10 24.64 81.42 C 24.74 83.62 24.72 85.83 24.69 88.04 C 27.43 89.45 30.47 91.50 30.33 95.00 C 29.69 99.87 26.39 103.78 23.89 107.84 C 21.06 103.68 17.08 99.40 17.38 94.03 C 17.42 90.76 20.94 89.57 22.98 87.68 Z" />
<path fill="#0390d4" opacity="1.00" d=" M 95.69 89.63 C 97.00 87.46 99.01 85.86 101.17 84.59 C 100.05 87.48 98.49 90.21 96.37 92.49 L 95.01 91.96 C 95.18 91.38 95.52 90.22 95.69 89.63 Z" />
<path fill="#00aeef" opacity="1.00" d=" M 73.71 97.96 C 73.86 94.30 77.11 90.60 81.03 91.45 C 84.66 91.35 86.14 95.21 87.94 97.68 C 85.55 102.10 83.66 106.88 80.14 110.58 C 77.61 106.61 74.60 102.69 73.71 97.96 Z" />
</svg>
