<?xml version="1.0" encoding="UTF-8" ?>
<!DOCTYPE svg PUBLIC "-//W3C//DTD SVG 1.1//EN" "http://www.w3.org/Graphics/SVG/1.1/DTD/svg11.dtd">
<svg width="143pt" height="143pt" viewBox="0 0 143 143" version="1.1" xmlns="http://www.w3.org/2000/svg">
<path fill="#0957a0" opacity="1.00" d=" M 58.45 6.64 C 70.70 4.34 83.64 5.20 95.28 9.77 C 112.07 16.14 125.93 29.72 132.69 46.34 C 139.35 62.49 139.24 81.32 132.39 97.39 C 126.94 110.21 117.35 121.23 105.35 128.33 C 91.64 136.67 74.84 139.37 59.12 136.49 C 43.61 133.59 29.28 124.88 19.56 112.46 C 10.33 100.81 5.10 85.94 5.46 71.04 C 5.30 56.46 10.52 41.98 19.54 30.57 C 29.12 18.31 43.19 9.66 58.45 6.64 M 61.57 16.73 C 45.56 19.65 31.00 29.88 23.11 44.15 C 17.10 54.65 14.61 67.16 16.38 79.15 C 18.68 96.05 29.23 111.64 44.17 119.91 C 54.65 125.90 67.14 128.38 79.10 126.63 C 96.00 124.35 111.59 113.80 119.88 98.88 C 125.89 88.39 128.38 75.89 126.63 63.91 C 124.32 46.75 113.49 30.96 98.22 22.76 C 87.19 16.60 74.00 14.40 61.57 16.73 Z" />
<path fill="#0957a0" opacity="1.00" d=" M 79.67 38.36 C 81.16 33.99 82.56 29.60 84.08 25.24 C 87.75 27.73 87.06 32.93 88.53 36.69 C 89.51 33.83 90.49 30.97 91.44 28.11 C 91.98 28.29 93.05 28.66 93.59 28.85 C 92.09 33.26 90.71 37.72 89.07 42.08 C 85.71 39.24 86.16 34.31 84.70 30.47 C 83.80 33.35 82.86 36.21 81.94 39.09 C 81.38 38.91 80.24 38.54 79.67 38.36 Z" />
<path fill="#00aeef" opacity="1.00" d=" M 64.58 76.39 C 70.08 65.73 76.00 55.29 81.90 44.85 C 80.45 56.95 78.90 69.05 76.84 81.07 C 76.04 85.75 70.84 87.40 67.18 89.39 C 65.22 85.48 62.04 80.75 64.58 76.39 Z" />
</svg>
