<?xml version="1.0" encoding="UTF-8" ?>
<!DOCTYPE svg PUBLIC "-//W3C//DTD SVG 1.1//EN" "http://www.w3.org/Graphics/SVG/1.1/DTD/svg11.dtd">
<svg width="143pt" height="143pt" viewBox="0 0 143 143" version="1.1" xmlns="http://www.w3.org/2000/svg">
<path fill="#332a27" opacity="0.22" d=" M 29.69 27.70 C 36.41 18.92 47.22 14.68 57.43 11.40 C 59.81 16.35 60.77 21.78 62.36 26.99 L 61.95 27.13 C 54.15 29.65 46.51 33.15 40.50 38.86 L 40.17 39.15 C 36.74 35.28 33.14 31.56 29.69 27.70 Z" />
<path fill="#332a27" opacity="0.22" d=" M 85.33 24.28 C 86.37 20.90 86.33 16.66 88.89 14.07 C 98.89 16.74 108.02 22.24 115.15 29.73 C 112.91 32.25 110.60 34.71 108.15 37.02 C 101.46 31.40 94.13 25.91 85.33 24.28 Z" />
<path fill="#fff200" opacity="1.00" d=" M 66.10 44.14 C 68.59 37.31 70.47 30.27 73.08 23.48 C 75.56 30.42 77.62 37.50 80.04 44.46 C 81.47 48.74 82.90 53.02 84.47 57.25 C 85.90 57.24 87.34 57.24 88.78 57.24 C 99.25 57.33 109.72 57.12 120.19 57.36 L 120.18 57.36 C 110.59 63.73 101.68 71.09 92.16 77.57 L 91.01 78.35 C 92.70 83.45 94.31 88.58 96.05 93.66 C 97.28 97.47 98.42 101.32 99.78 105.08 C 100.62 107.59 101.42 110.12 102.17 112.66 C 100.36 111.34 98.54 110.02 96.75 108.67 C 91.17 104.48 85.40 100.54 79.77 96.41 C 77.54 94.73 75.30 93.07 73.05 91.42 C 71.09 92.83 69.14 94.26 67.22 95.72 C 59.65 101.34 51.83 106.62 44.31 112.31 L 44.16 112.16 C 45.87 106.45 47.82 100.81 49.51 95.09 C 51.51 89.60 53.12 83.98 55.07 78.48 C 54.74 78.24 54.10 77.77 53.77 77.54 C 45.85 71.96 38.19 66.00 30.26 60.44 C 28.82 59.40 27.42 58.32 26.00 57.25 C 36.59 57.20 47.18 57.35 57.76 57.19 C 59.15 57.10 60.54 56.97 61.92 56.84 C 63.24 52.58 64.73 48.38 66.10 44.14 Z" />
<path fill="#67433b" opacity="0.47" d=" M 85.33 24.28 C 94.13 25.91 101.46 31.40 108.15 37.02 C 101.56 43.63 95.24 50.51 88.78 57.24 C 87.34 57.24 85.90 57.24 84.47 57.25 C 82.90 53.02 81.47 48.74 80.04 44.46 C 81.82 37.74 83.73 31.05 85.33 24.28 Z" />
<path fill="#67433b" opacity="0.47" d=" M 40.50 38.86 C 46.51 33.15 54.15 29.65 61.95 27.13 C 63.40 32.76 65.68 38.30 66.10 44.14 C 64.73 48.38 63.24 52.58 61.92 56.84 C 60.54 56.97 59.15 57.10 57.76 57.19 C 52.21 50.90 46.17 45.06 40.50 38.86 Z" />
<path fill="#332a27" opacity="0.22" d=" M 6.78 55.45 C 13.89 56.18 20.81 58.04 27.76 59.61 C 26.55 63.99 25.18 68.44 25.46 73.04 C 25.59 76.84 26.71 80.50 27.73 84.14 L 27.88 84.66 C 20.85 86.32 13.97 88.67 6.79 89.58 C 4.48 78.35 3.49 66.59 6.78 55.45 Z" />
<path fill="#332a27" opacity="0.22" d=" M 120.19 57.36 C 123.78 55.98 127.62 55.45 131.42 54.93 C 134.54 65.25 134.68 76.62 131.68 86.97 C 128.19 86.11 124.69 85.31 121.17 84.59 L 121.29 83.93 C 123.08 75.25 124.04 65.62 120.18 57.36 L 120.19 57.36 Z" />
<path fill="#67433b" opacity="0.47" d=" M 92.16 77.57 C 101.68 71.09 110.59 63.73 120.18 57.36 C 124.04 65.62 123.08 75.25 121.29 83.93 C 111.45 82.48 101.89 79.59 92.16 77.57 Z" />
<path fill="#67433b" opacity="0.47" d=" M 27.76 59.61 C 28.38 59.82 29.63 60.23 30.26 60.44 C 38.19 66.00 45.85 71.96 53.77 77.54 C 44.91 79.00 36.51 82.33 27.73 84.14 C 26.71 80.50 25.59 76.84 25.46 73.04 C 25.18 68.44 26.55 63.99 27.76 59.61 Z" />
<path fill="#67433b" opacity="0.47" d=" M 96.05 93.66 C 98.75 96.07 101.17 98.77 103.63 101.42 C 102.35 102.65 101.07 103.87 99.78 105.08 C 98.42 101.32 97.28 97.47 96.05 93.66 Z" />
<path fill="#67433b" opacity="0.47" d=" M 38.33 106.37 C 42.10 102.65 45.41 98.46 49.51 95.09 C 47.82 100.81 45.87 106.45 44.16 112.16 C 42.21 110.24 40.27 108.31 38.33 106.37 Z" />
<path fill="#67433b" opacity="0.47" d=" M 44.31 112.31 C 51.83 106.62 59.65 101.34 67.22 95.72 C 65.61 103.90 62.88 111.81 61.09 119.96 C 55.19 118.22 49.02 116.46 44.31 112.31 Z" />
<path fill="#67433b" opacity="0.47" d=" M 79.77 96.41 C 85.40 100.54 91.17 104.48 96.75 108.67 C 92.90 111.34 88.63 113.30 84.11 114.49 C 82.93 108.40 80.81 102.53 79.77 96.41 Z" />
<path fill="#332a27" opacity="0.22" d=" M 103.63 101.42 L 103.91 101.15 C 107.80 105.52 112.20 109.50 115.71 114.17 C 115.68 114.49 115.63 115.13 115.60 115.45 C 107.83 122.36 98.93 128.18 88.79 130.92 C 86.96 125.53 85.43 120.03 84.11 114.49 C 88.63 113.30 92.90 111.34 96.75 108.67 C 98.54 110.02 100.36 111.34 102.17 112.66 C 101.42 110.12 100.62 107.59 99.78 105.08 C 101.07 103.87 102.35 102.65 103.63 101.42 Z" />
<path fill="#332a27" opacity="0.22" d=" M 38.13 106.17 L 38.33 106.37 C 40.27 108.31 42.21 110.24 44.16 112.16 L 44.31 112.31 C 49.02 116.46 55.19 118.22 61.09 119.96 C 60.15 124.65 58.56 129.17 57.25 133.76 C 51.91 133.41 47.07 131.00 42.37 128.66 C 37.64 126.25 33.20 123.22 29.25 119.67 C 27.80 118.66 28.34 116.61 29.43 115.55 C 32.19 112.30 35.27 109.34 38.13 106.17 Z" />
</svg>
