<?xml version="1.0" encoding="UTF-8" ?>
<!DOCTYPE svg PUBLIC "-//W3C//DTD SVG 1.1//EN" "http://www.w3.org/Graphics/SVG/1.1/DTD/svg11.dtd">
<svg width="143pt" height="143pt" viewBox="0 0 143 143" version="1.1" xmlns="http://www.w3.org/2000/svg">
<path fill="#00aeef" opacity="1.00" d=" M 66.59 15.87 C 68.39 12.30 70.07 8.68 71.98 5.17 C 72.70 6.74 73.43 8.30 74.21 9.85 C 76.03 13.41 77.92 17.14 77.55 21.27 C 76.41 22.40 75.26 23.52 74.10 24.63 C 71.15 25.09 68.57 23.99 66.49 21.95 C 66.43 19.92 66.45 17.89 66.59 15.87 Z" />
<path fill="#0957a0" opacity="1.00" d=" M 65.77 30.38 C 68.59 28.95 71.89 29.74 74.92 29.43 C 77.91 29.02 81.16 30.28 82.40 33.18 C 80.92 36.80 80.72 40.90 82.65 44.42 C 96.10 45.23 109.92 47.58 121.82 54.21 C 126.05 56.36 128.98 60.12 131.55 63.98 C 131.65 66.14 131.67 68.30 131.65 70.47 L 130.39 70.47 C 130.50 74.98 129.65 79.77 131.45 84.04 C 131.80 87.02 131.81 90.03 131.68 93.02 C 130.64 93.89 129.62 94.77 128.60 95.65 C 128.53 101.07 129.14 106.58 128.30 111.95 C 125.76 118.01 119.55 121.19 113.93 123.86 C 102.50 128.32 90.22 130.35 77.99 130.65 C 68.94 130.70 59.79 130.85 50.90 128.96 C 42.08 127.47 33.16 125.11 25.50 120.35 C 21.62 117.76 17.26 114.12 17.33 109.01 C 16.80 102.69 18.19 96.18 16.43 90.00 L 17.53 89.94 C 17.97 89.93 18.84 89.90 19.28 89.88 C 19.88 88.24 21.18 86.30 22.84 88.20 C 24.11 93.93 24.19 99.97 26.81 105.37 C 28.00 105.94 29.32 106.05 30.58 106.37 C 30.50 103.00 30.54 99.62 30.72 96.25 C 31.86 95.18 33.12 93.86 34.80 94.72 C 37.11 95.75 37.32 98.47 38.01 100.57 C 38.66 100.55 39.31 100.53 39.96 100.51 C 41.24 99.55 42.27 98.03 43.90 97.67 C 46.00 98.57 47.80 100.17 50.05 100.72 C 52.68 100.04 55.26 97.33 58.09 98.69 C 61.56 101.26 60.94 106.30 63.48 109.54 C 64.26 110.85 66.65 110.89 67.68 109.85 C 71.16 107.01 73.22 102.51 77.39 100.53 C 80.77 99.36 83.51 102.07 86.12 103.72 C 88.85 101.31 91.43 98.74 93.96 96.11 C 96.51 96.36 98.76 97.58 100.87 98.96 C 101.44 96.21 102.61 93.66 104.21 91.36 C 104.73 91.37 105.79 91.39 106.31 91.40 C 108.08 95.65 109.42 100.14 111.89 104.06 C 112.57 105.52 114.25 105.59 115.59 106.00 C 115.70 101.41 115.36 96.81 115.75 92.23 C 117.88 92.80 119.88 93.71 121.94 94.45 C 122.82 93.89 123.68 93.31 124.53 92.70 C 126.25 92.70 127.96 92.72 129.68 92.74 C 130.48 85.06 127.16 77.43 129.19 69.84 C 129.77 67.25 130.06 64.26 128.22 62.08 C 123.74 55.87 116.26 52.91 109.24 50.58 C 100.82 48.10 92.12 46.20 83.30 46.25 C 82.14 44.28 80.70 42.34 80.39 40.01 C 80.03 37.43 81.06 34.95 81.74 32.51 C 77.23 28.78 71.08 30.83 65.77 30.38 Z" />
<path fill="#00aeef" opacity="1.00" d=" M 65.19 30.38 L 65.77 30.38 C 71.08 30.83 77.23 28.78 81.74 32.51 C 81.06 34.95 80.03 37.43 80.39 40.01 C 80.70 42.34 82.14 44.28 83.30 46.25 C 82.56 46.69 81.07 47.56 80.32 48.00 C 81.28 51.42 82.23 54.86 82.77 58.38 C 81.94 58.36 80.29 58.32 79.46 58.30 C 79.48 61.29 79.50 64.28 79.54 67.26 C 76.91 69.40 74.51 71.89 71.50 73.48 C 69.22 74.60 67.26 72.36 65.44 71.33 C 65.49 68.68 65.51 66.03 65.53 63.38 C 64.06 63.53 62.59 63.68 61.13 63.81 C 61.31 61.19 62.11 58.70 63.41 56.43 C 65.20 53.30 64.24 49.57 64.39 46.16 C 53.75 46.25 43.15 48.38 33.13 51.88 C 26.07 54.54 18.41 58.57 15.58 66.01 C 14.85 73.40 16.12 80.80 16.55 88.17 C 17.45 88.12 18.35 88.05 19.25 87.97 C 20.61 85.44 23.03 86.44 24.57 88.08 C 24.51 93.60 24.67 99.62 27.59 104.44 C 28.33 104.48 29.06 104.43 29.80 104.31 C 29.78 101.86 29.81 99.41 29.87 96.95 C 30.08 96.78 30.50 96.43 30.72 96.25 C 30.54 99.62 30.50 103.00 30.58 106.37 C 29.32 106.05 28.00 105.94 26.81 105.37 C 24.19 99.97 24.11 93.93 22.84 88.20 C 21.18 86.30 19.88 88.24 19.28 89.88 C 18.84 89.90 17.97 89.93 17.53 89.94 C 17.09 89.91 16.22 89.84 15.78 89.80 C 14.06 85.14 14.50 80.15 14.53 75.28 L 13.49 75.73 C 13.42 71.94 13.37 68.16 13.44 64.38 L 14.23 64.56 C 15.01 63.27 15.84 62.03 16.64 60.77 C 19.64 56.93 23.86 54.36 28.21 52.31 C 29.40 51.77 30.60 51.25 31.79 50.70 C 32.81 50.36 33.83 50.01 34.84 49.65 C 38.49 48.40 42.30 47.74 45.98 46.60 C 47.48 46.48 48.99 46.40 50.50 46.34 L 50.52 45.66 C 55.01 45.48 59.44 44.61 63.92 44.42 C 63.57 42.95 63.18 41.49 62.71 40.05 C 61.97 36.53 62.83 33.09 65.19 30.38 Z" />
<path fill="#f3f3f4" opacity="1.00" d=" M 33.13 51.88 C 43.15 48.38 53.75 46.25 64.39 46.16 C 64.24 49.57 65.20 53.30 63.41 56.43 C 62.11 58.70 61.31 61.19 61.13 63.81 C 62.59 63.68 64.06 63.53 65.53 63.38 C 65.51 66.03 65.49 68.68 65.44 71.33 C 67.26 72.36 69.22 74.60 71.50 73.48 C 74.51 71.89 76.91 69.40 79.54 67.26 C 79.50 64.28 79.48 61.29 79.46 58.30 C 80.29 58.32 81.94 58.36 82.77 58.38 C 82.23 54.86 81.28 51.42 80.32 48.00 C 81.07 47.56 82.56 46.69 83.30 46.25 C 92.12 46.20 100.82 48.10 109.24 50.58 C 116.26 52.91 123.74 55.87 128.22 62.08 C 130.06 64.26 129.77 67.25 129.19 69.84 C 127.16 77.43 130.48 85.06 129.68 92.74 C 127.96 92.72 126.25 92.70 124.53 92.70 C 123.68 93.31 122.82 93.89 121.94 94.45 C 119.88 93.71 117.88 92.80 115.75 92.23 C 115.36 96.81 115.70 101.41 115.59 106.00 C 114.25 105.59 112.57 105.52 111.89 104.06 C 109.42 100.14 108.08 95.65 106.31 91.40 C 105.79 91.39 104.73 91.37 104.21 91.36 C 102.61 93.66 101.44 96.21 100.87 98.96 C 98.76 97.58 96.51 96.36 93.96 96.11 C 91.43 98.74 88.85 101.31 86.12 103.72 C 83.51 102.07 80.77 99.36 77.39 100.53 C 73.22 102.51 71.16 107.01 67.68 109.85 C 66.65 110.89 64.26 110.85 63.48 109.54 C 60.94 106.30 61.56 101.26 58.09 98.69 C 55.26 97.33 52.68 100.04 50.05 100.72 C 47.80 100.17 46.00 98.57 43.90 97.67 C 42.27 98.03 41.24 99.55 39.96 100.51 C 39.31 100.53 38.66 100.55 38.01 100.57 C 37.32 98.47 37.11 95.75 34.80 94.72 C 33.12 93.86 31.86 95.18 30.72 96.25 C 30.50 96.43 30.08 96.78 29.87 96.95 C 29.81 99.41 29.78 101.86 29.80 104.31 C 29.06 104.43 28.33 104.48 27.59 104.44 C 24.67 99.62 24.51 93.60 24.57 88.08 C 23.03 86.44 20.61 85.44 19.25 87.97 C 18.35 88.05 17.45 88.12 16.55 88.17 C 16.12 80.80 14.85 73.40 15.58 66.01 C 18.41 58.57 26.07 54.54 33.13 51.88 Z" />
</svg>
