<?xml version="1.0" encoding="UTF-8" ?>
<!DOCTYPE svg PUBLIC "-//W3C//DTD SVG 1.1//EN" "http://www.w3.org/Graphics/SVG/1.1/DTD/svg11.dtd">
<svg width="143pt" height="143pt" viewBox="0 0 143 143" version="1.1" xmlns="http://www.w3.org/2000/svg">
<path fill="#00aeef" opacity="1.00" d=" M 58.46 9.68 C 70.66 7.26 83.59 8.20 95.16 12.86 C 110.49 18.83 123.25 31.05 129.98 46.06 C 137.49 62.60 137.49 82.39 129.98 98.93 C 123.05 114.43 109.67 126.91 93.70 132.70 C 83.27 136.64 71.80 137.42 60.83 135.76 C 42.36 132.79 25.57 121.18 16.17 105.02 C 7.57 90.61 5.28 72.77 9.35 56.55 C 15.04 33.25 34.92 14.26 58.46 9.68 M 62.45 33.64 C 49.57 36.66 38.49 46.43 34.08 58.93 C 29.64 70.84 31.48 84.82 38.81 95.21 C 48.45 109.50 67.85 116.13 84.18 110.40 C 96.67 106.26 106.76 95.61 110.13 82.88 C 114.42 67.95 108.70 51.01 96.58 41.41 C 87.20 33.77 74.22 30.74 62.45 33.64 Z" />
<path fill="#00aeef" opacity="1.00" d=" M 67.44 52.58 C 79.29 49.76 91.95 59.71 91.78 71.92 C 92.09 78.63 88.73 85.36 83.18 89.14 C 76.44 94.02 66.59 94.03 59.84 89.16 C 53.94 85.17 50.58 77.85 51.27 70.77 C 51.79 61.99 58.81 54.17 67.44 52.58 Z" />
</svg>
