<?xml version="1.0" encoding="UTF-8" ?>
<!DOCTYPE svg PUBLIC "-//W3C//DTD SVG 1.1//EN" "http://www.w3.org/Graphics/SVG/1.1/DTD/svg11.dtd">
<svg width="256pt" height="256pt" viewBox="0 0 256 256" version="1.1" xmlns="http://www.w3.org/2000/svg">
<path fill="#7e9dd8" opacity="1.00" d=" M 17.95 22.87 C 25.36 12.19 37.90 4.95 51.03 5.05 C 102.33 5.06 153.63 5.06 204.92 5.05 C 218.07 4.93 230.64 12.18 238.05 22.88 C 234.62 22.89 231.19 22.96 227.76 23.11 C 219.93 14.85 208.13 11.56 197.00 11.97 C 149.69 12.03 102.37 11.99 55.06 11.99 C 45.15 12.25 35.16 15.79 28.25 23.12 C 24.82 22.98 21.39 22.89 17.95 22.87 Z" />
<path fill="#abbee5" opacity="1.00" d=" M 28.25 23.12 C 35.16 15.79 45.15 12.25 55.06 11.99 C 102.37 11.99 149.69 12.03 197.00 11.97 C 208.13 11.56 219.93 14.85 227.76 23.11 C 230.00 25.36 231.83 27.98 233.37 30.75 C 229.56 30.94 225.75 31.03 221.94 31.02 C 215.12 23.60 205.13 19.10 195.02 19.26 C 150.35 19.23 105.67 19.23 60.99 19.26 C 50.85 19.08 40.89 23.63 34.02 31.03 C 30.01 30.99 26.00 30.98 21.99 30.98 C 23.71 28.09 25.84 25.46 28.25 23.12 Z" />
<path fill="#7696d1" opacity="1.00" d=" M 34.02 31.03 C 40.89 23.63 50.85 19.08 60.99 19.26 C 105.67 19.23 150.35 19.23 195.02 19.26 C 205.13 19.10 215.12 23.60 221.94 31.02 C 224.48 33.99 226.67 37.27 228.24 40.85 C 221.84 41.08 215.44 41.13 209.04 41.02 C 208.90 40.37 208.61 39.07 208.47 38.42 L 207.56 38.08 C 191.27 36.98 174.31 36.39 158.67 41.84 C 153.55 40.61 148.28 41.19 143.08 41.14 C 112.06 41.05 81.04 41.13 50.02 41.10 C 42.61 41.07 35.19 41.30 27.78 40.80 C 29.35 37.25 31.51 33.98 34.02 31.03 Z" />
<path fill="#7595d0" opacity="1.00" d=" M 17.95 22.87 C 21.39 22.89 24.82 22.98 28.25 23.12 C 25.84 25.46 23.71 28.09 21.99 30.98 C 19.08 36.27 17.89 42.28 16.96 48.19 C 15.44 48.06 13.92 47.91 12.41 47.73 C 11.97 45.38 11.58 43.02 11.29 40.64 C 11.54 38.36 12.11 36.13 12.64 33.91 C 13.82 29.97 15.74 26.31 17.95 22.87 Z" />
<path fill="#7595d0" opacity="1.00" d=" M 227.76 23.11 C 231.19 22.96 234.62 22.89 238.05 22.88 C 240.76 27.04 242.92 31.58 244.04 36.43 C 244.33 37.86 244.55 39.30 244.71 40.75 C 244.46 43.06 244.07 45.35 243.64 47.62 C 242.01 48.02 240.37 48.39 238.73 48.73 C 237.79 42.51 236.98 36.11 233.37 30.75 C 231.83 27.98 230.00 25.36 227.76 23.11 Z" />
<path fill="#a5b9df" opacity="1.00" d=" M 21.99 30.98 C 26.00 30.98 30.01 30.99 34.02 31.03 C 31.51 33.98 29.35 37.25 27.78 40.80 C 26.29 44.32 25.40 48.04 24.73 51.79 C 24.35 53.12 23.89 54.43 23.44 55.74 C 21.27 55.87 19.10 56.04 16.93 56.17 C 16.89 53.51 16.84 50.85 16.96 48.19 C 17.89 42.28 19.08 36.27 21.99 30.98 Z" />
<path fill="#a5b9df" opacity="1.00" d=" M 221.94 31.02 C 225.75 31.03 229.56 30.94 233.37 30.75 C 236.98 36.11 237.79 42.51 238.73 48.73 C 239.14 51.18 239.14 53.67 239.09 56.15 C 236.92 56.02 234.75 55.85 232.59 55.72 C 232.12 54.41 231.66 53.11 231.26 51.79 C 230.62 48.06 229.72 44.35 228.24 40.85 C 226.67 37.27 224.48 33.99 221.94 31.02 Z" />
<path fill="#161616" opacity="0.21" d=" M 9.76 38.72 C 10.34 36.92 10.67 34.75 12.64 33.91 C 12.11 36.13 11.54 38.36 11.29 40.64 C 10.45 54.72 11.12 68.84 10.89 82.94 C 10.87 121.28 10.89 159.62 10.88 197.96 C 10.89 206.00 12.81 214.21 17.39 220.90 C 16.44 225.59 20.22 228.89 23.01 232.03 C 29.82 238.91 39.21 243.52 48.95 243.89 C 50.95 244.12 52.95 244.39 54.97 244.44 C 103.97 244.40 152.99 244.43 201.99 244.43 C 205.63 244.24 209.23 243.70 212.84 243.24 C 228.70 239.82 241.92 225.86 243.68 209.62 C 244.10 207.58 244.54 205.54 244.74 203.46 C 244.96 201.34 245.08 199.21 245.10 197.08 C 245.08 159.06 245.11 121.03 245.08 83.01 C 244.88 68.93 245.50 54.82 244.71 40.75 C 244.55 39.30 244.33 37.86 244.04 36.43 C 245.60 36.70 245.80 38.44 246.25 39.64 C 247.37 43.31 247.67 47.16 247.61 50.98 C 247.62 102.34 247.63 153.70 247.60 205.06 C 248.20 227.29 228.20 247.73 205.97 247.60 C 154.31 247.63 102.65 247.62 50.99 247.61 C 33.03 248.21 16.13 235.40 10.37 218.63 C 8.07 213.02 8.42 206.88 7.66 200.98 C 7.65 183.34 7.60 165.70 7.68 148.06 C 8.79 142.70 7.32 137.35 7.63 131.96 C 7.65 119.98 7.67 108.00 7.61 96.02 C 8.44 84.71 6.73 73.33 8.20 62.05 C 8.91 54.29 7.24 46.25 9.76 38.72 Z" />
<path fill="#ffffff" opacity="1.00" d=" M 158.67 41.84 C 174.31 36.39 191.27 36.98 207.56 38.08 C 207.54 48.21 207.54 58.34 207.51 68.48 C 202.00 68.63 196.49 68.53 190.99 68.76 C 186.36 68.94 182.27 72.20 180.52 76.40 C 178.28 81.48 178.60 87.16 178.58 92.58 C 188.20 92.69 197.82 92.51 207.44 92.68 C 207.34 103.06 207.43 113.43 207.41 123.80 C 197.82 123.87 188.22 123.79 178.63 123.83 C 178.64 135.06 178.54 146.29 178.71 157.52 C 178.54 174.17 178.58 190.84 178.72 207.50 C 178.56 210.71 178.61 213.92 178.64 217.13 C 165.03 217.27 151.41 217.20 137.80 217.19 C 137.80 189.45 137.86 161.70 137.85 133.96 C 137.81 130.55 138.17 127.11 137.51 123.75 C 129.35 123.88 121.20 123.81 113.05 123.81 C 113.07 116.20 113.10 108.58 113.02 100.96 C 113.03 98.18 113.04 95.40 113.06 92.62 C 121.32 92.59 129.58 92.62 137.85 92.61 C 137.81 85.07 137.29 77.46 138.83 70.02 C 141.24 58.49 147.72 47.10 158.67 41.84 Z" />
<path fill="#6585c4" opacity="1.00" d=" M 207.56 38.08 L 208.47 38.42 C 208.61 39.07 208.90 40.37 209.04 41.02 C 208.88 49.28 208.92 57.56 209.29 65.82 C 216.64 66.09 224.00 65.87 231.36 65.92 C 231.48 73.03 231.17 80.16 231.70 87.26 L 231.74 87.71 L 231.43 87.76 C 223.34 88.93 215.70 92.73 207.44 92.68 C 197.82 92.51 188.20 92.69 178.58 92.58 C 178.60 87.16 178.28 81.48 180.52 76.40 C 182.27 72.20 186.36 68.94 190.99 68.76 C 196.49 68.53 202.00 68.63 207.51 68.48 C 207.54 58.34 207.54 48.21 207.56 38.08 Z" />
<path fill="#6989c6" opacity="1.00" d=" M 10.89 82.94 C 11.12 68.84 10.45 54.72 11.29 40.64 C 11.58 43.02 11.97 45.38 12.41 47.73 C 13.92 47.91 15.44 48.06 16.96 48.19 C 16.84 50.85 16.89 53.51 16.93 56.17 C 17.00 65.81 17.05 75.46 17.03 85.10 C 14.99 84.36 12.95 83.64 10.89 82.94 Z" />
<path fill="#6d8cc9" opacity="1.00" d=" M 24.73 51.79 C 25.40 48.04 26.29 44.32 27.78 40.80 C 35.19 41.30 42.61 41.07 50.02 41.10 C 81.04 41.13 112.06 41.05 143.08 41.14 C 148.28 41.19 153.55 40.61 158.67 41.84 C 147.72 47.10 141.24 58.49 138.83 70.02 C 137.50 71.53 136.47 74.13 134.06 73.91 C 124.07 74.05 114.06 73.88 104.06 74.04 C 100.64 74.53 98.17 71.75 95.06 71.08 C 86.32 70.60 76.79 71.88 68.95 67.19 C 64.34 66.48 59.66 67.14 55.02 67.03 C 44.89 66.86 34.76 67.11 24.63 66.91 C 24.64 61.87 24.56 56.83 24.73 51.79 Z" />
<path fill="#6e8dca" opacity="1.00" d=" M 209.04 41.02 C 215.44 41.13 221.84 41.08 228.24 40.85 C 229.72 44.35 230.62 48.06 231.26 51.79 C 231.44 56.50 231.36 61.21 231.36 65.92 C 224.00 65.87 216.64 66.09 209.29 65.82 C 208.92 57.56 208.88 49.28 209.04 41.02 Z" />
<path fill="#6989c6" opacity="1.00" d=" M 244.71 40.75 C 245.50 54.82 244.88 68.93 245.08 83.01 C 243.04 83.68 241.01 84.36 238.97 85.05 C 238.96 75.41 238.98 65.78 239.09 56.15 C 239.14 53.67 239.14 51.18 238.73 48.73 C 240.37 48.39 242.01 48.02 243.64 47.62 C 244.07 45.35 244.46 43.06 244.71 40.75 Z" />
<path fill="#9eb2d9" opacity="1.00" d=" M 23.44 55.74 C 23.89 54.43 24.35 53.12 24.73 51.79 C 24.56 56.83 24.64 61.87 24.63 66.91 C 24.64 73.62 24.55 80.33 24.56 87.04 C 22.03 86.46 19.52 85.81 17.03 85.10 C 17.05 75.46 17.00 65.81 16.93 56.17 C 19.10 56.04 21.27 55.87 23.44 55.74 Z" />
<path fill="#9eb2d9" opacity="1.00" d=" M 231.26 51.79 C 231.66 53.11 232.12 54.41 232.59 55.72 C 234.75 55.85 236.92 56.02 239.09 56.15 C 238.98 65.78 238.96 75.41 238.97 85.05 C 236.55 85.80 234.13 86.54 231.70 87.26 C 231.17 80.16 231.48 73.03 231.36 65.92 C 231.36 61.21 231.44 56.50 231.26 51.79 Z" />
<path fill="#6485c4" opacity="1.00" d=" M 24.63 66.91 C 34.76 67.11 44.89 66.86 55.02 67.03 C 59.66 67.14 64.34 66.48 68.95 67.19 C 76.79 71.88 86.32 70.60 95.06 71.08 C 98.17 71.75 100.64 74.53 104.06 74.04 C 114.06 73.88 124.07 74.05 134.06 73.91 C 136.47 74.13 137.50 71.53 138.83 70.02 C 137.29 77.46 137.81 85.07 137.85 92.61 C 129.58 92.62 121.32 92.59 113.06 92.62 C 113.04 95.40 113.03 98.18 113.02 100.96 C 111.66 100.93 110.31 100.90 108.95 100.86 C 106.81 100.78 104.68 100.79 102.54 100.84 C 76.18 99.01 50.03 94.58 24.56 87.53 L 24.56 87.04 C 24.55 80.33 24.64 73.62 24.63 66.91 Z" />
<path fill="#3a5aa3" opacity="1.00" d=" M 10.89 82.94 C 12.95 83.64 14.99 84.36 17.03 85.10 C 17.06 118.74 16.98 152.38 16.96 186.02 C 16.98 190.69 16.71 195.38 17.22 200.04 C 18.32 206.20 19.98 212.46 23.64 217.66 C 21.90 219.46 20.80 221.69 20.25 224.13 C 19.29 223.06 18.34 221.97 17.39 220.90 C 12.81 214.21 10.89 206.00 10.88 197.96 C 10.89 159.62 10.87 121.28 10.89 82.94 Z" />
<path fill="#3959a2" opacity="1.00" d=" M 238.97 85.05 C 241.01 84.36 243.04 83.68 245.08 83.01 C 245.11 121.03 245.08 159.06 245.10 197.08 C 245.08 199.21 244.96 201.34 244.74 203.46 C 243.47 191.68 244.50 179.79 244.05 167.97 C 244.13 164.21 241.14 161.56 239.04 158.80 C 239.10 154.28 239.06 149.77 239.04 145.26 C 239.02 125.19 238.96 105.12 238.97 85.05 Z" />
<path fill="#8095c4" opacity="1.00" d=" M 17.03 85.10 C 19.52 85.81 22.03 86.46 24.56 87.04 L 24.56 87.53 C 24.53 108.17 24.61 128.81 24.64 149.45 C 24.57 164.48 24.68 179.51 24.67 194.55 C 23.95 191.41 23.67 188.20 23.56 185.00 C 20.96 189.80 19.20 194.97 17.22 200.04 C 16.71 195.38 16.98 190.69 16.96 186.02 C 16.98 152.38 17.06 118.74 17.03 85.10 Z" />
<path fill="#8095c3" opacity="1.00" d=" M 231.70 87.26 C 234.13 86.54 236.55 85.80 238.97 85.05 C 238.96 105.12 239.02 125.19 239.04 145.26 C 236.78 143.16 234.15 141.31 232.54 138.63 C 231.64 132.47 232.56 126.18 232.25 119.97 C 231.93 109.22 232.59 98.44 231.74 87.71 L 231.70 87.26 Z" />
<path fill="#3959a1" opacity="1.00" d=" M 24.56 87.53 C 50.03 94.58 76.18 99.01 102.54 100.84 C 98.71 102.62 94.45 101.67 90.45 102.48 C 72.85 108.57 56.75 118.54 42.76 130.77 C 36.46 136.74 30.55 143.09 24.64 149.45 C 24.61 128.81 24.53 108.17 24.56 87.53 Z" />
<path fill="#3958a1" opacity="1.00" d=" M 207.44 92.68 C 215.70 92.73 223.34 88.93 231.43 87.76 C 231.54 99.57 231.39 111.38 231.45 123.18 C 224.18 118.36 217.28 112.84 209.29 109.23 C 209.19 114.06 209.41 118.91 208.91 123.73 C 208.53 123.75 207.79 123.78 207.41 123.80 C 207.43 113.43 207.34 103.06 207.44 92.68 Z" />
<path fill="#839acd" opacity="1.00" d=" M 231.43 87.76 L 231.74 87.71 C 232.59 98.44 231.93 109.22 232.25 119.97 C 232.56 126.18 231.64 132.47 232.54 138.63 C 234.15 141.31 236.78 143.16 239.04 145.26 C 239.06 149.77 239.10 154.28 239.04 158.80 C 238.51 173.53 240.07 188.38 237.83 203.01 C 237.27 207.39 235.35 211.45 233.35 215.34 C 232.25 211.28 230.98 207.25 229.07 203.49 C 231.64 196.37 231.57 188.73 231.38 181.27 C 231.36 161.91 231.48 142.54 231.45 123.18 C 231.39 111.38 231.54 99.57 231.43 87.76 Z" />
<path fill="#3b5daa" opacity="1.00" d=" M 102.54 100.84 C 104.68 100.79 106.81 100.78 108.95 100.86 C 110.10 101.69 112.12 102.22 112.03 103.98 C 112.32 110.65 112.02 117.34 111.90 124.01 C 111.37 122.76 110.84 121.51 110.31 120.26 C 88.10 125.39 67.21 136.94 51.73 153.76 C 45.52 159.32 40.66 166.14 36.06 173.04 C 31.61 179.85 28.56 187.43 24.67 194.55 C 24.68 179.51 24.57 164.48 24.64 149.45 C 30.55 143.09 36.46 136.74 42.76 130.77 C 56.75 118.54 72.85 108.57 90.45 102.48 C 94.45 101.67 98.71 102.62 102.54 100.84 Z" />
<path fill="#3e62b4" opacity="1.00" d=" M 108.95 100.86 C 110.31 100.90 111.66 100.93 113.02 100.96 C 113.10 108.58 113.07 116.20 113.05 123.81 C 121.20 123.81 129.35 123.88 137.51 123.75 C 136.78 140.18 137.42 156.66 136.44 173.08 C 135.76 166.76 136.15 160.39 135.75 154.05 C 115.88 155.05 95.98 162.65 81.60 176.61 C 74.09 183.61 67.69 191.84 63.08 201.03 C 59.34 209.11 56.81 217.69 55.10 226.42 C 52.55 225.91 50.06 225.18 47.63 224.28 C 35.21 219.54 26.41 207.62 24.67 194.55 C 28.56 187.43 31.61 179.85 36.06 173.04 C 40.66 166.14 45.52 159.32 51.73 153.76 C 67.21 136.94 88.10 125.39 110.31 120.26 C 110.84 121.51 111.37 122.76 111.90 124.01 C 112.02 117.34 112.32 110.65 112.03 103.98 C 112.12 102.22 110.10 101.69 108.95 100.86 Z" />
<path fill="#3d5fae" opacity="1.00" d=" M 209.29 109.23 C 217.28 112.84 224.18 118.36 231.45 123.18 C 231.48 142.54 231.36 161.91 231.38 181.27 C 224.21 172.29 217.76 162.49 208.33 155.63 C 200.24 148.64 190.81 143.54 181.10 139.17 C 179.22 145.17 181.30 151.71 178.71 157.52 C 178.54 146.29 178.64 135.06 178.63 123.83 C 188.22 123.79 197.82 123.87 207.41 123.80 C 207.79 123.78 208.53 123.75 208.91 123.73 C 209.41 118.91 209.19 114.06 209.29 109.23 Z" />
<path fill="#4369c3" opacity="1.00" d=" M 137.51 123.75 C 138.17 127.11 137.81 130.55 137.85 133.96 C 137.86 161.70 137.80 189.45 137.80 217.19 C 151.41 217.20 165.03 217.27 178.64 217.13 C 178.61 213.92 178.56 210.71 178.72 207.50 C 181.07 201.56 178.89 194.97 181.19 188.98 C 190.60 196.71 197.60 207.25 201.13 218.89 C 201.82 221.38 202.82 223.83 204.82 225.56 C 203.64 225.84 202.45 226.06 201.26 226.25 C 193.98 225.65 186.67 226.16 179.39 225.68 C 178.40 223.55 177.55 221.37 176.59 219.23 C 171.40 218.92 166.18 218.96 161.02 218.29 C 153.14 217.39 145.21 218.55 137.33 217.73 C 136.21 212.89 136.19 207.90 135.75 202.98 C 130.56 203.68 125.43 205.19 120.82 207.69 C 114.26 212.16 108.51 218.13 105.62 225.64 C 90.99 226.33 76.29 225.41 61.70 226.80 C 59.49 226.80 57.28 226.71 55.10 226.42 C 56.81 217.69 59.34 209.11 63.08 201.03 C 67.69 191.84 74.09 183.61 81.60 176.61 C 95.98 162.65 115.88 155.05 135.75 154.05 C 136.15 160.39 135.76 166.76 136.44 173.08 C 137.42 156.66 136.78 140.18 137.51 123.75 Z" />
<path fill="#4065ba" opacity="1.00" d=" M 181.10 139.17 C 190.81 143.54 200.24 148.64 208.33 155.63 C 217.76 162.49 224.21 172.29 231.38 181.27 C 231.57 188.73 231.64 196.37 229.07 203.49 C 224.91 214.09 215.75 222.39 204.82 225.56 C 202.82 223.83 201.82 221.38 201.13 218.89 C 197.60 207.25 190.60 196.71 181.19 188.98 C 178.89 194.97 181.07 201.56 178.72 207.50 C 178.58 190.84 178.54 174.17 178.71 157.52 C 181.30 151.71 179.22 145.17 181.10 139.17 Z" />
<path fill="#3e61b2" opacity="1.00" d=" M 239.04 158.80 C 241.14 161.56 244.13 164.21 244.05 167.97 C 244.50 179.79 243.47 191.68 244.74 203.46 C 244.54 205.54 244.10 207.58 243.68 209.62 C 241.07 215.88 238.11 222.18 233.16 226.98 C 232.23 224.76 231.18 222.59 230.02 220.48 C 231.21 218.82 232.34 217.11 233.35 215.34 C 235.35 211.45 237.27 207.39 237.83 203.01 C 240.07 188.38 238.51 173.53 239.04 158.80 Z" />
<path fill="#849acd" opacity="1.00" d=" M 17.22 200.04 C 19.20 194.97 20.96 189.80 23.56 185.00 C 23.67 188.20 23.95 191.41 24.67 194.55 C 26.41 207.62 35.21 219.54 47.63 224.28 C 46.05 226.70 45.36 229.51 44.84 232.32 C 36.25 230.17 28.87 224.72 23.64 217.66 C 19.98 212.46 18.32 206.20 17.22 200.04 Z" />
<path fill="#466fcf" opacity="1.00" d=" M 120.82 207.69 C 125.43 205.19 130.56 203.68 135.75 202.98 C 136.19 207.90 136.21 212.89 137.33 217.73 C 145.21 218.55 153.14 217.39 161.02 218.29 C 166.18 218.96 171.40 218.92 176.59 219.23 C 177.55 221.37 178.40 223.55 179.39 225.68 C 186.67 226.16 193.98 225.65 201.26 226.25 C 195.41 227.22 189.45 226.70 183.55 227.08 C 163.38 226.54 143.19 226.88 123.01 226.80 C 115.15 226.91 107.27 226.60 99.41 227.08 C 86.85 226.54 74.27 227.17 61.70 226.80 C 76.29 225.41 90.99 226.33 105.62 225.64 C 108.51 218.13 114.26 212.16 120.82 207.69 Z" />
<path fill="#869dd5" opacity="1.00" d=" M 229.07 203.49 C 230.98 207.25 232.25 211.28 233.35 215.34 C 232.34 217.11 231.21 218.82 230.02 220.48 C 225.27 225.94 218.86 229.76 212.05 232.06 C 206.09 233.28 200.00 234.27 193.89 234.08 C 193.48 232.18 193.04 230.29 192.62 228.39 C 189.56 228.22 186.53 227.77 183.55 227.08 C 189.45 226.70 195.41 227.22 201.26 226.25 C 202.45 226.06 203.64 225.84 204.82 225.56 C 215.75 222.39 224.91 214.09 229.07 203.49 Z" />
<path fill="#444444" opacity="0.64" d=" M 233.16 226.98 C 238.11 222.18 241.07 215.88 243.68 209.62 C 241.92 225.86 228.70 239.82 212.84 243.24 C 209.23 243.70 205.63 244.24 201.99 244.43 C 152.99 244.43 103.97 244.40 54.97 244.44 C 52.95 244.39 50.95 244.12 48.95 243.89 C 39.21 243.52 29.82 238.91 23.01 232.03 C 20.22 228.89 16.44 225.59 17.39 220.90 C 18.34 221.97 19.29 223.06 20.25 224.13 C 27.53 232.94 38.49 238.73 49.98 239.06 C 57.13 239.21 64.30 239.14 71.45 239.03 C 86.11 239.17 100.78 239.17 115.44 239.01 C 133.17 239.16 150.90 239.15 168.63 239.02 C 179.45 239.23 190.26 239.05 201.07 239.14 C 212.88 239.82 224.87 235.49 233.16 226.98 Z" />
<path fill="#3e62b4" opacity="1.00" d=" M 20.25 224.13 C 20.80 221.69 21.90 219.46 23.64 217.66 C 28.87 224.72 36.25 230.17 44.84 232.32 C 47.87 232.81 50.92 233.24 53.95 233.72 C 54.06 235.07 54.17 236.43 54.28 237.80 C 60.00 238.33 65.85 237.42 71.45 239.03 C 64.30 239.14 57.13 239.21 49.98 239.06 C 38.49 238.73 27.53 232.94 20.25 224.13 Z" />
<path fill="#4267bf" opacity="1.00" d=" M 212.05 232.06 C 218.86 229.76 225.27 225.94 230.02 220.48 C 231.18 222.59 232.23 224.76 233.16 226.98 C 224.87 235.49 212.88 239.82 201.07 239.14 C 190.26 239.05 179.45 239.23 168.63 239.02 C 174.83 237.45 181.25 238.44 187.54 237.73 C 187.77 236.49 188.01 235.25 188.26 234.01 C 190.13 234.03 192.01 234.04 193.89 234.08 C 200.00 234.27 206.09 233.28 212.05 232.06 Z" />
<path fill="#869ed7" opacity="1.00" d=" M 44.84 232.32 C 45.36 229.51 46.05 226.70 47.63 224.28 C 50.06 225.18 52.55 225.91 55.10 226.42 C 57.28 226.71 59.49 226.80 61.70 226.80 C 74.27 227.17 86.85 226.54 99.41 227.08 C 96.70 227.63 93.98 228.08 91.24 228.45 C 91.09 230.31 90.94 232.17 90.82 234.03 C 78.53 233.82 66.22 234.35 53.95 233.72 C 50.92 233.24 47.87 232.81 44.84 232.32 Z" />
<path fill="#89a3e1" opacity="1.00" d=" M 99.41 227.08 C 107.27 226.60 115.15 226.91 123.01 226.80 C 143.19 226.88 163.38 226.54 183.55 227.08 C 186.53 227.77 189.56 228.22 192.62 228.39 C 193.04 230.29 193.48 232.18 193.89 234.08 C 192.01 234.04 190.13 234.03 188.26 234.01 C 157.41 234.00 126.57 234.04 95.72 234.01 C 94.09 234.02 92.45 234.03 90.82 234.03 C 90.94 232.17 91.09 230.31 91.24 228.45 C 93.98 228.08 96.70 227.63 99.41 227.08 Z" />
<path fill="#4369c3" opacity="1.00" d=" M 53.95 233.72 C 66.22 234.35 78.53 233.82 90.82 234.03 C 92.45 234.03 94.09 234.02 95.72 234.01 C 95.94 235.25 96.16 236.50 96.37 237.74 C 102.71 238.44 109.21 237.31 115.44 239.01 C 100.78 239.17 86.11 239.17 71.45 239.03 C 65.85 237.42 60.00 238.33 54.28 237.80 C 54.17 236.43 54.06 235.07 53.95 233.72 Z" />
<path fill="#4770d2" opacity="1.00" d=" M 95.72 234.01 C 126.57 234.04 157.41 234.00 188.26 234.01 C 188.01 235.25 187.77 236.49 187.54 237.73 C 181.25 238.44 174.83 237.45 168.63 239.02 C 150.90 239.15 133.17 239.16 115.44 239.01 C 109.21 237.31 102.71 238.44 96.37 237.74 C 96.16 236.50 95.94 235.25 95.72 234.01 Z" />
</svg>
