<?xml version="1.0" encoding="UTF-8" ?>
<!DOCTYPE svg PUBLIC "-//W3C//DTD SVG 1.1//EN" "http://www.w3.org/Graphics/SVG/1.1/DTD/svg11.dtd">
<svg width="143pt" height="143pt" viewBox="0 0 143 143" version="1.1" xmlns="http://www.w3.org/2000/svg">
<path fill="#0957a0" opacity="1.00" d=" M 82.94 12.19 C 90.01 10.06 97.12 8.00 104.32 6.34 C 104.32 7.85 104.33 9.36 104.34 10.88 C 106.10 10.80 107.86 10.71 109.62 10.62 C 109.64 12.58 109.83 14.55 110.64 16.36 C 111.36 16.31 112.79 16.22 113.51 16.17 C 114.11 18.03 114.51 19.94 114.75 21.88 C 115.35 21.47 116.56 20.64 117.16 20.23 L 118.01 23.57 C 114.76 22.01 111.33 23.51 107.95 23.58 C 96.00 25.32 84.00 26.80 71.97 27.83 C 70.04 28.50 67.98 28.57 65.97 28.80 C 63.47 29.56 60.76 29.25 58.32 30.27 C 54.32 30.49 50.31 30.53 46.32 30.85 C 51.38 31.03 56.90 32.58 61.81 30.65 C 75.28 30.54 88.61 28.45 102.07 28.17 C 106.72 27.03 111.57 27.48 116.32 27.28 C 116.96 26.56 117.60 25.85 118.25 25.14 L 118.64 26.87 L 120.46 26.17 C 122.16 30.26 120.93 34.79 122.19 38.96 C 122.71 43.93 122.03 49.00 123.22 53.89 C 123.78 67.31 125.28 80.65 125.78 94.07 C 127.07 98.70 126.10 103.57 126.89 108.28 C 127.40 111.15 127.53 114.06 127.60 116.97 C 127.70 121.38 128.78 125.75 128.33 130.17 C 122.19 130.39 116.04 130.44 109.91 130.82 C 105.65 131.96 101.18 131.27 96.85 131.92 C 92.57 132.66 88.17 132.10 83.93 133.10 C 79.34 133.61 74.69 133.18 70.11 133.90 C 63.98 134.96 57.69 134.21 51.55 135.25 C 41.94 135.86 32.30 137.06 22.68 136.32 C 22.01 134.23 21.50 132.09 21.15 129.93 C 19.91 125.39 21.14 120.56 19.77 116.07 C 19.28 102.64 17.81 89.28 17.23 75.85 C 15.93 70.57 16.95 65.07 15.97 59.74 C 15.43 56.53 15.51 53.27 15.31 50.04 C 14.77 43.55 13.63 36.91 15.12 30.46 C 16.11 30.40 17.09 30.34 18.08 30.27 C 30.00 26.71 42.01 23.43 54.03 20.20 C 62.62 17.48 71.45 15.57 80.01 12.76 C 80.74 12.62 82.21 12.34 82.94 12.19 M 92.07 16.23 C 90.75 16.43 89.42 16.63 88.10 16.84 C 77.62 19.30 67.13 21.84 56.52 23.68 C 56.54 23.87 56.58 24.26 56.60 24.45 C 53.63 24.53 50.67 24.78 47.73 25.11 C 53.90 27.09 59.90 24.47 66.05 24.25 C 69.47 22.69 73.36 22.97 76.90 21.82 C 78.62 21.62 80.34 21.45 82.05 21.23 C 83.96 20.52 86.00 20.35 88.01 20.10 C 94.11 19.00 100.20 17.48 106.43 17.36 L 106.48 16.62 C 109.03 17.00 108.60 14.58 108.76 12.88 C 103.10 13.26 97.56 14.85 92.07 16.23 M 104.84 18.82 C 96.62 20.45 88.27 21.49 80.07 23.22 C 72.75 23.97 65.63 26.10 58.27 26.60 L 58.79 27.44 C 56.93 27.37 55.08 27.32 53.22 27.29 L 53.16 28.51 C 55.74 28.47 58.32 28.44 60.89 28.47 L 60.15 27.56 C 68.15 27.21 76.13 26.07 84.05 24.89 C 93.56 23.94 103.00 22.39 112.51 21.43 C 112.52 20.47 112.53 19.51 112.54 18.55 C 111.93 18.35 110.71 17.95 110.10 17.75 C 108.36 18.16 106.60 18.50 104.84 18.82 M 45.43 27.02 C 46.29 27.74 48.64 27.56 48.71 26.28 C 47.83 25.56 45.34 25.52 45.43 27.02 M 102.09 51.75 C 96.59 51.63 91.16 52.80 85.66 52.70 C 85.32 52.93 84.64 53.38 84.30 53.61 C 79.70 53.64 74.76 52.58 70.44 54.52 C 65.52 54.70 60.60 54.53 55.68 54.63 C 55.34 54.88 54.66 55.38 54.32 55.63 C 46.90 57.23 39.26 55.82 31.79 57.20 C 39.05 56.99 46.57 58.20 53.66 56.12 C 58.69 54.65 64.01 56.13 69.11 55.16 C 74.45 53.69 80.04 54.55 85.50 54.35 C 85.44 54.09 85.33 53.59 85.27 53.33 C 90.57 53.62 95.79 52.49 101.09 52.52 C 104.45 52.51 107.74 51.71 110.97 50.83 C 107.94 50.45 105.11 51.96 102.09 51.75 M 105.57 61.48 C 106.53 65.92 106.46 70.49 106.56 75.00 C 106.80 79.80 98.22 80.21 97.74 75.47 C 97.47 71.06 97.13 66.65 96.60 62.26 L 94.25 62.22 C 94.41 66.99 94.06 71.86 95.08 76.54 C 95.57 79.01 97.94 80.22 99.82 81.51 C 103.51 81.99 107.86 80.77 109.25 76.95 C 110.15 71.77 108.72 66.54 108.78 61.34 C 107.98 61.37 106.37 61.45 105.57 61.48 M 86.44 62.66 C 86.73 67.05 87.46 71.41 87.56 75.82 C 87.14 75.79 86.30 75.74 85.88 75.71 C 83.38 71.73 80.11 68.33 77.40 64.51 C 76.53 62.78 72.92 63.47 73.73 65.65 C 75.11 71.61 73.91 77.84 75.58 83.74 L 77.49 82.94 C 78.18 78.11 77.03 73.19 77.53 68.32 C 79.16 71.34 81.37 73.97 83.60 76.55 C 85.65 78.91 86.99 82.47 90.56 82.76 C 90.86 76.03 89.62 69.36 89.52 62.64 C 88.75 62.65 87.21 62.65 86.44 62.66 M 57.39 64.59 C 57.37 68.74 57.45 72.90 57.82 77.05 C 58.45 79.47 58.50 81.98 58.59 84.47 C 61.07 84.41 63.56 84.34 66.03 84.15 C 67.90 83.59 69.86 83.57 71.78 83.50 L 71.68 81.27 C 68.04 81.45 64.40 81.66 60.76 81.44 C 60.77 79.42 60.89 77.40 61.47 75.46 C 64.22 75.02 69.96 76.76 69.69 72.44 C 66.65 72.57 63.62 72.89 60.63 73.43 C 60.49 71.43 60.36 69.43 60.22 67.43 C 63.54 66.65 66.96 66.73 70.32 66.33 L 70.84 64.21 C 66.35 64.16 61.87 64.60 57.39 64.59 M 49.79 65.45 C 47.50 69.90 46.24 74.80 44.21 79.37 C 42.50 75.62 40.31 72.12 38.39 68.48 C 37.77 66.78 36.05 66.33 34.40 66.27 C 34.45 68.55 34.56 70.83 34.78 73.09 C 35.75 77.22 35.34 81.48 35.60 85.67 C 36.33 85.71 37.81 85.78 38.55 85.82 C 38.42 82.04 38.59 78.19 37.49 74.53 C 38.04 74.53 38.59 74.53 39.15 74.53 C 40.34 77.21 41.72 79.80 42.95 82.46 C 43.96 82.49 44.98 82.53 46.00 82.56 C 46.37 81.34 46.77 80.14 47.19 78.95 C 47.33 78.44 47.63 77.42 47.77 76.91 C 48.18 75.87 48.59 74.84 48.99 73.80 C 49.35 73.64 50.08 73.33 50.45 73.18 C 50.37 77.03 50.49 80.88 50.62 84.73 C 51.34 84.72 52.78 84.71 53.50 84.70 C 53.56 78.24 52.36 71.85 52.43 65.38 C 51.77 65.40 50.45 65.44 49.79 65.45 M 76.89 90.44 C 84.18 91.08 91.51 90.79 98.81 90.64 C 91.52 89.90 84.19 90.19 76.89 90.44 Z" />
</svg>
