<?xml version="1.0" encoding="UTF-8" ?>
<!DOCTYPE svg PUBLIC "-//W3C//DTD SVG 1.1//EN" "http://www.w3.org/Graphics/SVG/1.1/DTD/svg11.dtd">
<svg width="143pt" height="143pt" viewBox="0 0 143 143" version="1.1" xmlns="http://www.w3.org/2000/svg">
<path fill="#00aeef" opacity="1.00" d=" M 89.06 20.12 C 97.19 18.15 105.81 18.03 113.94 20.11 C 115.28 20.40 116.67 20.58 117.92 21.18 C 118.93 21.55 119.94 21.91 120.96 22.27 C 128.36 25.25 135.66 30.72 137.58 38.85 L 138.55 38.14 C 138.99 42.04 138.95 45.97 138.55 49.88 L 137.54 49.31 C 136.09 56.15 130.64 61.44 124.75 64.80 C 122.40 66.43 119.59 67.12 117.10 68.48 C 116.51 68.48 115.32 68.49 114.73 68.49 C 114.52 63.64 115.69 58.38 113.28 53.90 C 112.95 53.26 112.28 51.98 111.95 51.33 C 108.69 54.16 104.25 55.44 99.98 55.28 C 97.20 54.20 94.20 53.50 92.00 51.34 C 91.66 52.00 90.99 53.33 90.65 53.99 C 87.78 58.96 90.08 64.87 88.38 70.14 C 87.50 68.50 85.60 68.58 84.10 68.06 C 82.24 66.90 79.90 66.98 78.08 68.16 C 77.11 68.56 76.14 68.96 75.18 69.37 C 71.68 70.88 67.81 70.79 64.09 70.55 C 65.75 66.77 70.95 64.75 70.73 60.13 C 68.59 57.59 66.25 55.15 65.14 51.94 C 64.44 50.38 64.36 48.64 64.14 46.97 C 63.28 45.42 63.39 43.63 64.19 42.08 C 64.33 40.98 64.47 39.87 64.60 38.77 C 67.65 30.95 74.45 25.39 82.07 22.29 C 83.08 21.94 84.09 21.59 85.10 21.25 C 86.35 20.66 87.71 20.40 89.06 20.12 M 91.21 45.93 C 92.93 50.33 97.49 52.73 101.99 53.21 C 106.91 52.75 111.58 49.71 113.23 44.91 C 114.07 41.20 113.82 36.88 111.04 33.99 C 108.26 30.21 103.34 28.98 98.86 29.62 C 92.57 32.06 88.01 39.38 91.21 45.93 Z" />
<path fill="#0957a0" opacity="1.00" d=" M 25.89 33.69 C 28.91 33.34 31.88 32.45 34.96 32.72 C 41.60 33.53 48.18 36.23 52.57 41.48 C 56.87 45.87 58.84 51.93 59.24 57.95 C 59.53 67.54 53.96 76.84 45.57 81.39 C 37.13 86.03 26.09 85.36 18.25 79.76 C 12.87 76.04 9.35 70.25 7.71 63.99 C 6.75 57.30 7.59 50.13 11.54 44.49 C 14.87 39.33 20.17 35.73 25.89 33.69 Z" />
<path fill="#0957a0" opacity="1.00" d=" M 11.82 80.28 C 12.21 80.31 13.00 80.38 13.39 80.42 C 21.27 87.55 33.08 89.53 43.10 86.26 C 47.32 84.93 50.65 81.99 54.55 80.08 C 58.50 85.36 61.67 91.59 61.62 98.33 C 61.67 106.07 61.72 113.82 61.58 121.56 C 58.12 121.63 54.61 121.38 51.22 122.25 C 42.88 122.58 34.53 124.11 26.17 123.01 C 21.83 122.32 17.34 122.96 13.06 121.83 C 10.09 121.57 7.10 121.57 4.12 121.51 C 4.02 112.31 3.65 103.06 4.46 93.88 C 4.43 92.88 4.97 92.35 6.05 92.27 C 6.41 87.64 9.38 84.01 11.82 80.28 Z" />
</svg>
