<?xml version="1.0" encoding="UTF-8" ?>
<!DOCTYPE svg PUBLIC "-//W3C//DTD SVG 1.1//EN" "http://www.w3.org/Graphics/SVG/1.1/DTD/svg11.dtd">
<svg width="143pt" height="143pt" viewBox="0 0 143 143" version="1.1" xmlns="http://www.w3.org/2000/svg">
<path fill="#0957a0" opacity="1.00" d=" M 45.14 22.28 C 48.76 21.77 52.44 21.93 56.08 22.10 C 58.13 22.09 59.16 24.11 60.41 25.40 C 60.16 29.74 63.52 33.23 67.14 35.06 C 71.42 36.65 74.14 29.78 78.41 32.10 C 81.55 34.05 83.92 37.01 86.52 39.61 C 88.80 42.01 87.35 45.37 86.20 47.93 C 85.86 51.20 86.32 54.62 87.70 57.62 C 89.20 60.21 92.25 60.96 95.04 60.74 C 100.36 62.46 99.22 68.66 99.26 73.01 C 99.55 75.82 98.29 79.32 95.04 79.55 C 89.70 80.40 86.75 85.57 84.66 90.03 C 85.64 93.51 89.31 96.75 87.06 100.51 C 83.87 103.96 80.85 108.20 76.06 109.43 C 72.50 106.63 67.54 105.36 63.28 107.24 C 60.56 109.06 60.56 112.67 60.44 115.58 C 59.37 116.58 58.28 117.56 57.16 118.51 C 53.36 118.43 49.55 118.39 45.74 118.54 C 42.75 117.55 41.80 114.59 41.24 111.81 C 39.44 108.65 36.36 106.25 33.14 104.64 C 29.61 103.49 27.01 106.37 24.50 108.28 C 21.44 109.67 18.35 108.07 16.51 105.56 C 13.98 102.75 8.58 99.33 11.55 95.04 C 14.72 91.98 16.38 87.17 14.59 82.96 C 12.50 78.48 6.10 81.26 3.48 77.25 C 3.40 72.72 3.43 68.19 3.41 63.66 C 5.15 61.45 7.79 60.73 10.43 60.28 C 12.68 58.95 14.67 56.90 15.75 54.50 C 16.73 50.33 12.76 47.45 10.62 44.43 C 10.64 43.52 10.65 42.61 10.67 41.71 C 13.73 37.61 17.17 33.33 22.02 31.33 C 25.13 32.45 27.45 35.69 31.01 35.31 C 34.61 35.07 39.31 34.79 40.92 30.91 C 42.00 27.91 41.51 23.62 45.14 22.28 M 48.89 44.94 C 44.23 45.54 39.65 47.10 35.83 49.87 C 27.83 55.39 23.61 65.57 24.73 75.15 C 26.55 86.00 35.10 95.57 46.06 97.56 C 51.48 98.06 57.30 98.27 62.23 95.57 C 72.64 90.98 79.20 79.17 77.50 67.90 C 75.89 54.32 62.49 43.52 48.89 44.94 Z" />
<path fill="#00aeef" opacity="1.00" d=" M 103.36 78.78 C 104.70 77.53 106.22 76.50 107.80 75.58 C 108.57 75.62 110.11 75.71 110.88 75.76 C 112.47 77.78 114.80 78.80 117.20 79.50 C 118.75 78.51 120.01 77.16 121.03 75.64 C 123.93 75.35 128.40 76.42 128.53 79.97 C 128.56 81.98 129.15 85.37 131.90 84.81 C 136.31 83.83 138.35 89.26 137.55 92.81 C 134.78 95.00 134.51 100.06 138.39 101.26 C 139.28 104.23 138.36 107.25 136.20 109.40 C 133.10 108.93 130.24 110.32 128.35 112.73 C 128.47 113.53 128.71 115.14 128.82 115.94 C 127.69 117.16 126.33 118.12 124.91 118.99 C 122.19 120.58 119.90 118.44 118.10 116.57 C 117.21 116.46 116.31 116.34 115.42 116.22 C 114.60 117.39 113.81 118.58 113.09 119.81 C 111.33 120.03 109.57 119.79 107.84 119.48 C 104.35 117.28 105.70 112.59 103.01 109.72 C 102.16 109.60 100.46 109.36 99.62 109.25 C 99.48 109.60 99.22 110.31 99.09 110.66 C 96.15 109.30 93.52 106.39 94.42 102.93 C 95.93 100.94 97.93 99.31 98.71 96.84 C 97.70 95.89 96.66 94.98 95.55 94.16 C 93.77 91.68 95.23 88.19 97.39 86.49 C 99.86 86.12 102.34 85.68 104.44 84.21 C 104.06 82.40 103.67 80.60 103.36 78.78 M 112.69 89.74 C 108.82 91.79 106.21 96.57 107.79 100.89 C 109.13 106.20 115.69 109.18 120.56 106.69 C 126.24 104.36 127.69 95.97 123.32 91.77 C 120.73 88.74 116.23 88.79 112.69 89.74 Z" />
</svg>
