<?xml version="1.0" encoding="UTF-8" ?>
<!DOCTYPE svg PUBLIC "-//W3C//DTD SVG 1.1//EN" "http://www.w3.org/Graphics/SVG/1.1/DTD/svg11.dtd">
<svg width="114pt" height="114pt" viewBox="0 0 114 114" version="1.1" xmlns="http://www.w3.org/2000/svg">
<path fill="#f7941e" opacity="1.00" d=" M 56.39 8.33 C 56.63 8.29 57.10 8.21 57.33 8.17 C 61.13 20.60 65.42 32.89 69.30 45.29 C 66.03 50.60 61.92 55.32 58.49 60.51 C 58.31 61.94 58.20 63.57 59.31 64.68 C 68.17 76.82 76.96 89.02 85.83 101.15 C 86.88 102.54 87.74 104.06 88.39 105.68 C 77.82 98.30 67.41 90.65 57.00 83.03 C 56.95 76.27 57.10 69.51 56.94 62.76 C 48.50 73.80 40.54 85.21 32.26 96.39 C 30.29 99.26 27.83 101.87 26.50 105.13 C 26.03 105.60 25.50 106.01 24.92 106.36 C 28.69 93.68 33.02 81.16 37.11 68.58 C 43.30 66.00 49.91 64.61 56.07 61.99 C 43.55 57.56 30.74 53.92 18.11 49.80 C 14.41 48.72 10.82 47.15 6.97 46.74 L 6.67 46.69 C 10.54 44.82 14.88 45.66 19.02 45.50 C 27.65 45.62 36.30 45.28 44.93 45.65 C 49.16 50.69 52.80 56.21 56.95 61.32 C 57.08 45.87 56.94 30.41 57.02 14.96 C 57.02 12.91 57.09 10.82 56.49 8.83 C 56.46 8.70 56.41 8.45 56.39 8.33 Z" />
<path fill="#fff200" opacity="1.00" d=" M 56.49 8.83 C 57.09 10.82 57.02 12.91 57.02 14.96 C 56.94 30.41 57.08 45.87 56.95 61.32 C 52.80 56.21 49.16 50.69 44.93 45.65 C 36.30 45.28 27.65 45.62 19.02 45.50 C 14.88 45.66 10.54 44.82 6.67 46.69 C 5.99 46.24 5.35 45.75 4.74 45.22 C 18.07 45.32 31.40 45.21 44.73 45.25 C 48.52 33.07 52.70 21.01 56.49 8.83 Z" />
<path fill="#fff200" opacity="1.00" d=" M 69.30 45.29 C 82.13 45.19 94.97 45.28 107.81 45.25 C 106.03 46.08 104.19 46.78 102.31 47.36 C 88.89 51.56 75.53 55.98 62.10 60.17 C 60.87 60.72 59.19 60.74 58.43 62.00 L 59.01 62.66 C 64.87 64.92 70.90 66.75 76.88 68.67 C 81.09 81.21 85.28 93.76 89.13 106.42 C 88.95 106.23 88.58 105.86 88.39 105.68 C 87.74 104.06 86.88 102.54 85.83 101.15 C 76.96 89.02 68.17 76.82 59.31 64.68 C 58.20 63.57 58.31 61.94 58.49 60.51 C 61.92 55.32 66.03 50.60 69.30 45.29 Z" />
<path fill="#f7941e" opacity="1.00" d=" M 107.81 45.25 C 108.15 45.17 108.83 45.01 109.17 44.93 C 108.11 46.33 106.55 47.16 105.19 48.23 C 95.73 55.01 86.37 61.93 76.88 68.67 C 70.90 66.75 64.87 64.92 59.01 62.66 L 58.43 62.00 C 59.19 60.74 60.87 60.72 62.10 60.17 C 75.53 55.98 88.89 51.56 102.31 47.36 C 104.19 46.78 106.03 46.08 107.81 45.25 Z" />
<path fill="#fff200" opacity="1.00" d=" M 6.97 46.74 C 10.82 47.15 14.41 48.72 18.11 49.80 C 30.74 53.92 43.55 57.56 56.07 61.99 C 49.91 64.61 43.30 66.00 37.11 68.58 C 26.98 61.44 16.88 54.18 6.97 46.74 Z" />
<path fill="#fff200" opacity="1.00" d=" M 32.26 96.39 C 40.54 85.21 48.50 73.80 56.94 62.76 C 57.10 69.51 56.95 76.27 57.00 83.03 C 46.89 90.47 36.69 97.80 26.50 105.13 C 27.83 101.87 30.29 99.26 32.26 96.39 Z" />
</svg>
