<?xml version="1.0" encoding="UTF-8" ?>
<!DOCTYPE svg PUBLIC "-//W3C//DTD SVG 1.1//EN" "http://www.w3.org/Graphics/SVG/1.1/DTD/svg11.dtd">
<svg width="114pt" height="114pt" viewBox="0 0 114 114" version="1.1" xmlns="http://www.w3.org/2000/svg">
<path fill="#332a28" opacity="0.22" d=" M 20.36 18.86 C 27.29 13.06 35.26 8.36 44.15 6.37 C 45.75 10.76 47.33 15.19 48.21 19.79 C 41.52 21.63 35.21 24.78 30.23 29.68 L 30.04 29.84 C 26.57 26.40 23.34 22.73 20.36 18.86 Z" />
<path fill="#332a28" opacity="0.22" d=" M 70.99 6.46 C 79.36 8.71 86.92 13.40 93.37 19.12 C 92.15 23.46 88.12 26.64 84.94 29.73 C 79.59 25.26 73.51 21.84 67.07 19.21 C 68.00 14.85 69.52 10.66 70.99 6.46 Z" />
<path fill="#fff200" opacity="1.00" d=" M 52.06 34.34 C 53.92 29.09 55.41 23.73 57.38 18.52 C 59.27 24.07 60.96 29.69 62.88 35.23 C 64.05 38.69 65.24 42.15 66.39 45.62 C 67.54 45.65 68.69 45.68 69.84 45.71 C 78.24 45.91 86.65 45.51 95.04 45.93 L 94.45 46.28 C 85.83 51.28 78.76 58.61 69.89 63.19 C 69.46 64.28 69.05 65.39 68.64 66.49 C 68.57 65.42 68.44 63.29 68.37 62.23 C 65.68 63.45 62.48 64.89 62.46 68.34 C 62.44 71.12 62.50 73.89 62.52 76.67 C 60.77 75.44 59.04 74.19 57.32 72.93 C 55.75 74.08 54.20 75.25 52.66 76.43 C 48.15 79.78 43.46 82.89 39.01 86.31 C 37.39 87.52 35.76 88.70 34.12 89.89 C 35.44 85.29 36.80 80.70 38.37 76.18 C 40.07 71.66 41.53 67.05 42.94 62.43 L 41.74 61.61 C 35.14 57.13 28.93 52.13 22.40 47.55 L 22.21 47.42 C 21.63 47.01 20.49 46.18 19.92 45.76 C 28.39 45.70 36.87 45.85 45.35 45.69 C 46.33 45.65 47.31 45.61 48.30 45.57 C 49.53 41.82 50.77 38.07 52.06 34.34 Z" />
<path fill="#67433b" opacity="0.47" d=" M 67.07 19.21 C 73.51 21.84 79.59 25.26 84.94 29.73 C 79.94 35.09 74.93 40.44 69.84 45.71 C 68.69 45.68 67.54 45.65 66.39 45.62 C 65.24 42.15 64.05 38.69 62.88 35.23 C 64.27 29.89 65.97 24.63 67.07 19.21 Z" />
<path fill="#67433b" opacity="0.47" d=" M 30.23 29.68 C 35.21 24.78 41.52 21.63 48.21 19.79 C 49.34 24.68 50.71 29.51 52.06 34.34 C 50.77 38.07 49.53 41.82 48.30 45.57 C 47.31 45.61 46.33 45.65 45.35 45.69 C 40.21 40.44 35.19 35.08 30.23 29.68 Z" />
<path fill="#332a28" opacity="0.22" d=" M 94.94 46.18 C 98.82 44.14 103.24 43.69 107.45 42.69 C 109.99 51.46 109.63 60.63 108.15 69.54 C 103.66 69.26 99.24 68.41 94.93 67.18 C 95.87 60.20 95.32 53.17 94.94 46.18 Z" />
<path fill="#332a28" opacity="0.22" d=" M 6.69 45.57 C 11.96 44.73 17.06 46.63 22.21 47.42 L 22.40 47.55 C 20.78 53.83 20.58 60.65 22.47 66.89 L 22.55 67.19 C 17.58 68.53 12.62 69.91 7.54 70.78 C 6.30 65.30 4.88 59.68 5.66 54.02 C 6.08 51.22 6.54 48.41 6.69 45.57 Z" />
<path fill="#67433b" opacity="0.47" d=" M 94.45 46.28 L 94.94 46.18 C 95.32 53.17 95.87 60.20 94.93 67.18 L 94.06 66.25 C 92.69 64.66 90.87 63.59 89.08 62.56 C 88.85 61.81 88.62 61.08 88.38 60.35 C 87.78 60.81 86.58 61.73 85.98 62.19 C 82.56 62.78 79.07 62.63 75.62 62.85 C 73.70 62.93 71.80 63.06 69.89 63.19 C 78.76 58.61 85.83 51.28 94.45 46.28 Z" />
<path fill="#67433b" opacity="0.47" d=" M 22.40 47.55 C 28.93 52.13 35.14 57.13 41.74 61.61 C 35.29 63.26 28.92 65.23 22.47 66.89 C 20.58 60.65 20.78 53.83 22.40 47.55 Z" />
<path fill="#b7b9bb" opacity="1.00" d=" M 88.38 60.35 C 88.62 61.08 88.85 61.81 89.08 62.56 C 88.98 63.71 88.80 66.02 88.71 67.17 C 87.87 65.87 87.16 64.50 86.48 63.12 C 82.87 62.76 79.24 62.80 75.62 62.85 C 79.07 62.63 82.56 62.78 85.98 62.19 C 86.58 61.73 87.78 60.81 88.38 60.35 Z" />
<path fill="#bf1e2e" opacity="1.00" d=" M 62.46 68.34 C 62.48 64.89 65.68 63.45 68.37 62.23 C 68.44 63.29 68.57 65.42 68.64 66.49 C 69.05 65.39 69.46 64.28 69.89 63.19 C 71.80 63.06 73.70 62.93 75.62 62.85 C 79.24 62.80 82.87 62.76 86.48 63.12 C 87.16 64.50 87.87 65.87 88.71 67.17 C 88.80 66.02 88.98 63.71 89.08 62.56 C 90.87 63.59 92.69 64.66 94.06 66.25 C 94.12 66.78 94.24 67.83 94.30 68.35 C 83.69 68.14 73.07 68.18 62.46 68.34 Z" />
<path fill="#b7b9bb" opacity="1.00" d=" M 62.46 68.34 C 73.07 68.18 83.69 68.14 94.30 68.35 C 94.09 74.90 94.38 81.46 94.17 88.01 C 94.17 90.33 92.89 92.41 91.11 93.81 C 83.22 94.99 75.15 94.46 67.20 94.35 C 64.91 93.50 62.96 91.50 62.68 89.00 C 62.32 84.90 62.62 80.78 62.52 76.67 C 62.50 73.89 62.44 71.12 62.46 68.34 M 67.99 76.31 C 67.99 77.00 68.00 78.38 68.00 79.07 C 69.10 78.51 70.19 77.96 71.28 77.40 C 71.30 80.93 71.28 84.46 71.26 87.99 C 71.98 87.99 73.44 88.00 74.17 88.00 C 74.06 83.30 74.08 78.60 73.89 73.91 C 71.85 74.51 69.89 75.35 67.99 76.31 M 78.35 74.30 C 78.09 77.07 77.97 79.85 78.00 82.63 C 79.92 82.02 81.80 81.03 83.85 80.99 C 84.79 82.61 84.40 84.46 84.18 86.20 C 82.15 85.91 80.32 84.94 78.35 84.42 C 77.02 86.56 80.16 88.19 81.95 88.23 C 85.78 88.88 88.78 84.40 86.96 81.08 C 85.90 78.46 82.82 79.06 80.58 79.17 C 80.62 78.47 80.70 77.06 80.74 76.35 C 82.72 76.37 84.70 76.39 86.68 76.41 C 86.70 75.89 86.75 74.84 86.77 74.31 C 83.97 74.30 81.16 74.30 78.35 74.30 Z" />
<path fill="#bf1e2e" opacity="1.00" d=" M 67.99 76.31 C 69.89 75.35 71.85 74.51 73.89 73.91 C 74.08 78.60 74.06 83.30 74.17 88.00 C 73.44 88.00 71.98 87.99 71.26 87.99 C 71.28 84.46 71.30 80.93 71.28 77.40 C 70.19 77.96 69.10 78.51 68.00 79.07 C 68.00 78.38 67.99 77.00 67.99 76.31 Z" />
<path fill="#bf1e2e" opacity="1.00" d=" M 78.35 74.30 C 81.16 74.30 83.97 74.30 86.77 74.31 C 86.75 74.84 86.70 75.89 86.68 76.41 C 84.70 76.39 82.72 76.37 80.74 76.35 C 80.70 77.06 80.62 78.47 80.58 79.17 C 82.82 79.06 85.90 78.46 86.96 81.08 C 88.78 84.40 85.78 88.88 81.95 88.23 C 80.16 88.19 77.02 86.56 78.35 84.42 C 80.32 84.94 82.15 85.91 84.18 86.20 C 84.40 84.46 84.79 82.61 83.85 80.99 C 81.80 81.03 79.92 82.02 78.00 82.63 C 77.97 79.85 78.09 77.07 78.35 74.30 Z" />
<path fill="#332a28" opacity="0.22" d=" M 33.39 80.39 C 34.84 78.75 36.43 77.21 38.37 76.18 C 36.80 80.70 35.44 85.29 34.12 89.89 C 35.76 88.70 37.39 87.52 39.01 86.31 C 42.25 88.04 45.73 89.28 49.32 90.04 C 48.23 95.79 46.41 101.36 44.46 106.87 C 35.78 104.55 27.71 100.19 21.07 94.15 C 24.86 89.28 29.33 85.02 33.39 80.39 Z" />
<path fill="#67433b" opacity="0.47" d=" M 39.01 86.31 C 43.46 82.89 48.15 79.78 52.66 76.43 C 51.83 81.03 50.37 85.48 49.32 90.04 C 45.73 89.28 42.25 88.04 39.01 86.31 Z" />
<path fill="#332a28" opacity="0.22" d=" M 67.20 94.35 C 75.15 94.46 83.22 94.99 91.11 93.81 C 87.98 98.66 82.59 101.19 77.63 103.71 C 75.36 104.93 72.85 105.52 70.31 105.80 C 69.09 102.04 67.59 98.32 67.20 94.35 Z" />
</svg>
