<?xml version="1.0" encoding="UTF-8" ?>
<!DOCTYPE svg PUBLIC "-//W3C//DTD SVG 1.1//EN" "http://www.w3.org/Graphics/SVG/1.1/DTD/svg11.dtd">
<svg width="114pt" height="114pt" viewBox="0 0 114 114" version="1.1" xmlns="http://www.w3.org/2000/svg">
<path fill="#0957a0" opacity="1.00" d=" M 58.32 22.26 C 61.70 20.00 66.57 23.47 67.30 27.10 C 66.65 30.61 64.38 33.64 61.94 36.15 C 59.00 36.72 56.55 33.71 56.52 30.95 C 56.46 28.05 56.17 24.53 58.32 22.26 Z" />
<path fill="#0957a0" opacity="1.00" d=" M 75.68 35.67 C 78.98 34.21 84.02 34.75 84.84 38.96 C 81.28 42.13 78.83 46.29 77.32 50.78 C 80.69 47.02 84.02 42.56 89.12 41.14 C 92.85 40.05 96.74 43.19 96.74 46.99 C 96.95 53.75 92.04 59.07 88.22 64.12 C 94.81 65.50 99.13 58.89 102.97 54.63 C 104.10 55.06 105.20 55.57 106.25 56.17 C 106.07 60.37 102.93 63.41 100.08 66.11 C 95.64 69.90 90.28 74.26 84.08 73.51 C 78.76 73.10 76.23 64.36 81.63 62.21 C 83.12 59.73 84.09 56.94 83.70 54.01 C 80.88 54.29 78.92 56.38 77.03 58.26 C 76.60 67.50 76.25 76.85 74.12 85.89 C 73.34 88.31 72.73 91.54 70.01 92.48 C 66.35 92.67 62.27 90.60 61.07 86.98 C 60.44 82.57 63.31 78.83 64.77 74.91 C 65.44 71.70 65.18 68.37 65.32 65.11 C 61.40 68.84 57.25 72.81 51.89 74.28 C 49.23 74.82 45.46 74.76 44.11 71.94 C 42.42 67.20 44.51 62.28 46.13 57.83 C 45.35 54.63 45.15 51.07 47.29 48.32 C 49.95 44.61 53.92 40.34 58.95 41.05 C 61.43 41.14 61.72 44.04 61.54 45.95 C 60.80 52.44 55.67 57.68 55.68 64.33 C 59.49 62.88 62.32 59.80 64.76 56.65 C 66.07 55.07 65.67 52.85 66.04 50.97 C 66.60 44.81 69.66 38.15 75.68 35.67 Z" />
<path fill="#0957a0" opacity="1.00" d=" M 31.85 40.16 C 35.43 37.98 41.46 39.31 42.08 43.99 C 43.31 55.35 37.37 67.75 26.87 72.79 C 21.63 75.32 13.64 74.99 10.86 69.08 C 8.54 63.13 10.85 56.56 14.15 51.46 C 12.97 49.88 11.67 47.86 12.58 45.82 C 14.66 40.80 20.99 38.81 26.01 39.75 C 28.49 40.07 30.98 43.44 28.61 45.42 C 24.35 50.04 20.78 56.16 21.49 62.66 C 21.47 65.02 24.55 65.46 25.84 63.83 C 30.07 59.77 31.47 53.68 31.92 48.03 C 32.19 45.41 31.22 42.72 31.85 40.16 Z" />
</svg>
