<?xml version="1.0" encoding="UTF-8" ?>
<!DOCTYPE svg PUBLIC "-//W3C//DTD SVG 1.1//EN" "http://www.w3.org/Graphics/SVG/1.1/DTD/svg11.dtd">
<svg width="342pt" height="342pt" viewBox="0 0 342 342" version="1.1" xmlns="http://www.w3.org/2000/svg">
<path fill="#492a13" opacity="1.00" d=" M 193.83 76.06 C 196.09 66.13 209.62 63.67 217.34 68.71 C 228.17 73.33 235.11 83.29 241.83 92.47 C 242.42 93.68 243.88 93.71 244.96 94.21 C 252.35 96.88 258.97 103.73 258.82 111.97 C 261.65 115.17 264.38 118.47 267.28 121.60 C 273.40 123.07 279.88 128.83 277.56 135.71 C 279.47 139.22 281.86 142.82 281.78 146.98 C 282.00 150.61 279.94 154.05 277.02 156.09 C 271.70 159.56 265.22 160.47 259.03 161.04 C 240.66 162.30 222.33 159.87 204.02 158.67 C 196.33 158.21 188.51 157.47 180.91 159.16 C 160.84 163.37 142.36 173.20 122.06 176.47 C 116.75 177.12 111.14 178.00 105.99 176.07 C 102.75 174.86 100.51 171.53 96.88 171.28 C 89.04 172.04 83.14 178.90 75.13 178.98 C 72.16 178.35 69.99 176.13 69.28 173.20 C 68.42 169.91 67.37 166.26 69.02 163.04 C 73.31 153.66 81.32 146.46 90.02 141.19 C 104.34 132.60 117.11 121.45 132.39 114.49 C 153.84 103.23 170.17 83.28 193.83 76.06 Z" />
<path fill="#c2b59b" opacity="1.00" d=" M 259.03 161.04 C 265.22 160.47 271.70 159.56 277.02 156.09 C 278.20 161.72 277.55 168.00 273.64 172.47 C 269.58 177.23 263.76 179.98 257.99 182.06 C 247.66 185.64 236.75 187.11 225.92 188.26 C 208.99 189.79 191.97 190.24 174.97 190.35 C 164.02 190.81 152.92 190.30 142.11 192.36 C 127.26 196.42 113.17 203.32 97.80 205.42 C 91.54 206.12 84.68 206.24 79.18 202.68 C 76.29 200.88 73.82 198.22 73.50 194.68 C 72.43 189.55 72.34 184.28 72.62 179.07 C 73.25 179.05 74.50 179.00 75.13 178.98 C 83.14 178.90 89.04 172.04 96.88 171.28 C 100.51 171.53 102.75 174.86 105.99 176.07 C 111.14 178.00 116.75 177.12 122.06 176.47 C 142.36 173.20 160.84 163.37 180.91 159.16 C 188.51 157.47 196.33 158.21 204.02 158.67 C 222.33 159.87 240.66 162.30 259.03 161.04 Z" />
<path fill="#492a13" opacity="1.00" d=" M 257.99 182.06 C 263.76 179.98 269.58 177.23 273.64 172.47 C 275.56 177.90 274.44 184.30 270.24 188.37 C 264.15 194.27 255.70 196.71 247.67 198.67 C 226.76 203.19 205.25 203.22 183.96 203.69 C 157.75 203.09 132.69 212.03 106.93 215.30 C 96.98 216.19 86.03 213.53 78.88 206.24 C 78.76 205.04 78.48 203.78 79.18 202.68 C 84.68 206.24 91.54 206.12 97.80 205.42 C 113.17 203.32 127.26 196.42 142.11 192.36 C 152.92 190.30 164.02 190.81 174.97 190.35 C 191.97 190.24 208.99 189.79 225.92 188.26 C 236.75 187.11 247.66 185.64 257.99 182.06 Z" />
<path fill="#848588" opacity="1.00" d=" M 273.64 172.47 L 274.35 173.62 C 288.43 179.08 302.76 185.65 313.17 196.93 C 319.07 203.30 323.00 212.26 321.02 221.02 C 319.01 230.73 311.63 238.17 303.91 243.85 C 291.33 252.84 276.74 258.54 262.01 262.96 C 228.39 272.72 193.09 275.57 158.20 274.63 C 126.42 273.43 94.34 269.06 64.49 257.69 C 52.43 252.92 40.50 247.00 31.05 237.94 C 24.85 232.00 19.99 223.84 20.51 214.98 C 21.08 205.18 27.67 196.99 35.03 191.07 C 45.17 183.00 57.07 177.36 69.28 173.20 C 69.99 176.13 72.16 178.35 75.13 178.98 C 74.50 179.00 73.25 179.05 72.62 179.07 C 72.34 184.28 72.43 189.55 73.50 194.68 C 73.82 198.22 76.29 200.88 79.18 202.68 C 78.48 203.78 78.76 205.04 78.88 206.24 C 78.32 206.68 77.21 207.55 76.66 207.99 C 76.14 213.12 78.78 217.87 78.61 222.97 C 78.59 226.85 78.28 230.87 79.54 234.61 C 80.44 237.25 83.33 238.38 85.90 238.56 C 91.50 239.00 96.96 237.35 102.47 236.58 C 124.55 233.24 146.57 228.51 168.97 228.16 C 173.29 227.62 177.63 227.47 181.98 227.37 C 200.19 225.93 218.23 222.96 236.16 219.54 C 241.40 218.53 246.65 217.18 252.04 217.30 C 256.84 217.27 262.03 217.81 266.40 215.37 C 268.93 212.62 269.37 208.62 270.51 205.18 C 272.28 199.70 270.89 193.92 270.24 188.37 C 274.44 184.30 275.56 177.90 273.64 172.47 Z" />
<path fill="#c2b59b" opacity="1.00" d=" M 247.67 198.67 C 255.70 196.71 264.15 194.27 270.24 188.37 C 270.89 193.92 272.28 199.70 270.51 205.18 C 269.37 208.62 268.93 212.62 266.40 215.37 C 262.03 217.81 256.84 217.27 252.04 217.30 C 246.65 217.18 241.40 218.53 236.16 219.54 C 218.23 222.96 200.19 225.93 181.98 227.37 C 177.63 227.47 173.29 227.62 168.97 228.16 C 146.57 228.51 124.55 233.24 102.47 236.58 C 96.96 237.35 91.50 239.00 85.90 238.56 C 83.33 238.38 80.44 237.25 79.54 234.61 C 78.28 230.87 78.59 226.85 78.61 222.97 C 78.78 217.87 76.14 213.12 76.66 207.99 C 77.21 207.55 78.32 206.68 78.88 206.24 C 86.03 213.53 96.98 216.19 106.93 215.30 C 132.69 212.03 157.75 203.09 183.96 203.69 C 205.25 203.22 226.76 203.19 247.67 198.67 Z" />
</svg>
