<?xml version="1.0" encoding="UTF-8" ?>
<!DOCTYPE svg PUBLIC "-//W3C//DTD SVG 1.1//EN" "http://www.w3.org/Graphics/SVG/1.1/DTD/svg11.dtd">
<svg width="143pt" height="143pt" viewBox="0 0 143 143" version="1.1" xmlns="http://www.w3.org/2000/svg">
<path fill="#0957a0" opacity="1.00" d=" M 63.22 13.23 C 64.40 11.11 65.58 9.00 66.73 6.86 C 68.33 8.67 69.90 10.51 71.48 12.34 C 73.08 10.51 74.68 8.68 76.27 6.86 C 77.40 9.01 78.59 11.13 79.86 13.21 C 81.73 11.74 83.65 10.33 85.56 8.90 C 86.25 11.19 86.99 13.46 87.68 15.75 C 89.85 14.76 92.03 13.82 94.18 12.80 C 94.46 15.19 94.66 17.58 94.81 19.98 C 97.16 19.44 99.52 18.94 101.87 18.38 C 101.61 20.77 101.38 23.16 101.09 25.54 C 103.48 25.51 105.87 25.49 108.27 25.49 C 107.49 27.74 106.76 30.01 105.93 32.24 C 108.30 32.75 110.67 33.20 113.05 33.67 C 111.80 35.72 110.62 37.82 109.37 39.87 C 111.63 40.77 113.83 41.79 116.04 42.78 C 114.34 44.46 112.73 46.22 111.16 48.01 C 113.12 49.35 115.00 50.79 116.94 52.16 C 114.99 53.53 113.09 54.98 111.12 56.33 C 112.77 58.06 114.36 59.85 115.95 61.64 C 113.75 62.59 111.54 63.52 109.35 64.47 C 110.61 66.53 111.82 68.61 113.05 70.69 C 110.68 71.12 108.33 71.62 105.97 72.05 C 106.72 74.28 107.45 76.51 108.21 78.74 C 105.84 78.75 103.46 78.75 101.09 78.73 C 101.35 81.14 101.59 83.55 101.94 85.95 C 99.79 85.49 97.64 85.00 95.50 84.48 C 99.00 100.67 102.29 116.91 105.82 133.10 C 101.16 131.00 96.59 128.73 91.94 126.64 C 88.62 130.49 85.29 134.32 81.96 138.17 C 78.91 123.74 75.85 109.31 72.84 94.87 C 72.58 93.87 72.23 92.89 71.80 91.95 C 70.89 92.72 70.23 93.69 70.14 94.91 C 67.19 109.30 64.04 123.65 61.11 138.04 C 57.55 134.43 54.43 130.41 51.05 126.64 C 46.41 128.74 41.83 131.00 37.18 133.10 C 40.71 116.91 43.99 100.67 47.51 84.48 C 45.36 84.99 43.22 85.49 41.06 85.95 C 41.41 83.55 41.65 81.14 41.90 78.73 C 39.53 78.75 37.16 78.75 34.79 78.74 C 35.55 76.52 36.28 74.28 37.03 72.05 C 34.67 71.62 32.31 71.12 29.95 70.69 C 31.17 68.61 32.39 66.53 33.66 64.48 C 31.46 63.53 29.25 62.59 27.05 61.64 C 28.62 59.81 30.34 58.11 31.85 56.22 C 29.85 54.97 27.98 53.52 26.06 52.15 C 28.00 50.79 29.88 49.35 31.84 48.02 C 30.27 46.22 28.66 44.46 26.96 42.78 C 29.17 41.78 31.37 40.77 33.63 39.88 C 32.38 37.82 31.20 35.72 29.95 33.67 C 32.32 33.20 34.69 32.75 37.06 32.26 C 36.27 30.01 35.51 27.75 34.68 25.51 C 37.09 25.49 39.50 25.50 41.91 25.54 C 41.62 23.16 41.39 20.77 41.13 18.38 C 43.48 18.93 45.84 19.44 48.19 19.98 C 48.34 17.58 48.54 15.19 48.82 12.80 C 50.97 13.82 53.15 14.76 55.32 15.75 C 56.01 13.46 56.75 11.19 57.44 8.90 C 59.37 10.34 61.29 11.78 63.22 13.23 M 67.24 30.28 C 59.45 32.39 54.91 41.72 57.92 49.18 C 60.35 56.40 69.00 60.38 76.12 57.84 C 83.73 55.60 88.05 46.34 85.05 39.02 C 82.66 31.94 74.28 28.01 67.24 30.28 M 55.77 79.17 C 66.23 80.46 76.77 80.50 87.23 79.16 C 86.77 71.41 89.30 62.10 83.08 55.98 C 76.67 61.78 66.28 61.67 59.84 55.96 C 53.78 62.19 56.20 71.40 55.77 79.17 Z" />
<path fill="#00aeef" opacity="1.00" d=" M 67.24 30.28 C 74.28 28.01 82.66 31.94 85.05 39.02 C 88.05 46.34 83.73 55.60 76.12 57.84 C 69.00 60.38 60.35 56.40 57.92 49.18 C 54.91 41.72 59.45 32.39 67.24 30.28 Z" />
<path fill="#00aeef" opacity="1.00" d=" M 55.77 79.17 C 56.20 71.40 53.78 62.19 59.84 55.96 C 66.28 61.67 76.67 61.78 83.08 55.98 C 89.30 62.10 86.77 71.41 87.23 79.16 C 76.77 80.50 66.23 80.46 55.77 79.17 Z" />
</svg>
