<?xml version="1.0" encoding="UTF-8" ?>
<!DOCTYPE svg PUBLIC "-//W3C//DTD SVG 1.1//EN" "http://www.w3.org/Graphics/SVG/1.1/DTD/svg11.dtd">
<svg width="342pt" height="342pt" viewBox="0 0 342 342" version="1.1" xmlns="http://www.w3.org/2000/svg">
<path fill="#d1d2d4" opacity="1.00" d=" M 203.33 52.63 C 217.48 47.99 232.06 44.21 247.00 43.60 C 266.54 42.69 285.69 48.31 303.63 55.56 C 305.47 56.47 307.06 57.77 308.72 58.96 C 310.47 82.23 312.46 105.49 313.26 128.81 C 288.81 133.41 263.77 134.41 238.98 132.76 C 223.80 131.70 208.60 128.45 195.00 121.43 C 195.33 99.75 196.98 78.12 197.50 56.45 C 199.30 54.99 201.08 53.37 203.33 52.63 M 202.67 57.92 C 219.10 64.18 236.24 69.76 254.01 69.77 C 270.99 70.16 287.59 65.70 303.64 60.64 C 286.57 53.70 268.52 48.15 249.92 48.29 C 233.74 48.69 217.90 52.68 202.67 57.92 Z" />
<path fill="#fcb040" opacity="1.00" d=" M 42.81 54.61 C 61.16 48.59 80.50 43.98 99.94 45.91 C 114.74 47.28 128.98 51.93 142.75 57.32 C 144.87 58.22 146.60 59.79 148.46 61.11 C 138.74 73.22 132.91 88.36 132.30 103.90 C 132.08 109.99 132.27 116.09 132.99 122.15 C 115.85 122.27 99.63 130.42 82.39 128.48 C 76.24 127.91 70.13 126.81 63.94 126.75 C 59.05 126.70 54.16 126.71 49.29 126.36 C 51.53 105.24 48.18 83.39 38.53 64.38 C 37.48 62.58 36.94 60.57 36.82 58.49 C 38.70 57.03 40.53 55.41 42.81 54.61 M 42.07 59.87 C 58.69 66.12 75.98 71.81 93.94 71.77 C 110.78 72.04 127.22 67.60 143.16 62.62 C 126.87 55.98 109.73 50.64 92.01 50.26 C 74.91 50.15 58.17 54.47 42.07 59.87 Z" />
<path fill="#58585a" opacity="1.00" d=" M 185.39 117.22 C 188.28 115.61 185.61 120.56 185.39 117.22 Z" />
<path fill="#f7941e" opacity="1.00" d=" M 82.39 128.48 C 99.63 130.42 115.85 122.27 132.99 122.15 C 136.25 149.05 146.45 174.61 149.18 201.60 C 150.90 217.72 149.05 234.60 141.45 249.11 C 133.77 264.09 121.07 275.79 107.44 285.35 C 115.75 286.21 124.16 287.08 132.16 289.58 C 134.03 290.04 135.51 291.29 136.51 292.91 C 131.67 295.89 125.91 296.50 120.40 297.20 C 101.00 299.32 81.35 298.76 62.05 295.99 C 56.53 295.03 50.69 294.35 45.95 291.12 C 46.81 289.53 48.23 288.38 49.99 287.99 C 57.42 285.82 65.20 285.35 72.87 284.72 C 56.98 275.50 41.46 263.51 33.60 246.41 C 29.92 238.48 28.47 229.67 28.50 220.96 C 28.81 206.53 32.74 192.54 36.78 178.79 C 41.85 161.56 47.33 144.29 49.14 126.35 L 49.29 126.36 C 54.16 126.71 59.05 126.70 63.94 126.75 C 70.13 126.81 76.24 127.91 82.39 128.48 M 93.49 182.49 C 90.52 184.05 90.43 187.80 89.35 190.60 C 85.44 188.76 81.34 187.11 76.97 186.87 C 61.91 185.76 47.32 196.77 43.31 211.14 C 43.16 218.14 45.03 225.08 47.41 231.61 C 49.18 236.26 54.38 238.00 58.97 237.98 C 66.21 238.37 75.42 239.94 80.53 233.43 C 86.91 231.05 93.14 227.59 97.53 222.28 C 99.43 223.06 101.31 223.88 103.19 224.70 C 104.87 226.36 106.60 228.19 109.02 228.69 C 115.25 230.20 121.76 229.43 128.06 228.78 C 132.05 228.46 135.56 225.59 136.69 221.76 C 138.76 215.44 140.64 208.83 140.32 202.12 C 138.17 194.52 132.97 187.90 126.44 183.52 C 116.87 176.87 103.35 175.91 93.49 182.49 Z" />
<path fill="#58585a" opacity="1.00" d=" M 195.00 121.43 C 208.60 128.45 223.80 131.70 238.98 132.76 C 263.77 134.41 288.81 133.41 313.26 128.81 C 315.48 182.45 304.08 235.33 292.39 287.34 C 277.48 292.34 261.52 293.03 245.93 292.37 C 236.60 291.62 227.33 289.77 218.47 286.73 C 208.21 248.10 197.85 209.13 195.50 169.06 C 194.52 153.20 194.55 137.30 195.00 121.43 M 258.86 152.89 C 255.81 154.44 255.73 158.22 254.68 161.06 C 251.01 159.33 247.19 157.71 243.10 157.37 C 227.69 155.81 212.28 167.14 208.64 182.06 C 208.70 189.23 210.45 196.38 213.18 202.97 C 215.72 208.08 221.96 208.34 226.93 208.61 C 233.44 208.94 241.37 209.65 245.91 203.91 C 252.24 201.44 258.37 198.00 262.87 192.81 C 264.72 193.51 266.57 194.26 268.39 195.05 C 272.87 200.65 280.66 200.23 287.11 199.82 C 291.94 199.46 297.99 199.50 300.81 194.75 C 303.44 189.51 304.59 183.63 305.49 177.88 C 307.00 170.95 302.50 164.66 298.33 159.61 C 288.89 148.59 271.29 144.61 258.86 152.89 Z" />
<path fill="#a4dce8" opacity="1.00" d=" M 258.86 152.89 C 271.29 144.61 288.89 148.59 298.33 159.61 C 302.50 164.66 307.00 170.95 305.49 177.88 C 304.59 183.63 303.44 189.51 300.81 194.75 C 297.99 199.50 291.94 199.46 287.11 199.82 C 280.66 200.23 272.87 200.65 268.39 195.05 C 266.57 194.26 264.72 193.51 262.87 192.81 C 258.37 198.00 252.24 201.44 245.91 203.91 C 241.37 209.65 233.44 208.94 226.93 208.61 C 221.96 208.34 215.72 208.08 213.18 202.97 C 210.45 196.38 208.70 189.23 208.64 182.06 C 212.28 167.14 227.69 155.81 243.10 157.37 C 247.19 157.71 251.01 159.33 254.68 161.06 C 255.73 158.22 255.81 154.44 258.86 152.89 M 263.41 157.38 C 267.68 160.95 272.76 163.80 275.64 168.76 C 283.06 166.83 290.64 168.56 298.09 169.30 C 294.82 163.61 289.86 158.77 283.71 156.31 C 277.26 153.69 269.42 153.57 263.41 157.38 M 260.22 161.88 C 259.78 163.58 259.29 165.28 259.09 167.04 C 259.75 170.42 261.36 173.54 261.94 176.94 C 262.91 180.55 262.43 185.00 265.75 187.49 C 266.96 182.20 267.84 176.74 270.62 171.99 C 268.13 167.72 264.19 164.67 260.22 161.88 M 216.19 178.16 C 223.62 177.35 231.22 175.73 238.64 177.62 C 241.65 172.62 246.82 169.74 251.03 165.92 C 247.26 164.21 243.18 162.92 238.98 163.26 C 229.38 163.66 220.80 169.93 216.19 178.16 M 243.73 180.89 C 246.48 185.52 247.40 190.87 248.49 196.06 C 251.46 193.87 254.41 191.64 257.42 189.49 C 254.62 187.15 251.27 184.79 250.52 180.97 C 250.22 178.20 251.06 175.48 251.39 172.76 C 248.27 174.88 245.59 177.59 243.73 180.89 M 276.43 175.16 C 275.59 180.42 273.69 185.64 274.15 191.02 C 274.73 194.16 278.64 193.54 280.99 193.78 C 285.68 193.49 291.52 194.93 295.14 191.10 C 298.29 187.04 298.11 181.54 299.24 176.73 C 291.60 176.73 284.05 174.05 276.43 175.16 M 215.09 185.53 C 216.01 189.65 216.21 193.99 217.90 197.90 C 219.11 200.66 221.95 202.38 224.93 202.44 C 229.72 202.57 234.98 203.52 239.47 201.48 C 241.66 195.84 238.57 189.75 237.99 184.00 C 230.34 182.90 222.77 185.54 215.09 185.53 Z" />
<path fill="#58585a" opacity="1.00" d=" M 263.41 157.38 C 269.42 153.57 277.26 153.69 283.71 156.31 C 289.86 158.77 294.82 163.61 298.09 169.30 C 290.64 168.56 283.06 166.83 275.64 168.76 C 272.76 163.80 267.68 160.95 263.41 157.38 Z" />
<path fill="#58585a" opacity="1.00" d=" M 260.22 161.88 C 264.19 164.67 268.13 167.72 270.62 171.99 C 267.84 176.74 266.96 182.20 265.75 187.49 C 262.43 185.00 262.91 180.55 261.94 176.94 C 261.36 173.54 259.75 170.42 259.09 167.04 C 259.29 165.28 259.78 163.58 260.22 161.88 Z" />
<path fill="#58585a" opacity="1.00" d=" M 216.19 178.16 C 220.80 169.93 229.38 163.66 238.98 163.26 C 243.18 162.92 247.26 164.21 251.03 165.92 C 246.82 169.74 241.65 172.62 238.64 177.62 C 231.22 175.73 223.62 177.35 216.19 178.16 Z" />
<path fill="#58585a" opacity="1.00" d=" M 243.73 180.89 C 245.59 177.59 248.27 174.88 251.39 172.76 C 251.06 175.48 250.22 178.20 250.52 180.97 C 251.27 184.79 254.62 187.15 257.42 189.49 C 254.41 191.64 251.46 193.87 248.49 196.06 C 247.40 190.87 246.48 185.52 243.73 180.89 Z" />
<path fill="#58585a" opacity="1.00" d=" M 276.43 175.16 C 284.05 174.05 291.60 176.73 299.24 176.73 C 298.11 181.54 298.29 187.04 295.14 191.10 C 291.52 194.93 285.68 193.49 280.99 193.78 C 278.64 193.54 274.73 194.16 274.15 191.02 C 273.69 185.64 275.59 180.42 276.43 175.16 Z" />
<path fill="#a4dce8" opacity="1.00" d=" M 93.49 182.49 C 103.35 175.91 116.87 176.87 126.44 183.52 C 132.97 187.90 138.17 194.52 140.32 202.12 C 140.64 208.83 138.76 215.44 136.69 221.76 C 135.56 225.59 132.05 228.46 128.06 228.78 C 121.76 229.43 115.25 230.20 109.02 228.69 C 106.60 228.19 104.87 226.36 103.19 224.70 C 101.31 223.88 99.43 223.06 97.53 222.28 C 93.14 227.59 86.91 231.05 80.53 233.43 C 75.42 239.94 66.21 238.37 58.97 237.98 C 54.38 238.00 49.18 236.26 47.41 231.61 C 45.03 225.08 43.16 218.14 43.31 211.14 C 47.32 196.77 61.91 185.76 76.97 186.87 C 81.34 187.11 85.44 188.76 89.35 190.60 C 90.43 187.80 90.52 184.05 93.49 182.49 M 98.00 186.76 C 102.27 190.48 107.34 193.44 110.42 198.34 C 117.84 196.44 125.43 198.16 132.88 198.88 C 129.56 193.38 124.86 188.59 118.86 186.10 C 112.28 183.08 104.37 183.28 98.00 186.76 M 94.95 191.44 C 94.46 193.32 93.98 195.21 93.52 197.11 C 95.94 202.10 96.85 207.57 97.84 212.97 C 97.89 214.77 99.30 215.87 100.56 216.93 C 101.60 211.74 102.42 206.38 105.27 201.81 C 103.08 197.27 98.87 194.36 94.95 191.44 M 50.79 207.74 C 58.25 206.98 65.89 205.16 73.31 207.19 C 76.21 202.07 81.68 199.52 85.56 195.34 C 81.00 193.38 75.95 192.09 70.98 193.09 C 62.36 194.41 55.11 200.34 50.79 207.74 M 78.72 210.08 C 80.52 215.13 82.37 220.22 83.11 225.61 C 86.05 223.44 89.10 221.40 91.93 219.09 C 89.44 216.65 86.19 214.55 85.28 210.96 C 84.65 208.03 85.73 205.08 86.13 202.20 C 83.33 204.46 80.23 206.69 78.72 210.08 M 110.98 204.91 C 110.23 209.60 108.83 214.21 108.72 218.98 C 108.63 220.54 109.06 222.73 110.98 222.91 C 116.37 223.73 122.09 223.85 127.40 222.46 C 133.20 219.37 132.44 211.82 133.95 206.32 C 126.26 206.37 118.61 203.41 110.98 204.91 M 49.73 215.10 C 51.13 220.37 50.55 227.07 55.30 230.74 C 59.48 232.86 64.49 232.14 69.04 232.21 C 70.97 231.86 74.14 232.36 74.75 229.87 C 75.56 224.47 73.37 219.20 72.76 213.87 C 70.89 213.29 68.93 212.85 66.97 213.23 C 61.24 214.03 55.51 214.81 49.73 215.10 Z" />
<path fill="#f7941e" opacity="1.00" d=" M 98.00 186.76 C 104.37 183.28 112.28 183.08 118.86 186.10 C 124.86 188.59 129.56 193.38 132.88 198.88 C 125.43 198.16 117.84 196.44 110.42 198.34 C 107.34 193.44 102.27 190.48 98.00 186.76 Z" />
<path fill="#58585a" opacity="1.00" d=" M 215.09 185.53 C 222.77 185.54 230.34 182.90 237.99 184.00 C 238.57 189.75 241.66 195.84 239.47 201.48 C 234.98 203.52 229.72 202.57 224.93 202.44 C 221.95 202.38 219.11 200.66 217.90 197.90 C 216.21 193.99 216.01 189.65 215.09 185.53 Z" />
<path fill="#f7941e" opacity="1.00" d=" M 94.95 191.44 C 98.87 194.36 103.08 197.27 105.27 201.81 C 102.42 206.38 101.60 211.74 100.56 216.93 C 99.30 215.87 97.89 214.77 97.84 212.97 C 96.85 207.57 95.94 202.10 93.52 197.11 C 93.98 195.21 94.46 193.32 94.95 191.44 Z" />
<path fill="#f7941e" opacity="1.00" d=" M 50.79 207.74 C 55.11 200.34 62.36 194.41 70.98 193.09 C 75.95 192.09 81.00 193.38 85.56 195.34 C 81.68 199.52 76.21 202.07 73.31 207.19 C 65.89 205.16 58.25 206.98 50.79 207.74 Z" />
<path fill="#f7941e" opacity="1.00" d=" M 78.72 210.08 C 80.23 206.69 83.33 204.46 86.13 202.20 C 85.73 205.08 84.65 208.03 85.28 210.96 C 86.19 214.55 89.44 216.65 91.93 219.09 C 89.10 221.40 86.05 223.44 83.11 225.61 C 82.37 220.22 80.52 215.13 78.72 210.08 Z" />
<path fill="#f7941e" opacity="1.00" d=" M 110.98 204.91 C 118.61 203.41 126.26 206.37 133.95 206.32 C 132.44 211.82 133.20 219.37 127.40 222.46 C 122.09 223.85 116.37 223.73 110.98 222.91 C 109.06 222.73 108.63 220.54 108.72 218.98 C 108.83 214.21 110.23 209.60 110.98 204.91 Z" />
<path fill="#f7941e" opacity="1.00" d=" M 49.73 215.10 C 55.51 214.81 61.24 214.03 66.97 213.23 C 68.93 212.85 70.89 213.29 72.76 213.87 C 73.37 219.20 75.56 224.47 74.75 229.87 C 74.14 232.36 70.97 231.86 69.04 232.21 C 64.49 232.14 59.48 232.86 55.30 230.74 C 50.55 227.07 51.13 220.37 49.73 215.10 Z" />
</svg>
