<?xml version="1.0" encoding="UTF-8" ?>
<!DOCTYPE svg PUBLIC "-//W3C//DTD SVG 1.1//EN" "http://www.w3.org/Graphics/SVG/1.1/DTD/svg11.dtd">
<svg width="342pt" height="342pt" viewBox="0 0 342 342" version="1.1" xmlns="http://www.w3.org/2000/svg">
<path fill="#ffd67f" opacity="1.00" d=" M 186.89 131.17 C 225.36 96.12 263.68 60.90 302.11 25.81 C 305.30 28.79 308.28 31.98 311.25 35.19 C 272.30 68.98 233.45 102.86 194.49 136.64 C 195.93 138.06 197.36 139.48 198.81 140.90 C 244.07 110.84 289.44 80.94 334.77 50.97 C 337.17 54.32 339.41 57.77 342.00 60.98 L 342.00 61.70 C 296.08 90.53 250.07 119.24 204.10 148.00 C 207.32 154.32 208.56 161.78 206.32 168.64 C 214.85 167.17 224.08 168.03 231.65 172.48 C 236.76 175.43 240.52 180.43 242.09 186.11 C 245.06 187.31 248.04 188.45 251.02 189.60 L 250.30 190.54 C 236.34 196.11 221.91 200.52 207.28 203.91 C 205.88 202.71 204.24 201.87 202.51 201.26 C 202.41 201.87 202.21 203.10 202.11 203.71 C 202.98 203.92 204.71 204.32 205.57 204.52 C 178.50 210.72 150.75 214.39 122.95 213.92 C 86.12 213.17 49.57 206.02 14.75 194.16 C 12.93 193.60 11.28 192.65 9.65 191.70 C 13.32 192.30 16.66 194.07 20.20 195.13 C 20.21 192.25 20.31 189.37 20.65 186.51 C 16.69 188.27 12.13 188.84 8.63 191.51 C 6.62 191.22 4.79 190.31 2.91 189.59 C 9.35 186.93 15.92 184.61 22.50 182.34 C 27.94 173.92 38.01 169.91 47.69 169.36 C 51.18 160.68 57.63 153.15 66.20 149.19 C 68.38 144.34 72.09 140.45 75.83 136.77 C 82.60 130.04 91.33 125.01 100.97 124.17 C 106.65 116.60 115.37 111.74 124.52 109.70 C 130.41 108.38 136.38 110.30 141.87 112.31 C 148.51 114.99 155.27 118.65 159.14 124.93 C 168.87 122.78 178.66 126.11 186.89 131.17 M 111.16 126.71 C 118.77 131.25 126.15 136.70 131.19 144.11 C 131.90 144.00 133.32 143.78 134.03 143.67 C 137.06 136.70 142.90 131.32 149.71 128.10 C 144.48 122.45 138.17 116.76 130.09 116.26 C 122.27 115.40 115.56 120.79 111.16 126.71 M 144.07 144.21 C 148.19 144.98 152.45 146.11 155.51 149.17 C 159.29 148.69 163.08 149.17 166.82 149.49 C 171.99 144.97 177.03 140.29 182.04 135.60 C 177.84 133.17 172.91 132.18 168.10 132.90 C 159.24 134.23 150.39 137.66 144.07 144.21 M 174.99 153.74 C 175.81 154.17 176.64 154.61 177.47 155.04 C 182.47 151.45 187.74 148.27 192.83 144.81 C 191.76 143.59 190.71 142.36 189.67 141.13 C 184.55 145.06 179.81 149.45 174.99 153.74 M 80.14 149.38 C 82.64 151.30 84.86 153.57 86.53 156.26 C 94.28 153.93 102.71 153.96 110.37 156.64 C 111.89 154.71 113.50 152.85 115.28 151.15 C 104.25 147.17 91.14 143.26 80.14 149.38 M 183.42 160.96 C 186.54 164.45 189.44 168.13 192.11 171.99 C 192.84 172.13 194.29 172.43 195.02 172.58 C 197.63 171.20 200.37 170.11 203.19 169.23 C 201.75 163.40 200.22 157.51 197.39 152.18 C 192.77 155.16 188.07 158.03 183.42 160.96 M 118.85 160.49 C 120.29 162.27 122.25 163.48 123.96 164.97 C 126.68 165.01 129.40 165.00 132.12 164.99 C 134.05 162.63 136.15 160.42 138.30 158.25 C 131.76 156.98 124.77 157.12 118.85 160.49 M 58.08 169.96 C 60.54 170.22 63.21 172.38 65.57 170.95 C 68.97 166.95 72.74 163.21 77.26 160.47 C 69.97 160.80 61.66 162.90 58.08 169.96 M 127.42 168.00 C 126.66 169.21 128.64 170.57 129.50 169.43 C 130.21 168.29 128.24 166.96 127.42 168.00 M 86.84 171.16 C 82.01 172.52 77.61 175.13 73.47 177.91 C 77.39 182.34 79.50 188.19 79.27 194.11 C 82.34 189.50 86.45 185.13 92.08 183.91 C 102.10 181.47 112.63 187.26 117.62 195.95 C 118.48 191.89 119.82 187.97 121.27 184.10 C 115.79 177.14 108.19 171.25 99.20 170.01 C 95.06 169.83 90.93 170.57 86.84 171.16 M 135.69 180.44 C 138.18 186.74 140.58 193.27 140.47 200.15 C 144.21 196.44 149.93 193.95 155.14 195.91 C 161.46 198.18 165.07 204.57 166.96 210.66 C 174.00 209.80 180.99 208.59 187.95 207.27 C 185.17 199.70 182.40 191.91 177.42 185.47 C 172.39 178.83 164.34 174.79 156.11 174.03 C 148.80 173.55 141.59 176.26 135.69 180.44 M 35.15 183.38 C 30.46 186.45 26.95 191.64 27.12 197.40 C 28.75 197.89 30.36 198.39 31.98 198.90 C 36.89 196.86 40.82 192.78 46.11 191.65 C 48.78 190.99 51.40 192.02 53.80 193.11 C 55.12 189.28 56.77 185.57 58.51 181.91 C 51.35 177.34 41.87 178.62 35.15 183.38 M 198.01 182.28 C 199.78 185.95 200.67 189.98 202.22 193.71 C 205.21 191.93 208.35 189.86 212.01 190.23 C 217.22 190.24 220.28 195.08 223.45 198.49 C 227.84 196.97 232.32 195.72 236.66 194.04 C 233.40 191.01 230.59 187.48 227.12 184.68 C 220.18 182.20 212.99 180.48 205.89 178.51 C 203.14 179.49 200.54 180.83 198.01 182.28 M 65.68 203.43 C 67.79 206.45 71.83 206.88 75.18 206.22 C 75.76 203.79 76.40 201.38 77.15 199.00 C 72.94 195.33 69.13 191.23 65.21 187.26 C 63.00 192.27 62.45 198.73 65.68 203.43 M 243.05 192.23 C 244.64 192.85 245.79 190.03 244.08 189.51 C 242.40 188.92 241.29 191.64 243.05 192.23 M 125.44 190.83 C 122.84 195.32 120.60 200.26 120.92 205.59 C 120.63 205.54 120.04 205.44 119.75 205.38 C 119.70 208.06 118.93 210.62 117.96 213.09 C 118.77 213.14 120.39 213.24 121.19 213.29 C 120.83 210.74 120.63 208.17 120.53 205.60 C 122.97 207.97 124.68 210.93 126.79 213.57 C 129.37 213.31 132.07 213.52 134.56 212.79 C 135.31 211.34 135.92 209.83 136.57 208.34 C 135.17 208.21 133.77 208.07 132.38 207.91 C 130.90 201.95 128.88 195.97 125.44 190.83 M 79.28 209.64 C 82.97 210.28 86.77 209.71 90.41 210.69 C 96.66 212.27 103.14 212.41 109.54 212.80 C 107.28 208.97 105.75 204.65 102.72 201.31 C 100.10 198.33 95.74 197.11 91.92 198.08 C 86.03 199.32 81.09 203.92 79.28 209.64 Z" />
<path fill="#98d3ba" opacity="1.00" d=" M 0.10 188.64 C 0.80 188.88 2.21 189.35 2.91 189.59 C 4.79 190.31 6.62 191.22 8.63 191.51 L 9.65 191.70 C 11.28 192.65 12.93 193.60 14.75 194.16 C 49.57 206.02 86.12 213.17 122.95 213.92 C 150.75 214.39 178.50 210.72 205.57 204.52 C 204.71 204.32 202.98 203.92 202.11 203.71 C 202.21 203.10 202.41 201.87 202.51 201.26 C 204.24 201.87 205.88 202.71 207.28 203.91 C 221.91 200.52 236.34 196.11 250.30 190.54 C 252.03 189.86 253.78 189.22 255.53 188.58 C 254.60 197.42 253.94 206.31 252.02 215.02 C 246.52 241.84 234.32 268.09 213.77 286.68 C 200.85 298.46 184.89 306.73 168.01 311.18 C 149.48 316.21 130.02 316.89 110.97 315.35 C 84.95 313.02 58.97 303.33 40.04 284.91 C 19.21 265.22 7.50 237.62 2.66 209.74 C 1.30 202.77 1.06 195.66 0.10 188.64 Z" />
</svg>
