<?xml version="1.0" encoding="UTF-8" ?>
<!DOCTYPE svg PUBLIC "-//W3C//DTD SVG 1.1//EN" "http://www.w3.org/Graphics/SVG/1.1/DTD/svg11.dtd">
<svg width="342pt" height="342pt" viewBox="0 0 342 342" version="1.1" xmlns="http://www.w3.org/2000/svg">
<path fill="#818285" opacity="1.00" d=" M 257.00 17.99 C 258.96 16.34 261.24 14.05 264.06 14.89 C 266.35 16.05 266.54 19.02 264.99 20.87 C 261.34 25.78 256.65 29.82 252.57 34.37 C 250.17 32.57 247.81 30.73 245.49 28.85 C 249.36 25.27 253.18 21.63 257.00 17.99 Z" />
<path fill="#f7941e" opacity="1.00" d=" M 219.69 25.67 C 220.47 20.02 226.73 14.64 232.38 17.48 C 236.87 21.12 240.91 25.30 245.49 28.85 C 247.81 30.73 250.17 32.57 252.57 34.37 C 257.56 38.18 262.79 41.67 268.05 45.11 C 270.55 46.72 273.07 48.30 275.60 49.87 C 281.07 53.29 286.64 56.56 292.11 60.01 C 294.51 61.52 296.90 63.06 299.28 64.62 C 304.64 68.13 309.90 71.80 315.00 75.69 C 317.22 77.41 319.43 79.17 321.60 80.96 C 325.27 84.19 329.34 87.07 332.45 90.86 C 335.24 96.45 329.84 102.58 324.28 103.30 C 323.49 107.97 319.79 111.73 315.10 112.52 C 314.35 117.19 310.62 120.57 306.15 121.70 C 304.88 125.63 302.35 129.18 298.24 130.45 C 298.18 136.35 292.66 142.32 286.51 140.66 C 282.79 138.79 280.27 135.19 276.94 132.73 C 281.07 143.17 284.29 153.97 286.72 164.93 C 287.99 170.26 284.31 176.32 278.90 177.43 C 276.49 178.03 273.64 176.59 273.27 174.01 C 270.67 163.27 267.70 152.59 263.49 142.36 C 261.69 138.05 259.77 133.78 257.52 129.69 C 255.15 125.36 252.59 121.14 249.76 117.11 C 247.27 113.64 244.93 109.94 241.51 107.30 C 237.27 104.71 232.98 102.21 228.78 99.55 C 225.01 97.20 221.25 94.84 217.55 92.38 C 213.58 89.76 209.66 87.05 205.84 84.22 C 202.20 81.54 198.66 78.75 195.19 75.85 C 191.82 72.87 188.09 70.20 185.28 66.66 C 182.77 61.45 187.42 55.91 192.35 54.45 C 192.06 49.10 196.36 44.77 201.41 43.85 C 202.09 39.09 206.02 35.61 210.61 34.70 C 211.29 30.05 215.07 26.38 219.69 25.67 M 225.45 25.86 C 235.31 35.41 246.25 43.81 257.71 51.36 C 277.29 63.92 297.90 75.12 315.62 90.35 C 318.41 92.67 320.92 95.37 324.06 97.23 C 325.87 97.18 326.66 95.36 327.72 94.20 C 317.36 84.05 305.48 75.56 293.36 67.66 C 273.09 54.89 251.81 43.25 234.22 26.76 C 232.60 25.24 231.03 23.62 229.06 22.56 C 227.20 22.78 226.43 24.55 225.45 25.86 M 216.24 34.82 C 220.65 39.44 225.65 43.43 230.59 47.48 C 249.48 62.85 271.54 73.60 291.31 87.73 C 299.68 93.56 307.37 100.26 315.09 106.91 C 316.30 105.71 317.49 104.47 318.64 103.20 C 307.49 92.86 295.24 83.77 282.39 75.66 C 263.67 63.96 244.23 53.06 227.69 38.26 C 225.15 36.05 222.82 33.55 219.90 31.84 C 218.10 31.74 217.35 33.77 216.24 34.82 M 207.16 43.88 C 223.48 60.50 243.67 72.47 263.40 84.53 C 277.87 93.40 291.82 103.24 304.34 114.73 C 306.26 117.21 310.78 112.84 307.96 111.03 C 288.53 92.58 264.66 80.02 242.36 65.53 C 231.70 58.44 221.65 50.46 212.18 41.85 C 210.23 39.49 208.37 42.38 207.16 43.88 M 200.37 50.30 C 199.19 51.06 197.41 52.72 198.86 54.08 C 212.28 67.09 227.87 77.58 243.81 87.23 C 260.00 97.01 276.07 107.16 290.37 119.62 C 292.45 121.39 294.41 123.36 296.80 124.73 C 298.36 124.16 299.25 122.69 300.22 121.43 C 290.75 112.53 280.38 104.61 269.58 97.42 C 247.61 83.30 224.27 70.85 205.19 52.76 C 203.75 51.71 202.42 49.47 200.37 50.30 M 193.33 59.97 C 192.24 61.10 191.16 62.22 190.07 63.34 C 197.01 70.41 204.99 76.36 212.96 82.21 C 233.12 96.53 255.55 107.52 274.71 123.28 C 279.73 127.09 284.12 131.64 289.11 135.49 C 290.16 134.40 291.32 133.39 292.10 132.08 C 289.75 128.45 286.00 126.08 282.84 123.22 C 260.08 103.44 232.03 91.21 208.52 72.43 C 203.17 68.62 198.76 63.67 193.33 59.97 M 257.93 118.13 C 259.69 122.25 262.13 126.01 264.16 129.98 C 270.97 142.96 275.05 157.10 278.61 171.25 C 281.31 169.93 281.40 166.81 280.64 164.24 C 277.55 151.50 273.73 138.84 268.03 127.00 C 266.10 122.72 261.61 120.64 257.93 118.13 Z" />
<path fill="#fcb040" opacity="1.00" d=" M 225.45 25.86 C 226.43 24.55 227.20 22.78 229.06 22.56 C 231.03 23.62 232.60 25.24 234.22 26.76 C 251.81 43.25 273.09 54.89 293.36 67.66 C 305.48 75.56 317.36 84.05 327.72 94.20 C 326.66 95.36 325.87 97.18 324.06 97.23 C 320.92 95.37 318.41 92.67 315.62 90.35 C 297.90 75.12 277.29 63.92 257.71 51.36 C 246.25 43.81 235.31 35.41 225.45 25.86 Z" />
<path fill="#fcb040" opacity="1.00" d=" M 216.24 34.82 C 217.35 33.77 218.10 31.74 219.90 31.84 C 222.82 33.55 225.15 36.05 227.69 38.26 C 244.23 53.06 263.67 63.96 282.39 75.66 C 295.24 83.77 307.49 92.86 318.64 103.20 C 317.49 104.47 316.30 105.71 315.09 106.91 C 307.37 100.26 299.68 93.56 291.31 87.73 C 271.54 73.60 249.48 62.85 230.59 47.48 C 225.65 43.43 220.65 39.44 216.24 34.82 Z" />
<path fill="#818285" opacity="1.00" d=" M 280.33 34.38 C 283.10 32.71 286.52 35.98 285.07 38.86 C 282.80 43.21 278.65 46.11 275.60 49.87 C 273.07 48.30 270.55 46.72 268.05 45.11 C 272.24 41.66 275.60 37.13 280.33 34.38 Z" />
<path fill="#fcb040" opacity="1.00" d=" M 207.16 43.88 C 208.37 42.38 210.23 39.49 212.18 41.85 C 221.65 50.46 231.70 58.44 242.36 65.53 C 264.66 80.02 288.53 92.58 307.96 111.03 C 310.78 112.84 306.26 117.21 304.34 114.73 C 291.82 103.24 277.87 93.40 263.40 84.53 C 243.67 72.47 223.48 60.50 207.16 43.88 Z" />
<path fill="#fcb040" opacity="1.00" d=" M 200.37 50.30 C 202.42 49.47 203.75 51.71 205.19 52.76 C 224.27 70.85 247.61 83.30 269.58 97.42 C 280.38 104.61 290.75 112.53 300.22 121.43 C 299.25 122.69 298.36 124.16 296.80 124.73 C 294.41 123.36 292.45 121.39 290.37 119.62 C 276.07 107.16 260.00 97.01 243.81 87.23 C 227.87 77.58 212.28 67.09 198.86 54.08 C 197.41 52.72 199.19 51.06 200.37 50.30 Z" />
<path fill="#818285" opacity="1.00" d=" M 292.11 60.01 C 294.57 57.66 296.87 54.92 300.04 53.52 C 302.60 52.17 305.81 55.37 304.49 57.94 C 303.36 60.57 301.13 62.50 299.28 64.62 C 296.90 63.06 294.51 61.52 292.11 60.01 Z" />
<path fill="#fcb040" opacity="1.00" d=" M 193.33 59.97 C 198.76 63.67 203.17 68.62 208.52 72.43 C 232.03 91.21 260.08 103.44 282.84 123.22 C 286.00 126.08 289.75 128.45 292.10 132.08 C 291.32 133.39 290.16 134.40 289.11 135.49 C 284.12 131.64 279.73 127.09 274.71 123.28 C 255.55 107.52 233.12 96.53 212.96 82.21 C 204.99 76.36 197.01 70.41 190.07 63.34 C 191.16 62.22 192.24 61.10 193.33 59.97 Z" />
<path fill="#818285" opacity="1.00" d=" M 315.00 75.69 C 317.35 74.06 320.64 70.82 323.35 73.68 C 325.18 76.18 322.95 78.88 321.60 80.96 C 319.43 79.17 317.22 77.41 315.00 75.69 Z" />
<path fill="#818285" opacity="1.00" d=" M 195.19 75.85 C 198.66 78.75 202.20 81.54 205.84 84.22 C 201.29 88.86 197.02 93.77 192.30 98.24 C 195.44 101.27 198.65 104.23 201.72 107.34 C 206.81 102.16 212.22 97.31 217.55 92.38 C 221.25 94.84 225.01 97.20 228.78 99.55 C 223.16 105.55 217.64 111.65 211.82 117.44 C 214.90 120.52 217.98 123.61 221.06 126.69 C 227.62 119.96 234.71 113.78 241.51 107.30 C 244.93 109.94 247.27 113.64 249.76 117.11 C 243.55 123.67 237.56 130.44 231.07 136.72 C 234.18 139.79 237.28 142.89 240.35 146.01 C 245.85 140.34 251.81 135.14 257.52 129.69 C 259.77 133.78 261.69 138.05 263.49 142.36 C 255.38 151.03 247.48 160.60 236.40 165.56 C 223.73 171.50 208.51 171.30 195.87 165.39 C 194.59 164.33 193.78 166.20 192.92 166.83 C 146.89 217.79 100.78 268.68 54.70 319.60 C 46.00 328.92 30.14 329.87 20.34 321.74 C 11.01 314.66 8.02 300.84 13.28 290.44 C 15.23 286.24 18.66 283.05 22.12 280.09 C 72.61 234.69 123.08 189.25 173.58 143.86 C 167.33 131.14 166.79 115.69 172.73 102.76 C 177.64 91.93 186.51 83.69 195.19 75.85 Z" />
<path fill="#fcb040" opacity="1.00" d=" M 257.93 118.13 C 261.61 120.64 266.10 122.72 268.03 127.00 C 273.73 138.84 277.55 151.50 280.64 164.24 C 281.40 166.81 281.31 169.93 278.61 171.25 C 275.05 157.10 270.97 142.96 264.16 129.98 C 262.13 126.01 259.69 122.25 257.93 118.13 Z" />
</svg>
