<?xml version="1.0" encoding="UTF-8" ?>
<!DOCTYPE svg PUBLIC "-//W3C//DTD SVG 1.1//EN" "http://www.w3.org/Graphics/SVG/1.1/DTD/svg11.dtd">
<svg width="342pt" height="342pt" viewBox="0 0 342 342" version="1.1" xmlns="http://www.w3.org/2000/svg">
<path fill="#dfa126" opacity="1.00" d=" M 164.53 73.76 C 175.64 71.78 188.27 73.23 197.03 80.92 C 206.52 89.28 210.07 101.93 213.66 113.58 C 219.54 134.30 216.86 156.10 214.51 177.15 C 213.52 185.10 212.82 193.09 211.60 201.01 C 211.04 203.84 210.68 206.91 208.75 209.19 C 205.94 210.25 203.26 208.14 200.54 207.63 C 184.63 203.05 168.15 207.60 152.72 211.87 C 147.51 213.58 141.12 213.03 137.28 208.78 C 131.71 202.68 129.69 194.35 128.24 186.44 C 126.01 173.74 126.37 160.79 126.72 147.96 C 125.70 129.80 127.77 110.78 136.59 94.58 C 142.27 83.99 152.51 75.70 164.53 73.76 Z" />
<path fill="#dfa126" opacity="1.00" d=" M 205.89 81.44 C 226.99 83.91 249.17 89.83 264.42 105.53 C 273.08 114.92 282.15 125.15 284.47 138.16 C 287.93 155.99 281.52 173.85 273.79 189.70 C 270.61 195.56 267.44 201.96 261.74 205.78 C 256.74 209.16 250.36 208.25 244.78 207.19 C 235.71 205.29 226.75 202.83 217.58 201.44 C 219.91 182.02 222.79 162.60 223.13 143.01 C 223.19 131.74 222.17 120.34 218.66 109.57 C 215.62 99.72 212.26 89.71 205.89 81.44 Z" />
<path fill="#dfa126" opacity="1.00" d=" M 72.45 110.46 C 89.42 92.55 114.41 85.63 138.08 82.13 C 124.97 97.87 120.76 119.02 120.48 139.02 C 121.09 151.72 119.68 164.45 121.04 177.14 C 122.15 188.65 124.21 200.62 130.88 210.35 C 122.28 214.35 112.85 218.27 103.17 216.30 C 90.76 213.98 81.75 203.86 75.47 193.56 C 67.55 180.19 62.40 165.30 59.16 150.14 C 56.89 135.74 62.69 120.98 72.45 110.46 Z" />
<path fill="#dfa126" opacity="1.00" d=" M 22.07 181.02 C 32.26 164.47 42.52 147.91 54.01 132.21 C 52.62 139.19 52.03 146.50 53.75 153.48 C 57.21 168.54 62.33 183.39 70.36 196.66 C 77.20 208.05 87.20 218.58 100.49 221.93 C 84.19 234.30 67.35 245.93 50.44 257.45 C 41.81 262.73 32.41 268.50 21.90 267.96 C 15.34 267.61 10.94 261.56 9.54 255.64 C 6.39 243.10 8.06 229.98 10.25 217.42 C 12.77 204.92 15.98 192.32 22.07 181.02 Z" />
<path fill="#dfa126" opacity="1.00" d=" M 289.29 132.88 C 296.50 141.28 303.38 149.96 310.27 158.62 C 316.27 165.93 320.22 174.64 323.82 183.30 C 329.27 196.90 333.60 211.20 334.19 225.92 C 334.20 231.83 333.61 238.17 330.10 243.15 C 326.88 247.42 321.05 248.68 315.97 248.11 C 306.96 247.18 298.60 243.33 290.61 239.30 C 274.39 230.68 258.09 222.19 242.27 212.85 C 249.49 214.13 257.61 215.35 264.17 211.22 C 272.52 205.95 276.97 196.64 281.11 188.05 C 289.11 171.05 294.40 151.52 289.29 132.88 Z" />
</svg>
