<?xml version="1.0" encoding="UTF-8" ?>
<!DOCTYPE svg PUBLIC "-//W3C//DTD SVG 1.1//EN" "http://www.w3.org/Graphics/SVG/1.1/DTD/svg11.dtd">
<svg width="342pt" height="342pt" viewBox="0 0 342 342" version="1.1" xmlns="http://www.w3.org/2000/svg">
<path fill="#39b54a" opacity="1.00" d=" M 260.01 82.42 C 263.08 77.83 267.55 73.75 273.00 72.35 C 276.88 71.43 281.05 73.99 282.15 77.79 C 283.47 81.82 283.17 86.13 284.10 90.24 C 288.55 88.41 292.88 85.05 297.93 85.64 C 299.99 85.81 301.16 87.52 301.76 89.31 C 304.44 90.03 307.51 89.04 310.22 89.43 C 310.07 92.75 312.60 95.84 315.99 95.96 C 319.17 96.21 323.72 96.86 324.00 100.90 C 325.19 107.26 319.18 111.48 313.89 113.17 C 302.14 116.93 289.91 118.90 277.96 121.89 C 267.17 124.39 256.65 127.91 245.95 130.76 C 224.65 136.84 202.34 143.61 185.93 159.28 C 185.14 159.67 184.44 161.03 185.80 161.33 C 187.59 161.56 189.47 161.14 190.98 160.14 C 203.14 156.64 212.93 147.68 225.11 144.18 C 238.59 139.96 252.09 135.68 265.98 133.03 C 278.31 131.05 290.34 126.57 302.97 127.00 C 308.00 127.18 313.68 128.57 316.77 132.90 C 318.01 134.56 319.61 136.71 318.77 138.89 C 316.85 141.79 312.86 142.10 310.65 144.70 C 307.98 147.04 309.19 151.17 306.85 153.73 C 304.43 156.00 300.79 156.08 298.31 158.26 C 296.12 161.06 296.56 164.89 295.69 168.17 C 294.93 171.89 291.91 174.47 289.24 176.90 C 285.74 180.06 284.31 184.71 281.29 188.23 C 278.17 191.84 271.90 191.94 268.71 188.36 C 266.48 185.92 262.47 186.72 260.34 188.89 C 257.94 190.20 256.17 192.38 253.83 193.76 C 252.27 194.07 250.67 193.49 249.14 193.96 C 247.98 195.25 247.35 196.92 246.35 198.33 C 243.20 199.72 239.66 199.65 236.38 200.57 C 232.85 201.87 231.02 206.21 226.96 206.34 C 222.23 206.91 218.41 203.41 213.95 202.59 C 210.57 202.06 207.33 203.59 203.96 203.49 C 199.74 203.58 196.37 199.61 192.05 200.57 C 186.60 201.58 182.40 205.78 176.96 206.87 C 169.59 208.35 162.12 204.89 154.75 206.76 C 147.18 208.82 141.33 214.78 133.67 216.62 C 127.42 217.88 120.87 216.79 114.73 218.71 C 112.88 219.15 111.10 220.31 109.14 219.87 C 108.06 218.01 109.08 216.09 109.83 214.34 C 112.21 208.85 114.27 203.20 116.82 197.81 C 127.63 192.82 136.30 183.18 139.35 171.59 C 140.39 166.54 141.32 161.47 142.62 156.48 C 143.99 151.83 145.48 147.01 148.84 143.36 C 151.24 141.52 154.16 142.44 156.81 142.97 C 158.51 140.45 159.83 137.70 161.35 135.07 C 163.28 132.04 165.77 127.93 169.95 128.49 C 171.60 128.54 172.87 129.72 174.23 130.49 C 176.64 126.09 177.69 120.26 182.55 117.65 C 186.38 115.10 190.95 118.13 194.94 116.29 C 199.39 115.26 201.85 111.04 204.67 107.96 L 204.67 107.96 C 206.01 106.98 207.28 105.76 208.98 105.46 C 210.80 105.74 212.71 106.06 214.47 105.27 C 219.15 103.51 219.21 96.95 223.97 95.28 C 228.03 93.90 231.91 96.94 235.95 96.43 C 242.39 94.47 244.66 87.39 249.89 83.82 C 252.87 81.82 256.61 82.14 260.01 82.42 Z" />
<path fill="#ed1c24" opacity="1.00" d=" M 88.06 98.10 C 107.10 88.54 129.01 87.52 149.86 88.58 C 169.13 90.01 189.02 94.56 204.66 106.47 L 204.67 107.96 L 204.67 107.96 C 201.05 110.19 198.13 113.48 194.94 116.29 C 190.95 118.13 186.38 115.10 182.55 117.65 C 177.69 120.26 176.64 126.09 174.23 130.49 C 172.87 129.72 171.60 128.54 169.95 128.49 C 165.77 127.93 163.28 132.04 161.35 135.07 C 159.59 129.33 154.48 125.07 148.93 123.16 C 147.40 122.87 145.56 121.89 144.11 122.85 C 144.72 129.77 145.04 137.34 148.84 143.36 C 145.48 147.01 143.99 151.83 142.62 156.48 C 128.08 154.55 113.71 150.84 100.46 144.47 C 91.38 139.54 81.51 135.33 74.51 127.45 C 71.36 123.88 69.89 118.79 71.15 114.15 C 73.77 106.39 81.06 101.56 88.06 98.10 M 123.90 98.91 C 127.57 103.81 133.92 105.23 138.99 108.17 C 139.13 108.60 139.42 109.48 139.56 109.92 C 139.78 104.81 138.71 99.48 135.87 95.17 C 134.37 92.93 131.72 91.23 128.94 92.05 C 125.89 92.55 122.03 95.47 123.90 98.91 M 150.82 96.75 C 147.73 100.06 144.47 104.23 145.05 109.03 C 150.16 107.31 155.37 105.20 159.37 101.48 C 161.11 99.96 161.67 96.91 159.61 95.41 C 157.21 92.62 152.95 94.53 150.82 96.75 M 97.70 111.94 C 99.43 114.70 103.22 113.56 105.90 113.48 C 110.83 112.47 116.05 113.48 120.85 111.79 C 120.44 109.75 118.15 109.41 116.65 108.48 C 112.63 106.54 108.65 103.79 103.99 103.99 C 99.97 103.77 96.84 108.20 97.70 111.94 M 169.83 107.61 C 164.22 109.46 158.55 111.74 153.67 115.02 L 154.12 115.77 C 160.52 117.91 167.37 118.15 174.04 117.58 C 176.76 117.16 179.64 116.62 181.84 114.85 C 184.48 112.71 183.94 107.62 180.58 106.49 C 176.97 105.90 173.26 106.39 169.83 107.61 M 113.42 124.48 C 111.60 126.05 109.42 128.47 109.84 130.96 C 113.19 134.64 118.90 132.64 122.72 130.76 C 127.36 127.97 132.68 124.47 134.11 118.96 C 127.01 118.64 119.39 120.40 113.42 124.48 Z" />
<path fill="#f7941e" opacity="1.00" d=" M 123.90 98.91 C 122.03 95.47 125.89 92.55 128.94 92.05 C 131.72 91.23 134.37 92.93 135.87 95.17 C 138.71 99.48 139.78 104.81 139.56 109.92 C 139.42 109.48 139.13 108.60 138.99 108.17 C 133.92 105.23 127.57 103.81 123.90 98.91 Z" />
<path fill="#f7941e" opacity="1.00" d=" M 150.82 96.75 C 152.95 94.53 157.21 92.62 159.61 95.41 C 161.67 96.91 161.11 99.96 159.37 101.48 C 155.37 105.20 150.16 107.31 145.05 109.03 C 144.47 104.23 147.73 100.06 150.82 96.75 Z" />
<path fill="#f7941e" opacity="1.00" d=" M 97.70 111.94 C 96.84 108.20 99.97 103.77 103.99 103.99 C 108.65 103.79 112.63 106.54 116.65 108.48 C 118.15 109.41 120.44 109.75 120.85 111.79 C 116.05 113.48 110.83 112.47 105.90 113.48 C 103.22 113.56 99.43 114.70 97.70 111.94 Z" />
<path fill="#f7941e" opacity="1.00" d=" M 169.83 107.61 C 173.26 106.39 176.97 105.90 180.58 106.49 C 183.94 107.62 184.48 112.71 181.84 114.85 C 179.64 116.62 176.76 117.16 174.04 117.58 C 167.37 118.15 160.52 117.91 154.12 115.77 L 153.67 115.02 C 158.55 111.74 164.22 109.46 169.83 107.61 Z" />
<path fill="#bf1e2e" opacity="1.00" d=" M 70.18 114.08 L 71.15 114.15 C 69.89 118.79 71.36 123.88 74.51 127.45 C 81.51 135.33 91.38 139.54 100.46 144.47 C 113.71 150.84 128.08 154.55 142.62 156.48 C 141.32 161.47 140.39 166.54 139.35 171.59 C 136.30 183.18 127.63 192.82 116.82 197.81 C 114.27 203.20 112.21 208.85 109.83 214.34 C 99.88 213.08 90.13 208.13 84.11 199.96 C 81.69 196.82 79.94 193.23 78.21 189.68 C 75.74 183.53 73.77 177.19 71.91 170.83 C 69.64 162.80 68.25 154.51 68.37 146.17 C 68.23 135.47 68.21 124.65 70.18 114.08 Z" />
<path fill="#f7941e" opacity="1.00" d=" M 113.42 124.48 C 119.39 120.40 127.01 118.64 134.11 118.96 C 132.68 124.47 127.36 127.97 122.72 130.76 C 118.90 132.64 113.19 134.64 109.84 130.96 C 109.42 128.47 111.60 126.05 113.42 124.48 Z" />
<path fill="#f7941e" opacity="1.00" d=" M 144.11 122.85 C 145.56 121.89 147.40 122.87 148.93 123.16 C 154.48 125.07 159.59 129.33 161.35 135.07 C 159.83 137.70 158.51 140.45 156.81 142.97 C 154.16 142.44 151.24 141.52 148.84 143.36 C 145.04 137.34 144.72 129.77 144.11 122.85 Z" />
<path fill="#687c6d" opacity="0.89" d=" M 185.80 161.33 C 184.44 161.03 185.14 159.67 185.93 159.28 C 187.18 160.84 189.41 159.40 190.98 160.14 C 189.47 161.14 187.59 161.56 185.80 161.33 Z" />
<path fill="#818285" opacity="1.00" d=" M 18.80 194.71 C 33.93 182.09 53.16 175.83 71.91 170.83 C 73.77 177.19 75.74 183.53 78.21 189.68 C 70.62 191.94 62.64 193.59 55.85 197.86 C 53.38 199.77 50.26 202.16 50.36 205.61 C 52.05 210.28 56.83 212.85 61.08 214.83 C 85.28 223.92 111.37 225.73 136.90 227.81 C 168.38 228.65 200.02 229.09 231.35 225.40 C 248.53 223.23 265.96 220.71 282.00 213.86 C 285.68 211.72 290.51 209.03 290.57 204.18 C 289.75 201.45 287.32 199.62 285.23 197.86 C 277.63 193.20 268.70 191.61 260.34 188.89 C 262.47 186.72 266.48 185.92 268.71 188.36 C 271.90 191.94 278.17 191.84 281.29 188.23 C 284.31 184.71 285.74 180.06 289.24 176.90 C 302.01 181.75 314.97 187.42 324.82 197.19 C 329.17 201.69 332.68 207.50 332.77 213.92 C 332.85 219.21 330.57 224.28 327.29 228.33 C 322.10 234.69 315.21 239.39 308.03 243.24 C 283.79 255.71 256.71 261.26 229.92 265.03 C 199.77 268.94 169.29 269.71 139.01 267.75 C 120.82 266.57 102.64 264.29 84.78 260.57 C 63.44 255.92 41.78 249.85 23.53 237.45 C 16.72 232.40 9.89 225.88 8.48 217.13 C 7.00 208.34 12.42 200.20 18.80 194.71 Z" />
<path fill="#939598" opacity="1.00" d=" M 253.83 193.76 C 256.17 192.38 257.94 190.20 260.34 188.89 C 268.70 191.61 277.63 193.20 285.23 197.86 C 287.32 199.62 289.75 201.45 290.57 204.18 C 290.51 209.03 285.68 211.72 282.00 213.86 C 265.96 220.71 248.53 223.23 231.35 225.40 C 200.02 229.09 168.38 228.65 136.90 227.81 C 111.37 225.73 85.28 223.92 61.08 214.83 C 56.83 212.85 52.05 210.28 50.36 205.61 C 50.26 202.16 53.38 199.77 55.85 197.86 C 62.64 193.59 70.62 191.94 78.21 189.68 C 79.94 193.23 81.69 196.82 84.11 199.96 C 90.13 208.13 99.88 213.08 109.83 214.34 C 109.08 216.09 108.06 218.01 109.14 219.87 C 111.10 220.31 112.88 219.15 114.73 218.71 C 120.87 216.79 127.42 217.88 133.67 216.62 C 141.33 214.78 147.18 208.82 154.75 206.76 C 162.12 204.89 169.59 208.35 176.96 206.87 C 182.40 205.78 186.60 201.58 192.05 200.57 C 196.37 199.61 199.74 203.58 203.96 203.49 C 207.33 203.59 210.57 202.06 213.95 202.59 C 218.41 203.41 222.23 206.91 226.96 206.34 C 231.02 206.21 232.85 201.87 236.38 200.57 C 239.66 199.65 243.20 199.72 246.35 198.33 C 247.35 196.92 247.98 195.25 249.14 193.96 C 250.67 193.49 252.27 194.07 253.83 193.76 Z" />
</svg>
