<?xml version="1.0" encoding="UTF-8" ?>
<!DOCTYPE svg PUBLIC "-//W3C//DTD SVG 1.1//EN" "http://www.w3.org/Graphics/SVG/1.1/DTD/svg11.dtd">
<svg width="342pt" height="342pt" viewBox="0 0 342 342" version="1.1" xmlns="http://www.w3.org/2000/svg">
<path fill="#c49a6c" opacity="1.00" d=" M 105.97 106.89 C 112.00 103.45 119.12 102.94 125.88 102.12 C 132.93 101.89 139.97 100.92 147.00 101.42 C 157.14 101.56 167.16 103.42 176.98 105.85 C 177.41 105.80 178.27 105.70 178.70 105.64 C 189.63 108.36 200.59 111.17 211.01 115.50 C 224.93 120.05 238.76 125.67 250.58 134.47 C 252.87 136.44 255.79 137.40 258.19 139.22 L 257.32 139.84 C 248.41 138.73 239.47 137.82 230.57 136.69 C 231.20 133.07 226.85 131.71 224.07 132.95 C 222.17 130.13 218.33 127.70 215.47 130.77 C 213.71 128.96 211.45 127.75 208.86 128.18 C 208.20 129.07 207.56 129.97 206.94 130.88 C 205.92 131.24 204.90 131.59 203.89 131.95 C 203.41 132.90 202.92 133.84 202.47 134.80 C 202.31 134.46 202.01 133.80 201.85 133.46 C 199.01 132.85 195.92 133.17 193.27 131.85 C 190.61 129.84 189.35 126.57 187.69 123.78 C 188.89 122.04 189.47 120.00 189.31 117.89 C 188.68 117.15 188.05 116.41 187.43 115.67 C 187.60 114.80 187.79 113.93 187.99 113.07 C 186.57 110.48 183.45 110.03 180.79 110.32 C 180.04 109.04 179.81 107.01 178.01 106.81 C 176.05 106.53 174.14 107.10 172.28 107.61 C 171.40 105.05 168.77 103.67 166.23 104.96 C 164.99 106.63 163.02 107.49 161.69 109.03 C 161.19 111.02 161.72 113.04 161.96 115.03 C 161.46 117.16 159.58 118.76 159.33 121.02 C 159.86 122.11 160.49 123.15 161.23 124.13 C 161.00 125.62 160.85 127.13 160.76 128.65 C 141.20 126.33 121.62 124.23 102.08 121.79 C 99.10 121.34 98.98 117.88 98.68 115.53 C 99.25 111.37 103.12 109.40 105.97 106.89 M 194.15 113.04 C 193.32 116.28 189.49 117.56 189.28 121.07 C 188.67 125.88 193.23 130.56 198.07 130.02 C 201.18 130.21 203.27 127.36 204.46 124.87 L 204.59 125.49 C 210.35 126.67 216.24 127.07 221.99 128.32 C 226.14 129.10 230.18 130.39 234.37 130.93 C 226.77 122.96 215.51 120.59 205.20 118.22 L 205.31 116.73 C 204.46 116.81 202.76 116.95 201.91 117.02 C 199.74 114.76 196.19 115.56 194.15 113.04 Z" />
<path fill="#bf1e2e" opacity="1.00" d=" M 166.23 104.96 C 168.77 103.67 171.40 105.05 172.28 107.61 C 174.14 107.10 176.05 106.53 178.01 106.81 C 179.81 107.01 180.04 109.04 180.79 110.32 C 183.45 110.03 186.57 110.48 187.99 113.07 C 187.79 113.93 187.60 114.80 187.43 115.67 C 188.05 116.41 188.68 117.15 189.31 117.89 C 189.47 120.00 188.89 122.04 187.69 123.78 C 187.06 123.96 185.78 124.33 185.14 124.51 C 183.21 123.82 181.35 122.53 179.21 122.71 C 173.79 123.82 173.79 130.49 170.06 133.61 C 167.56 135.25 164.46 133.66 164.19 130.74 C 162.54 130.99 161.49 130.01 160.76 128.65 C 160.85 127.13 161.00 125.62 161.23 124.13 C 160.49 123.15 159.86 122.11 159.33 121.02 C 159.58 118.76 161.46 117.16 161.96 115.03 C 161.72 113.04 161.19 111.02 161.69 109.03 C 163.02 107.49 164.99 106.63 166.23 104.96 Z" />
<path fill="#262262" opacity="1.00" d=" M 194.15 113.04 C 196.19 115.56 199.74 114.76 201.91 117.02 C 202.76 116.95 204.46 116.81 205.31 116.73 L 205.20 118.22 C 204.72 118.48 203.76 118.99 203.28 119.24 C 204.30 120.97 204.74 122.87 204.46 124.87 C 203.27 127.36 201.18 130.21 198.07 130.02 C 193.23 130.56 188.67 125.88 189.28 121.07 C 189.49 117.56 193.32 116.28 194.15 113.04 Z" />
<path fill="#f9d5a5" opacity="1.00" d=" M 98.68 115.53 C 98.98 117.88 99.10 121.34 102.08 121.79 C 121.62 124.23 141.20 126.33 160.76 128.65 C 161.49 130.01 162.54 130.99 164.19 130.74 C 164.46 133.66 167.56 135.25 170.06 133.61 L 171.39 133.65 C 171.10 134.37 170.53 135.80 170.24 136.52 C 148.40 134.05 126.59 131.25 104.72 129.09 C 105.79 131.63 108.47 132.83 110.46 134.54 C 132.18 150.57 155.42 165.34 181.30 173.61 C 192.18 176.63 203.14 179.78 214.34 181.30 C 212.67 175.31 208.05 170.60 205.29 165.06 C 206.18 164.79 207.08 164.51 207.97 164.21 C 209.16 163.76 210.24 163.12 211.22 162.29 C 215.13 168.28 218.69 174.47 222.56 180.48 C 223.65 182.34 225.77 183.41 227.92 183.18 C 241.23 182.72 254.68 182.04 267.64 178.75 C 272.11 177.38 277.37 176.08 279.94 171.78 C 281.67 166.34 278.05 161.05 275.46 156.49 C 274.53 154.45 272.05 152.80 272.34 150.40 C 276.17 153.94 280.49 157.69 281.64 163.03 C 283.17 170.57 280.38 178.61 275.05 184.04 C 270.52 189.13 263.97 191.68 257.69 193.86 C 239.38 199.86 219.64 198.08 201.05 194.55 C 167.44 200.13 133.21 195.83 99.97 189.88 C 89.57 187.97 77.49 185.04 71.92 175.08 C 68.87 168.43 66.97 160.92 67.77 153.58 C 69.03 155.46 70.03 158.63 72.90 158.21 C 83.48 156.27 93.99 153.91 104.53 151.76 C 102.51 149.52 100.55 147.24 98.54 145.00 C 96.81 147.38 94.40 149.17 91.41 149.49 C 85.70 150.21 81.13 154.64 75.32 154.78 C 73.03 154.13 73.49 151.04 74.45 149.45 C 79.64 141.48 89.64 138.93 95.60 131.72 C 86.86 134.08 79.30 139.34 71.54 143.76 C 77.51 136.42 87.03 133.37 95.46 129.77 C 95.82 124.93 96.13 119.79 98.68 115.53 M 81.26 163.40 C 80.14 163.74 78.61 163.64 77.98 164.83 C 80.97 166.55 84.37 167.33 87.59 168.49 C 111.97 176.38 137.31 182.57 163.07 182.53 C 161.31 181.24 159.22 180.55 157.24 179.69 C 147.05 175.43 137.23 170.38 127.37 165.42 C 127.87 167.29 128.51 169.14 129.04 171.01 C 125.41 172.17 121.73 170.44 118.05 170.52 C 111.76 170.17 105.07 170.76 99.32 167.73 C 97.51 166.88 96.10 163.61 98.51 162.59 C 103.77 160.22 109.92 161.43 115.11 158.76 C 113.86 158.04 112.60 156.73 111.01 157.28 C 101.09 159.28 91.19 161.41 81.26 163.40 Z" />
<path fill="#f9d5a5" opacity="1.00" d=" M 205.20 118.22 C 215.51 120.59 226.77 122.96 234.37 130.93 C 230.18 130.39 226.14 129.10 221.99 128.32 C 216.24 127.07 210.35 126.67 204.59 125.49 L 204.46 124.87 C 204.74 122.87 204.30 120.97 203.28 119.24 C 203.76 118.99 204.72 118.48 205.20 118.22 Z" />
<path fill="#c49a6c" opacity="1.00" d=" M 170.06 133.61 C 173.79 130.49 173.79 123.82 179.21 122.71 C 180.51 125.14 182.22 127.36 183.21 129.94 C 182.88 130.38 182.22 131.26 181.89 131.70 C 180.46 131.14 178.98 130.72 177.48 130.46 C 176.87 129.52 176.05 129.00 175.02 128.90 C 174.40 130.89 173.15 132.53 171.39 133.65 L 170.06 133.61 Z" />
<path fill="#f9d5a5" opacity="1.00" d=" M 179.21 122.71 C 181.35 122.53 183.21 123.82 185.14 124.51 C 185.78 124.33 187.06 123.96 187.69 123.78 C 189.35 126.57 190.61 129.84 193.27 131.85 C 195.92 133.17 199.01 132.85 201.85 133.46 C 202.01 133.80 202.31 134.46 202.47 134.80 C 201.05 138.33 204.34 140.32 207.42 140.43 C 204.50 140.54 201.60 140.10 198.70 139.97 C 198.49 142.97 200.85 145.30 202.53 147.54 C 202.00 150.19 199.30 151.33 198.23 153.67 C 195.65 149.61 193.19 145.47 190.61 141.42 C 189.39 139.43 187.07 138.64 185.36 137.17 C 185.13 136.68 184.65 135.71 184.42 135.22 C 185.00 134.59 186.16 133.33 186.74 132.70 C 185.46 132.17 184.12 132.15 182.73 132.67 C 182.52 132.43 182.10 131.94 181.89 131.70 C 182.22 131.26 182.88 130.38 183.21 129.94 C 182.22 127.36 180.51 125.14 179.21 122.71 Z" />
<path fill="#c49a6c" opacity="1.00" d=" M 104.72 129.09 C 126.59 131.25 148.40 134.05 170.24 136.52 C 170.21 138.36 170.63 140.16 171.48 141.79 C 167.75 141.60 164.00 141.48 160.30 142.14 C 164.92 145.95 164.05 152.64 166.04 157.78 C 167.27 159.77 169.92 159.71 171.93 160.32 C 176.59 161.30 180.26 164.57 184.62 166.28 C 188.96 167.94 193.30 169.65 197.80 170.86 C 197.25 163.27 191.19 157.76 187.25 151.70 C 185.34 148.99 186.17 145.37 184.43 142.58 C 185.37 140.91 185.74 139.06 185.36 137.17 C 187.07 138.64 189.39 139.43 190.61 141.42 C 193.19 145.47 195.65 149.61 198.23 153.67 C 196.18 159.56 201.99 165.60 207.97 164.21 C 207.08 164.51 206.18 164.79 205.29 165.06 C 208.05 170.60 212.67 175.31 214.34 181.30 C 203.14 179.78 192.18 176.63 181.30 173.61 C 155.42 165.34 132.18 150.57 110.46 134.54 C 108.47 132.83 105.79 131.63 104.72 129.09 M 129.34 136.38 C 128.33 137.83 128.54 139.95 129.80 141.20 C 134.30 146.04 140.89 147.80 146.85 150.14 C 150.17 151.36 153.02 154.12 156.74 154.02 C 156.84 149.54 157.01 144.57 154.23 140.76 C 152.39 138.16 148.91 137.92 146.00 138.00 C 140.36 138.38 134.98 134.89 129.34 136.38 Z" />
<path fill="#262262" opacity="1.00" d=" M 175.02 128.90 C 176.05 129.00 176.87 129.52 177.48 130.46 C 178.98 130.72 180.46 131.14 181.89 131.70 C 182.10 131.94 182.52 132.43 182.73 132.67 C 184.12 132.15 185.46 132.17 186.74 132.70 C 186.16 133.33 185.00 134.59 184.42 135.22 C 184.65 135.71 185.13 136.68 185.36 137.17 C 185.74 139.06 185.37 140.91 184.43 142.58 C 181.45 147.29 174.15 146.24 171.48 141.79 C 170.63 140.16 170.21 138.36 170.24 136.52 C 170.53 135.80 171.10 134.37 171.39 133.65 C 173.15 132.53 174.40 130.89 175.02 128.90 Z" />
<path fill="#bf1e2e" opacity="1.00" d=" M 206.94 130.88 C 207.56 129.97 208.20 129.07 208.86 128.18 C 211.45 127.75 213.71 128.96 215.47 130.77 C 218.33 127.70 222.17 130.13 224.07 132.95 C 226.85 131.71 231.20 133.07 230.57 136.69 C 230.57 136.92 230.56 137.39 230.56 137.62 C 232.35 139.35 231.78 141.50 230.55 143.39 C 229.59 144.15 228.59 144.86 227.60 145.58 C 227.54 146.25 227.43 147.59 227.37 148.26 C 225.99 149.40 225.52 151.10 225.08 152.75 C 222.01 152.73 222.43 156.84 219.79 157.89 C 217.58 157.20 215.34 157.66 213.21 158.41 C 213.01 156.85 212.63 155.33 212.16 153.84 C 212.90 152.97 213.61 152.10 214.32 151.21 C 213.39 151.12 211.53 150.95 210.60 150.86 C 211.66 147.16 211.80 141.93 207.42 140.43 C 204.34 140.32 201.05 138.33 202.47 134.80 C 202.92 133.84 203.41 132.90 203.89 131.95 C 204.90 131.59 205.92 131.24 206.94 130.88 Z" />
<path fill="#c49a6c" opacity="1.00" d=" M 71.54 143.76 C 79.30 139.34 86.86 134.08 95.60 131.72 C 89.64 138.93 79.64 141.48 74.45 149.45 C 73.49 151.04 73.03 154.13 75.32 154.78 C 81.13 154.64 85.70 150.21 91.41 149.49 C 94.40 149.17 96.81 147.38 98.54 145.00 C 100.55 147.24 102.51 149.52 104.53 151.76 C 93.99 153.91 83.48 156.27 72.90 158.21 C 70.03 158.63 69.03 155.46 67.77 153.58 C 67.68 150.17 69.19 147.16 70.87 144.31 L 71.08 143.92 C 71.19 143.88 71.42 143.80 71.54 143.76 Z" />
<path fill="#f9d5a5" opacity="1.00" d=" M 129.34 136.38 C 134.98 134.89 140.36 138.38 146.00 138.00 C 148.91 137.92 152.39 138.16 154.23 140.76 C 157.01 144.57 156.84 149.54 156.74 154.02 C 153.02 154.12 150.17 151.36 146.85 150.14 C 140.89 147.80 134.30 146.04 129.80 141.20 C 128.54 139.95 128.33 137.83 129.34 136.38 Z" />
<path fill="#f9d5a5" opacity="1.00" d=" M 230.56 137.62 C 230.56 137.39 230.57 136.92 230.57 136.69 C 239.47 137.82 248.41 138.73 257.32 139.84 C 258.01 140.06 258.69 140.34 259.34 140.69 C 262.54 143.25 265.97 145.50 269.27 147.94 C 256.36 146.42 243.43 145.07 230.55 143.39 C 231.78 141.50 232.35 139.35 230.56 137.62 Z" />
<path fill="#c49a6c" opacity="1.00" d=" M 198.70 139.97 C 201.60 140.10 204.50 140.54 207.42 140.43 C 211.80 141.93 211.66 147.16 210.60 150.86 C 207.92 149.73 205.00 149.12 202.53 147.54 C 200.85 145.30 198.49 142.97 198.70 139.97 Z" />
<path fill="#f9d5a5" opacity="1.00" d=" M 160.30 142.14 C 164.00 141.48 167.75 141.60 171.48 141.79 C 174.15 146.24 181.45 147.29 184.43 142.58 C 186.17 145.37 185.34 148.99 187.25 151.70 C 191.19 157.76 197.25 163.27 197.80 170.86 C 193.30 169.65 188.96 167.94 184.62 166.28 C 180.26 164.57 176.59 161.30 171.93 160.32 C 169.92 159.71 167.27 159.77 166.04 157.78 C 164.05 152.64 164.92 145.95 160.30 142.14 Z" />
<path fill="#848588" opacity="1.00" d=" M 259.34 140.69 C 273.42 144.13 287.28 148.93 299.98 155.99 C 309.52 161.55 319.48 168.78 322.78 179.86 C 325.45 188.87 320.82 198.16 314.34 204.30 C 304.17 214.08 290.99 219.91 277.91 224.73 C 235.60 239.15 190.22 242.02 145.89 239.96 C 115.85 238.00 85.59 233.53 57.41 222.56 C 46.84 218.24 36.41 212.98 28.00 205.13 C 22.35 199.69 17.78 192.22 18.55 184.10 C 19.37 174.87 26.11 167.58 33.14 162.20 C 44.41 153.87 57.54 148.40 70.87 144.31 C 69.19 147.16 67.68 150.17 67.77 153.58 C 66.97 160.92 68.87 168.43 71.92 175.08 C 77.49 185.04 89.57 187.97 99.97 189.88 C 133.21 195.83 167.44 200.13 201.05 194.55 C 219.64 198.08 239.38 199.86 257.69 193.86 C 263.97 191.68 270.52 189.13 275.05 184.04 C 280.38 178.61 283.17 170.57 281.64 163.03 C 280.49 157.69 276.17 153.94 272.34 150.40 C 271.36 149.51 270.35 148.68 269.27 147.94 C 265.97 145.50 262.54 143.25 259.34 140.69 Z" />
<path fill="#c49a6c" opacity="1.00" d=" M 227.60 145.58 C 228.59 144.86 229.59 144.15 230.55 143.39 C 243.43 145.07 256.36 146.42 269.27 147.94 C 270.35 148.68 271.36 149.51 272.34 150.40 C 272.05 152.80 274.53 154.45 275.46 156.49 C 278.05 161.05 281.67 166.34 279.94 171.78 C 277.37 176.08 272.11 177.38 267.64 178.75 C 254.68 182.04 241.23 182.72 227.92 183.18 C 225.77 183.41 223.65 182.34 222.56 180.48 C 218.69 174.47 215.13 168.28 211.22 162.29 C 212.02 161.07 212.70 159.77 213.21 158.41 C 215.34 157.66 217.58 157.20 219.79 157.89 C 222.43 156.84 222.01 152.73 225.08 152.75 C 225.20 157.00 228.54 161.24 233.00 161.27 C 238.35 162.10 242.60 155.25 239.43 150.79 C 240.37 150.02 241.08 149.09 241.57 147.98 C 240.66 148.04 238.85 148.15 237.94 148.21 C 235.71 146.14 232.30 146.54 230.12 144.35 C 229.37 145.77 228.77 147.35 227.37 148.26 C 227.43 147.59 227.54 146.25 227.60 145.58 M 246.38 152.42 C 243.05 159.05 237.84 165.80 230.19 167.43 C 229.08 167.75 227.61 167.97 227.39 169.36 C 227.18 172.24 226.34 176.67 229.96 177.75 C 238.70 179.46 247.51 176.79 255.95 174.68 C 261.29 173.30 267.10 170.68 269.39 165.29 C 270.53 161.24 270.39 155.98 266.98 153.03 C 263.36 151.01 259.02 151.85 255.07 151.95 C 252.18 152.33 249.11 151.05 246.38 152.42 Z" />
<path fill="#262262" opacity="1.00" d=" M 230.12 144.35 C 232.30 146.54 235.71 146.14 237.94 148.21 C 238.85 148.15 240.66 148.04 241.57 147.98 C 241.08 149.09 240.37 150.02 239.43 150.79 C 242.60 155.25 238.35 162.10 233.00 161.27 C 228.54 161.24 225.20 157.00 225.08 152.75 C 225.52 151.10 225.99 149.40 227.37 148.26 C 228.77 147.35 229.37 145.77 230.12 144.35 Z" />
<path fill="#262262" opacity="1.00" d=" M 202.53 147.54 C 205.00 149.12 207.92 149.73 210.60 150.86 C 211.53 150.95 213.39 151.12 214.32 151.21 C 213.61 152.10 212.90 152.97 212.16 153.84 C 212.63 155.33 213.01 156.85 213.21 158.41 C 212.70 159.77 212.02 161.07 211.22 162.29 C 210.24 163.12 209.16 163.76 207.97 164.21 C 201.99 165.60 196.18 159.56 198.23 153.67 C 199.30 151.33 202.00 150.19 202.53 147.54 Z" />
<path fill="#f9d5a5" opacity="1.00" d=" M 246.38 152.42 C 249.11 151.05 252.18 152.33 255.07 151.95 C 259.02 151.85 263.36 151.01 266.98 153.03 C 270.39 155.98 270.53 161.24 269.39 165.29 C 267.10 170.68 261.29 173.30 255.95 174.68 C 247.51 176.79 238.70 179.46 229.96 177.75 C 226.34 176.67 227.18 172.24 227.39 169.36 C 227.61 167.97 229.08 167.75 230.19 167.43 C 237.84 165.80 243.05 159.05 246.38 152.42 Z" />
<path fill="#c49a6c" opacity="1.00" d=" M 81.26 163.40 C 91.19 161.41 101.09 159.28 111.01 157.28 C 112.60 156.73 113.86 158.04 115.11 158.76 C 109.92 161.43 103.77 160.22 98.51 162.59 C 96.10 163.61 97.51 166.88 99.32 167.73 C 105.07 170.76 111.76 170.17 118.05 170.52 C 121.73 170.44 125.41 172.17 129.04 171.01 C 128.51 169.14 127.87 167.29 127.37 165.42 C 137.23 170.38 147.05 175.43 157.24 179.69 C 159.22 180.55 161.31 181.24 163.07 182.53 C 137.31 182.57 111.97 176.38 87.59 168.49 C 84.37 167.33 80.97 166.55 77.98 164.83 C 78.61 163.64 80.14 163.74 81.26 163.40 Z" />
</svg>
