<?xml version="1.0" encoding="UTF-8" ?>
<!DOCTYPE svg PUBLIC "-//W3C//DTD SVG 1.1//EN" "http://www.w3.org/Graphics/SVG/1.1/DTD/svg11.dtd">
<svg width="47pt" height="47pt" viewBox="0 0 47 47" version="1.1" xmlns="http://www.w3.org/2000/svg">
<path fill="#231f20" opacity="1.00" d=" M 20.08 5.67 C 20.58 5.96 21.57 6.52 22.07 6.80 L 23.03 5.05 L 24.38 6.60 C 24.79 6.23 25.61 5.48 26.02 5.11 L 26.92 6.80 C 27.42 6.52 28.42 5.96 28.92 5.68 L 29.24 7.55 C 29.79 7.37 30.88 7.01 31.43 6.83 C 31.48 7.39 31.57 8.50 31.61 9.06 C 32.13 8.87 33.15 8.50 33.66 8.31 C 33.60 8.83 33.47 9.86 33.40 10.38 C 33.94 10.43 35.01 10.54 35.55 10.60 C 35.41 11.13 35.13 12.21 34.99 12.74 C 35.50 12.80 36.54 12.90 37.05 12.95 C 36.78 13.41 36.24 14.33 35.97 14.79 C 36.37 14.94 37.18 15.24 37.58 15.39 C 37.70 16.20 37.94 17.82 38.06 18.64 C 37.68 18.92 36.94 19.49 36.57 19.78 C 36.88 20.18 37.51 20.99 37.82 21.39 C 37.36 21.60 36.44 22.03 35.98 22.24 C 36.24 22.69 36.77 23.57 37.04 24.02 C 36.53 24.10 35.53 24.25 35.03 24.33 C 35.13 24.76 35.34 25.62 35.44 26.05 C 34.20 26.89 33.02 27.81 31.90 28.80 C 32.96 33.33 33.86 37.90 34.87 42.44 C 33.45 41.82 32.04 41.19 30.63 40.57 C 29.62 41.73 28.61 42.88 27.60 44.03 C 26.51 39.36 25.60 34.64 24.51 29.96 C 23.39 34.64 22.49 39.36 21.40 44.03 C 20.39 42.88 19.38 41.73 18.37 40.57 C 16.96 41.19 15.55 41.82 14.13 42.44 C 15.14 37.90 16.04 33.33 17.10 28.80 C 15.98 27.81 14.80 26.89 13.56 26.05 C 13.66 25.62 13.87 24.76 13.97 24.33 C 13.47 24.26 12.47 24.10 11.97 24.02 C 12.23 23.57 12.76 22.67 13.02 22.23 C 12.57 22.03 11.67 21.65 11.22 21.46 C 11.52 21.00 12.11 20.10 12.41 19.65 L 10.95 18.79 C 12.08 17.81 12.23 16.69 11.40 15.42 C 11.81 15.26 12.62 14.94 13.03 14.78 C 12.76 14.32 12.22 13.41 11.95 12.95 C 12.46 12.90 13.50 12.80 14.01 12.74 C 13.87 12.21 13.59 11.13 13.45 10.60 C 13.99 10.54 15.06 10.43 15.59 10.38 C 15.53 9.86 15.40 8.83 15.34 8.31 C 15.85 8.50 16.87 8.87 17.39 9.06 C 17.43 8.50 17.52 7.39 17.57 6.84 C 18.12 7.01 19.21 7.37 19.76 7.55 L 20.08 5.67 M 23.34 12.26 C 20.28 12.92 19.27 17.39 21.85 19.22 C 23.92 21.14 27.42 20.12 28.37 17.56 C 29.72 14.61 26.32 11.10 23.34 12.26 M 20.75 20.07 C 19.91 22.05 19.95 24.22 19.96 26.33 C 22.98 26.58 26.02 26.57 29.05 26.33 C 29.05 24.22 29.09 22.05 28.25 20.07 C 25.85 21.25 23.14 21.28 20.75 20.07 Z" />
</svg>
