<?xml version="1.0" encoding="UTF-8" ?>
<!DOCTYPE svg PUBLIC "-//W3C//DTD SVG 1.1//EN" "http://www.w3.org/Graphics/SVG/1.1/DTD/svg11.dtd">
<svg width="60pt" height="60pt" viewBox="0 0 60 60" version="1.1" xmlns="http://www.w3.org/2000/svg">
<path fill="#231f20" opacity="1.00" d=" M 26.27 7.32 C 33.80 5.93 41.99 8.00 47.54 13.38 C 57.34 22.12 57.61 38.99 48.12 48.05 C 39.44 57.19 23.46 57.45 14.47 48.62 C 5.41 40.51 4.36 25.33 12.08 15.97 C 15.59 11.52 20.71 8.40 26.27 7.32 M 25.43 11.66 C 18.66 13.56 13.13 19.28 11.48 26.11 C 9.61 32.80 11.85 40.36 16.78 45.20 C 21.61 50.16 29.17 52.35 35.88 50.53 C 42.95 48.82 48.81 42.96 50.52 35.89 C 52.35 29.20 50.17 21.65 45.23 16.81 C 40.23 11.66 32.31 9.52 25.43 11.66 Z" />
<path fill="#231f20" opacity="1.00" d=" M 35.87 13.63 C 36.28 14.99 36.71 16.34 37.11 17.71 C 37.61 16.90 38.62 15.29 39.12 14.48 C 38.84 16.66 38.16 18.76 37.05 20.67 C 36.63 19.35 36.22 18.02 35.83 16.69 C 35.33 17.48 34.35 19.05 33.85 19.83 C 34.24 17.68 35.01 15.63 35.87 13.63 Z" />
<path fill="#231f20" opacity="1.00" d=" M 27.81 33.92 C 29.96 29.56 32.29 25.28 34.88 21.15 C 34.31 25.52 33.92 29.92 33.05 34.24 C 32.90 36.27 30.64 36.81 29.23 37.77 C 28.76 36.49 28.28 35.20 27.81 33.92 Z" />
</svg>
