<?xml version="1.0" encoding="UTF-8" ?>
<!DOCTYPE svg PUBLIC "-//W3C//DTD SVG 1.1//EN" "http://www.w3.org/Graphics/SVG/1.1/DTD/svg11.dtd">
<svg width="60pt" height="60pt" viewBox="0 0 60 60" version="1.1" xmlns="http://www.w3.org/2000/svg">
<path fill="#231f20" opacity="1.00" d=" M 6.48 14.91 C 6.10 10.34 10.41 6.07 14.98 6.48 C 25.65 6.51 36.33 6.51 47.01 6.48 C 51.62 6.06 55.96 10.41 55.52 15.02 C 55.47 22.99 55.53 30.97 55.49 38.94 C 55.47 43.40 51.16 46.91 46.84 46.73 C 36.24 46.76 25.63 46.77 15.03 46.72 C 11.94 49.45 9.19 52.53 6.52 55.66 C 6.46 42.07 6.54 28.49 6.48 14.91 M 19.25 16.00 C 19.25 23.00 19.25 30.00 19.25 37.00 C 20.66 36.99 22.07 36.99 23.49 37.01 C 23.50 35.80 23.51 34.60 23.51 33.40 C 24.74 34.59 25.93 35.81 27.15 37.00 C 32.35 36.99 37.55 37.01 42.75 36.99 C 42.75 32.16 42.75 27.34 42.76 22.51 C 40.26 22.52 37.76 22.48 35.26 22.51 C 35.26 20.34 35.24 18.17 35.25 16.00 C 33.83 16.01 32.42 16.01 31.01 15.99 C 31.01 18.16 30.99 20.33 30.99 22.49 C 29.76 22.51 28.54 22.52 27.32 22.53 C 26.05 23.80 24.79 25.08 23.50 26.34 C 23.49 22.89 23.50 19.44 23.49 15.99 C 22.08 16.01 20.66 16.02 19.25 16.00 Z" />
<path fill="#231f20" opacity="1.00" d=" M 25.91 29.77 C 27.57 27.97 29.27 26.21 30.89 24.38 C 30.93 25.03 31.01 26.35 31.05 27.00 C 33.54 26.99 36.02 27.01 38.50 27.00 C 38.50 28.83 38.49 30.67 38.50 32.50 C 36.04 32.50 33.58 32.51 31.12 32.47 C 31.05 33.06 30.93 34.23 30.87 34.81 C 29.22 33.13 27.60 31.42 25.91 29.77 Z" />
</svg>
