<?xml version="1.0" encoding="UTF-8" ?>
<!DOCTYPE svg PUBLIC "-//W3C//DTD SVG 1.1//EN" "http://www.w3.org/Graphics/SVG/1.1/DTD/svg11.dtd">
<svg width="60pt" height="60pt" viewBox="0 0 60 60" version="1.1" xmlns="http://www.w3.org/2000/svg">
<path fill="#231f20" opacity="1.00" d=" M 39.19 10.11 C 41.60 7.98 43.64 5.13 46.92 4.33 C 43.35 9.21 38.81 13.26 34.85 17.81 L 36.15 18.94 C 40.74 15.04 44.49 10.00 49.89 7.14 C 46.99 12.32 41.93 15.76 38.42 20.47 C 38.46 20.94 38.53 21.89 38.57 22.36 C 43.63 18.62 47.30 13.14 52.95 10.21 C 49.86 15.41 45.01 19.21 41.09 23.74 C 41.46 24.21 41.84 24.67 42.21 25.14 C 46.69 21.12 50.76 16.62 55.65 13.07 C 55.06 15.92 52.68 17.75 50.83 19.79 C 47.97 22.60 45.55 25.88 42.27 28.23 C 40.07 29.79 37.29 29.09 34.83 28.80 C 33.62 30.09 32.42 31.39 31.24 32.70 C 36.53 37.39 41.76 42.17 47.08 46.84 C 48.50 48.25 50.67 49.74 49.97 52.07 C 49.65 55.42 44.77 56.89 42.72 54.20 C 37.43 48.63 32.49 42.73 27.18 37.17 C 22.40 42.40 17.74 47.77 12.88 52.93 C 11.07 55.09 6.95 54.69 5.95 51.93 C 4.82 50.02 5.93 47.77 7.49 46.50 C 12.09 42.32 16.76 38.20 21.37 34.03 C 15.71 27.61 10.07 21.17 4.29 14.86 C 4.54 13.16 4.57 11.11 6.30 10.18 C 8.09 9.90 9.24 11.52 10.48 12.50 C 16.12 17.89 21.84 23.19 27.48 28.58 C 28.69 27.44 29.90 26.32 31.11 25.19 C 30.92 22.71 30.20 19.92 31.73 17.69 C 33.73 14.73 36.68 12.60 39.19 10.11 Z" />
</svg>
