<?xml version="1.0" encoding="UTF-8" ?>
<!DOCTYPE svg PUBLIC "-//W3C//DTD SVG 1.1//EN" "http://www.w3.org/Graphics/SVG/1.1/DTD/svg11.dtd">
<svg width="342pt" height="342pt" viewBox="0 0 342 342" version="1.1" xmlns="http://www.w3.org/2000/svg">
<path fill="#c49a6c" opacity="1.00" d=" M 118.04 78.50 C 146.55 71.26 176.49 70.04 205.59 74.13 C 226.67 77.20 247.58 83.20 266.12 93.86 C 278.46 101.13 290.15 110.77 296.47 123.92 C 299.76 130.74 301.20 138.52 300.24 146.06 C 299.50 152.84 295.43 159.12 289.28 162.20 C 279.06 167.45 267.22 167.67 255.99 168.01 C 228.30 167.93 200.70 164.90 173.00 165.25 C 149.61 164.96 126.28 167.01 102.92 167.78 C 89.95 168.15 76.72 168.47 64.06 165.25 C 55.97 163.26 48.06 157.86 45.98 149.37 C 43.72 139.93 45.77 129.81 50.43 121.41 C 55.84 111.56 64.33 103.78 73.57 97.56 C 87.09 88.58 102.39 82.58 118.04 78.50 M 141.83 91.88 C 139.67 93.47 140.15 97.48 143.00 97.86 C 148.05 98.30 152.36 95.01 156.12 92.06 C 151.66 90.33 146.04 88.71 141.83 91.88 M 169.86 104.00 C 170.74 106.57 175.25 106.76 175.95 103.96 C 177.61 99.20 175.18 94.31 173.62 89.87 C 170.70 93.84 167.75 98.99 169.86 104.00 M 192.90 92.32 C 195.97 94.59 199.17 96.99 203.01 97.72 C 204.64 98.02 206.60 98.14 207.87 96.83 C 208.55 95.05 208.38 92.50 206.58 91.45 C 202.33 89.02 197.00 90.10 192.90 92.32 M 116.19 101.03 C 115.03 103.54 117.74 106.75 120.36 105.46 C 124.84 103.36 127.20 98.56 128.98 94.19 C 124.25 95.08 118.16 95.88 116.19 101.03 M 219.98 94.13 C 221.56 98.64 224.11 103.20 228.44 105.55 C 231.48 106.89 234.23 102.96 232.49 100.33 C 229.95 95.95 224.50 95.11 219.98 94.13 M 126.36 114.25 C 125.28 116.86 128.56 119.65 130.92 118.11 C 135.10 115.79 137.36 111.25 139.15 107.00 C 134.30 107.72 128.01 108.83 126.36 114.25 M 209.81 107.05 C 211.30 110.89 213.30 114.73 216.64 117.28 C 217.85 118.12 219.54 119.13 220.98 118.19 C 223.04 117.07 223.11 114.07 221.76 112.37 C 219.20 108.37 214.08 107.78 209.81 107.05 M 185.99 110.31 C 187.67 114.25 189.84 118.14 193.21 120.88 C 194.41 122.00 196.21 122.18 197.71 121.60 C 199.86 119.92 199.23 116.38 197.35 114.72 C 194.35 111.73 189.92 111.24 185.99 110.31 M 150.08 116.97 C 148.83 119.49 151.07 122.94 153.98 121.82 C 158.43 119.79 160.90 115.07 162.49 110.67 C 157.84 111.04 152.25 112.32 150.08 116.97 M 103.02 123.01 C 101.85 125.50 104.78 128.73 107.32 127.34 C 111.78 125.20 113.92 120.38 115.87 116.11 C 111.05 116.80 105.04 117.91 103.02 123.01 M 233.06 116.10 C 235.08 120.56 237.36 125.81 242.33 127.57 C 245.18 128.24 247.05 124.59 245.57 122.32 C 243.21 117.74 237.63 116.92 233.06 116.10 Z" />
<path fill="#c2b59b" opacity="1.00" d=" M 141.83 91.88 C 146.04 88.71 151.66 90.33 156.12 92.06 C 152.36 95.01 148.05 98.30 143.00 97.86 C 140.15 97.48 139.67 93.47 141.83 91.88 Z" />
<path fill="#c2b59b" opacity="1.00" d=" M 169.86 104.00 C 167.75 98.99 170.70 93.84 173.62 89.87 C 175.18 94.31 177.61 99.20 175.95 103.96 C 175.25 106.76 170.74 106.57 169.86 104.00 Z" />
<path fill="#c2b59b" opacity="1.00" d=" M 192.90 92.32 C 197.00 90.10 202.33 89.02 206.58 91.45 C 208.38 92.50 208.55 95.05 207.87 96.83 C 206.60 98.14 204.64 98.02 203.01 97.72 C 199.17 96.99 195.97 94.59 192.90 92.32 Z" />
<path fill="#c2b59b" opacity="1.00" d=" M 116.19 101.03 C 118.16 95.88 124.25 95.08 128.98 94.19 C 127.20 98.56 124.84 103.36 120.36 105.46 C 117.74 106.75 115.03 103.54 116.19 101.03 Z" />
<path fill="#c2b59b" opacity="1.00" d=" M 219.98 94.13 C 224.50 95.11 229.95 95.95 232.49 100.33 C 234.23 102.96 231.48 106.89 228.44 105.55 C 224.11 103.20 221.56 98.64 219.98 94.13 Z" />
<path fill="#c2b59b" opacity="1.00" d=" M 126.36 114.25 C 128.01 108.83 134.30 107.72 139.15 107.00 C 137.36 111.25 135.10 115.79 130.92 118.11 C 128.56 119.65 125.28 116.86 126.36 114.25 Z" />
<path fill="#c2b59b" opacity="1.00" d=" M 209.81 107.05 C 214.08 107.78 219.20 108.37 221.76 112.37 C 223.11 114.07 223.04 117.07 220.98 118.19 C 219.54 119.13 217.85 118.12 216.64 117.28 C 213.30 114.73 211.30 110.89 209.81 107.05 Z" />
<path fill="#c2b59b" opacity="1.00" d=" M 185.99 110.31 C 189.92 111.24 194.35 111.73 197.35 114.72 C 199.23 116.38 199.86 119.92 197.71 121.60 C 196.21 122.18 194.41 122.00 193.21 120.88 C 189.84 118.14 187.67 114.25 185.99 110.31 Z" />
<path fill="#c2b59b" opacity="1.00" d=" M 150.08 116.97 C 152.25 112.32 157.84 111.04 162.49 110.67 C 160.90 115.07 158.43 119.79 153.98 121.82 C 151.07 122.94 148.83 119.49 150.08 116.97 Z" />
<path fill="#c2b59b" opacity="1.00" d=" M 103.02 123.01 C 105.04 117.91 111.05 116.80 115.87 116.11 C 113.92 120.38 111.78 125.20 107.32 127.34 C 104.78 128.73 101.85 125.50 103.02 123.01 Z" />
<path fill="#c2b59b" opacity="1.00" d=" M 233.06 116.10 C 237.63 116.92 243.21 117.74 245.57 122.32 C 247.05 124.59 245.18 128.24 242.33 127.57 C 237.36 125.81 235.08 120.56 233.06 116.10 Z" />
<path fill="#0b9444" opacity="1.00" d=" M 300.24 146.06 C 305.18 149.15 310.42 152.35 313.48 157.49 C 316.67 162.99 317.02 170.57 312.93 175.72 L 312.75 176.00 C 309.38 177.56 305.67 178.21 301.98 177.92 C 292.24 177.39 282.47 176.80 272.72 177.62 C 266.77 178.21 260.88 176.92 255.18 175.36 C 250.06 173.96 244.73 172.97 239.43 173.75 C 234.51 174.99 230.08 177.71 225.10 178.71 C 218.11 180.11 211.33 175.57 204.36 177.49 C 198.97 179.01 193.83 181.89 188.06 181.56 C 183.27 180.90 178.78 179.07 174.09 178.00 C 165.69 176.55 157.39 179.40 149.00 179.41 C 144.26 179.43 139.75 177.74 135.06 177.40 C 130.53 177.03 126.29 179.03 122.36 181.03 C 119.05 182.74 115.47 183.88 111.78 184.38 C 105.36 183.64 99.72 180.30 93.61 178.52 C 86.98 176.60 80.56 180.51 73.91 180.00 C 65.93 179.94 59.69 173.76 51.80 173.27 C 48.15 173.95 44.68 175.32 41.26 176.72 C 37.42 178.32 32.67 179.54 28.94 177.01 C 25.48 174.63 25.56 169.72 27.35 166.32 C 31.19 158.61 38.36 153.07 45.98 149.37 C 48.06 157.86 55.97 163.26 64.06 165.25 C 76.72 168.47 89.95 168.15 102.92 167.78 C 126.28 167.01 149.61 164.96 173.00 165.25 C 200.70 164.90 228.30 167.93 255.99 168.01 C 267.22 167.67 279.06 167.45 289.28 162.20 C 295.43 159.12 299.50 152.84 300.24 146.06 Z" />
<path fill="#f7941e" opacity="1.00" d=" M 41.26 176.72 C 44.68 175.32 48.15 173.95 51.80 173.27 C 51.53 176.05 50.79 179.15 52.50 181.64 C 54.69 185.26 59.29 185.86 63.11 186.32 C 77.13 187.72 91.36 191.96 105.42 188.48 C 108.02 188.02 110.03 186.25 111.78 184.38 C 115.47 183.88 119.05 182.74 122.36 181.03 C 120.47 182.59 118.50 184.16 117.12 186.21 C 116.31 189.15 119.36 191.51 122.08 191.37 C 127.77 191.40 133.25 189.04 138.98 189.61 C 149.20 190.18 159.99 193.88 169.93 189.93 C 174.71 187.92 174.06 182.23 174.09 178.00 C 178.78 179.07 183.27 180.90 188.06 181.56 C 186.97 184.16 184.64 186.92 185.81 189.87 C 187.53 193.36 191.44 195.14 195.13 195.60 C 201.41 196.28 207.67 195.01 213.91 194.48 C 222.64 193.58 231.57 193.01 239.88 189.98 C 242.40 189.00 245.97 187.23 245.21 183.93 C 243.50 180.39 239.81 177.95 239.43 173.75 C 244.73 172.97 250.06 173.96 255.18 175.36 C 254.52 179.47 249.91 184.54 253.78 188.19 C 258.61 191.99 265.24 190.89 270.95 190.70 C 283.30 189.85 296.68 192.08 308.02 185.99 C 311.76 184.08 312.69 179.84 312.75 176.00 L 312.93 175.72 C 314.64 178.81 316.64 182.28 315.50 185.95 C 314.31 189.01 310.79 189.97 307.95 190.83 C 292.61 194.81 276.66 194.55 261.01 196.26 C 198.44 202.13 135.56 198.12 72.98 194.75 C 63.46 194.02 53.89 195.70 44.41 194.10 C 41.09 193.59 36.71 191.99 36.29 188.11 C 35.96 183.74 39.07 180.19 41.26 176.72 Z" />
<path fill="#bf1e2e" opacity="1.00" d=" M 51.80 173.27 C 59.69 173.76 65.93 179.94 73.91 180.00 C 80.56 180.51 86.98 176.60 93.61 178.52 C 99.72 180.30 105.36 183.64 111.78 184.38 C 110.03 186.25 108.02 188.02 105.42 188.48 C 91.36 191.96 77.13 187.72 63.11 186.32 C 59.29 185.86 54.69 185.26 52.50 181.64 C 50.79 179.15 51.53 176.05 51.80 173.27 Z" />
<path fill="#bf1e2e" opacity="1.00" d=" M 225.10 178.71 C 230.08 177.71 234.51 174.99 239.43 173.75 C 239.81 177.95 243.50 180.39 245.21 183.93 C 245.97 187.23 242.40 189.00 239.88 189.98 C 231.57 193.01 222.64 193.58 213.91 194.48 C 207.67 195.01 201.41 196.28 195.13 195.60 C 191.44 195.14 187.53 193.36 185.81 189.87 C 184.64 186.92 186.97 184.16 188.06 181.56 C 193.83 181.89 198.97 179.01 204.36 177.49 C 211.33 175.57 218.11 180.11 225.10 178.71 Z" />
<path fill="#bf1e2e" opacity="1.00" d=" M 255.18 175.36 C 260.88 176.92 266.77 178.21 272.72 177.62 C 282.47 176.80 292.24 177.39 301.98 177.92 C 305.67 178.21 309.38 177.56 312.75 176.00 C 312.69 179.84 311.76 184.08 308.02 185.99 C 296.68 192.08 283.30 189.85 270.95 190.70 C 265.24 190.89 258.61 191.99 253.78 188.19 C 249.91 184.54 254.52 179.47 255.18 175.36 Z" />
<path fill="#bf1e2e" opacity="1.00" d=" M 122.36 181.03 C 126.29 179.03 130.53 177.03 135.06 177.40 C 139.75 177.74 144.26 179.43 149.00 179.41 C 157.39 179.40 165.69 176.55 174.09 178.00 C 174.06 182.23 174.71 187.92 169.93 189.93 C 159.99 193.88 149.20 190.18 138.98 189.61 C 133.25 189.04 127.77 191.40 122.08 191.37 C 119.36 191.51 116.31 189.15 117.12 186.21 C 118.50 184.16 120.47 182.59 122.36 181.03 Z" />
<path fill="#603813" opacity="1.00" d=" M 261.01 196.26 C 276.66 194.55 292.61 194.81 307.95 190.83 C 310.87 196.05 310.20 202.92 308.76 208.65 C 307.23 211.81 304.44 214.30 300.97 215.09 C 292.41 217.33 283.54 218.23 274.71 218.64 C 261.50 219.20 248.31 220.15 235.10 220.83 C 225.70 221.25 216.42 223.38 206.98 222.90 C 179.70 221.06 152.33 222.31 125.04 220.49 C 114.35 219.46 103.74 222.14 93.05 221.41 C 83.01 220.65 72.87 220.31 63.01 218.12 C 58.11 216.99 52.56 216.89 48.59 213.41 C 46.45 211.72 45.72 208.99 45.27 206.43 C 44.55 202.33 46.38 197.94 44.41 194.10 C 53.89 195.70 63.46 194.02 72.98 194.75 C 135.56 198.12 198.44 202.13 261.01 196.26 Z" />
<path fill="#e17926" opacity="1.00" d=" M 27.62 222.50 C 31.44 215.31 38.13 210.09 45.27 206.43 C 45.72 208.99 46.45 211.72 48.59 213.41 C 52.56 216.89 58.11 216.99 63.01 218.12 C 72.87 220.31 83.01 220.65 93.05 221.41 C 103.74 222.14 114.35 219.46 125.04 220.49 C 152.33 222.31 179.70 221.06 206.98 222.90 C 216.42 223.38 225.70 221.25 235.10 220.83 C 248.31 220.15 261.50 219.20 274.71 218.64 C 283.54 218.23 292.41 217.33 300.97 215.09 C 304.44 214.30 307.23 211.81 308.76 208.65 C 312.55 212.06 315.65 216.65 315.83 221.89 C 316.12 225.82 315.51 230.61 311.87 232.91 C 307.40 235.61 301.98 234.52 297.06 234.40 C 288.05 233.80 279.03 233.90 270.02 234.44 C 260.41 234.89 251.57 229.62 241.96 230.27 C 235.54 230.63 230.19 234.91 223.85 235.63 C 218.13 236.23 212.70 233.44 206.99 233.81 C 201.11 234.40 196.00 238.16 190.01 238.24 C 183.45 238.43 177.57 234.81 171.09 234.40 C 163.01 233.82 155.13 236.70 147.05 236.06 C 142.01 235.71 137.13 233.63 132.02 234.24 C 125.25 235.13 119.85 240.30 112.99 240.83 C 104.43 241.41 97.47 234.65 88.98 234.74 C 83.60 235.05 78.42 237.32 72.96 236.72 C 66.83 236.38 61.80 232.48 56.06 230.80 C 49.69 228.64 43.92 232.99 38.00 234.60 C 34.53 235.75 30.06 235.49 27.59 232.48 C 25.29 229.61 26.01 225.53 27.62 222.50 Z" />
<path fill="#c49a6c" opacity="1.00" d=" M 223.85 235.63 C 230.19 234.91 235.54 230.63 241.96 230.27 C 251.57 229.62 260.41 234.89 270.02 234.44 C 279.03 233.90 288.05 233.80 297.06 234.40 C 299.75 238.68 301.23 243.88 300.24 248.93 C 298.98 257.23 291.48 264.11 283.06 264.46 C 247.08 266.84 211.08 269.36 175.02 270.26 C 138.57 269.45 102.19 266.84 65.82 264.46 C 56.40 264.05 48.19 255.48 48.45 246.00 C 48.25 240.22 50.87 233.59 56.06 230.80 C 61.80 232.48 66.83 236.38 72.96 236.72 C 78.42 237.32 83.60 235.05 88.98 234.74 C 97.47 234.65 104.43 241.41 112.99 240.83 C 119.85 240.30 125.25 235.13 132.02 234.24 C 137.13 233.63 142.01 235.71 147.05 236.06 C 155.13 236.70 163.01 233.82 171.09 234.40 C 177.57 234.81 183.45 238.43 190.01 238.24 C 196.00 238.16 201.11 234.40 206.99 233.81 C 212.70 233.44 218.13 236.23 223.85 235.63 Z" />
</svg>
