<?xml version="1.0" encoding="UTF-8" ?>
<!DOCTYPE svg PUBLIC "-//W3C//DTD SVG 1.1//EN" "http://www.w3.org/Graphics/SVG/1.1/DTD/svg11.dtd">
<svg width="342pt" height="342pt" viewBox="0 0 342 342" version="1.1" xmlns="http://www.w3.org/2000/svg">
<path fill="#c2b59b" opacity="1.00" d=" M 28.98 84.02 C 69.89 62.98 115.86 50.43 162.07 52.05 C 202.32 53.88 241.83 65.57 277.51 84.06 C 277.18 85.34 276.94 86.63 276.80 87.95 C 276.35 101.17 274.52 114.31 272.12 127.31 C 275.53 122.24 280.29 117.93 286.10 115.84 C 296.11 111.96 308.52 115.31 314.94 124.00 C 320.16 130.69 320.66 140.09 317.83 147.88 C 314.41 157.45 307.33 165.30 299.21 171.22 C 291.12 177.07 281.84 181.48 271.95 183.13 C 266.09 184.02 259.77 183.91 254.44 181.02 C 253.54 182.79 252.61 184.55 251.67 186.30 C 247.89 193.48 243.35 200.24 238.24 206.54 C 224.17 224.44 204.13 237.65 181.88 242.77 C 160.20 247.72 137.06 247.19 115.87 240.26 C 98.46 234.57 82.91 223.75 71.01 209.88 C 65.72 203.77 61.08 197.11 56.99 190.15 C 38.88 158.64 31.45 122.09 29.47 86.13 C 29.35 85.61 29.10 84.55 28.98 84.02 M 36.80 84.81 C 35.86 85.02 34.05 86.26 35.97 86.77 C 75.27 105.97 119.05 117.18 162.96 115.40 C 200.86 113.55 238.11 102.92 271.99 86.00 C 233.42 66.66 190.31 55.28 147.00 56.26 C 108.76 57.59 71.10 68.05 36.80 84.81 M 274.52 135.60 C 273.52 137.10 271.59 136.32 270.14 136.48 C 267.99 145.32 265.48 154.09 262.32 162.62 C 268.65 161.76 275.35 161.39 280.92 157.90 C 287.63 154.26 293.08 147.00 292.20 139.06 C 291.95 134.71 288.76 130.10 284.07 130.05 C 280.20 130.26 277.06 132.91 274.52 135.60 Z" />
<path fill="#c49a6c" opacity="1.00" d=" M 238.24 206.54 C 243.35 200.24 247.89 193.48 251.67 186.30 C 265.15 191.98 278.71 199.22 287.87 210.97 C 292.70 217.18 295.65 225.19 294.54 233.11 C 293.64 240.54 289.51 247.17 284.41 252.47 C 276.24 261.09 265.67 266.93 254.93 271.74 C 228.16 283.13 198.97 287.71 170.04 288.90 C 138.41 289.83 106.33 286.90 76.13 277.01 C 63.13 272.63 50.36 266.96 39.44 258.55 C 32.54 253.05 26.26 246.16 23.59 237.58 C 21.03 229.27 22.95 220.03 27.87 212.96 C 34.97 202.59 45.90 195.62 56.99 190.15 C 61.08 197.11 65.72 203.77 71.01 209.88 C 66.50 212.55 61.81 215.54 59.25 220.28 C 57.01 224.37 57.83 229.66 60.81 233.16 C 65.32 238.68 71.98 241.80 78.37 244.61 C 92.58 250.38 107.81 253.11 122.97 255.01 C 149.87 258.05 177.19 257.74 203.96 253.66 C 217.93 251.36 232.04 248.32 244.74 241.85 C 250.22 238.99 255.93 235.35 258.48 229.46 C 260.56 224.80 258.26 219.52 254.83 216.19 C 250.18 211.71 244.38 208.46 238.24 206.54 Z" />
<path fill="#a97c50" opacity="1.00" d=" M 238.24 206.54 C 244.38 208.46 250.18 211.71 254.83 216.19 C 258.26 219.52 260.56 224.80 258.48 229.46 C 255.93 235.35 250.22 238.99 244.74 241.85 C 232.04 248.32 217.93 251.36 203.96 253.66 C 177.19 257.74 149.87 258.05 122.97 255.01 C 107.81 253.11 92.58 250.38 78.37 244.61 C 71.98 241.80 65.32 238.68 60.81 233.16 C 57.83 229.66 57.01 224.37 59.25 220.28 C 61.81 215.54 66.50 212.55 71.01 209.88 C 82.91 223.75 98.46 234.57 115.87 240.26 C 137.06 247.19 160.20 247.72 181.88 242.77 C 204.13 237.65 224.17 224.44 238.24 206.54 Z" />
</svg>
