<?xml version="1.0" encoding="UTF-8" ?>
<!DOCTYPE svg PUBLIC "-//W3C//DTD SVG 1.1//EN" "http://www.w3.org/Graphics/SVG/1.1/DTD/svg11.dtd">
<svg width="342pt" height="342pt" viewBox="0 0 342 342" version="1.1" xmlns="http://www.w3.org/2000/svg">
<path fill="#deb025" opacity="1.00" d=" M 140.00 21.07 C 148.54 13.74 159.74 9.59 171.01 9.72 C 185.07 9.64 198.94 16.32 207.70 27.32 C 214.80 35.95 218.47 47.18 218.28 58.33 C 201.46 55.05 183.52 60.96 171.51 73.07 C 159.20 60.64 140.65 54.82 123.48 58.52 C 122.91 44.38 129.21 30.21 140.00 21.07 Z" />
<path fill="#aed136" opacity="1.00" d=" M 93.48 85.51 C 100.85 72.85 114.45 64.12 128.99 62.56 C 143.37 60.80 158.31 66.28 168.35 76.69 C 159.06 88.13 154.76 103.57 157.27 118.13 C 158.26 124.67 160.93 130.80 164.04 136.60 C 150.16 135.97 136.23 135.29 122.55 132.70 C 111.39 130.56 100.14 127.64 90.34 121.70 C 89.41 121.02 88.02 120.52 87.88 119.20 C 85.55 107.80 87.41 95.50 93.48 85.51 Z" />
<path fill="#fcb040" opacity="1.00" d=" M 179.41 72.44 C 190.04 63.93 204.49 60.43 217.83 63.15 C 231.67 65.72 244.07 74.90 250.57 87.39 C 255.67 96.60 257.07 107.55 255.42 117.88 C 255.14 119.51 253.62 120.48 252.46 121.48 C 246.13 126.22 238.43 128.59 230.90 130.64 C 210.94 135.53 190.28 136.40 169.82 136.56 C 163.78 128.03 160.78 117.41 161.48 106.99 C 162.13 93.61 168.85 80.67 179.41 72.44 Z" />
<path fill="#c49a6c" opacity="1.00" d=" M 89.83 127.02 C 99.66 132.32 110.53 135.32 121.46 137.35 C 139.43 140.64 157.76 141.46 176.00 141.26 C 191.07 141.08 206.19 140.15 221.06 137.58 C 231.58 135.69 242.11 132.98 251.57 127.86 C 224.58 196.03 197.88 264.32 170.81 332.45 C 143.79 263.98 116.76 195.52 89.83 127.02 Z" />
</svg>
