<?xml version="1.0" encoding="UTF-8" ?>
<!DOCTYPE svg PUBLIC "-//W3C//DTD SVG 1.1//EN" "http://www.w3.org/Graphics/SVG/1.1/DTD/svg11.dtd">
<svg width="342pt" height="342pt" viewBox="0 0 342 342" version="1.1" xmlns="http://www.w3.org/2000/svg">
<path fill="#f4e30d" opacity="1.00" d=" M 150.05 28.95 C 149.66 26.74 151.75 24.74 153.93 25.05 C 159.30 25.04 164.67 25.02 170.04 25.05 C 172.22 24.88 173.82 27.03 173.71 29.07 C 173.73 38.14 173.71 47.22 173.71 56.29 C 179.74 56.34 185.78 56.18 191.81 56.35 C 194.65 56.79 194.89 60.07 194.78 62.35 C 197.05 62.16 199.30 61.92 201.56 61.66 C 201.95 58.07 200.01 52.54 204.11 50.60 C 210.73 50.43 217.37 50.53 223.99 50.55 C 225.75 50.43 227.22 52.32 227.20 53.99 C 226.33 66.01 225.45 78.04 224.67 90.07 C 226.06 90.04 227.46 90.02 228.86 89.99 C 232.04 73.11 235.34 56.24 238.59 39.36 C 238.89 37.11 241.65 36.39 243.39 37.55 C 248.43 40.20 253.42 42.97 258.44 45.68 C 260.80 46.78 261.28 49.87 260.51 52.14 C 256.71 69.27 252.61 86.35 249.04 103.53 C 254.07 103.96 259.10 104.47 264.11 105.05 C 265.44 104.94 266.12 106.21 266.96 106.98 C 269.90 107.09 276.32 105.10 275.96 109.99 C 272.11 120.17 267.79 130.18 263.80 140.31 C 259.27 141.04 254.78 141.97 250.24 142.62 C 249.78 142.72 248.86 142.92 248.40 143.02 C 239.59 143.90 230.90 145.74 222.12 146.90 C 218.73 147.35 215.35 147.83 211.96 148.25 C 202.58 149.45 193.19 150.60 183.76 151.26 C 179.93 151.58 176.08 151.53 172.25 151.27 C 162.86 150.71 153.51 149.60 144.19 148.36 C 140.19 147.84 136.19 147.32 132.20 146.74 C 125.97 145.89 119.76 144.87 113.55 143.95 C 109.55 143.33 105.57 142.62 101.57 142.06 C 97.17 141.36 92.79 140.50 88.35 140.00 C 91.23 163.70 94.15 187.40 97.00 211.10 C 92.91 184.10 89.19 157.03 85.13 130.02 C 84.78 127.76 83.40 125.87 81.91 124.22 C 77.09 118.66 72.37 113.03 67.57 107.46 C 65.83 105.76 65.43 102.84 66.81 100.80 C 71.23 93.53 75.57 86.22 80.03 78.98 C 81.00 77.17 83.93 77.97 84.23 79.89 C 91.07 97.84 97.28 116.13 105.58 133.46 C 105.24 128.36 106.34 122.97 104.15 118.16 C 101.13 110.76 97.97 103.41 95.00 95.99 C 94.18 94.17 94.99 91.73 97.01 91.19 C 101.84 89.47 106.74 87.93 111.60 86.31 C 110.53 75.90 109.70 65.45 108.82 55.02 C 109.14 51.44 113.37 51.62 116.02 51.75 C 121.85 52.07 127.82 51.13 133.56 52.29 C 134.33 56.93 134.86 61.62 135.34 66.30 C 138.42 66.72 142.74 64.97 144.77 68.17 C 145.21 70.15 144.85 72.18 144.69 74.17 C 146.46 73.72 148.23 73.28 150.01 72.86 C 150.09 58.23 150.01 43.59 150.05 28.95 M 141.77 131.21 C 143.08 127.52 141.99 123.65 141.50 119.92 C 141.14 123.67 140.84 127.52 141.77 131.21 Z" />
<path fill="#00aeef" opacity="1.00" d=" M 250.24 142.62 C 254.78 141.97 259.27 141.04 263.80 140.31 C 264.48 140.22 265.83 140.03 266.50 139.93 C 263.75 165.63 260.32 191.27 257.31 216.95 C 253.68 246.48 250.22 276.04 246.49 305.55 C 243.92 306.64 241.10 307.00 238.41 307.68 C 243.24 257.46 248.14 207.25 253.00 157.03 C 253.55 152.31 253.66 147.52 254.66 142.85 C 253.18 142.78 251.71 142.70 250.24 142.62 Z" />
<path fill="#00aeef" opacity="1.00" d=" M 88.35 140.00 C 92.79 140.50 97.17 141.36 101.57 142.06 C 106.91 197.34 112.27 252.62 117.65 307.89 C 114.58 307.22 111.50 306.57 108.49 305.66 C 104.71 274.14 100.90 242.61 97.00 211.10 C 94.15 187.40 91.23 163.70 88.35 140.00 Z" />
<path fill="#d91b5c" opacity="1.00" d=" M 101.57 142.06 C 105.57 142.62 109.55 143.33 113.55 143.95 C 118.88 199.29 124.36 254.62 129.59 309.97 L 128.63 310.14 C 124.92 309.62 121.32 308.59 117.65 307.89 C 112.27 252.62 106.91 197.34 101.57 142.06 Z" />
<path fill="#00aeef" opacity="1.00" d=" M 222.12 146.90 C 230.90 145.74 239.59 143.90 248.40 143.02 C 246.57 143.56 244.69 143.84 242.79 143.89 C 242.14 146.09 241.97 148.37 241.80 150.65 C 236.71 203.86 231.42 257.06 226.39 310.28 C 220.19 311.61 213.98 312.92 207.70 313.79 C 212.95 258.09 218.61 202.42 223.79 146.71 L 222.12 146.90 Z" />
<path fill="#d91b5c" opacity="1.00" d=" M 248.40 143.02 C 248.86 142.92 249.78 142.72 250.24 142.62 C 251.71 142.70 253.18 142.78 254.66 142.85 C 253.66 147.52 253.55 152.31 253.00 157.03 C 248.14 207.25 243.24 257.46 238.41 307.68 C 234.41 308.56 230.41 309.49 226.39 310.28 C 231.42 257.06 236.71 203.86 241.80 150.65 C 241.97 148.37 242.14 146.09 242.79 143.89 C 244.69 143.84 246.57 143.56 248.40 143.02 Z" />
<path fill="#00aeef" opacity="1.00" d=" M 113.55 143.95 C 119.76 144.87 125.97 145.89 132.20 146.74 C 137.44 202.52 143.07 258.26 148.33 314.04 C 141.57 312.95 134.86 311.55 128.15 310.22 L 128.63 310.14 L 129.59 309.97 C 124.36 254.62 118.88 199.29 113.55 143.95 Z" />
<path fill="#d91b5c" opacity="1.00" d=" M 132.20 146.74 C 136.19 147.32 140.19 147.84 144.19 148.36 C 149.39 204.13 155.03 259.86 160.31 315.62 C 158.53 315.37 156.74 315.16 154.96 315.00 C 152.73 314.77 150.53 314.39 148.33 314.04 C 143.07 258.26 137.44 202.52 132.20 146.74 Z" />
<path fill="#d91b5c" opacity="1.00" d=" M 211.96 148.25 C 215.35 147.83 218.73 147.35 222.12 146.90 L 223.79 146.71 C 218.61 202.42 212.95 258.09 207.70 313.79 L 207.69 313.93 C 203.67 314.48 199.69 315.36 195.64 315.64 C 201.15 259.85 206.42 204.04 211.96 148.25 Z" />
<path fill="#00aeef" opacity="1.00" d=" M 144.19 148.36 C 153.51 149.60 162.86 150.71 172.25 151.27 C 172.25 206.52 172.25 261.77 172.25 317.01 C 166.48 316.51 160.59 316.34 154.96 315.00 C 156.74 315.16 158.53 315.37 160.31 315.62 C 155.03 259.86 149.39 204.13 144.19 148.36 Z" />
<path fill="#00aeef" opacity="1.00" d=" M 183.76 151.26 C 193.19 150.60 202.58 149.45 211.96 148.25 C 206.42 204.04 201.15 259.85 195.64 315.64 L 195.62 315.83 C 191.66 316.23 187.72 316.73 183.75 316.99 C 183.75 261.74 183.74 206.50 183.76 151.26 Z" />
<path fill="#d91b5c" opacity="1.00" d=" M 172.25 151.27 C 176.08 151.53 179.93 151.58 183.76 151.26 C 183.74 206.50 183.75 261.74 183.75 316.99 C 179.92 317.27 176.08 317.37 172.25 317.01 C 172.25 261.77 172.25 206.52 172.25 151.27 Z" />
</svg>
