<?xml version="1.0" encoding="UTF-8" ?>
<!DOCTYPE svg PUBLIC "-//W3C//DTD SVG 1.1//EN" "http://www.w3.org/Graphics/SVG/1.1/DTD/svg11.dtd">
<svg width="282pt" height="234pt" viewBox="0 0 282 234" version="1.1" xmlns="http://www.w3.org/2000/svg">
<path fill="#171515" opacity="0.67" d=" M 231.06 12.91 C 237.54 12.04 244.86 11.73 250.25 16.10 C 245.74 14.35 240.94 12.91 236.04 13.41 C 170.28 20.35 104.52 27.25 38.76 34.16 C 32.60 34.73 26.46 35.54 20.32 36.31 C 22.13 35.50 24.00 34.72 25.99 34.49 C 94.34 27.29 162.71 20.15 231.06 12.91 Z" />
<path fill="#494343" opacity="1.00" d=" M 38.76 34.16 C 104.52 27.25 170.28 20.35 236.04 13.41 C 240.94 12.91 245.74 14.35 250.25 16.10 C 256.43 19.88 260.43 26.86 261.08 34.02 C 261.89 41.21 262.49 48.41 263.39 55.59 C 258.03 58.07 252.03 57.13 246.33 57.20 C 246.16 58.85 245.99 60.51 245.88 62.17 C 245.14 55.89 244.52 49.59 243.83 43.30 C 243.18 39.48 243.87 34.88 241.11 31.78 C 238.35 30.75 235.32 31.32 232.45 31.41 C 226.32 31.38 220.23 32.03 214.26 33.37 C 207.64 34.06 201.03 34.75 194.42 35.47 C 189.33 35.50 184.25 35.83 179.20 36.52 C 169.99 37.73 160.65 38.02 151.54 39.92 C 135.32 41.70 119.09 43.40 102.85 45.03 C 79.57 47.49 56.29 49.98 32.99 52.37 C 30.87 52.61 28.74 52.91 26.65 53.40 C 26.43 53.77 25.98 54.51 25.76 54.88 C 25.52 55.36 25.03 56.31 24.79 56.78 C 18.96 56.96 13.13 56.97 7.31 57.07 C 7.18 59.71 7.03 62.36 7.02 65.01 C 5.70 58.74 5.93 51.87 9.32 46.27 C 11.28 43.08 13.72 39.54 17.38 38.30 C 17.80 38.00 18.63 37.40 19.04 37.09 L 19.24 36.45 L 20.32 36.31 C 26.46 35.54 32.60 34.73 38.76 34.16 Z" />
<path fill="#5e5b5b" opacity="0.78" d=" M 214.26 33.37 C 220.23 32.03 226.32 31.38 232.45 31.41 C 226.45 32.63 220.37 33.27 214.26 33.37 Z" />
<path fill="#5d5c5c" opacity="0.49" d=" M 232.45 31.41 C 235.32 31.32 238.35 30.75 241.11 31.78 C 243.87 34.88 243.18 39.48 243.83 43.30 C 243.19 39.99 242.81 36.58 241.54 33.43 C 239.99 32.20 237.93 32.34 236.08 32.42 C 194.84 36.70 153.61 41.21 112.35 45.34 C 109.18 45.17 106.02 44.91 102.85 45.03 C 119.09 43.40 135.32 41.70 151.54 39.92 C 160.42 39.79 169.21 38.36 178.04 37.57 C 183.52 37.07 188.99 36.42 194.42 35.47 C 201.03 34.75 207.64 34.06 214.26 33.37 C 220.37 33.27 226.45 32.63 232.45 31.41 Z" />
<path fill="#5f5c5c" opacity="0.78" d=" M 179.20 36.52 C 184.25 35.83 189.33 35.50 194.42 35.47 C 188.99 36.42 183.52 37.07 178.04 37.57 C 169.21 38.36 160.42 39.79 151.54 39.92 C 160.65 38.02 169.99 37.73 179.20 36.52 Z" />
<path fill="#0b0a0a" opacity="0.56" d=" M 17.36 37.41 C 17.78 37.33 18.62 37.17 19.04 37.09 C 18.63 37.40 17.80 38.00 17.38 38.30 L 17.36 37.41 Z" />
<path fill="#5e5d5d" opacity="0.51" d=" M 32.99 52.37 C 56.29 49.98 79.57 47.49 102.85 45.03 C 106.02 44.91 109.18 45.17 112.35 45.34 C 85.89 48.28 59.41 50.96 32.94 53.74 C 30.53 54.03 28.14 54.45 25.76 54.88 C 25.98 54.51 26.43 53.77 26.65 53.40 C 28.74 52.91 30.87 52.61 32.99 52.37 Z" />
<path fill="#3f3939" opacity="1.00" d=" M 246.33 57.20 C 252.03 57.13 258.03 58.07 263.39 55.59 C 267.09 91.71 270.93 127.82 274.73 163.93 C 275.06 167.50 275.80 171.15 274.89 174.69 L 274.50 175.78 C 274.10 174.53 273.71 173.28 273.32 172.04 C 267.81 171.77 262.30 171.60 256.79 171.88 C 256.12 161.00 254.59 150.20 253.59 139.35 C 253.36 133.35 252.68 127.40 252.10 121.43 C 233.88 123.26 215.64 124.96 197.48 127.33 C 194.57 127.51 191.65 127.66 188.74 127.75 C 190.35 127.95 191.98 128.11 193.58 128.42 L 193.59 128.67 C 189.72 128.92 185.85 128.22 181.99 128.71 C 132.54 134.13 83.02 138.98 33.58 144.50 L 33.75 145.79 C 34.99 155.81 35.85 165.87 37.01 175.90 C 36.39 174.61 35.75 173.29 34.79 172.22 C 29.58 171.09 24.17 171.65 18.99 172.70 C 19.77 177.51 20.02 182.38 19.89 187.24 C 16.70 159.25 13.76 131.22 11.04 103.18 C 11.01 99.15 11.16 95.12 11.25 91.10 C 16.78 91.14 22.34 91.19 27.81 90.29 C 28.30 95.20 28.89 100.11 29.28 105.04 L 29.36 106.02 C 100.60 98.59 171.82 91.02 243.05 83.58 C 244.69 83.39 246.33 83.20 247.96 82.92 L 247.93 82.19 C 247.31 75.51 246.40 68.86 245.88 62.17 C 245.99 60.51 246.16 58.85 246.33 57.20 M 219.92 96.83 C 219.97 102.61 221.00 108.33 221.41 114.09 C 225.47 113.53 230.03 113.98 233.59 111.61 C 238.45 108.30 237.52 100.02 232.40 97.43 C 228.99 95.61 225.11 96.81 221.51 97.08 C 221.26 95.49 220.73 95.40 219.92 96.83 M 203.46 99.14 C 204.06 104.70 204.71 110.25 205.18 115.83 C 206.59 115.68 208.00 115.52 209.42 115.37 C 209.23 113.34 209.06 111.32 208.94 109.29 C 211.46 110.38 212.93 112.74 214.45 114.89 C 216.02 114.71 217.59 114.52 219.17 114.34 C 217.76 112.49 216.35 110.64 214.99 108.77 C 217.63 106.50 218.29 101.96 215.30 99.69 C 211.92 96.78 207.32 98.74 203.46 99.14 M 191.20 99.86 C 189.64 105.95 187.86 111.99 186.14 118.03 C 188.59 117.84 191.14 117.45 191.75 114.63 C 193.75 114.38 195.75 114.15 197.75 113.93 C 198.09 114.57 198.77 115.83 199.11 116.46 C 200.64 116.29 202.17 116.11 203.70 115.94 C 200.66 110.66 197.96 105.21 195.08 99.86 C 194.50 99.92 193.34 100.03 192.76 100.09 C 192.43 98.47 191.91 98.40 191.20 99.86 M 168.37 108.16 C 166.74 113.51 171.40 119.58 177.05 119.06 C 180.99 119.34 184.03 116.37 185.69 113.10 C 182.44 112.03 179.82 113.97 176.96 115.06 C 174.13 115.10 172.90 112.28 171.91 110.11 C 172.87 107.93 174.33 106.07 176.71 105.39 C 179.31 106.97 182.11 106.44 184.70 105.17 C 183.17 103.99 181.73 102.56 179.86 101.93 C 175.21 100.12 169.29 103.16 168.37 108.16 M 137.66 104.62 C 139.52 104.79 141.38 104.93 143.24 104.98 C 145.52 108.21 148.57 110.85 150.65 114.23 C 151.32 116.57 151.39 119.03 151.63 121.44 C 153.03 121.28 154.43 121.13 155.83 120.97 C 155.51 118.47 155.25 115.96 155.03 113.45 C 157.01 110.13 158.87 106.74 160.71 103.34 C 159.14 103.57 157.59 103.87 156.06 104.24 C 154.47 105.79 153.71 108.00 152.59 109.89 C 150.61 108.14 149.30 104.59 146.18 105.03 L 146.28 103.81 C 143.40 103.95 140.51 104.17 137.66 104.62 M 128.93 106.80 C 128.99 107.76 129.11 109.67 129.17 110.62 C 130.86 110.48 132.54 110.34 134.23 110.19 C 134.79 114.47 135.26 118.75 135.60 123.05 C 137.03 122.98 138.46 122.89 139.89 122.82 C 139.35 118.46 138.95 114.08 138.53 109.71 C 140.22 109.54 141.91 109.37 143.61 109.20 C 143.49 108.22 143.25 106.27 143.13 105.30 C 138.41 105.90 133.64 106.14 128.93 106.80 M 104.36 109.06 C 102.11 114.94 100.81 121.13 98.92 127.13 C 100.39 126.89 101.86 126.65 103.34 126.39 C 103.86 122.71 107.94 123.62 110.59 123.07 C 110.89 123.71 111.51 125.01 111.81 125.65 C 113.36 125.48 114.90 125.31 116.44 125.14 C 113.33 119.81 110.86 114.12 107.59 108.89 C 107.82 107.06 103.93 107.26 104.36 109.06 M 116.26 107.96 C 116.79 113.66 117.47 119.34 118.03 125.04 C 122.04 124.54 126.06 124.10 130.10 123.76 C 130.00 122.50 129.90 121.23 129.80 119.97 C 127.10 120.06 124.41 120.27 121.72 120.58 C 121.27 116.51 121.23 112.39 120.38 108.38 C 119.08 107.98 117.70 107.84 116.26 107.96 M 66.21 112.45 L 67.89 112.87 C 63.93 115.28 61.26 120.22 63.22 124.78 C 65.52 131.35 75.78 131.98 79.14 126.02 C 81.86 121.41 79.50 115.46 75.11 112.86 L 76.76 112.41 C 73.47 110.34 69.47 110.23 66.21 112.45 M 89.43 116.57 C 87.83 114.86 86.27 113.10 84.72 111.35 C 83.21 111.61 81.71 111.87 80.20 112.13 C 82.54 114.99 85.25 117.56 87.32 120.62 C 88.14 123.00 88.03 125.60 88.33 128.08 C 89.73 127.96 91.13 127.84 92.54 127.72 C 92.32 125.25 91.78 122.75 92.06 120.27 C 93.46 116.61 95.76 113.37 97.44 109.84 C 96.37 110.05 94.24 110.48 93.17 110.69 C 91.22 112.04 90.66 114.63 89.43 116.57 M 48.52 115.00 C 49.14 120.70 49.79 126.39 50.28 132.10 C 54.33 131.70 58.37 131.20 62.42 130.87 C 62.28 129.54 62.14 128.22 62.01 126.90 C 59.38 127.11 56.76 127.44 54.15 127.80 C 53.64 123.54 53.13 119.28 52.85 115.00 C 51.41 115.00 49.96 115.00 48.52 115.00 Z" />
<path fill="#443f3f" opacity="1.00" d=" M 7.31 57.07 C 13.13 56.97 18.96 56.96 24.79 56.78 C 24.97 68.00 26.82 79.12 27.81 90.29 C 22.34 91.19 16.78 91.14 11.25 91.10 C 11.16 95.12 11.01 99.15 11.04 103.18 C 9.50 90.48 8.13 77.75 7.02 65.01 C 7.03 62.36 7.18 59.71 7.31 57.07 Z" />
<path fill="#161414" opacity="0.72" d=" M 29.28 105.04 C 102.18 97.61 175.03 89.69 247.93 82.19 L 247.96 82.92 C 246.33 83.20 244.69 83.39 243.05 83.58 C 171.82 91.02 100.60 98.59 29.36 106.02 L 29.28 105.04 Z" />
<path fill="#060606" opacity="1.00" d=" M 219.92 96.83 C 220.73 95.40 221.26 95.49 221.51 97.08 C 221.11 97.02 220.32 96.89 219.92 96.83 Z" />
<path fill="#c0bebe" opacity="1.00" d=" M 219.92 96.83 C 220.32 96.89 221.11 97.02 221.51 97.08 C 225.11 96.81 228.99 95.61 232.40 97.43 C 237.52 100.02 238.45 108.30 233.59 111.61 C 230.03 113.98 225.47 113.53 221.41 114.09 C 221.00 108.33 219.97 102.61 219.92 96.83 M 224.29 100.58 C 224.59 103.71 224.93 106.85 225.30 109.97 C 227.08 109.59 228.94 109.40 230.62 108.65 C 233.16 107.15 232.84 102.97 230.61 101.30 C 228.82 99.85 226.38 100.65 224.29 100.58 Z" />
<path fill="#bfbebe" opacity="1.00" d=" M 203.46 99.14 C 207.32 98.74 211.92 96.78 215.30 99.69 C 218.29 101.96 217.63 106.50 214.99 108.77 C 216.35 110.64 217.76 112.49 219.17 114.34 C 217.59 114.52 216.02 114.71 214.45 114.89 C 212.93 112.74 211.46 110.38 208.94 109.29 C 209.06 111.32 209.23 113.34 209.42 115.37 C 208.00 115.52 206.59 115.68 205.18 115.83 C 204.71 110.25 204.06 104.70 203.46 99.14 M 208.12 102.37 C 208.16 103.57 208.19 104.77 208.24 105.98 C 209.45 106.00 210.66 106.02 211.88 106.05 C 212.22 105.54 212.91 104.52 213.25 104.01 C 212.87 103.53 212.12 102.55 211.74 102.06 C 210.53 102.16 209.32 102.26 208.12 102.37 Z" />
<path fill="#000000" opacity="1.00" d=" M 191.20 99.86 C 191.91 98.40 192.43 98.47 192.76 100.09 C 192.37 100.04 191.59 99.92 191.20 99.86 Z" />
<path fill="#bebdbd" opacity="1.00" d=" M 191.20 99.86 C 191.59 99.92 192.37 100.04 192.76 100.09 C 193.34 100.03 194.50 99.92 195.08 99.86 C 197.96 105.21 200.66 110.66 203.70 115.94 C 202.17 116.11 200.64 116.29 199.11 116.46 C 198.77 115.83 198.09 114.57 197.75 113.93 C 195.75 114.15 193.75 114.38 191.75 114.63 C 191.14 117.45 188.59 117.84 186.14 118.03 C 187.86 111.99 189.64 105.95 191.20 99.86 M 193.77 105.59 C 193.28 107.36 192.80 109.14 192.31 110.91 C 193.48 110.75 194.64 110.56 195.80 110.35 C 195.21 108.72 194.50 107.15 193.77 105.59 Z" />
<path fill="#403b3b" opacity="1.00" d=" M 224.29 100.58 C 226.38 100.65 228.82 99.85 230.61 101.30 C 232.84 102.97 233.16 107.15 230.62 108.65 C 228.94 109.40 227.08 109.59 225.30 109.97 C 224.93 106.85 224.59 103.71 224.29 100.58 Z" />
<path fill="#bebdbd" opacity="1.00" d=" M 168.37 108.16 C 169.29 103.16 175.21 100.12 179.86 101.93 C 181.73 102.56 183.17 103.99 184.70 105.17 C 182.11 106.44 179.31 106.97 176.71 105.39 C 174.33 106.07 172.87 107.93 171.91 110.11 C 172.90 112.28 174.13 115.10 176.96 115.06 C 179.82 113.97 182.44 112.03 185.69 113.10 C 184.03 116.37 180.99 119.34 177.05 119.06 C 171.40 119.58 166.74 113.51 168.37 108.16 Z" />
<path fill="#403b3b" opacity="1.00" d=" M 208.12 102.37 C 209.32 102.26 210.53 102.16 211.74 102.06 C 212.12 102.55 212.87 103.53 213.25 104.01 C 212.91 104.52 212.22 105.54 211.88 106.05 C 210.66 106.02 209.45 106.00 208.24 105.98 C 208.19 104.77 208.16 103.57 208.12 102.37 Z" />
<path fill="#161414" opacity="1.00" d=" M 137.66 104.62 C 140.51 104.17 143.40 103.95 146.28 103.81 L 146.18 105.03 C 145.44 105.01 143.98 104.99 143.24 104.98 C 141.38 104.93 139.52 104.79 137.66 104.62 Z" />
<path fill="#bebdbd" opacity="1.00" d=" M 156.06 104.24 C 157.59 103.87 159.14 103.57 160.71 103.34 C 158.87 106.74 157.01 110.13 155.03 113.45 C 155.25 115.96 155.51 118.47 155.83 120.97 C 154.43 121.13 153.03 121.28 151.63 121.44 C 151.39 119.03 151.32 116.57 150.65 114.23 C 148.57 110.85 145.52 108.21 143.24 104.98 C 143.98 104.99 145.44 105.01 146.18 105.03 C 149.30 104.59 150.61 108.14 152.59 109.89 C 153.71 108.00 154.47 105.79 156.06 104.24 Z" />
<path fill="#bebdbd" opacity="1.00" d=" M 128.93 106.80 C 133.64 106.14 138.41 105.90 143.13 105.30 C 143.25 106.27 143.49 108.22 143.61 109.20 C 141.91 109.37 140.22 109.54 138.53 109.71 C 138.95 114.08 139.35 118.46 139.89 122.82 C 138.46 122.89 137.03 122.98 135.60 123.05 C 135.26 118.75 134.79 114.47 134.23 110.19 C 132.54 110.34 130.86 110.48 129.17 110.62 C 129.11 109.67 128.99 107.76 128.93 106.80 Z" />
<path fill="#353131" opacity="1.00" d=" M 193.77 105.59 C 194.50 107.15 195.21 108.72 195.80 110.35 C 194.64 110.56 193.48 110.75 192.31 110.91 C 192.80 109.14 193.28 107.36 193.77 105.59 Z" />
<path fill="#0b0a0a" opacity="1.00" d=" M 104.36 109.06 C 103.93 107.26 107.82 107.06 107.59 108.89 C 106.52 109.21 105.45 109.27 104.36 109.06 Z" />
<path fill="#bdbcbc" opacity="1.00" d=" M 116.26 107.96 C 117.70 107.84 119.08 107.98 120.38 108.38 C 121.23 112.39 121.27 116.51 121.72 120.58 C 124.41 120.27 127.10 120.06 129.80 119.97 C 129.90 121.23 130.00 122.50 130.10 123.76 C 126.06 124.10 122.04 124.54 118.03 125.04 C 117.47 119.34 116.79 113.66 116.26 107.96 Z" />
<path fill="#bdbbbb" opacity="1.00" d=" M 104.36 109.06 C 105.45 109.27 106.52 109.21 107.59 108.89 C 110.86 114.12 113.33 119.81 116.44 125.14 C 114.90 125.31 113.36 125.48 111.81 125.65 C 111.51 125.01 110.89 123.71 110.59 123.07 C 107.94 123.62 103.86 122.71 103.34 126.39 C 101.86 126.65 100.39 126.89 98.92 127.13 C 100.81 121.13 102.11 114.94 104.36 109.06 M 106.42 114.83 C 106.01 116.58 105.60 118.34 105.19 120.09 C 106.45 119.90 107.71 119.71 108.97 119.52 C 108.11 117.96 107.26 116.39 106.42 114.83 Z" />
<path fill="#323131" opacity="1.00" d=" M 66.21 112.45 C 69.47 110.23 73.47 110.34 76.76 112.41 L 75.11 112.86 C 72.70 112.84 70.30 112.85 67.89 112.87 L 66.21 112.45 Z" />
<path fill="#bdbcbc" opacity="1.00" d=" M 89.43 116.57 C 90.66 114.63 91.22 112.04 93.17 110.69 C 94.24 110.48 96.37 110.05 97.44 109.84 C 95.76 113.37 93.46 116.61 92.06 120.27 C 91.78 122.75 92.32 125.25 92.54 127.72 C 91.13 127.84 89.73 127.96 88.33 128.08 C 88.03 125.60 88.14 123.00 87.32 120.62 C 85.25 117.56 82.54 114.99 80.20 112.13 C 81.71 111.87 83.21 111.61 84.72 111.35 C 86.27 113.10 87.83 114.86 89.43 116.57 Z" />
<path fill="#bcbbbb" opacity="1.00" d=" M 67.89 112.87 C 70.30 112.85 72.70 112.84 75.11 112.86 C 79.50 115.46 81.86 121.41 79.14 126.02 C 75.78 131.98 65.52 131.35 63.22 124.78 C 61.26 120.22 63.93 115.28 67.89 112.87 M 67.39 119.31 C 66.02 122.04 67.86 125.80 70.97 126.05 C 73.33 126.57 74.76 124.32 76.31 123.00 C 75.95 121.63 75.72 120.24 75.19 118.93 C 73.84 115.75 68.53 116.15 67.39 119.31 Z" />
<path fill="#bcbaba" opacity="1.00" d=" M 48.52 115.00 C 49.96 115.00 51.41 115.00 52.85 115.00 C 53.13 119.28 53.64 123.54 54.15 127.80 C 56.76 127.44 59.38 127.11 62.01 126.90 C 62.14 128.22 62.28 129.54 62.42 130.87 C 58.37 131.20 54.33 131.70 50.28 132.10 C 49.79 126.39 49.14 120.70 48.52 115.00 Z" />
<path fill="#353131" opacity="1.00" d=" M 106.42 114.83 C 107.26 116.39 108.11 117.96 108.97 119.52 C 107.71 119.71 106.45 119.90 105.19 120.09 C 105.60 118.34 106.01 116.58 106.42 114.83 Z" />
<path fill="#3e3939" opacity="1.00" d=" M 67.39 119.31 C 68.53 116.15 73.84 115.75 75.19 118.93 C 75.72 120.24 75.95 121.63 76.31 123.00 C 74.76 124.32 73.33 126.57 70.97 126.05 C 67.86 125.80 66.02 122.04 67.39 119.31 Z" />
<path fill="#5c5b5b" opacity="0.55" d=" M 197.48 127.33 C 215.64 124.96 233.88 123.26 252.10 121.43 C 252.68 127.40 253.36 133.35 253.59 139.35 C 252.86 133.93 252.29 128.49 251.69 123.05 C 239.14 123.90 226.68 125.72 214.15 126.73 C 208.59 127.00 203.04 127.28 197.48 127.33 Z" />
<path fill="#595858" opacity="0.51" d=" M 188.74 127.75 C 191.65 127.66 194.57 127.51 197.48 127.33 C 203.04 127.28 208.59 127.00 214.15 126.73 C 207.68 127.58 201.14 127.89 194.79 129.49 C 190.56 129.60 186.30 129.55 182.10 130.19 C 132.65 135.44 83.20 140.62 33.75 145.79 L 33.58 144.50 C 83.02 138.98 132.54 134.13 181.99 128.71 C 185.85 128.22 189.72 128.92 193.59 128.67 L 193.58 128.42 C 191.98 128.11 190.35 127.95 188.74 127.75 Z" />
<path fill="#121010" opacity="0.69" d=" M 213.87 140.36 C 218.11 139.98 222.55 138.81 226.66 140.53 C 223.34 140.52 220.02 140.58 216.72 140.93 C 195.98 143.24 175.21 145.25 154.48 147.56 C 155.89 146.78 157.41 146.18 159.04 146.09 C 177.32 144.24 195.59 142.28 213.87 140.36 Z" />
<path fill="#3a3535" opacity="1.00" d=" M 216.72 140.93 C 220.02 140.58 223.34 140.52 226.66 140.53 L 226.61 141.86 C 226.59 143.20 226.43 144.52 226.14 145.82 C 224.53 147.34 222.10 147.25 220.06 147.62 C 203.01 149.32 185.97 151.15 168.94 152.96 C 164.31 153.41 159.61 154.27 154.98 153.49 C 154.14 152.16 153.70 150.65 153.24 149.16 C 153.55 148.76 154.17 147.96 154.48 147.56 C 175.21 145.25 195.98 143.24 216.72 140.93 Z" />
<path fill="#5a5959" opacity="0.52" d=" M 226.61 141.86 C 227.46 144.13 227.20 146.69 225.19 148.26 C 220.99 148.72 216.79 149.11 212.62 149.76 C 196.43 151.66 180.20 153.14 164.01 154.98 C 161.27 155.25 158.47 155.82 155.73 155.31 C 153.30 154.24 153.50 151.36 153.24 149.16 C 153.70 150.65 154.14 152.16 154.98 153.49 C 159.61 154.27 164.31 153.41 168.94 152.96 C 185.97 151.15 203.01 149.32 220.06 147.62 C 222.10 147.25 224.53 147.34 226.14 145.82 C 226.43 144.52 226.59 143.20 226.61 141.86 Z" />
<path fill="#303030" opacity="0.23" d=" M 212.62 149.76 C 216.79 149.11 220.99 148.72 225.19 148.26 C 221.17 149.73 216.84 149.74 212.62 149.76 Z" />
<path fill="#353131" opacity="1.00" d=" M 256.79 171.88 C 262.30 171.60 267.81 171.77 273.32 172.04 C 273.71 173.28 274.10 174.53 274.50 175.78 C 272.42 181.36 268.97 186.71 263.66 189.70 C 258.32 192.82 251.94 192.77 245.98 193.49 C 179.31 200.47 112.65 207.51 45.99 214.51 C 37.37 215.65 28.44 211.27 24.01 203.82 C 20.98 199.01 20.50 193.20 19.91 187.69 L 19.89 187.24 C 20.02 182.38 19.77 177.51 18.99 172.70 C 24.17 171.65 29.58 171.09 34.79 172.22 C 35.75 173.29 36.39 174.61 37.01 175.90 C 38.24 182.73 37.13 190.25 40.71 196.47 C 42.45 196.82 44.22 197.00 45.99 196.87 C 115.28 189.45 184.61 182.37 253.89 174.90 C 254.19 174.61 254.78 174.03 255.08 173.74 C 255.51 173.27 256.37 172.35 256.79 171.88 Z" />
<path fill="#100f0f" opacity="0.71" d=" M 245.96 175.00 C 249.01 174.70 252.05 174.25 255.08 173.74 C 254.78 174.03 254.19 174.61 253.89 174.90 C 184.61 182.37 115.28 189.45 45.99 196.87 C 44.22 197.00 42.45 196.82 40.71 196.47 C 109.14 189.47 177.53 182.08 245.96 175.00 Z" />
<path fill="#5b5a5a" opacity="0.53" d=" M 274.50 175.78 L 274.89 174.69 C 273.86 182.86 267.84 190.16 260.06 192.81 C 256.20 194.19 252.07 194.30 248.05 194.74 C 183.72 201.52 119.37 208.25 55.04 215.04 C 49.39 215.57 43.65 216.48 38.00 215.51 C 30.46 213.68 24.00 207.76 21.59 200.37 C 20.18 196.30 20.09 191.94 19.91 187.69 C 20.50 193.20 20.98 199.01 24.01 203.82 C 28.44 211.27 37.37 215.65 45.99 214.51 C 112.65 207.51 179.31 200.47 245.98 193.49 C 251.94 192.77 258.32 192.82 263.66 189.70 C 268.97 186.71 272.42 181.36 274.50 175.78 Z" />
</svg>
