<?xml version="1.0" encoding="UTF-8" ?>
<!DOCTYPE svg PUBLIC "-//W3C//DTD SVG 1.1//EN" "http://www.w3.org/Graphics/SVG/1.1/DTD/svg11.dtd">
<svg width="114pt" height="114pt" viewBox="0 0 114 114" version="1.1" xmlns="http://www.w3.org/2000/svg">
<path fill="#0284c9" opacity="1.00" d=" M 49.14 11.20 C 58.84 9.54 69.16 10.49 78.05 14.90 C 91.11 20.94 100.83 33.46 103.68 47.53 C 105.70 58.16 104.37 69.54 99.08 79.06 C 91.28 93.94 74.81 103.99 57.94 103.51 C 47.12 103.80 36.39 99.70 28.12 92.82 C 17.39 83.93 10.86 70.00 11.49 56.01 C 11.27 34.62 28.15 14.87 49.14 11.20 M 59.28 35.28 C 59.23 38.75 59.24 42.23 59.24 45.71 C 50.07 45.72 40.91 45.72 31.75 45.75 C 31.72 53.65 31.76 61.56 31.73 69.47 C 40.90 69.57 50.07 69.49 59.24 69.53 C 59.25 73.43 59.23 77.32 59.26 81.22 C 69.91 73.52 80.81 66.14 91.19 58.10 C 80.53 50.53 69.96 42.83 59.28 35.28 Z" />
<path fill="#ffffff" opacity="1.00" d=" M 59.28 35.28 C 69.96 42.83 80.53 50.53 91.19 58.10 C 80.81 66.14 69.91 73.52 59.26 81.22 C 59.23 77.32 59.25 73.43 59.24 69.53 C 50.07 69.49 40.90 69.57 31.73 69.47 C 31.76 61.56 31.72 53.65 31.75 45.75 C 40.91 45.72 50.07 45.72 59.24 45.71 C 59.24 42.23 59.23 38.75 59.28 35.28 Z" />
</svg>
