<?xml version="1.0" encoding="UTF-8" ?>
<!DOCTYPE svg PUBLIC "-//W3C//DTD SVG 1.1//EN" "http://www.w3.org/Graphics/SVG/1.1/DTD/svg11.dtd">
<svg width="114pt" height="114pt" viewBox="0 0 114 114" version="1.1" xmlns="http://www.w3.org/2000/svg">
<path fill="#0957a0" opacity="1.00" d=" M 31.43 12.59 C 43.61 9.01 57.57 16.61 61.14 28.78 C 65.26 40.80 58.24 55.10 46.19 59.14 C 37.51 62.27 27.04 60.20 20.59 53.49 C 13.40 46.71 11.38 35.34 15.37 26.38 C 18.24 19.63 24.36 14.46 31.43 12.59 Z" />
<path fill="#00aeef" opacity="1.00" d=" M 90.25 41.01 C 94.50 40.99 98.75 41.00 103.00 41.00 C 103.00 61.42 103.00 81.83 103.00 102.25 C 98.75 102.25 94.50 102.25 90.25 102.24 C 90.25 81.83 90.26 61.42 90.25 41.01 Z" />
<path fill="#0957a0" opacity="1.00" d=" M 74.25 49.51 C 78.50 49.49 82.75 49.50 86.99 49.50 C 87.00 67.08 87.00 84.66 86.99 102.25 C 82.75 102.25 78.50 102.25 74.26 102.24 C 74.25 84.66 74.26 67.09 74.25 49.51 Z" />
<path fill="#0957a0" opacity="1.00" d=" M 11.00 73.96 C 11.06 67.44 13.77 61.12 18.14 56.34 C 23.64 61.05 30.76 63.91 38.04 63.78 C 45.18 63.82 52.10 60.90 57.50 56.32 C 59.80 58.97 61.75 61.93 62.96 65.24 C 61.40 65.25 59.83 65.26 58.27 65.28 C 58.21 75.50 58.26 85.73 58.25 95.95 C 54.21 96.43 50.13 96.61 46.07 96.91 C 34.37 97.90 22.67 96.34 11.01 95.47 C 11.00 88.30 10.99 81.13 11.00 73.96 Z" />
<path fill="#00aeef" opacity="1.00" d=" M 58.27 65.28 C 59.83 65.26 61.40 65.25 62.96 65.24 C 65.56 65.24 68.15 65.26 70.75 65.25 C 70.75 77.58 70.74 89.90 70.75 102.23 C 66.59 102.26 62.42 102.25 58.25 102.24 C 58.25 100.14 58.25 98.05 58.25 95.95 C 58.26 85.73 58.21 75.50 58.27 65.28 Z" />
</svg>
