<?xml version="1.0" encoding="UTF-8" ?>
<!DOCTYPE svg PUBLIC "-//W3C//DTD SVG 1.1//EN" "http://www.w3.org/Graphics/SVG/1.1/DTD/svg11.dtd">
<svg width="114pt" height="114pt" viewBox="0 0 114 114" version="1.1" xmlns="http://www.w3.org/2000/svg">
<path fill="#332a28" opacity="0.22" d=" M 20.87 18.93 C 27.68 13.37 35.47 8.42 44.35 7.26 C 45.71 11.81 47.43 16.28 48.18 20.99 C 41.38 22.34 35.08 25.60 30.34 30.70 L 30.11 30.91 C 27.06 27.96 24.35 24.68 21.49 21.54 C 20.86 20.86 19.84 19.77 20.87 18.93 Z" />
<path fill="#332a28" opacity="0.22" d=" M 70.83 7.51 C 79.77 8.97 87.88 14.24 93.87 20.93 C 91.26 23.81 89.19 27.24 85.95 29.50 C 81.67 25.41 76.57 22.29 71.15 19.97 C 69.92 19.39 68.54 19.66 67.24 19.67 C 68.11 15.52 69.64 11.57 70.83 7.51 Z" />
<path fill="#66433b" opacity="0.46" d=" M 67.24 19.67 C 68.54 19.66 69.92 19.39 71.15 19.97 C 76.57 22.29 81.67 25.41 85.95 29.50 C 80.71 35.35 75.30 41.05 69.85 46.71 C 68.70 46.67 67.55 46.64 66.40 46.61 C 65.24 43.12 64.03 39.63 62.84 36.15 C 64.36 30.67 66.05 25.23 67.24 19.67 Z" />
<path fill="#fff200" opacity="1.00" d=" M 52.06 35.32 C 54.02 30.17 55.17 24.73 57.48 19.71 C 59.27 25.19 60.97 30.70 62.84 36.15 C 64.03 39.63 65.24 43.12 66.40 46.61 C 67.55 46.64 68.70 46.67 69.85 46.71 C 78.14 46.87 86.42 46.61 94.71 46.84 C 93.79 47.46 92.89 48.09 92.00 48.74 C 90.47 49.83 88.93 50.89 87.36 51.91 C 84.51 51.74 81.65 51.72 78.80 51.74 C 78.76 54.35 78.66 56.97 78.53 59.58 C 77.40 58.87 76.25 58.20 75.14 57.47 C 72.76 57.48 70.38 57.49 68.00 57.51 C 67.88 65.58 68.27 73.67 67.76 81.74 C 67.34 81.57 66.49 81.22 66.07 81.04 C 65.49 76.73 65.80 72.36 65.77 68.02 C 62.92 68.00 60.07 68.00 57.22 68.03 C 57.24 70.02 57.26 72.01 57.27 74.00 C 55.64 75.15 54.06 76.36 52.48 77.59 C 47.72 81.10 42.78 84.38 38.06 87.95 C 36.78 88.93 35.49 89.91 34.21 90.89 C 34.31 90.52 34.51 89.78 34.61 89.41 C 35.86 85.41 37.18 81.42 38.36 77.40 C 39.96 72.74 41.60 68.09 42.92 63.34 L 41.87 62.65 C 35.31 58.27 29.12 53.38 22.76 48.72 C 22.43 48.47 21.78 47.98 21.45 47.74 L 20.61 46.82 C 28.84 46.62 37.07 46.88 45.30 46.69 C 46.30 46.65 47.31 46.60 48.31 46.55 C 49.53 42.80 50.76 39.05 52.06 35.32 Z" />
<path fill="#66433b" opacity="0.46" d=" M 30.34 30.70 C 35.08 25.60 41.38 22.34 48.18 20.99 C 49.44 25.78 50.73 30.56 52.06 35.32 C 50.76 39.05 49.53 42.80 48.31 46.55 C 47.31 46.60 46.30 46.65 45.30 46.69 C 40.27 41.40 35.14 36.19 30.34 30.70 Z" />
<path fill="#332a28" opacity="0.22" d=" M 94.71 46.84 C 97.42 45.65 100.42 45.34 103.25 44.52 C 104.10 45.53 105.47 46.43 105.34 47.94 C 105.50 51.33 106.70 54.59 106.57 58.00 C 106.74 62.01 105.53 65.87 105.06 69.82 C 100.73 69.81 96.49 68.82 92.36 67.61 L 92.19 67.02 C 93.81 61.01 93.99 54.68 92.00 48.74 C 92.89 48.09 93.79 47.46 94.71 46.84 Z" />
<path fill="#332a28" opacity="0.22" d=" M 8.79 46.10 C 13.09 46.16 17.12 48.09 21.45 47.74 C 21.78 47.98 22.43 48.47 22.76 48.72 C 21.34 49.07 19.93 49.42 18.51 49.77 C 18.24 55.59 18.25 61.43 18.54 67.25 C 19.17 67.54 20.42 68.12 21.05 68.41 C 17.32 69.43 13.33 71.47 9.46 70.51 C 6.39 62.91 7.35 54.11 8.79 46.10 Z" />
<path fill="#66433b" opacity="0.46" d=" M 18.51 49.77 C 19.93 49.42 21.34 49.07 22.76 48.72 C 29.12 53.38 35.31 58.27 41.87 62.65 C 34.88 64.39 27.96 66.40 21.05 68.41 C 20.42 68.12 19.17 67.54 18.54 67.25 C 18.25 61.43 18.24 55.59 18.51 49.77 Z" />
<path fill="#66433b" opacity="0.46" d=" M 87.36 51.91 C 88.93 50.89 90.47 49.83 92.00 48.74 C 93.99 54.68 93.81 61.01 92.19 67.02 C 90.52 66.86 88.87 66.62 87.24 66.25 C 87.25 61.47 87.17 56.69 87.36 51.91 Z" />
<path fill="#0b9444" opacity="1.00" d=" M 78.80 51.74 C 81.65 51.72 84.51 51.74 87.36 51.91 C 87.17 56.69 87.25 61.47 87.24 66.25 C 87.26 73.42 87.21 80.59 87.29 87.76 C 87.27 89.50 87.25 91.24 87.22 92.99 C 84.37 93.00 81.53 93.02 78.68 93.04 C 78.70 91.86 78.70 90.68 78.69 89.51 C 78.70 87.80 78.67 86.09 78.53 84.38 C 78.34 77.52 79.17 70.65 78.59 63.78 C 78.54 62.38 78.50 60.98 78.53 59.58 C 78.66 56.97 78.76 54.35 78.80 51.74 Z" />
<path fill="#bf1e2e" opacity="1.00" d=" M 68.00 57.51 C 70.38 57.49 72.76 57.48 75.14 57.47 C 76.25 58.20 77.40 58.87 78.53 59.58 C 78.50 60.98 78.54 62.38 78.59 63.78 C 78.07 63.69 77.02 63.50 76.50 63.41 C 76.65 68.40 75.99 73.47 77.16 78.38 C 76.24 81.50 76.42 84.77 76.56 87.97 C 76.59 89.63 76.61 91.28 76.63 92.93 C 73.69 93.11 70.75 93.19 67.81 93.19 C 67.73 89.38 67.54 85.55 67.76 81.74 C 68.27 73.67 67.88 65.58 68.00 57.51 Z" />
<path fill="#0b9444" opacity="1.00" d=" M 57.22 68.03 C 60.07 68.00 62.92 68.00 65.77 68.02 C 65.80 72.36 65.49 76.73 66.07 81.04 C 66.79 84.95 65.68 88.86 65.99 92.78 C 63.07 93.07 60.14 93.05 57.22 92.94 C 57.30 86.63 57.23 80.32 57.27 74.00 C 57.26 72.01 57.24 70.02 57.22 68.03 Z" />
<path fill="#66433b" opacity="0.46" d=" M 30.36 85.24 C 32.86 82.49 35.09 79.31 38.36 77.40 C 37.18 81.42 35.86 85.41 34.61 89.41 C 33.23 87.98 31.79 86.61 30.36 85.24 Z" />
<path fill="#66433b" opacity="0.46" d=" M 38.06 87.95 C 42.78 84.38 47.72 81.10 52.48 77.59 C 52.00 82.71 49.80 87.47 49.04 92.54 C 45.07 91.88 41.27 90.41 38.06 87.95 Z" />
<path fill="#fff200" opacity="1.00" d=" M 76.56 87.97 C 76.42 84.77 76.24 81.50 77.16 78.38 C 77.53 80.40 78.02 82.39 78.53 84.38 C 78.67 86.09 78.70 87.80 78.69 89.51 C 78.16 89.12 77.09 88.36 76.56 87.97 Z" />
<path fill="#332a28" opacity="0.22" d=" M 66.07 81.04 C 66.49 81.22 67.34 81.57 67.76 81.74 C 67.54 85.55 67.73 89.38 67.81 93.19 C 70.75 93.19 73.69 93.11 76.63 92.93 C 76.61 91.28 76.59 89.63 76.56 87.97 C 77.09 88.36 78.16 89.12 78.69 89.51 C 78.70 90.68 78.70 91.86 78.68 93.04 C 81.53 93.02 84.37 93.00 87.22 92.99 C 87.25 91.24 87.27 89.50 87.29 87.76 C 89.20 89.17 90.59 91.10 91.81 93.11 C 85.83 98.15 79.41 102.76 71.91 105.24 C 70.29 106.42 69.21 104.29 69.02 103.00 C 68.03 99.58 67.11 96.15 65.99 92.78 C 65.68 88.86 66.79 84.95 66.07 81.04 Z" />
<path fill="#332a28" opacity="0.22" d=" M 30.13 85.02 L 30.36 85.24 C 31.79 86.61 33.23 87.98 34.61 89.41 C 34.51 89.78 34.31 90.52 34.21 90.89 C 35.49 89.91 36.78 88.93 38.06 87.95 C 41.27 90.41 45.07 91.88 49.04 92.54 C 47.80 97.69 46.31 102.77 44.62 107.79 C 35.79 105.90 27.69 101.22 21.10 95.11 C 23.90 91.57 26.94 88.22 30.13 85.02 Z" />
</svg>
