<?xml version="1.0" encoding="UTF-8" ?>
<!DOCTYPE svg PUBLIC "-//W3C//DTD SVG 1.1//EN" "http://www.w3.org/Graphics/SVG/1.1/DTD/svg11.dtd">
<svg width="114pt" height="114pt" viewBox="0 0 114 114" version="1.1" xmlns="http://www.w3.org/2000/svg">
<path fill="#bcbf31" opacity="1.00" d=" M 8.03 31.99 C 8.29 22.21 17.24 13.88 26.96 14.03 C 46.98 13.98 67.00 13.98 87.02 14.03 C 96.69 13.87 105.63 22.12 105.95 31.84 C 106.09 45.23 105.94 58.63 106.02 72.02 C 106.34 81.20 99.06 89.93 89.93 91.11 C 82.23 91.65 74.43 90.76 66.76 91.51 C 63.34 94.53 60.30 97.97 57.00 101.12 C 53.51 97.97 50.59 94.06 46.78 91.36 C 39.51 91.01 32.22 91.45 24.95 91.19 C 15.82 90.52 8.16 82.16 8.02 73.05 C 8.00 59.37 7.97 45.67 8.03 31.99 M 36.28 30.41 C 31.75 31.39 27.52 34.23 25.29 38.36 C 21.31 45.30 18.96 53.78 21.29 61.67 C 22.75 68.90 27.12 75.99 34.08 78.98 C 38.73 80.84 43.60 78.04 47.19 75.19 C 50.33 72.98 50.54 68.82 51.65 65.47 C 55.06 65.39 58.71 64.56 61.94 65.94 C 63.90 68.57 63.59 72.49 66.17 74.74 C 68.43 76.72 71.06 78.41 74.00 79.14 C 78.42 80.42 83.05 78.22 86.23 75.23 C 91.34 69.83 93.81 62.34 94.16 55.01 C 93.91 47.42 91.04 39.83 85.82 34.26 C 81.99 30.24 75.28 29.34 70.67 32.58 C 66.02 34.90 63.40 39.58 62.29 44.48 C 58.80 45.27 55.21 45.41 51.72 44.50 C 50.37 40.51 49.29 35.79 45.34 33.54 C 42.63 31.90 39.57 30.14 36.28 30.41 Z" />
<path fill="#a9ac2c" opacity="1.00" d=" M 36.28 30.41 C 39.57 30.14 42.63 31.90 45.34 33.54 C 49.29 35.79 50.37 40.51 51.72 44.50 C 55.21 45.41 58.80 45.27 62.29 44.48 C 63.40 39.58 66.02 34.90 70.67 32.58 C 75.28 29.34 81.99 30.24 85.82 34.26 C 91.04 39.83 93.91 47.42 94.16 55.01 C 93.81 62.34 91.34 69.83 86.23 75.23 C 83.05 78.22 78.42 80.42 74.00 79.14 C 71.06 78.41 68.43 76.72 66.17 74.74 C 63.59 72.49 63.90 68.57 61.94 65.94 C 58.71 64.56 55.06 65.39 51.65 65.47 C 50.54 68.82 50.33 72.98 47.19 75.19 C 43.60 78.04 38.73 80.84 34.08 78.98 C 27.12 75.99 22.75 68.90 21.29 61.67 C 18.96 53.78 21.31 45.30 25.29 38.36 C 27.52 34.23 31.75 31.39 36.28 30.41 M 36.12 34.12 C 24.58 41.58 22.09 59.04 30.09 69.97 C 32.50 73.24 35.75 77.25 40.34 76.20 C 40.95 74.30 41.61 72.42 42.25 70.53 C 43.75 72.41 46.14 72.50 48.34 72.46 C 48.14 69.33 45.41 67.61 43.64 65.37 C 39.07 59.78 38.89 51.04 43.38 45.36 C 45.20 42.97 48.26 41.21 48.18 37.83 C 46.45 38.00 44.45 37.62 43.14 39.06 C 42.00 38.54 40.88 37.97 39.79 37.35 C 42.30 34.98 38.37 32.06 36.12 34.12 M 73.85 33.88 C 73.99 34.67 74.27 36.25 74.40 37.04 C 73.34 37.83 72.26 38.59 71.16 39.32 C 69.82 37.79 67.68 37.82 65.82 37.82 C 65.78 41.51 69.29 43.27 71.11 46.02 C 75.07 51.72 74.74 59.99 70.36 65.37 C 68.59 67.58 65.91 69.31 65.64 72.39 C 67.85 72.63 70.25 72.45 71.73 70.55 C 72.60 71.36 73.44 72.19 74.27 73.05 C 72.56 75.51 75.81 77.50 77.93 76.03 C 90.28 68.44 92.45 49.59 83.31 38.68 C 80.99 35.94 77.83 32.48 73.85 33.88 M 54.14 50.17 C 50.42 52.06 50.31 58.03 53.95 60.06 C 57.28 62.15 62.39 60.04 62.67 55.94 C 63.57 51.42 58.01 47.69 54.14 50.17 Z" />
<path fill="#446730" opacity="1.00" d=" M 36.12 34.12 C 38.37 32.06 42.30 34.98 39.79 37.35 C 34.96 41.68 30.60 47.24 30.59 54.05 C 29.97 61.72 34.65 68.33 40.24 73.04 C 40.26 73.83 40.32 75.41 40.34 76.20 C 35.75 77.25 32.50 73.24 30.09 69.97 C 22.09 59.04 24.58 41.58 36.12 34.12 Z" />
<path fill="#446730" opacity="1.00" d=" M 73.85 33.88 C 77.83 32.48 80.99 35.94 83.31 38.68 C 92.45 49.59 90.28 68.44 77.93 76.03 C 75.81 77.50 72.56 75.51 74.27 73.05 C 79.41 68.38 84.11 62.35 83.79 55.01 C 84.14 47.72 79.53 41.67 74.40 37.04 C 74.27 36.25 73.99 34.67 73.85 33.88 Z" />
<path fill="#969927" opacity="1.00" d=" M 74.40 37.04 C 79.53 41.67 84.14 47.72 83.79 55.01 C 84.11 62.35 79.41 68.38 74.27 73.05 C 73.44 72.19 72.60 71.36 71.73 70.55 C 80.43 62.39 80.20 47.14 71.16 39.32 C 72.26 38.59 73.34 37.83 74.40 37.04 Z" />
<path fill="#949727" opacity="1.00" d=" M 30.59 54.05 C 30.60 47.24 34.96 41.68 39.79 37.35 C 40.88 37.97 42.00 38.54 43.14 39.06 C 33.82 46.79 33.47 62.26 42.25 70.53 C 41.61 72.42 40.95 74.30 40.34 76.20 C 40.32 75.41 40.26 73.83 40.24 73.04 C 34.65 68.33 29.97 61.72 30.59 54.05 Z" />
<path fill="#41632e" opacity="1.00" d=" M 43.14 39.06 C 44.45 37.62 46.45 38.00 48.18 37.83 C 48.26 41.21 45.20 42.97 43.38 45.36 C 38.89 51.04 39.07 59.78 43.64 65.37 C 45.41 67.61 48.14 69.33 48.34 72.46 C 46.14 72.50 43.75 72.41 42.25 70.53 C 33.47 62.26 33.82 46.79 43.14 39.06 Z" />
<path fill="#42642e" opacity="1.00" d=" M 65.82 37.82 C 67.68 37.82 69.82 37.79 71.16 39.32 C 80.20 47.14 80.43 62.39 71.73 70.55 C 70.25 72.45 67.85 72.63 65.64 72.39 C 65.91 69.31 68.59 67.58 70.36 65.37 C 74.74 59.99 75.07 51.72 71.11 46.02 C 69.29 43.27 65.78 41.51 65.82 37.82 Z" />
<path fill="#446730" opacity="1.00" d=" M 54.14 50.17 C 58.01 47.69 63.57 51.42 62.67 55.94 C 62.39 60.04 57.28 62.15 53.95 60.06 C 50.31 58.03 50.42 52.06 54.14 50.17 Z" />
</svg>
