<?xml version="1.0" encoding="UTF-8" ?>
<!DOCTYPE svg PUBLIC "-//W3C//DTD SVG 1.1//EN" "http://www.w3.org/Graphics/SVG/1.1/DTD/svg11.dtd">
<svg width="143pt" height="143pt" viewBox="0 0 143 143" version="1.1" xmlns="http://www.w3.org/2000/svg">
<path fill="#0957a0" opacity="1.00" d=" M 25.86 24.90 C 30.83 16.87 39.24 11.04 48.59 9.50 C 54.01 9.18 59.66 8.85 64.82 10.88 C 76.85 14.72 85.90 26.17 87.03 38.72 C 88.19 48.26 84.67 58.13 78.10 65.08 C 71.02 72.64 60.25 76.25 50.02 75.25 C 42.05 73.82 34.32 70.21 29.07 63.88 C 19.71 53.36 18.34 36.79 25.86 24.90 Z" />
<path fill="#0957a0" opacity="1.00" d=" M 80.70 69.46 C 83.54 72.99 86.36 76.67 87.77 81.04 C 73.43 85.77 64.79 102.91 69.77 117.24 C 70.81 119.62 71.86 121.99 72.93 124.36 C 67.62 124.68 62.22 124.17 56.97 125.19 C 54.64 125.40 52.28 125.45 50.00 124.82 C 44.84 124.43 39.63 124.80 34.50 123.96 C 28.94 123.12 23.22 123.80 17.73 122.38 C 17.78 112.93 17.74 103.48 17.74 94.03 C 17.72 91.24 18.28 88.50 18.70 85.77 C 20.39 79.91 23.27 74.45 27.19 69.78 C 30.15 71.50 32.91 73.55 35.85 75.31 C 50.18 82.61 68.85 80.52 80.70 69.46 Z" />
<path fill="#00aeef" opacity="1.00" d=" M 87.99 82.68 C 93.42 80.51 99.47 81.22 105.15 81.74 C 113.15 84.25 119.84 90.18 123.25 97.84 C 125.47 103.97 126.02 110.68 123.98 116.94 C 122.19 120.94 120.29 125.04 116.97 128.02 C 113.49 131.67 108.81 133.74 104.13 135.34 C 99.76 135.79 95.34 135.89 90.98 135.25 C 89.92 134.88 88.85 134.50 87.79 134.12 C 77.33 130.09 69.76 119.26 70.33 107.95 C 70.15 96.92 77.65 86.38 87.99 82.68 M 99.72 90.36 C 98.48 93.62 97.65 99.10 102.13 100.12 C 103.37 98.07 104.55 96.00 105.62 93.86 C 104.25 91.81 102.48 89.67 99.72 90.36 M 91.57 110.87 C 91.66 112.32 91.75 113.79 92.36 115.13 C 90.63 118.22 90.23 121.69 90.50 125.18 C 92.03 126.00 93.69 127.20 95.52 126.45 C 100.17 124.78 103.34 120.77 106.45 117.14 C 106.51 115.91 106.57 114.68 106.62 113.45 C 106.21 113.47 105.41 113.52 105.00 113.54 C 102.92 115.95 101.09 119.56 97.54 119.78 C 98.15 116.02 99.57 112.45 101.38 109.12 C 101.27 107.28 102.41 104.65 100.26 103.63 C 95.92 103.44 93.55 107.69 91.57 110.87 Z" />
</svg>
