<?xml version="1.0" encoding="UTF-8" ?>
<!DOCTYPE svg PUBLIC "-//W3C//DTD SVG 1.1//EN" "http://www.w3.org/Graphics/SVG/1.1/DTD/svg11.dtd">
<svg width="143pt" height="143pt" viewBox="0 0 143 143" version="1.1" xmlns="http://www.w3.org/2000/svg">
<path fill="#0957a0" opacity="1.00" d=" M 69.42 8.52 C 81.03 2.37 95.20 1.31 107.59 5.65 C 121.39 10.27 132.73 21.60 137.35 35.40 C 140.64 44.84 140.83 55.31 138.01 64.89 C 133.73 79.76 121.79 92.19 107.02 96.87 C 92.61 101.71 76.02 99.24 63.68 90.35 C 56.15 104.02 45.66 115.75 35.23 127.27 C 31.08 131.43 27.37 136.39 21.96 139.01 C 18.03 141.01 13.27 139.68 10.11 136.87 C 6.58 133.84 2.92 129.93 2.98 124.96 C 3.69 118.10 9.69 113.72 14.21 109.20 C 26.17 98.24 38.37 87.20 52.65 79.32 C 45.39 69.18 42.33 56.21 44.24 43.88 C 46.35 28.97 56.01 15.38 69.42 8.52 M 84.48 15.69 C 71.85 18.22 61.01 27.99 57.27 40.31 C 53.81 50.85 55.75 62.89 62.13 71.93 C 70.92 84.90 88.65 90.82 103.43 85.48 C 118.93 80.52 129.63 64.16 127.92 47.97 C 127.11 38.14 122.01 28.79 114.24 22.74 C 106.03 16.09 94.79 13.53 84.48 15.69 Z" />
<path fill="#00aeef" opacity="1.00" d=" M 86.53 26.72 C 95.55 24.87 105.37 28.74 110.81 36.15 C 117.89 45.35 117.10 59.63 108.84 67.83 C 102.07 75.24 90.55 77.51 81.40 73.50 C 71.24 69.38 64.87 57.84 66.79 47.03 C 68.21 36.99 76.49 28.37 86.53 26.72 M 86.35 36.49 C 79.20 38.73 74.53 46.77 76.32 54.09 C 77.83 61.95 86.34 67.55 94.16 65.71 C 102.30 64.22 108.12 55.21 105.81 47.17 C 103.93 38.90 94.36 33.55 86.35 36.49 Z" />
<path fill="#00aeef" opacity="1.00" d=" M 88.37 43.49 C 94.32 40.86 101.04 47.68 98.42 53.57 C 96.85 58.89 89.21 60.49 85.52 56.42 C 81.47 52.71 83.07 45.13 88.37 43.49 Z" />
</svg>
