<?xml version="1.0" encoding="UTF-8" ?>
<!DOCTYPE svg PUBLIC "-//W3C//DTD SVG 1.1//EN" "http://www.w3.org/Graphics/SVG/1.1/DTD/svg11.dtd">
<svg width="143pt" height="143pt" viewBox="0 0 143 143" version="1.1" xmlns="http://www.w3.org/2000/svg">
<path fill="#0957a0" opacity="1.00" d=" M 63.56 15.17 C 64.66 13.16 65.77 11.14 66.92 9.15 C 68.45 10.88 69.97 12.64 71.49 14.40 C 73.02 12.65 74.54 10.89 76.08 9.15 C 77.24 11.17 78.38 13.21 79.51 15.25 C 81.36 13.85 83.21 12.47 85.07 11.08 C 85.76 13.30 86.45 15.53 87.14 17.75 C 89.22 16.76 91.32 15.79 93.43 14.86 C 93.65 17.17 93.88 19.48 94.09 21.80 C 96.33 21.26 98.57 20.74 100.82 20.22 C 100.59 22.57 100.32 24.92 100.04 27.27 C 102.38 27.12 104.71 27.01 107.06 26.96 C 106.32 29.18 105.57 31.40 104.81 33.62 C 107.09 34.09 109.37 34.55 111.65 35.03 C 110.46 37.00 109.28 38.98 108.10 40.96 C 110.24 41.90 112.38 42.84 114.51 43.79 C 112.91 45.44 111.34 47.12 109.80 48.82 C 111.68 50.18 113.56 51.53 115.45 52.87 C 113.57 54.20 111.67 55.53 109.77 56.84 C 111.32 58.56 112.89 60.27 114.47 61.97 C 112.33 62.90 110.20 63.82 108.08 64.76 C 109.26 66.74 110.44 68.71 111.61 70.70 C 109.35 71.15 107.08 71.61 104.82 72.07 C 105.58 74.31 106.30 76.55 107.01 78.81 C 104.69 78.61 102.37 78.49 100.05 78.42 C 100.33 80.77 100.59 83.13 100.86 85.49 C 98.82 85.02 96.79 84.56 94.75 84.10 C 97.95 99.76 101.36 115.37 104.60 131.03 C 100.14 128.96 95.71 126.83 91.24 124.80 C 88.03 128.49 84.89 132.24 81.58 135.85 C 78.24 120.94 75.64 105.84 71.82 91.05 C 70.09 92.72 70.03 95.22 69.51 97.42 C 66.85 110.23 64.10 123.02 61.43 135.83 C 58.10 132.25 54.97 128.49 51.76 124.79 C 47.28 126.81 42.87 128.97 38.40 131.03 C 41.64 115.37 45.05 99.76 48.25 84.10 C 46.21 84.56 44.17 85.02 42.13 85.49 C 42.41 83.13 42.67 80.77 42.95 78.42 C 40.63 78.50 38.31 78.61 36.00 78.81 C 36.70 76.55 37.42 74.31 38.18 72.07 C 35.91 71.61 33.65 71.15 31.39 70.69 C 32.56 68.71 33.74 66.74 34.92 64.76 C 32.80 63.82 30.66 62.90 28.53 61.97 C 30.11 60.27 31.68 58.56 33.23 56.84 C 31.33 55.53 29.43 54.21 27.55 52.87 C 29.44 51.53 31.32 50.18 33.20 48.82 C 31.66 47.12 30.09 45.44 28.49 43.79 C 30.62 42.84 32.76 41.90 34.89 40.96 C 33.72 38.99 32.55 37.01 31.40 35.03 C 33.66 34.54 35.92 34.09 38.18 33.62 C 37.43 31.40 36.68 29.18 35.94 26.96 C 38.28 27.01 40.62 27.12 42.96 27.27 C 42.67 24.93 42.41 22.58 42.16 20.23 C 44.41 20.75 46.66 21.26 48.92 21.78 C 49.12 19.47 49.35 17.16 49.57 14.85 C 51.68 15.79 53.77 16.76 55.86 17.75 C 56.55 15.53 57.23 13.31 57.92 11.09 C 59.78 12.47 61.66 13.84 63.56 15.17 Z" />
</svg>
