<?xml version="1.0" encoding="UTF-8" ?>
<!DOCTYPE svg PUBLIC "-//W3C//DTD SVG 1.1//EN" "http://www.w3.org/Graphics/SVG/1.1/DTD/svg11.dtd">
<svg width="143pt" height="143pt" viewBox="0 0 143 143" version="1.1" xmlns="http://www.w3.org/2000/svg">
<path fill="#0957a0" opacity="1.00" d=" M 72.85 23.20 C 74.80 22.98 76.75 23.22 78.69 23.34 L 78.33 24.17 C 80.30 25.40 82.07 26.91 83.66 28.61 C 83.77 30.75 83.75 32.93 83.06 34.99 C 80.57 38.05 79.08 42.44 75.02 43.75 C 73.10 42.43 71.30 40.94 69.89 39.08 C 69.32 35.68 69.40 32.24 69.61 28.82 C 70.63 26.95 71.04 24.51 72.85 23.20 Z" />
<path fill="#0957a0" opacity="1.00" d=" M 96.87 42.12 C 100.95 40.68 107.70 41.92 107.68 47.32 C 104.36 50.28 101.79 53.95 99.72 57.87 C 99.06 59.62 98.39 61.36 97.72 63.11 C 102.23 58.76 105.99 53.29 111.90 50.69 C 115.14 50.02 119.33 49.48 121.80 52.21 C 124.10 54.67 124.78 58.34 124.00 61.55 C 122.68 67.49 119.30 72.76 115.43 77.38 C 114.38 78.59 113.44 79.91 113.01 81.48 C 118.16 82.68 122.42 79.18 125.97 75.98 C 128.52 73.70 130.68 71.04 132.78 68.34 C 134.09 68.80 135.40 69.28 136.72 69.73 C 136.85 71.65 136.85 73.58 136.73 75.51 L 135.81 75.51 C 131.31 82.69 124.39 88.09 116.96 91.99 C 113.40 94.03 109.09 94.16 105.15 93.43 C 102.35 92.34 100.78 89.61 99.64 87.00 C 99.60 85.50 99.56 84.00 99.50 82.50 C 100.53 81.14 101.75 79.91 103.23 79.05 C 105.77 75.73 107.32 71.64 106.46 67.43 C 102.60 67.37 100.22 70.72 97.49 72.89 C 97.47 75.89 97.42 78.91 96.80 81.86 C 96.40 86.22 96.90 90.67 95.81 94.96 C 95.01 103.49 94.29 112.69 89.07 119.85 C 86.84 119.86 84.61 119.78 82.38 119.64 L 82.74 118.71 C 79.47 117.63 76.92 115.27 75.43 112.20 C 75.51 110.78 75.59 109.37 75.66 107.96 C 76.93 103.82 78.91 99.99 80.78 96.12 C 81.79 91.79 81.25 87.26 81.54 82.85 C 75.19 87.60 69.40 94.17 61.11 95.34 C 56.82 96.07 52.40 93.45 51.65 89.05 C 51.72 85.65 52.15 82.26 53.13 79.01 C 53.28 78.47 53.60 77.40 53.76 76.87 C 57.33 72.30 52.62 66.47 55.80 61.74 C 59.33 55.58 65.33 49.28 72.99 49.59 C 73.51 49.92 74.56 50.58 75.08 50.92 C 75.41 51.43 76.06 52.46 76.38 52.97 C 76.37 54.66 76.36 56.34 76.36 58.03 C 75.29 61.04 74.12 64.02 72.74 66.90 C 70.96 71.40 68.24 75.71 68.18 80.69 C 69.20 80.66 70.23 80.62 71.25 80.59 C 75.16 77.03 79.42 73.59 82.12 68.98 C 82.45 66.28 82.44 63.56 82.64 60.86 C 84.48 53.07 88.66 44.65 96.87 42.12 Z" />
<path fill="#0957a0" opacity="1.00" d=" M 37.07 48.05 C 41.30 46.41 47.09 47.43 49.23 51.86 C 52.29 68.26 43.46 86.34 28.19 93.37 C 21.00 96.06 10.57 95.59 7.24 87.43 L 6.47 87.49 C 5.83 82.83 5.92 78.11 6.55 73.46 C 6.74 73.47 7.13 73.50 7.33 73.52 C 8.16 70.34 9.66 67.39 11.65 64.78 C 11.61 64.34 11.55 63.47 11.51 63.03 C 8.57 60.95 8.81 56.53 10.99 53.99 C 15.04 49.00 22.29 46.62 28.47 48.33 C 31.47 49.05 33.14 51.98 32.55 54.95 C 28.95 57.97 26.26 61.87 24.13 66.02 C 23.31 68.35 22.45 70.66 21.76 73.03 C 21.66 76.19 20.63 80.38 23.84 82.41 C 27.73 82.40 30.00 78.50 31.77 75.54 C 35.34 68.27 37.10 59.79 35.55 51.77 C 35.17 50.26 35.54 48.72 37.07 48.05 Z" />
</svg>
