<?xml version="1.0" encoding="UTF-8" ?>
<!DOCTYPE svg PUBLIC "-//W3C//DTD SVG 1.1//EN" "http://www.w3.org/Graphics/SVG/1.1/DTD/svg11.dtd">
<svg width="60pt" height="60pt" viewBox="0 0 60 60" version="1.1" xmlns="http://www.w3.org/2000/svg">
<path fill="#231f20" opacity="1.00" d=" M 4.30 16.10 C 8.22 12.14 12.18 8.20 16.14 4.26 C 20.76 8.87 25.34 13.54 30.02 18.10 C 34.64 13.49 39.26 8.88 43.86 4.26 C 47.82 8.19 51.77 12.13 55.70 16.10 C 51.16 20.80 46.46 25.34 41.89 30.00 C 46.47 34.66 51.16 39.20 55.70 43.90 C 51.79 47.85 47.85 51.78 43.90 55.70 C 39.19 51.17 34.67 46.45 29.98 41.89 C 25.34 46.48 20.79 51.16 16.10 55.70 C 12.15 51.79 8.22 47.85 4.30 43.90 C 8.83 39.20 13.54 34.67 18.11 30.00 C 13.54 25.34 8.84 20.80 4.30 16.10 Z" />
</svg>
