<?xml version="1.0" encoding="UTF-8" ?>
<!DOCTYPE svg PUBLIC "-//W3C//DTD SVG 1.1//EN" "http://www.w3.org/Graphics/SVG/1.1/DTD/svg11.dtd">
<svg width="60pt" height="60pt" viewBox="0 0 60 60" version="1.1" xmlns="http://www.w3.org/2000/svg">
<path fill="#231f20" opacity="1.00" d=" M 53.40 12.99 C 54.05 13.66 54.70 14.33 55.36 15.00 C 52.98 17.98 48.90 19.96 48.18 23.98 C 46.56 30.09 44.97 36.21 43.21 42.28 C 42.59 42.28 41.34 42.27 40.72 42.26 C 40.44 45.57 36.66 48.16 33.62 46.39 C 31.84 45.72 31.38 43.82 30.77 42.24 C 28.26 42.25 25.74 42.24 23.23 42.24 C 22.62 43.81 22.17 45.69 20.42 46.37 C 17.37 48.21 13.57 45.58 13.29 42.27 C 12.28 42.25 11.27 42.23 10.26 42.21 C 8.35 35.38 6.70 28.46 4.61 21.67 C 18.02 21.26 31.46 21.62 44.88 21.50 C 47.72 18.67 50.55 15.82 53.40 12.99 Z" />
</svg>
