<?xml version="1.0" encoding="UTF-8" ?>
<!DOCTYPE svg PUBLIC "-//W3C//DTD SVG 1.1//EN" "http://www.w3.org/Graphics/SVG/1.1/DTD/svg11.dtd">
<svg width="32pt" height="32pt" viewBox="0 0 32 32" version="1.1" xmlns="http://www.w3.org/2000/svg">
<path fill="#3f5485" opacity="1.00" d=" M 0.00 0.00 L 32.00 0.00 L 32.00 25.08 C 28.76 25.30 25.51 25.36 22.27 25.20 C 22.27 22.76 22.28 20.33 22.28 17.89 C 23.70 17.85 25.12 17.84 26.54 17.81 C 26.53 16.63 26.53 15.45 26.52 14.27 C 25.04 14.21 23.56 14.16 22.08 14.09 C 22.25 12.29 22.44 10.48 22.73 8.69 C 24.00 8.66 25.27 8.62 26.53 8.59 C 26.55 7.39 26.57 6.19 26.59 5.00 C 24.49 4.92 22.04 4.66 20.43 6.31 C 18.15 8.33 18.69 11.65 18.42 14.38 C 17.53 14.33 15.77 14.25 14.89 14.21 C 14.87 15.41 14.86 16.60 14.84 17.80 C 15.78 17.82 17.65 17.85 18.59 17.87 C 18.61 20.34 18.62 22.80 18.60 25.27 C 12.40 25.54 6.15 24.72 0.00 25.76 L 0.00 0.00 Z" />
<path fill="#ffffff" opacity="1.00" d=" M 20.43 6.31 C 22.04 4.66 24.49 4.92 26.59 5.00 C 26.57 6.19 26.55 7.39 26.53 8.59 C 25.27 8.62 24.00 8.66 22.73 8.69 C 22.44 10.48 22.25 12.29 22.08 14.09 C 23.56 14.16 25.04 14.21 26.52 14.27 C 26.53 15.45 26.53 16.63 26.54 17.81 C 25.12 17.84 23.70 17.85 22.28 17.89 C 22.28 20.33 22.27 22.76 22.27 25.20 C 22.27 26.54 22.27 27.89 22.28 29.23 C 21.03 29.21 19.79 29.19 18.55 29.17 C 18.57 27.87 18.59 26.57 18.60 25.27 C 18.62 22.80 18.61 20.34 18.59 17.87 C 17.65 17.85 15.78 17.82 14.84 17.80 C 14.86 16.60 14.87 15.41 14.89 14.21 C 15.77 14.25 17.53 14.33 18.42 14.38 C 18.69 11.65 18.15 8.33 20.43 6.31 Z" />
<path fill="#747f9f" opacity="1.00" d=" M 0.00 25.76 C 6.15 24.72 12.40 25.54 18.60 25.27 C 18.59 26.57 18.57 27.87 18.55 29.17 C 12.39 29.50 6.02 28.36 0.00 29.82 L 0.00 25.76 Z" />
<path fill="#747f9f" opacity="1.00" d=" M 22.27 25.20 C 25.51 25.36 28.76 25.30 32.00 25.08 L 32.00 28.27 C 28.92 29.57 25.53 29.18 22.28 29.23 C 22.27 27.89 22.27 26.54 22.27 25.20 Z" />
<path fill="#3f5485" opacity="1.00" d=" M 0.00 29.82 C 6.02 28.36 12.39 29.50 18.55 29.17 C 19.79 29.19 21.03 29.21 22.28 29.23 C 25.53 29.18 28.92 29.57 32.00 28.27 L 32.00 32.00 L 0.00 32.00 L 0.00 29.82 Z" />
</svg>
