<?xml version="1.0" encoding="UTF-8" ?>
<!DOCTYPE svg PUBLIC "-//W3C//DTD SVG 1.1//EN" "http://www.w3.org/Graphics/SVG/1.1/DTD/svg11.dtd">
<svg width="60pt" height="60pt" viewBox="0 0 60 60" version="1.1" xmlns="http://www.w3.org/2000/svg">
<path fill="#231f20" opacity="1.00" d=" M 18.37 4.45 C 25.82 1.09 35.50 5.91 36.98 14.01 C 38.76 21.01 34.06 28.82 26.94 30.28 C 19.82 32.31 11.80 27.31 10.33 20.11 C 8.76 13.82 12.33 6.80 18.37 4.45 Z" />
<path fill="#231f20" opacity="1.00" d=" M 36.22 28.23 C 39.85 26.44 44.28 27.11 47.63 29.23 C 50.66 33.00 52.05 38.34 48.99 42.56 C 48.15 43.53 47.35 44.54 46.60 45.59 C 47.48 48.86 48.09 52.20 48.80 55.52 C 46.66 53.99 44.93 54.65 43.63 56.71 C 42.89 53.01 42.13 49.30 41.14 45.66 C 39.72 49.18 39.24 52.98 38.45 56.67 C 37.06 54.75 35.34 53.88 33.21 55.61 C 34.02 51.86 34.77 48.10 35.68 44.37 L 34.76 44.61 C 34.34 44.10 33.51 43.10 33.09 42.60 C 31.38 40.17 31.27 37.19 31.40 34.34 C 32.76 32.15 33.75 29.42 36.22 28.23 Z" />
<path fill="#231f20" opacity="1.00" d=" M 8.76 50.10 C 9.06 42.71 7.16 34.31 12.47 28.17 C 17.73 32.49 25.13 33.52 31.32 30.63 C 29.57 33.86 28.77 37.95 30.52 41.36 C 31.48 43.21 34.49 44.29 33.38 46.76 C 33.11 48.07 32.81 49.37 32.47 50.66 C 24.56 51.39 16.64 50.83 8.76 50.10 Z" />
</svg>
