<?xml version="1.0" encoding="UTF-8" ?>
<!DOCTYPE svg PUBLIC "-//W3C//DTD SVG 1.1//EN" "http://www.w3.org/Graphics/SVG/1.1/DTD/svg11.dtd">
<svg width="60pt" height="60pt" viewBox="0 0 60 60" version="1.1" xmlns="http://www.w3.org/2000/svg">
<path fill="#231f20" opacity="1.00" d=" M 25.29 5.29 C 30.47 4.53 35.96 4.89 40.73 7.22 C 49.37 11.19 55.40 20.46 55.05 30.03 C 55.34 38.80 50.30 47.34 42.76 51.70 C 37.14 55.12 30.18 55.80 23.84 54.40 C 12.94 51.85 4.48 41.21 4.95 29.95 C 4.49 18.20 13.78 7.23 25.29 5.29 M 25.28 15.27 C 17.69 17.54 12.77 26.26 15.03 33.91 C 16.88 41.56 25.22 46.91 32.94 45.22 C 41.07 43.85 47.05 35.18 45.26 27.08 C 43.79 18.28 33.74 12.13 25.28 15.27 Z" />
<path fill="#231f20" opacity="1.00" d=" M 27.29 22.43 C 32.68 20.25 39.01 25.31 37.96 31.05 C 37.53 37.19 29.30 40.24 24.81 36.18 C 20.13 32.56 21.55 24.12 27.29 22.43 Z" />
</svg>
