<?xml version="1.0" encoding="UTF-8" ?>
<!DOCTYPE svg PUBLIC "-//W3C//DTD SVG 1.1//EN" "http://www.w3.org/Graphics/SVG/1.1/DTD/svg11.dtd">
<svg width="60pt" height="60pt" viewBox="0 0 60 60" version="1.1" xmlns="http://www.w3.org/2000/svg">
<path fill="#231f20" opacity="1.00" d=" M 4.98 29.51 C 9.71 25.61 13.95 20.90 19.04 17.58 C 31.02 17.38 43.01 17.56 55.00 17.50 C 55.00 25.50 55.00 33.50 55.00 41.50 C 43.33 41.50 31.66 41.52 20.00 41.49 C 18.48 41.71 17.42 40.50 16.38 39.63 C 12.63 36.20 8.76 32.90 4.98 29.51 M 34.13 25.13 C 35.42 26.39 36.74 27.63 37.85 29.06 C 37.62 31.22 35.41 32.35 34.12 33.86 C 35.43 35.17 36.75 36.49 38.06 37.81 C 39.52 36.35 40.98 34.88 42.43 33.41 C 43.85 34.90 45.32 36.35 46.81 37.77 C 48.09 36.45 49.39 35.16 50.71 33.88 C 49.26 32.40 47.80 30.93 46.32 29.49 C 47.80 28.06 49.26 26.60 50.70 25.12 C 49.39 23.84 48.10 22.55 46.82 21.23 C 45.33 22.65 43.85 24.09 42.43 25.59 C 40.98 24.11 39.52 22.65 38.06 21.19 C 36.75 22.51 35.44 23.82 34.13 25.13 Z" />
</svg>
