<?xml version="1.0" encoding="UTF-8" ?>
<!DOCTYPE svg PUBLIC "-//W3C//DTD SVG 1.1//EN" "http://www.w3.org/Graphics/SVG/1.1/DTD/svg11.dtd">
<svg width="60pt" height="60pt" viewBox="0 0 60 60" version="1.1" xmlns="http://www.w3.org/2000/svg">
<path fill="#231f20" opacity="1.00" d=" M 6.23 45.89 C 6.34 32.66 6.10 19.42 6.36 6.20 C 11.21 9.02 16.35 11.28 21.25 14.00 C 21.22 16.67 21.23 19.33 21.26 22.00 C 19.77 21.37 18.45 22.23 17.22 22.89 C 18.28 23.09 20.38 23.50 21.44 23.71 C 21.06 33.67 21.36 43.65 21.22 53.62 C 16.26 50.97 11.20 48.52 6.23 45.89 M 11.57 20.69 C 12.85 24.20 12.00 27.92 12.06 31.55 C 14.94 29.20 12.36 22.45 17.52 22.47 C 17.30 21.95 16.87 20.90 16.65 20.38 L 16.37 20.69 C 15.04 18.83 12.76 18.68 11.57 20.69 M 11.12 36.15 C 8.99 38.06 11.40 40.54 12.25 42.43 C 13.15 40.85 14.06 39.27 14.92 37.67 C 13.85 36.80 12.67 35.48 11.12 36.15 Z" />
<path fill="#231f20" opacity="1.00" d=" M 21.72 14.10 C 26.90 11.81 32.02 9.40 37.25 7.26 C 37.32 14.84 37.17 22.42 37.30 30.00 C 37.27 32.58 37.85 35.33 36.61 37.74 C 34.77 38.61 33.00 36.72 31.14 37.20 C 29.29 39.20 31.53 41.40 32.23 43.37 C 33.39 41.38 34.93 39.64 37.02 38.59 C 37.16 41.32 37.24 44.05 37.32 46.79 C 32.12 49.06 26.97 51.44 21.76 53.69 C 21.92 43.95 21.38 34.15 22.05 24.44 L 23.68 23.49 C 23.18 23.11 22.20 22.35 21.71 21.97 C 21.75 19.34 21.73 16.72 21.72 14.10 M 29.73 22.62 C 28.57 22.04 26.92 20.29 25.78 21.82 C 23.76 23.50 26.45 25.76 27.04 27.57 C 27.75 26.43 28.58 25.38 29.29 24.24 C 31.79 22.91 35.07 22.32 36.47 19.58 C 34.14 20.40 31.94 21.52 29.73 22.62 Z" />
<path fill="#231f20" opacity="1.00" d=" M 37.79 7.40 C 42.79 9.61 47.78 11.84 52.76 14.08 C 52.81 27.26 52.60 40.45 52.87 53.63 C 47.76 51.61 42.81 49.22 37.79 46.98 C 37.74 44.27 37.65 41.56 37.60 38.85 C 38.67 37.16 39.68 35.44 40.52 33.63 C 39.86 34.05 38.54 34.89 37.88 35.31 C 37.65 26.00 37.77 16.70 37.79 7.40 M 44.16 31.12 C 45.64 29.32 47.98 24.62 43.91 24.55 C 40.41 25.53 43.21 29.22 44.16 31.12 Z" />
</svg>
