<?xml version="1.0" encoding="UTF-8" ?>
<!DOCTYPE svg PUBLIC "-//W3C//DTD SVG 1.1//EN" "http://www.w3.org/Graphics/SVG/1.1/DTD/svg11.dtd">
<svg width="60pt" height="60pt" viewBox="0 0 60 60" version="1.1" xmlns="http://www.w3.org/2000/svg">
<path fill="#231f20" opacity="1.00" d=" M 5.49 27.97 C 13.64 21.02 21.83 14.12 30.00 7.20 C 38.17 14.12 46.36 21.02 54.51 27.97 C 52.09 27.98 49.67 28.02 47.25 28.01 C 47.25 36.26 47.26 44.50 47.24 52.75 C 35.75 52.75 24.26 52.74 12.77 52.75 C 12.73 44.51 12.76 36.26 12.75 28.01 C 10.33 28.02 7.91 27.98 5.49 27.97 M 22.00 28.00 C 22.00 32.75 22.00 37.50 22.01 42.25 C 22.68 42.25 24.02 42.26 24.69 42.26 C 24.72 41.62 24.79 40.34 24.82 39.70 C 25.63 40.54 26.45 41.37 27.27 42.19 C 30.85 42.29 34.42 42.25 37.99 42.25 C 38.00 39.01 38.01 35.76 38.00 32.52 C 36.25 32.50 34.50 32.51 32.76 32.48 C 32.75 30.99 32.75 29.50 32.75 28.01 C 32.06 28.01 30.69 28.00 30.01 28.00 C 30.01 29.48 30.00 30.97 30.00 32.45 C 29.39 32.48 28.18 32.54 27.58 32.57 C 26.63 33.46 25.70 34.36 24.78 35.28 C 24.77 32.85 24.73 30.43 24.75 28.01 C 24.06 28.01 22.69 28.00 22.00 28.00 Z" />
<path fill="#231f20" opacity="1.00" d=" M 29.66 33.77 C 29.81 34.21 30.12 35.10 30.28 35.54 C 31.93 35.54 33.59 35.52 35.25 35.48 C 35.25 36.42 35.25 38.31 35.24 39.26 C 33.33 39.53 30.33 38.20 29.49 40.64 C 28.51 39.50 27.51 38.38 26.52 37.25 C 27.57 36.09 28.61 34.93 29.66 33.77 Z" />
</svg>
