<?xml version="1.0" encoding="UTF-8" ?>
<!DOCTYPE svg PUBLIC "-//W3C//DTD SVG 1.1//EN" "http://www.w3.org/Graphics/SVG/1.1/DTD/svg11.dtd">
<svg width="60pt" height="60pt" viewBox="0 0 60 60" version="1.1" xmlns="http://www.w3.org/2000/svg">
<path fill="#231f20" opacity="1.00" d=" M 7.08 14.53 C 23.02 14.48 38.97 14.47 54.92 14.53 C 48.77 20.01 42.43 25.84 34.44 28.42 C 30.68 29.77 26.69 28.41 23.29 26.71 C 17.24 23.59 12.08 19.07 7.08 14.53 Z" />
<path fill="#231f20" opacity="1.00" d=" M 5.24 14.67 C 12.57 21.48 20.57 29.22 30.94 30.52 C 41.36 29.30 49.40 21.49 56.76 14.67 C 56.72 24.95 56.77 35.22 56.74 45.50 C 39.58 45.50 22.42 45.51 5.26 45.50 C 5.24 35.22 5.27 24.94 5.24 14.67 Z" />
</svg>
