<?xml version="1.0" encoding="UTF-8" ?>
<!DOCTYPE svg PUBLIC "-//W3C//DTD SVG 1.1//EN" "http://www.w3.org/Graphics/SVG/1.1/DTD/svg11.dtd">
<svg width="60pt" height="60pt" viewBox="0 0 60 60" version="1.1" xmlns="http://www.w3.org/2000/svg">
<path fill="#1a1a1a" opacity="0.12" d=" M 8.30 0.00 L 21.35 0.00 C 16.56 1.84 11.90 4.24 8.31 7.98 C 7.06 6.82 5.93 5.54 5.11 4.03 C 6.14 2.66 7.17 1.30 8.30 0.00 Z" />
<path fill="#343434" opacity="0.27" d=" M 21.35 0.00 L 23.10 0.00 C 23.73 2.22 24.36 4.45 24.94 6.69 C 20.00 5.39 16.12 9.45 12.41 12.02 C 11.08 10.64 9.69 9.32 8.31 7.98 C 11.90 4.24 16.56 1.84 21.35 0.00 Z" />
<path fill="#1e1e1e" opacity="0.14" d=" M 37.82 0.00 L 51.43 0.00 C 52.94 1.44 55.30 2.52 55.67 4.77 C 54.72 6.74 53.08 8.25 51.53 9.75 C 49.14 4.49 43.06 2.81 38.14 0.81 L 37.82 0.00 Z" />
<path fill="#323333" opacity="0.26" d=" M 38.14 0.81 C 43.06 2.81 49.14 4.49 51.53 9.75 C 50.80 10.41 50.08 11.08 49.37 11.76 C 46.33 7.92 41.96 5.38 37.10 4.67 C 37.45 3.38 37.81 2.10 38.14 0.81 Z" />
<path fill="#3f3f40" opacity="0.36" d=" M 37.10 4.67 C 41.96 5.38 46.33 7.92 49.37 11.76 C 48.34 12.80 47.36 13.88 46.36 14.95 C 43.67 11.80 40.07 9.70 36.06 8.71 C 36.39 7.36 36.74 6.01 37.10 4.67 Z" />
<path fill="#464748" opacity="0.44" d=" M 12.41 12.02 C 16.12 9.45 20.00 5.39 24.94 6.69 C 25.44 8.69 25.94 10.70 26.42 12.70 C 23.18 13.70 20.10 15.19 17.43 17.32 C 15.69 15.62 14.07 13.80 12.41 12.02 Z" />
<path fill="#494a4b" opacity="0.49" d=" M 36.06 8.71 C 40.07 9.70 43.67 11.80 46.36 14.95 C 45.09 16.30 43.78 17.62 42.46 18.91 C 40.07 17.08 37.41 15.64 34.60 14.57 C 35.10 12.62 35.58 10.66 36.06 8.71 Z" />
<path fill="#4d4d4f" opacity="0.60" d=" M 17.43 17.32 C 20.10 15.19 23.18 13.70 26.42 12.70 C 26.79 14.22 27.18 15.73 27.56 17.25 C 25.37 18.40 23.25 19.67 21.22 21.08 C 19.96 19.83 18.71 18.56 17.43 17.32 Z" />
<path fill="#231f20" opacity="1.00" d=" M 28.09 19.56 C 28.83 17.30 29.61 15.05 30.42 12.81 C 31.29 15.41 32.08 18.03 32.96 20.62 C 33.45 21.98 33.99 23.32 34.53 24.67 C 35.02 24.73 36.01 24.84 36.51 24.90 C 39.98 25.09 43.45 24.98 46.92 25.01 C 43.74 27.49 40.53 29.94 37.28 32.35 L 36.88 32.59 C 37.33 34.26 37.89 35.91 38.67 37.46 C 39.33 39.49 39.95 41.54 40.62 43.57 C 40.42 43.66 40.04 43.84 39.85 43.92 C 37.51 42.27 35.17 40.62 32.86 38.93 C 32.01 38.29 31.15 37.66 30.29 37.04 C 29.64 37.63 29.03 38.25 28.39 38.85 C 25.67 40.71 22.91 42.49 20.18 44.33 C 20.53 42.94 21.25 40.17 21.60 38.79 C 22.64 36.78 23.22 34.59 23.88 32.44 C 23.69 32.35 23.29 32.16 23.10 32.07 C 20.09 30.03 17.44 27.49 14.28 25.68 L 13.52 25.28 C 17.35 24.72 21.22 25.19 25.06 24.90 C 25.51 24.79 25.97 24.67 26.41 24.55 C 26.98 22.89 27.57 21.23 28.09 19.56 Z" />
<path fill="#4c4d4f" opacity="0.67" d=" M 34.60 14.57 C 37.41 15.64 40.07 17.08 42.46 18.91 C 40.45 20.88 38.51 22.92 36.51 24.90 C 36.01 24.84 35.02 24.73 34.53 24.67 C 33.99 23.32 33.45 21.98 32.96 20.62 C 33.52 18.61 34.07 16.59 34.60 14.57 Z" />
<path fill="#4b4c4d" opacity="0.73" d=" M 21.22 21.08 C 23.25 19.67 25.37 18.40 27.56 17.25 C 27.69 17.83 27.96 18.98 28.09 19.56 C 27.57 21.23 26.98 22.89 26.41 24.55 C 25.97 24.67 25.51 24.79 25.06 24.90 C 23.78 23.63 22.50 22.36 21.22 21.08 Z" />
<path fill="#313132" opacity="0.25" d=" M 55.27 22.57 C 56.84 22.12 58.43 21.73 60.00 21.26 L 60.00 37.83 C 58.01 37.35 56.00 36.96 54.02 36.45 C 54.61 36.15 55.81 35.54 56.40 35.24 C 57.62 31.04 57.27 26.47 55.27 22.57 Z" />
<path fill="#2e2e2e" opacity="0.23" d=" M 0.00 22.09 C 0.60 22.27 1.81 22.62 2.41 22.79 C 2.54 27.31 2.30 31.82 2.56 36.34 C 3.17 36.59 4.38 37.11 4.99 37.37 C 3.33 37.86 1.65 38.27 0.00 38.77 L 0.00 22.09 Z" />
<path fill="#3e3f40" opacity="0.36" d=" M 2.41 22.79 C 4.66 23.35 6.92 23.83 9.17 24.38 C 8.39 28.28 8.41 32.27 8.82 36.22 C 7.54 36.60 6.27 36.99 4.99 37.37 C 4.38 37.11 3.17 36.59 2.56 36.34 C 2.30 31.82 2.54 27.31 2.41 22.79 Z" />
<path fill="#3f4041" opacity="0.37" d=" M 51.63 23.64 C 52.84 23.28 54.05 22.93 55.27 22.57 C 57.27 26.47 57.62 31.04 56.40 35.24 C 55.81 35.54 54.61 36.15 54.02 36.45 C 53.05 36.21 52.09 35.96 51.12 35.72 C 52.54 31.81 52.38 27.67 51.63 23.64 Z" />
<path fill="#494a4b" opacity="0.49" d=" M 47.37 24.88 C 48.79 24.47 50.21 24.06 51.63 23.64 C 52.38 27.67 52.54 31.81 51.12 35.72 C 49.62 35.33 48.11 34.96 46.61 34.59 C 46.87 31.35 47.14 28.12 47.37 24.88 Z" />
<path fill="#4a4b4c" opacity="0.51" d=" M 9.17 24.38 C 10.61 24.72 12.06 25.03 13.52 25.28 L 14.28 25.68 C 14.22 28.67 14.23 31.67 14.27 34.66 C 12.46 35.19 10.63 35.68 8.82 36.22 C 8.41 32.27 8.39 28.28 9.17 24.38 Z" />
<path fill="#4d4d4f" opacity="0.63" d=" M 46.92 25.01 L 47.37 24.88 C 47.14 28.12 46.87 31.35 46.61 34.59 C 43.49 33.86 40.38 33.14 37.28 32.35 C 40.53 29.94 43.74 27.49 46.92 25.01 Z" />
<path fill="#4d4d4f" opacity="0.65" d=" M 14.28 25.68 C 17.44 27.49 20.09 30.03 23.10 32.07 C 20.16 32.96 17.22 33.81 14.27 34.66 C 14.23 31.67 14.22 28.67 14.28 25.68 Z" />
<path fill="#494a4b" opacity="0.49" d=" M 38.67 37.46 C 41.50 39.73 43.86 42.50 46.39 45.09 C 43.72 48.28 40.08 50.36 36.06 51.32 C 35.66 49.65 35.24 47.97 34.81 46.30 C 36.51 45.55 38.18 44.74 39.85 43.92 C 40.04 43.84 40.42 43.66 40.62 43.57 C 39.95 41.54 39.33 39.49 38.67 37.46 Z" />
<path fill="#4c4d4f" opacity="0.59" d=" M 20.18 44.33 C 22.91 42.49 25.67 40.71 28.39 38.85 C 27.93 42.04 26.95 45.10 26.18 48.22 C 22.66 47.42 19.43 45.76 16.55 43.60 C 18.15 41.92 19.82 40.29 21.60 38.79 C 21.25 40.17 20.53 42.94 20.18 44.33 Z" />
<path fill="#494a4b" opacity="0.63" d=" M 32.86 38.93 C 35.17 40.62 37.51 42.27 39.85 43.92 C 38.18 44.74 36.51 45.55 34.81 46.30 C 34.15 43.85 33.49 41.39 32.86 38.93 Z" />
<path fill="#474849" opacity="0.46" d=" M 13.54 46.70 C 14.53 45.65 15.53 44.62 16.55 43.60 C 19.43 45.76 22.66 47.42 26.18 48.22 C 25.84 49.63 25.50 51.03 25.16 52.44 C 20.82 51.61 16.99 49.37 13.54 46.70 Z" />
<path fill="#3e3f40" opacity="0.36" d=" M 46.39 45.09 C 47.41 46.17 48.45 47.24 49.51 48.29 C 47.38 52.76 42.08 56.30 37.05 55.41 C 36.72 54.05 36.39 52.69 36.06 51.32 C 40.08 50.36 43.72 48.28 46.39 45.09 Z" />
<path fill="#373838" opacity="0.29" d=" M 8.39 52.00 C 10.18 50.30 11.86 48.50 13.54 46.70 C 16.99 49.37 20.82 51.61 25.16 52.44 C 24.52 54.98 23.78 57.49 23.06 60.00 L 20.77 60.00 C 16.19 58.11 11.94 55.48 8.39 52.00 Z" />
<path fill="#282829" opacity="0.19" d=" M 49.51 48.29 C 51.47 50.34 53.95 52.14 54.88 54.93 C 53.21 56.78 51.41 58.49 49.44 60.00 L 38.28 60.00 C 37.86 58.47 37.44 56.95 37.05 55.41 C 42.08 56.30 47.38 52.76 49.51 48.29 Z" />
<path fill="#1b1b1b" opacity="0.12" d=" M 5.06 56.07 C 5.85 54.47 7.10 53.20 8.39 52.00 C 11.94 55.48 16.19 58.11 20.77 60.00 L 8.39 60.00 C 7.16 58.80 6.11 57.43 5.06 56.07 Z" />
</svg>
