<?xml version="1.0" encoding="UTF-8" ?>
<!DOCTYPE svg PUBLIC "-//W3C//DTD SVG 1.1//EN" "http://www.w3.org/Graphics/SVG/1.1/DTD/svg11.dtd">
<svg width="300pt" height="300pt" viewBox="0 0 300 300" version="1.1" xmlns="http://www.w3.org/2000/svg">
<path fill="#00aced" opacity="1.00" d=" M 154.69 92.56 C 160.96 83.87 171.31 78.31 182.01 77.77 C 192.69 77.06 203.47 81.38 210.81 89.15 C 219.00 87.61 226.80 84.43 234.01 80.28 C 231.53 88.68 225.77 96.06 218.26 100.55 C 225.43 99.58 232.38 97.47 239.07 94.74 C 234.15 102.14 227.92 108.64 220.75 113.90 C 221.77 139.90 212.75 166.09 196.15 186.10 C 183.78 201.20 166.83 212.51 148.07 217.95 C 119.14 226.43 86.32 222.57 61.08 205.73 C 79.66 207.84 99.10 202.85 113.95 191.37 C 114.79 190.97 114.55 190.15 114.12 189.54 L 113.69 190.96 C 98.86 189.95 85.28 179.54 80.89 165.29 C 86.19 166.28 91.61 166.07 96.86 164.88 C 80.33 161.30 67.68 145.40 68.19 128.43 C 73.24 131.02 78.74 132.76 84.44 133.03 C 68.84 122.86 63.69 100.05 73.65 84.27 C 91.73 106.83 119.61 120.96 148.45 122.52 C 146.20 112.25 148.34 100.99 154.69 92.56 Z" />
</svg>
